<svg width="139" height="41" viewBox="0 0 139 41" fill="none" xmlns="http://www.w3.org/2000/svg">
<path d="M137.693 36.1908C137.693 38.3225 135.93 40.0492 133.75 40.0492H4.71755C2.53838 40.0492 0.769531 38.3225 0.769531 36.1908V5.42196C0.769531 3.29131 2.53838 1.55859 4.71755 1.55859H133.749C135.93 1.55859 137.692 3.29131 137.692 5.42196L137.693 36.1908Z" fill="black"/>
<path d="M133.333 1.60594C135.708 1.60594 137.64 3.48969 137.64 5.80469V35.8047C137.64 38.1197 135.708 40.0034 133.333 40.0034H5.1282C2.75385 40.0034 0.821794 38.1197 0.821794 35.8047V5.80469C0.821794 3.48969 2.75385 1.60594 5.1282 1.60594H133.333ZM133.333 0.80469H5.1282C2.30897 0.80469 0 3.05594 0 5.80469V35.8047C0 38.5534 2.30897 40.8047 5.1282 40.8047H133.333C136.153 40.8047 138.462 38.5534 138.462 35.8047V5.80469C138.462 3.05594 136.153 0.80469 133.333 0.80469Z" fill="#A6A6A6"/>
<path d="M30.9007 20.5865C30.871 17.3635 33.6074 15.7955 33.7325 15.7225C32.1828 13.5195 29.7807 13.2185 28.9366 13.1945C26.9192 12.9875 24.9623 14.3715 23.9346 14.3715C22.8864 14.3715 21.3038 13.2145 19.5982 13.2485C17.4033 13.2815 15.35 14.5205 14.2238 16.4445C11.8997 20.3675 13.633 26.1325 15.8597 29.3035C16.9735 30.8565 18.2751 32.5905 19.9787 32.5295C21.6453 32.4625 22.2679 31.4935 24.2792 31.4935C26.272 31.4935 26.8566 32.5295 28.5941 32.4905C30.3828 32.4625 31.5089 30.9305 32.5838 29.3635C33.871 27.5835 34.3879 25.8305 34.4084 25.7405C34.3664 25.7265 30.9346 24.4495 30.9007 20.5865Z" fill="white"/>
<path d="M27.6187 11.1085C28.5151 10.0155 29.1284 8.52853 28.9582 7.01953C27.6607 7.07553 26.0382 7.89453 25.1038 8.96353C24.2771 9.90553 23.5387 11.4495 23.7294 12.9015C25.1869 13.0075 26.6833 12.1845 27.6187 11.1085Z" fill="white"/>
<path d="M55.0201 32.308H52.6909L51.415 28.399H46.9801L45.7648 32.308H43.4971L47.8909 19H50.6048L55.0201 32.308ZM51.0304 26.759L49.8766 23.284C49.7545 22.929 49.5258 22.093 49.1883 20.777H49.1473C49.013 21.343 48.7966 22.179 48.4991 23.284L47.3658 26.759H51.0304Z" fill="white"/>
<path d="M66.3197 27.3887C66.3197 29.0207 65.8674 30.3107 64.9628 31.2577C64.1526 32.1007 63.1464 32.5217 61.9454 32.5217C60.649 32.5217 59.7177 32.0677 59.1505 31.1597H59.1095V36.2147H56.9228V25.8677C56.9228 24.8417 56.8951 23.7887 56.8418 22.7087H58.7649L58.8869 24.2297H58.928C59.6572 23.0837 60.7638 22.5117 62.249 22.5117C63.41 22.5117 64.3792 22.9587 65.1546 23.8537C65.9321 24.7497 66.3197 25.9277 66.3197 27.3887ZM64.0921 27.4667C64.0921 26.5327 63.8767 25.7627 63.4438 25.1567C62.971 24.5247 62.3362 24.2087 61.5403 24.2087C61.0008 24.2087 60.5105 24.3847 60.0726 24.7317C59.6336 25.0817 59.3464 25.5387 59.212 26.1047C59.1444 26.3687 59.1105 26.5847 59.1105 26.7547V28.3547C59.1105 29.0527 59.33 29.6417 59.769 30.1227C60.208 30.6037 60.7782 30.8437 61.4797 30.8437C62.3033 30.8437 62.9444 30.5337 63.4028 29.9157C63.8623 29.2967 64.0921 28.4807 64.0921 27.4667Z" fill="white"/>
<path d="M77.64 27.3887C77.64 29.0207 77.1877 30.3107 76.2821 31.2577C75.4728 32.1007 74.4667 32.5217 73.2656 32.5217C71.9692 32.5217 71.038 32.0677 70.4718 31.1597H70.4308V36.2147H68.2441V25.8677C68.2441 24.8417 68.2164 23.7887 68.1631 22.7087H70.0862L70.2082 24.2297H70.2492C70.9774 23.0837 72.0841 22.5117 73.5703 22.5117C74.7303 22.5117 75.6995 22.9587 76.4769 23.8537C77.2513 24.7497 77.64 25.9277 77.64 27.3887ZM75.4123 27.4667C75.4123 26.5327 75.1959 25.7627 74.7631 25.1567C74.2903 24.5247 73.6574 24.2087 72.8605 24.2087C72.32 24.2087 71.8308 24.3847 71.3918 24.7317C70.9528 25.0817 70.6667 25.5387 70.5323 26.1047C70.4656 26.3687 70.4308 26.5847 70.4308 26.7547V28.3547C70.4308 29.0527 70.6503 29.6417 71.0872 30.1227C71.5262 30.6027 72.0964 30.8437 72.8 30.8437C73.6236 30.8437 74.2646 30.5337 74.7231 29.9157C75.1826 29.2967 75.4123 28.4807 75.4123 27.4667Z" fill="white"/>
<path d="M90.2958 28.5757C90.2958 29.7077 89.8927 30.6287 89.0835 31.3397C88.1943 32.1167 86.9563 32.5047 85.3656 32.5047C83.8968 32.5047 82.7194 32.2287 81.8281 31.6757L82.3348 29.8987C83.2948 30.4647 84.3481 30.7487 85.4958 30.7487C86.3194 30.7487 86.9604 30.5667 87.4209 30.2047C87.8794 29.8427 88.1081 29.3567 88.1081 28.7507C88.1081 28.2107 87.9194 27.7557 87.5409 27.3867C87.1645 27.0177 86.5358 26.6747 85.6579 26.3577C83.2681 25.4887 82.0743 24.2157 82.0743 22.5417C82.0743 21.4477 82.4927 20.5507 83.3307 19.8527C84.1656 19.1537 85.2794 18.8047 86.6722 18.8047C87.9143 18.8047 88.9461 19.0157 89.7697 19.4367L89.223 21.1747C88.4538 20.7667 87.584 20.5627 86.6107 20.5627C85.8415 20.5627 85.2404 20.7477 84.8097 21.1157C84.4456 21.4447 84.263 21.8457 84.263 22.3207C84.263 22.8467 84.4712 23.2817 84.8897 23.6237C85.2538 23.9397 85.9153 24.2817 86.8753 24.6507C88.0497 25.1117 88.9122 25.6507 89.4671 26.2687C90.0199 26.8847 90.2958 27.6557 90.2958 28.5757Z" fill="white"/>
<path d="M97.5261 24.3113H95.1158V28.9703C95.1158 30.1553 95.5404 30.7473 96.3917 30.7473C96.7825 30.7473 97.1066 30.7143 97.363 30.6483L97.4235 32.2673C96.9927 32.4243 96.4256 32.5033 95.723 32.5033C94.8594 32.5033 94.1845 32.2463 93.6974 31.7333C93.2122 31.2193 92.9681 30.3573 92.9681 29.1463V24.3093H91.5322V22.7093H92.9681V20.9523L95.1158 20.3203V22.7093H97.5261V24.3113Z" fill="white"/>
<path d="M108.401 27.4306C108.401 28.9056 107.968 30.1166 107.104 31.0636C106.199 32.0386 104.997 32.5246 103.498 32.5246C102.054 32.5246 100.904 32.0576 100.047 31.1236C99.1895 30.1896 98.7607 29.0106 98.7607 27.5896C98.7607 26.1026 99.2018 24.8846 100.087 23.9376C100.97 22.9896 102.162 22.5156 103.66 22.5156C105.104 22.5156 106.266 22.9826 107.143 23.9176C107.982 24.8246 108.401 25.9956 108.401 27.4306ZM106.132 27.4996C106.132 26.6146 105.938 25.8556 105.545 25.2226C105.087 24.4566 104.432 24.0746 103.582 24.0746C102.703 24.0746 102.036 24.4576 101.577 25.2226C101.184 25.8566 100.99 26.6276 100.99 27.5396C100.99 28.4246 101.184 29.1836 101.577 29.8156C102.05 30.5816 102.71 30.9636 103.563 30.9636C104.398 30.9636 105.053 30.5736 105.526 29.7956C105.929 29.1506 106.132 28.3836 106.132 27.4996Z" fill="white"/>
<path d="M115.509 24.5837C115.292 24.5447 115.062 24.5247 114.82 24.5247C114.05 24.5247 113.455 24.8077 113.037 25.3747C112.673 25.8747 112.49 26.5067 112.49 27.2697V32.3047H110.305L110.325 25.7307C110.325 24.6247 110.298 23.6177 110.243 22.7097H112.148L112.228 24.5457H112.288C112.519 23.9147 112.883 23.4067 113.382 23.0257C113.869 22.6827 114.395 22.5117 114.962 22.5117C115.164 22.5117 115.347 22.5257 115.509 22.5507V24.5837Z" fill="white"/>
<path d="M125.288 27.0551C125.288 27.4371 125.262 27.7591 125.208 28.0221H118.648C118.673 28.9701 118.99 29.6951 119.599 30.1951C120.152 30.6421 120.867 30.8661 121.745 30.8661C122.716 30.8661 123.603 30.7151 124.399 30.4121L124.742 31.8921C123.811 32.2881 122.711 32.4851 121.443 32.4851C119.916 32.4851 118.718 32.0471 117.847 31.1721C116.977 30.2971 116.541 29.1221 116.541 27.6481C116.541 26.2011 116.946 24.9961 117.757 24.0351C118.607 23.0091 119.754 22.4961 121.198 22.4961C122.617 22.4961 123.691 23.0091 124.42 24.0351C124.997 24.8501 125.288 25.8581 125.288 27.0551ZM123.203 26.5021C123.217 25.8701 123.074 25.3241 122.778 24.8631C122.399 24.2701 121.818 23.9741 121.035 23.9741C120.321 23.9741 119.739 24.2631 119.295 24.8431C118.931 25.3041 118.714 25.8571 118.648 26.5011H123.203V26.5021Z" fill="white"/>
<path d="M50.3067 10.8153C50.3067 11.9923 49.9447 12.8783 49.2216 13.4733C48.5519 14.0223 47.6001 14.2973 46.3672 14.2973C45.7559 14.2973 45.2329 14.2713 44.7949 14.2193V7.78834C45.3662 7.69834 45.9816 7.65234 46.6462 7.65234C47.8206 7.65234 48.7057 7.90134 49.3026 8.39934C49.9713 8.96234 50.3067 9.76734 50.3067 10.8153ZM49.1734 10.8443C49.1734 10.0813 48.9662 9.49634 48.5519 9.08834C48.1375 8.68134 47.5324 8.47734 46.7354 8.47734C46.397 8.47734 46.1088 8.49934 45.8698 8.54534V13.4343C46.0021 13.4543 46.2442 13.4633 46.5959 13.4633C47.4185 13.4633 48.0534 13.2403 48.5006 12.7943C48.9477 12.3483 49.1734 11.6983 49.1734 10.8443Z" fill="white"/>
<path d="M56.3164 11.8437C56.3164 12.5687 56.1041 13.1627 55.6795 13.6287C55.2344 14.1077 54.6446 14.3467 53.9082 14.3467C53.1985 14.3467 52.6334 14.1177 52.2118 13.6577C51.7913 13.1987 51.5811 12.6197 51.5811 11.9217C51.5811 11.1917 51.7975 10.5927 52.2323 10.1277C52.6672 9.66269 53.2518 9.42969 53.9882 9.42969C54.698 9.42969 55.2682 9.65869 55.7 10.1177C56.1103 10.5637 56.3164 11.1397 56.3164 11.8437ZM55.2016 11.8777C55.2016 11.4427 55.1052 11.0697 54.9134 10.7587C54.6877 10.3827 54.3667 10.1947 53.9493 10.1947C53.5175 10.1947 53.1893 10.3827 52.9636 10.7587C52.7708 11.0697 52.6754 11.4487 52.6754 11.8967C52.6754 12.3317 52.7718 12.7047 52.9636 13.0157C53.1964 13.3917 53.5205 13.5797 53.939 13.5797C54.3493 13.5797 54.6713 13.3887 54.9031 13.0057C55.1021 12.6887 55.2016 12.3127 55.2016 11.8777Z" fill="white"/>
<path d="M64.3733 9.52734L62.8605 14.2413H61.8759L61.2492 12.1943C61.0902 11.6833 60.961 11.1753 60.8605 10.6713H60.841C60.7476 11.1893 60.6184 11.6963 60.4523 12.1943L59.7866 14.2413H58.7907L57.3682 9.52734H58.4728L59.0194 11.7683C59.1517 12.2983 59.2605 12.8033 59.3477 13.2813H59.3671C59.4471 12.8873 59.5794 12.3853 59.7661 11.7783L60.4523 9.52834H61.3282L61.9856 11.7303C62.1446 12.2673 62.2738 12.7843 62.3733 13.2823H62.403C62.4759 12.7973 62.5856 12.2803 62.7312 11.7303L63.3179 9.52834H64.3733V9.52734Z" fill="white"/>
<path d="M69.945 14.2427H68.8701V11.5427C68.8701 10.7107 68.546 10.2947 67.8957 10.2947C67.5768 10.2947 67.3193 10.4087 67.1193 10.6377C66.9214 10.8667 66.8209 11.1367 66.8209 11.4457V14.2417H65.746V10.8757C65.746 10.4617 65.7327 10.0127 65.707 9.52669H66.6516L66.7019 10.2637H66.7316C66.8568 10.0347 67.0434 9.84569 67.2886 9.69469C67.5798 9.51869 67.906 9.42969 68.2629 9.42969C68.7142 9.42969 69.0896 9.57169 69.388 9.85669C69.7593 10.2057 69.945 10.7267 69.945 11.4187V14.2427Z" fill="white"/>
<path d="M72.9098 14.2403H71.8359V7.36328H72.9098V14.2403Z" fill="white"/>
<path d="M79.2383 11.8437C79.2383 12.5687 79.026 13.1627 78.6014 13.6287C78.1563 14.1077 77.5655 14.3467 76.8301 14.3467C76.1193 14.3467 75.5542 14.1177 75.1337 13.6577C74.7132 13.1987 74.5029 12.6197 74.5029 11.9217C74.5029 11.1917 74.7193 10.5927 75.1542 10.1277C75.5891 9.66269 76.1737 9.42969 76.9091 9.42969C77.6199 9.42969 78.1891 9.65869 78.6219 10.1177C79.0322 10.5637 79.2383 11.1397 79.2383 11.8437ZM78.1224 11.8777C78.1224 11.4427 78.026 11.0697 77.8342 10.7587C77.6096 10.3827 77.2875 10.1947 76.8711 10.1947C76.4383 10.1947 76.1101 10.3827 75.8855 10.7587C75.6927 11.0697 75.5973 11.4487 75.5973 11.8967C75.5973 12.3317 75.6937 12.7047 75.8855 13.0157C76.1183 13.3917 76.4424 13.5797 76.8609 13.5797C77.2711 13.5797 77.5922 13.3887 77.824 13.0057C78.024 12.6887 78.1224 12.3127 78.1224 11.8777Z" fill="white"/>
<path d="M84.4409 14.2397H83.4758L83.3958 13.6967H83.366C83.0358 14.1297 82.565 14.3467 81.9537 14.3467C81.4973 14.3467 81.1281 14.2037 80.8501 13.9197C80.5978 13.6617 80.4717 13.3407 80.4717 12.9597C80.4717 12.3837 80.7178 11.9447 81.2132 11.6407C81.7076 11.3367 82.403 11.1877 83.2983 11.1947V11.1067C83.2983 10.4857 82.964 10.1757 82.2942 10.1757C81.8173 10.1757 81.3968 10.2927 81.0337 10.5247L80.8153 9.83669C81.2645 9.56569 81.8194 9.42969 82.4737 9.42969C83.7373 9.42969 84.3712 10.0797 84.3712 11.3797V13.1157C84.3712 13.5867 84.3948 13.9617 84.4409 14.2397ZM83.325 12.6197V11.8927C82.1394 11.8727 81.5466 12.1897 81.5466 12.8427C81.5466 13.0887 81.6142 13.2727 81.7527 13.3957C81.8912 13.5187 82.0676 13.5797 82.2778 13.5797C82.5137 13.5797 82.7342 13.5067 82.9353 13.3617C83.1373 13.2157 83.2614 13.0307 83.3076 12.8037C83.3189 12.7527 83.325 12.6907 83.325 12.6197Z" fill="white"/>
<path d="M90.548 14.2403H89.5942L89.5439 13.4833H89.5141C89.2095 14.0593 88.6906 14.3473 87.9613 14.3473C87.3788 14.3473 86.8936 14.1243 86.509 13.6783C86.1244 13.2323 85.9326 12.6533 85.9326 11.9423C85.9326 11.1793 86.1408 10.5613 86.5593 10.0893C86.9644 9.64928 87.4608 9.42928 88.0516 9.42928C88.7008 9.42928 89.1552 9.64228 89.4136 10.0693H89.4341V7.36328H90.51V12.9703C90.51 13.4293 90.5224 13.8523 90.548 14.2403ZM89.4341 12.2523V11.4663C89.4341 11.3303 89.4239 11.2203 89.4044 11.1363C89.3439 10.8843 89.2136 10.6723 89.0157 10.5013C88.8157 10.3303 88.5747 10.2443 88.2967 10.2443C87.8957 10.2443 87.5818 10.3993 87.3511 10.7103C87.1224 11.0213 87.0065 11.4183 87.0065 11.9033C87.0065 12.3693 87.1162 12.7473 87.3367 13.0383C87.5695 13.3483 87.8834 13.5033 88.2762 13.5033C88.629 13.5033 88.9111 13.3743 89.1254 13.1153C89.3326 12.8763 89.4341 12.5883 89.4341 12.2523Z" fill="white"/>
<path d="M99.7412 11.8437C99.7412 12.5687 99.5289 13.1627 99.1043 13.6287C98.6592 14.1077 98.0705 14.3467 97.333 14.3467C96.6243 14.3467 96.0592 14.1177 95.6366 13.6577C95.2161 13.1987 95.0059 12.6197 95.0059 11.9217C95.0059 11.1917 95.2223 10.5927 95.6571 10.1277C96.092 9.66269 96.6766 9.42969 97.4141 9.42969C98.1228 9.42969 98.6941 9.65869 99.1248 10.1177C99.5351 10.5637 99.7412 11.1397 99.7412 11.8437ZM98.6274 11.8777C98.6274 11.4427 98.531 11.0697 98.3392 10.7587C98.1125 10.3827 97.7925 10.1947 97.3741 10.1947C96.9433 10.1947 96.6151 10.3827 96.3884 10.7587C96.1956 11.0697 96.1002 11.4487 96.1002 11.8967C96.1002 12.3317 96.1966 12.7047 96.3884 13.0157C96.6212 13.3917 96.9453 13.5797 97.3638 13.5797C97.7741 13.5797 98.0971 13.3887 98.3289 13.0057C98.5269 12.6887 98.6274 12.3127 98.6274 11.8777Z" fill="white"/>
<path d="M105.52 14.2427H104.446V11.5427C104.446 10.7107 104.122 10.2947 103.471 10.2947C103.152 10.2947 102.894 10.4087 102.696 10.6377C102.497 10.8667 102.397 11.1367 102.397 11.4457V14.2417H101.321V10.8757C101.321 10.4617 101.309 10.0127 101.283 9.52669H102.227L102.277 10.2637H102.307C102.433 10.0347 102.62 9.84569 102.864 9.69469C103.156 9.51869 103.481 9.42969 103.839 9.42969C104.289 9.42969 104.665 9.57169 104.963 9.85669C105.336 10.2057 105.52 10.7267 105.52 11.4187V14.2427Z" fill="white"/>
<path d="M112.754 10.3106H111.571V12.6006C111.571 13.1826 111.781 13.4736 112.197 13.4736C112.39 13.4736 112.55 13.4576 112.676 13.4246L112.704 14.2196C112.492 14.2976 112.213 14.3366 111.869 14.3366C111.444 14.3366 111.114 14.2106 110.875 13.9586C110.635 13.7066 110.516 13.2826 110.516 12.6876V10.3106H109.81V9.52556H110.516V8.66156L111.57 8.35156V9.52456H112.753V10.3106H112.754Z" fill="white"/>
<path d="M118.444 14.2403H117.368V11.5603C117.368 10.7153 117.044 10.2923 116.395 10.2923C115.896 10.2923 115.556 10.5373 115.369 11.0273C115.337 11.1303 115.319 11.2563 115.319 11.4043V14.2393H114.245V7.36328H115.319V10.2043H115.339C115.678 9.68728 116.163 9.42928 116.792 9.42928C117.237 9.42928 117.605 9.57128 117.897 9.85628C118.262 10.2113 118.444 10.7393 118.444 11.4373V14.2403Z" fill="white"/>
<path d="M124.314 11.6609C124.314 11.8489 124.3 12.0069 124.274 12.1359H121.05C121.065 12.6019 121.219 12.9569 121.517 13.2029C121.79 13.4229 122.142 13.5329 122.573 13.5329C123.049 13.5329 123.484 13.4589 123.876 13.3099L124.044 14.0379C123.586 14.2319 123.046 14.3289 122.422 14.3289C121.673 14.3289 121.083 14.1139 120.657 13.6839C120.228 13.2539 120.016 12.6769 120.016 11.9529C120.016 11.2419 120.214 10.6499 120.613 10.1779C121.029 9.67387 121.592 9.42188 122.303 9.42188C122.998 9.42188 123.526 9.67387 123.883 10.1779C124.172 10.5779 124.314 11.0729 124.314 11.6609ZM123.288 11.3899C123.297 11.0789 123.226 10.8109 123.08 10.5849C122.894 10.2939 122.609 10.1479 122.225 10.1479C121.874 10.1479 121.588 10.2899 121.369 10.5749C121.191 10.8019 121.085 11.0729 121.05 11.3899H123.288Z" fill="white"/>
</svg>
