<svg width="317" height="43" viewBox="0 0 317 43" fill="none" xmlns="http://www.w3.org/2000/svg">
<g clip-path="url(#clip0_2418_5045)">
<rect x="3" y="3.5" width="36" height="36" rx="18" fill="#F07575"/>
<mask id="mask0_2418_5045" style="mask-type:alpha" maskUnits="userSpaceOnUse" x="3" y="3" width="36" height="37">
<path d="M21 39.5C11.0504 39.5 3 31.4376 3 21.5C3 11.5504 11.0624 3.5 21 3.5C30.9496 3.5 39 11.5624 39 21.5C39.0119 31.4496 30.9496 39.5 21 39.5Z" fill="#F7C0B5"/>
</mask>
<g mask="url(#mask0_2418_5045)">
<path d="M31.128 36.6575C31.044 36.7175 30.948 36.7775 30.864 36.8375C30.768 36.8975 30.684 36.9575 30.588 37.0055C30.504 37.0535 30.432 37.1015 30.348 37.1495C30.336 37.1615 30.324 37.1615 30.312 37.1735C30.036 37.3415 29.748 37.4975 29.46 37.6415C29.376 37.6895 29.28 37.7375 29.196 37.7735C29.196 37.7735 29.184 37.7855 29.172 37.7855C29.076 37.8335 28.98 37.8815 28.884 37.9295C28.692 38.0255 28.488 38.1095 28.296 38.1935C28.2 38.2415 28.092 38.2775 27.996 38.3135C27.9 38.3495 27.792 38.3975 27.696 38.4335C27.6 38.4695 27.492 38.5175 27.396 38.5535C27.396 38.5535 27.396 38.5535 27.384 38.5535C27.288 38.5895 27.18 38.6255 27.084 38.6615C26.868 38.7335 26.64 38.8055 26.424 38.8775C26.352 38.9015 26.268 38.9255 26.196 38.9495C25.968 39.0215 25.74 39.0815 25.512 39.1295C25.428 39.1535 25.344 39.1655 25.248 39.1895C25.032 39.2375 24.804 39.2855 24.588 39.3335C24.54 39.3455 24.504 39.3455 24.456 39.3575C24.384 39.3695 24.3 39.3815 24.228 39.3935C24.12 39.4055 24.024 39.4295 23.916 39.4415C23.868 39.4535 23.82 39.4535 23.772 39.4655C23.712 39.4775 23.64 39.4895 23.568 39.4895C23.376 39.5135 23.172 39.5375 22.98 39.5615C22.92 39.5735 22.848 39.5735 22.788 39.5855H22.776C22.692 39.5975 22.608 39.5975 22.524 39.6095C22.44 39.6215 22.356 39.6215 22.272 39.6215C22.224 39.6215 22.164 39.6335 22.116 39.6335C22.02 39.6335 21.936 39.6455 21.852 39.6455C21.732 39.6455 21.624 39.6575 21.504 39.6575C21.384 39.6575 21.276 39.6575 21.156 39.6575C21.072 39.6575 20.988 39.6575 20.904 39.6575C15.852 39.5855 11.292 37.4375 8.05204 34.0295C8.05204 34.0295 8.05204 34.0175 8.04004 34.0175C8.41204 33.2855 9.79204 31.9655 11.232 30.8735C13.056 29.4935 15.636 28.6415 15.636 28.6415C15.636 28.6415 17.328 28.3655 23.604 29.6735C28.392 30.6815 30.432 34.7735 31.128 36.6575Z" fill="#FEE4BF"/>
<path d="M24.9361 32.9977C24.6841 34.2337 23.0521 34.9657 20.3041 33.8617C16.9321 32.4937 15.6361 28.6417 15.6361 28.6417C15.4561 25.8817 15.0361 23.5177 15.0361 23.5177C18.9361 23.1817 23.5441 27.7417 23.5441 27.7417L24.0721 29.9977C24.1201 30.1897 24.2161 30.3577 24.3601 30.4777C24.6121 30.9097 25.1041 32.2057 24.9361 32.9977Z" fill="#FEE4BF"/>
<path d="M24.36 30.4892C22.068 30.3692 20.376 30.0333 18.564 26.7812C20.1 28.1373 21.912 28.6532 23.82 28.8932L24.072 29.9972C24.12 30.2012 24.216 30.3692 24.36 30.4892Z" fill="#EFBDA5"/>
<path d="M29.0999 16.0293C29.3159 17.0373 29.4239 17.8533 28.8359 20.5413C28.2479 23.2293 29.3759 25.9173 26.5439 28.3773C24.6359 30.0333 21.2999 30.3453 18.6359 28.5333C17.7359 27.9213 16.9079 27.0693 16.2359 25.9533C15.7079 25.0773 15.0959 24.2493 14.4119 23.4933C13.4639 22.4613 12.3239 20.3853 12.8879 16.7133C13.7999 10.7373 19.7159 10.0533 23.2079 10.7133C26.6999 11.3733 28.5119 13.3653 29.0999 16.0293Z" fill="#FEE4BF"/>
<path d="M17.6162 20.7211C17.6162 20.7211 17.2442 18.9211 15.4922 19.1371C13.9802 19.3291 13.4522 22.9531 16.8842 23.9611" fill="#FEE4BF"/>
<path d="M16.776 22.3179C16.776 22.3179 16.344 22.0419 16.392 21.5619C16.464 20.9979 16.392 20.6499 16.128 20.5419C15.468 20.2659 15.336 21.0339 15.36 21.1299" stroke="#423232" stroke-width="0.355798" stroke-miterlimit="10" stroke-linecap="round" stroke-linejoin="round"/>
<path d="M25.9318 23.482C25.9318 23.482 26.3878 23.506 26.8198 22.99C27.0598 22.702 27.2638 22.342 27.1318 22.234C26.9998 22.114 24.8278 22.45 24.6838 22.738C24.5398 23.026 25.3798 23.482 25.9318 23.482Z" fill="#EFBDA5"/>
<path d="M26.292 19.4492C26.292 19.4492 26.316 20.5892 27.048 21.8612C27.372 22.4252 26.88 23.3492 25.812 23.5052" stroke="#423232" stroke-width="0.355798" stroke-miterlimit="10" stroke-linecap="round" stroke-linejoin="round"/>
<path opacity="0.42" d="M19.7882 24.0927C20.4709 24.0927 21.0242 23.6361 21.0242 23.0727C21.0242 22.5094 20.4709 22.0527 19.7882 22.0527C19.1056 22.0527 18.5522 22.5094 18.5522 23.0727C18.5522 23.6361 19.1056 24.0927 19.7882 24.0927Z" fill="#F2A5B2"/>
<path opacity="0.42" d="M28.6442 22.0781C28.6082 22.7501 28.6202 23.4101 28.5722 24.0701C28.0442 23.9501 27.6602 23.5541 27.6602 23.0861C27.6602 22.5821 28.0802 22.1741 28.6442 22.0781Z" fill="#F2A5B2"/>
<path d="M24.6142 29.42C24.6142 29.42 22.8142 29.948 20.3182 29.132C17.8222 28.316 15.3862 26.168 15.3862 26.168C15.3862 26.168 14.5942 26.18 14.2942 26.78C14.0062 27.38 14.0182 28.616 13.5622 28.952C13.4542 29.024 13.1542 29.108 12.7102 29.228C11.9902 29.432 10.9222 29.744 9.84218 30.356C9.03818 30.812 8.22218 31.424 7.53818 32.264C7.22618 32.648 6.95018 33.08 6.71018 33.572C4.81418 37.424 5.63018 42.824 5.63018 42.824H34.9582C34.9582 42.824 34.1062 36.152 32.2702 33.956C30.4342 31.76 26.9302 29.984 25.8982 29.516V28.82C25.9102 28.82 25.2742 29.24 24.6142 29.42Z" fill="#48D89E"/>
<mask id="mask1_2418_5045" style="mask-type:alpha" maskUnits="userSpaceOnUse" x="5" y="26" width="30" height="17">
<path d="M24.6142 29.42C24.6142 29.42 22.8142 29.948 20.3182 29.132C17.8222 28.316 15.3862 26.168 15.3862 26.168C15.3862 26.168 14.5942 26.18 14.2942 26.78C14.0062 27.38 14.0182 28.616 13.5622 28.952C13.4542 29.024 13.1542 29.108 12.7102 29.228C11.9902 29.432 10.9222 29.744 9.84218 30.356C9.03818 30.812 8.22218 31.424 7.53818 32.264C7.22618 32.648 6.95018 33.08 6.71018 33.572C4.81418 37.424 5.63018 42.824 5.63018 42.824H34.9582C34.9582 42.824 34.1062 36.152 32.2702 33.956C30.4342 31.76 26.9302 29.984 25.8982 29.516V28.82C25.9102 28.82 25.2742 29.24 24.6142 29.42Z" fill="#48D89E"/>
</mask>
<g mask="url(#mask1_2418_5045)">
<path d="M10.3584 34.003C11.0609 34.003 11.6304 33.4335 11.6304 32.731C11.6304 32.0285 11.0609 31.459 10.3584 31.459C9.65592 31.459 9.08643 32.0285 9.08643 32.731C9.08643 33.4335 9.65592 34.003 10.3584 34.003Z" fill="#FCED7E"/>
<path d="M17.5943 33.4151C18.2968 33.4151 18.8663 32.8456 18.8663 32.1431C18.8663 31.4406 18.2968 30.8711 17.5943 30.8711C16.8918 30.8711 16.3223 31.4406 16.3223 32.1431C16.3223 32.8456 16.8918 33.4151 17.5943 33.4151Z" fill="#FCED7E"/>
<path d="M23.0664 30.7159C23.7689 30.7159 24.3384 30.1464 24.3384 29.4439C24.3384 28.7414 23.7689 28.1719 23.0664 28.1719C22.3639 28.1719 21.7944 28.7414 21.7944 29.4439C21.7944 30.1464 22.3639 30.7159 23.0664 30.7159Z" fill="#FCED7E"/>
<path d="M15.3384 39.6436C16.0409 39.6436 16.6104 39.0741 16.6104 38.3716C16.6104 37.6691 16.0409 37.0996 15.3384 37.0996C14.6359 37.0996 14.0664 37.6691 14.0664 38.3716C14.0664 39.0741 14.6359 39.6436 15.3384 39.6436Z" fill="#FCED7E"/>
<path d="M30.1465 38.9952C30.849 38.9952 31.4185 38.4257 31.4185 37.7232C31.4185 37.0207 30.849 36.4512 30.1465 36.4512C29.444 36.4512 28.8745 37.0207 28.8745 37.7232C28.8745 38.4257 29.444 38.9952 30.1465 38.9952Z" fill="#FCED7E"/>
<path d="M23.1382 37.9639C23.8407 37.9639 24.4102 37.3944 24.4102 36.6919C24.4102 35.9894 23.8407 35.4199 23.1382 35.4199C22.4357 35.4199 21.8662 35.9894 21.8662 36.6919C21.8662 37.3944 22.4357 37.9639 23.1382 37.9639Z" fill="#FCED7E"/>
<path d="M29.1626 32.8038C29.8651 32.8038 30.4346 32.2343 30.4346 31.5318C30.4346 30.8293 29.8651 30.2598 29.1626 30.2598C28.4601 30.2598 27.8906 30.8293 27.8906 31.5318C27.8906 32.2343 28.4601 32.8038 29.1626 32.8038Z" fill="#FCED7E"/>
</g>
<path d="M25.9101 29.516C25.9101 29.516 26.0661 30.596 25.7901 31.208C25.3461 32.216 22.2621 33.368 18.5301 32.024C15.5661 30.956 14.1141 29.48 14.0781 29.252" stroke="#329369" stroke-width="0.355798" stroke-miterlimit="10" stroke-linecap="round" stroke-linejoin="round"/>
<path d="M16.3225 27.3926C16.2625 27.4646 16.2025 27.5606 16.1545 27.6806C15.9865 28.0886 15.9385 28.9406 15.9385 28.9406" stroke="#329369" stroke-width="0.355798" stroke-miterlimit="10" stroke-linecap="round" stroke-linejoin="round"/>
<path d="M18.3501 28.6289C18.3021 28.7249 18.2541 28.8329 18.2301 28.9529C18.1701 29.2649 18.0981 30.2489 18.0981 30.2489" stroke="#329369" stroke-width="0.355798" stroke-miterlimit="10" stroke-linecap="round" stroke-linejoin="round"/>
<path d="M20.3904 29.4688C20.3664 29.5647 20.3424 29.6847 20.3304 29.8287C20.3064 29.9967 20.3184 31.0167 20.3184 31.0167" stroke="#329369" stroke-width="0.355798" stroke-miterlimit="10" stroke-linecap="round" stroke-linejoin="round"/>
<path d="M22.5742 29.9473C22.5982 30.2233 22.6102 30.6073 22.5742 31.0753" stroke="#329369" stroke-width="0.355798" stroke-miterlimit="10" stroke-linecap="round" stroke-linejoin="round"/>
<path d="M24.4102 29.8516C24.4462 30.0796 24.4822 30.3916 24.4942 30.7876" stroke="#329369" stroke-width="0.355798" stroke-miterlimit="10" stroke-linecap="round" stroke-linejoin="round"/>
<path d="M15.0142 26.2168C14.7262 26.3248 14.3422 26.6128 14.1982 27.4528" stroke="#329369" stroke-width="0.355798" stroke-miterlimit="10" stroke-linecap="round" stroke-linejoin="round"/>
<path d="M27.3262 30.2243C26.7142 29.8883 26.2102 29.6483 25.9102 29.5163V28.8203" stroke="#329369" stroke-width="0.355798" stroke-miterlimit="10" stroke-linecap="round" stroke-linejoin="round"/>
<path d="M23.6529 18.0822C23.9136 18.1182 24.1151 17.8422 24.0203 17.5782C23.9729 17.4342 23.8899 17.3022 23.7596 17.2182C23.3567 16.9662 21.8517 16.9422 21.0578 17.5182C20.3586 18.0462 22.4679 17.9142 23.6529 18.0822Z" fill="#423232"/>
<path d="M26.9356 18.2145C26.7223 18.2145 26.592 17.9385 26.6986 17.7105C26.7579 17.5905 26.8408 17.4825 26.9593 17.4225C27.3267 17.2425 28.3102 17.3505 28.7487 17.9625C29.1397 18.5025 27.9192 18.2025 26.9356 18.2145Z" fill="#423232"/>
<path d="M23.238 19.5942C22.4796 19.2102 21.2827 19.4982 21.2827 19.4982" stroke="#423232" stroke-width="0.355798" stroke-miterlimit="10" stroke-linecap="round" stroke-linejoin="round"/>
<path d="M27.9188 19.8333C27.9188 19.8333 27.6107 19.4973 26.4731 19.7613" stroke="#423232" stroke-width="0.355798" stroke-miterlimit="10" stroke-linecap="round" stroke-linejoin="round"/>
<path d="M25.455 24.9198C25.1585 25.0503 25.0162 24.7894 24.5537 25.0147C24.2216 25.1689 24.0437 25.2163 23.6405 24.9791C23.3796 24.8131 23.0593 25.0503 22.751 24.5996" stroke="#423232" stroke-width="0.355798" stroke-miterlimit="10" stroke-linecap="round" stroke-linejoin="round"/>
<path d="M32.1445 29.3934C31.4725 27.9054 30.9565 28.1094 31.4245 26.7654C31.8925 25.4334 31.2925 24.4854 30.0565 23.2254C28.8805 22.0254 28.7605 20.7174 28.7965 20.5254C28.6885 21.0294 28.6405 21.5454 28.6165 22.0494C28.5805 22.7214 28.5925 23.3814 28.5445 24.0414C28.4485 25.5174 28.1005 26.9694 26.5165 28.3374C25.8205 28.9374 24.9325 29.3694 23.9485 29.5734C23.6845 30.3774 24.0805 30.9534 24.9445 31.0494C25.8085 31.1454 26.1685 32.4414 28.1245 33.0534C31.0525 34.0014 32.8165 30.8814 32.1445 29.3934Z" fill="#423232"/>
<path d="M26.6722 14.8748C26.9242 15.0068 27.1402 14.8868 27.2722 14.6228C28.6642 14.4068 28.9882 17.1908 29.0362 17.3588C29.0842 17.5388 29.1082 18.0428 29.0122 19.4228C28.9522 20.1908 33.4162 14.7428 29.3362 12.4388C29.6362 11.9948 29.4202 9.7868 26.9122 9.2468C26.0122 9.0548 24.8362 9.8948 23.3602 9.5708C17.5882 8.2868 11.6002 9.5108 12.0682 17.1308C12.1762 18.7988 12.2842 20.5988 9.45219 21.7988C6.16419 23.1908 6.33219 26.8268 8.64819 27.5708C9.60819 27.8828 6.44019 30.0428 8.28819 31.9628C9.24819 32.9708 10.9642 30.9308 12.7042 32.0348C15.3322 33.7028 16.6402 32.9468 17.1562 32.2868C18.2122 30.9428 16.9042 28.2428 16.9042 28.2428C16.9042 28.2428 17.4202 27.4148 17.5882 26.9708C18.4042 24.7868 16.4602 23.8028 16.4602 23.8028C13.4602 22.6508 14.0002 19.3028 15.4642 19.1108C17.0002 18.9188 17.4802 20.2868 17.5642 20.6228C17.5642 20.6228 18.9202 22.4948 21.5362 18.2228C24.1282 13.9508 25.5442 14.2628 26.6722 14.8748Z" fill="#423232"/>
<path d="M15.9473 23.0352V25.0752" stroke="#FFDE55" stroke-width="0.355798" stroke-miterlimit="10" stroke-linecap="round" stroke-linejoin="round"/>
<path d="M17.5675 27.8111C17.2435 28.1351 16.7995 28.3391 16.2955 28.3391C15.3235 28.3391 14.5195 27.5471 14.5195 26.5631C14.5195 25.5911 15.3115 24.7871 16.2955 24.7871C16.7875 24.7871 17.2435 24.9911 17.5675 25.3151C17.3515 25.1951 17.1115 25.1231 16.8475 25.1231C16.0555 25.1231 15.4075 25.7711 15.4075 26.5631C15.4075 27.3551 16.0555 28.0031 16.8475 28.0031C17.1115 28.0151 17.3515 27.9431 17.5675 27.8111Z" fill="#FFDE55"/>
<path d="M15.9473 27.2832C16.3383 27.2832 16.6553 26.9662 16.6553 26.5752C16.6553 26.1842 16.3383 25.8672 15.9473 25.8672C15.5562 25.8672 15.2393 26.1842 15.2393 26.5752C15.2393 26.9662 15.5562 27.2832 15.9473 27.2832Z" fill="#FF6B57"/>
<path d="M29.6396 25.3402C29.4236 25.2202 29.1836 25.1482 28.9196 25.1482C28.7276 25.1482 28.5596 25.1842 28.3916 25.2562C28.4156 25.1122 28.4516 24.9682 28.4636 24.8242C28.9316 24.8362 29.3396 25.0282 29.6396 25.3402Z" fill="#FFDE55"/>
<path d="M29.6515 27.811C29.3275 28.135 28.8835 28.339 28.3795 28.339C27.8755 28.339 27.4075 28.123 27.0835 27.775C27.2755 27.559 27.4435 27.343 27.5995 27.127C27.8155 27.643 28.3315 27.991 28.9195 27.991C29.1835 28.015 29.4355 27.943 29.6515 27.811Z" fill="#FFDE55"/>
<path d="M28.7393 26.5763C28.7393 26.9723 28.4273 27.2843 28.0313 27.2843C27.8753 27.2843 27.7313 27.2363 27.6113 27.1403C27.8873 26.7323 28.0913 26.3123 28.2233 25.9043C28.5113 25.9763 28.7393 26.2523 28.7393 26.5763Z" fill="#FF6B57"/>
</g>
</g>
<rect x="1.5" y="2" width="39" height="39" rx="19.5" stroke="white" stroke-width="3"/>
<g clip-path="url(#clip1_2418_5045)">
<rect x="29" y="3.5" width="36" height="36" rx="18" fill="#FBE36A"/>
<mask id="mask2_2418_5045" style="mask-type:alpha" maskUnits="userSpaceOnUse" x="29" y="3" width="36" height="37">
<path d="M47 39.5C37.0504 39.5 29 31.4376 29 21.5C29 11.5504 37.0624 3.5 47 3.5C56.9496 3.5 65 11.5624 65 21.5C65.0119 31.4496 56.9496 39.5 47 39.5Z" fill="#F7C0B5"/>
</mask>
<g mask="url(#mask2_2418_5045)">
<path d="M57.0797 36.6575C56.9957 36.7175 56.8997 36.7775 56.8157 36.8375C56.7197 36.8975 56.6357 36.9575 56.5397 37.0055C56.4557 37.0535 56.3837 37.1015 56.2997 37.1495C56.2877 37.1615 56.2757 37.1615 56.2637 37.1735C55.9877 37.3415 55.6997 37.4975 55.4117 37.6415C55.3277 37.6895 55.2317 37.7375 55.1477 37.7735C55.1477 37.7735 55.1357 37.7855 55.1237 37.7855C55.0277 37.8335 54.9317 37.8815 54.8357 37.9295C54.6437 38.0255 54.4397 38.1095 54.2477 38.1935C54.1517 38.2415 54.0437 38.2775 53.9477 38.3135C53.8517 38.3495 53.7437 38.3975 53.6477 38.4335C53.5517 38.4695 53.4437 38.5175 53.3477 38.5535C53.3477 38.5535 53.3477 38.5535 53.3357 38.5535C53.2397 38.5895 53.1317 38.6255 53.0357 38.6615C52.8197 38.7335 52.5917 38.8055 52.3757 38.8775C52.3037 38.9015 52.2197 38.9255 52.1477 38.9495C51.9197 39.0215 51.6917 39.0815 51.4637 39.1295C51.3797 39.1535 51.2957 39.1655 51.1997 39.1895C50.9837 39.2375 50.7557 39.2855 50.5397 39.3335C50.4917 39.3455 50.4557 39.3455 50.4077 39.3575C50.3357 39.3695 50.2517 39.3815 50.1797 39.3935C50.0717 39.4055 49.9757 39.4295 49.8677 39.4415C49.8197 39.4535 49.7717 39.4535 49.7237 39.4655C49.6637 39.4775 49.5917 39.4895 49.5197 39.4895C49.3277 39.5135 49.1237 39.5375 48.9317 39.5615C48.8717 39.5735 48.7997 39.5735 48.7397 39.5855H48.7277C48.6437 39.5975 48.5597 39.5975 48.4757 39.6095C48.3917 39.6215 48.3077 39.6215 48.2237 39.6215C48.1757 39.6215 48.1157 39.6335 48.0677 39.6335C47.9717 39.6335 47.8877 39.6455 47.8037 39.6455C47.6837 39.6455 47.5757 39.6575 47.4557 39.6575C47.3357 39.6575 47.2277 39.6575 47.1077 39.6575C47.0237 39.6575 46.9397 39.6575 46.8557 39.6575C41.8037 39.5855 37.2437 37.4375 34.0037 34.0295C34.0037 34.0295 34.0037 34.0175 33.9917 34.0175C34.3637 33.2855 35.7437 31.9655 37.1837 30.8735C39.0077 29.4935 41.5877 28.6415 41.5877 28.6415C41.5877 28.6415 43.2797 28.3655 49.5557 29.6735C54.3437 30.6815 56.3837 34.7735 57.0797 36.6575Z" fill="#F7D3B5"/>
<path d="M50.8878 32.9977C50.6358 34.2337 49.0038 34.9657 46.2558 33.8617C42.8838 32.4937 41.5878 28.6417 41.5878 28.6417C41.4078 25.8817 40.9878 23.5177 40.9878 23.5177C44.8878 23.1817 49.4958 27.7417 49.4958 27.7417L50.0238 29.9977C50.0718 30.1897 50.1678 30.3577 50.3118 30.4777C50.5638 30.9097 51.0558 32.2057 50.8878 32.9977Z" fill="#F7D3B5"/>
<path d="M50.3116 30.4892C48.0196 30.3692 46.3276 30.0332 44.5156 26.7812C46.0516 28.1372 47.8636 28.6532 49.7716 28.8932L50.0236 29.9972C50.0716 30.2012 50.1676 30.3692 50.3116 30.4892Z" fill="#EFBDA5"/>
<path d="M55.0515 16.0293C55.2675 17.0373 55.3755 17.8533 54.7875 20.5413C54.1995 23.2293 55.3275 25.9173 52.4955 28.3773C50.5875 30.0333 47.2515 30.3453 44.5875 28.5333C43.6875 27.9213 42.8595 27.0693 42.1875 25.9533C41.6595 25.0773 41.0475 24.2493 40.3635 23.4933C39.4155 22.4613 38.2755 20.3853 38.8395 16.7133C39.7515 10.7373 45.6675 10.0533 49.1595 10.7133C52.6515 11.3733 54.4635 13.3653 55.0515 16.0293Z" fill="#F7D3B5"/>
<path d="M43.5679 20.7211C43.5679 20.7211 43.1959 18.9211 41.4439 19.1371C39.9319 19.3291 39.4039 22.9531 42.8359 23.9611" fill="#F7D3B5"/>
<path d="M42.7277 22.3179C42.7277 22.3179 42.2957 22.0419 42.3437 21.5619C42.4157 20.9979 42.3437 20.6499 42.0797 20.5419C41.4197 20.2659 41.2877 21.0339 41.3117 21.1299" stroke="#423232" stroke-width="0.373253" stroke-miterlimit="10" stroke-linecap="round" stroke-linejoin="round"/>
<path d="M51.884 23.482C51.884 23.482 52.34 23.506 52.772 22.99C53.012 22.702 53.216 22.342 53.084 22.234C52.952 22.114 50.78 22.45 50.636 22.738C50.492 23.026 51.332 23.482 51.884 23.482Z" fill="#EFBDA5"/>
<path d="M52.2437 19.4492C52.2437 19.4492 52.2677 20.5892 52.9997 21.8612C53.3237 22.4252 52.8317 23.3492 51.7637 23.5052" stroke="#423232" stroke-width="0.373253" stroke-miterlimit="10" stroke-linecap="round" stroke-linejoin="round"/>
<path opacity="0.42" d="M45.7399 24.0927C46.4225 24.0927 46.9759 23.6361 46.9759 23.0727C46.9759 22.5094 46.4225 22.0527 45.7399 22.0527C45.0573 22.0527 44.5039 22.5094 44.5039 23.0727C44.5039 23.6361 45.0573 24.0927 45.7399 24.0927Z" fill="#ED938A"/>
<path opacity="0.42" d="M54.5958 22.0781C54.5598 22.7501 54.5718 23.4101 54.5238 24.0701C53.9958 23.9501 53.6118 23.5541 53.6118 23.0861C53.6118 22.5821 54.0318 22.1741 54.5958 22.0781Z" fill="#ED938A"/>
<path d="M61.0743 44.0791H30.7383C30.7383 44.0791 30.9183 38.5111 32.7423 34.5391C34.1223 31.5391 37.3743 29.8711 39.7983 29.0071C40.4823 28.7671 41.1063 28.5871 41.5863 28.4551C41.5863 28.5151 41.5983 28.5631 41.5983 28.6231C41.5983 28.6231 42.8943 32.4751 46.2663 33.8431C49.0143 34.9591 50.6463 34.2151 50.8983 32.9791C51.0543 32.1871 50.5623 30.8911 50.3103 30.4711C50.1663 30.3511 50.0703 30.1711 50.0223 29.9911L49.9263 29.5951C50.1543 29.5471 50.3703 29.4871 50.5863 29.4151C50.6583 29.3911 50.7183 29.3671 50.7903 29.3431C52.3383 29.7511 54.6663 30.7231 57.4143 33.0271C60.5223 35.6311 61.0743 44.0791 61.0743 44.0791Z" fill="#CE3E3E"/>
<mask id="mask3_2418_5045" style="mask-type:alpha" maskUnits="userSpaceOnUse" x="30" y="28" width="32" height="17">
<path d="M61.0743 44.0791H30.7383C30.7383 44.0791 30.9183 38.5111 32.7423 34.5391C34.1223 31.5391 37.3743 29.8711 39.7983 29.0071C40.4823 28.7671 41.1063 28.5871 41.5863 28.4551C41.5863 28.5151 41.5983 28.5631 41.5983 28.6231C41.5983 28.6231 42.8943 32.4751 46.2663 33.8431C49.0143 34.9591 50.6463 34.2151 50.8983 32.9791C51.0543 32.1871 50.5623 30.8911 50.3103 30.4711C50.1663 30.3511 50.0703 30.1711 50.0223 29.9911L49.9263 29.5951C50.1543 29.5471 50.3703 29.4871 50.5863 29.4151C50.6583 29.3911 50.7183 29.3671 50.7903 29.3431C52.3383 29.7511 54.6663 30.7231 57.4143 33.0271C60.5223 35.6311 61.0743 44.0791 61.0743 44.0791Z" fill="#CE3E3E"/>
</mask>
<g mask="url(#mask3_2418_5045)">
<path d="M43.1898 30.5948L41.5776 32.207L43.1898 33.8192L44.802 32.207L43.1898 30.5948Z" fill="white"/>
<path d="M49.5038 30.6007L47.8916 32.2129L49.5038 33.8251L51.116 32.2129L49.5038 30.6007Z" fill="white"/>
<path d="M36.8676 30.5987L35.2554 32.2109L36.8676 33.8231L38.4797 32.2109L36.8676 30.5987Z" fill="white"/>
<path d="M55.7416 30.5948L54.1294 32.207L55.7416 33.8192L57.3538 32.207L55.7416 30.5948Z" fill="white"/>
<path d="M40.2699 36.8409L38.6577 38.4531L40.2699 40.0653L41.8821 38.4531L40.2699 36.8409Z" fill="white"/>
<path d="M46.5922 36.837L44.98 38.4492L46.5922 40.0614L48.2044 38.4492L46.5922 36.837Z" fill="white"/>
<path d="M52.8217 36.8409L51.2095 38.4531L52.8217 40.0653L54.4338 38.4531L52.8217 36.8409Z" fill="white"/>
</g>
<path d="M48.9304 33.3494C48.9304 33.3494 48.1024 33.9735 48.2824 34.5615C48.4504 35.1495 50.0584 35.0535 50.3704 34.5615C50.6704 34.0695 49.3264 33.2414 48.9304 33.3494Z" fill="#CE3E3E"/>
<path d="M48.9185 33.3391C48.9305 33.3511 48.9305 33.3511 48.9425 33.3631C48.9425 33.3511 48.9425 33.3391 48.9425 33.3391C48.9305 33.3271 48.9185 33.3271 48.9185 33.3391Z" fill="white"/>
<path d="M45.7383 32.8581C42.3663 31.4901 41.5983 28.6221 41.5983 28.6221C41.5983 28.5621 41.5863 28.5141 41.5863 28.4541C41.5743 28.2741 41.5383 27.7581 41.5143 27.5781C41.2983 27.6501 41.0343 27.7941 40.7943 27.9261C40.3623 28.1781 40.0143 28.5381 39.7983 28.9821C39.7983 28.9941 39.7863 28.9941 39.7863 29.0061C39.7623 32.1621 42.8463 34.5741 45.2583 35.4381C46.7223 35.9661 48.3663 35.2101 48.8343 33.7341C48.8703 33.6021 48.9063 33.4821 48.9303 33.3501C48.9183 33.3381 48.9183 33.3381 48.9063 33.3261C48.1263 33.4941 47.0583 33.3861 45.7383 32.8581Z" fill="white"/>
<path d="M51.8702 32.3543C51.6662 30.6863 51.1262 30.0383 50.5982 29.4023C50.3822 29.4743 50.0222 29.5583 49.7942 29.6063C49.7942 29.6063 50.5742 30.6143 50.3702 31.9823C50.2742 32.6303 49.7822 33.1223 48.9422 33.3143C48.9422 33.3263 48.9422 33.3263 48.9302 33.3383C49.2422 33.6983 49.5902 34.0103 49.9742 34.2623C50.5982 34.6823 51.4622 34.4063 51.7142 33.6983C51.8702 33.2903 51.9302 32.8223 51.8702 32.3543Z" fill="white"/>
<path d="M36.6782 44.0787L36.1382 39.6387" stroke="#544D4D" stroke-width="0.373253" stroke-miterlimit="10" stroke-linecap="round" stroke-linejoin="round"/>
<path d="M57.63 38.1133C57.63 38.1133 57.27 38.9893 57.378 39.8653C57.486 40.7413 57.798 42.0253 57.354 44.0773" stroke="#544D4D" stroke-width="0.373253" stroke-miterlimit="10" stroke-linecap="round" stroke-linejoin="round"/>
<path d="M48.3766 19.8466C48.3766 19.8586 48.3766 19.8706 48.3766 19.8706L48.3646 20.2066C48.3526 20.4946 48.1126 20.7106 47.8246 20.6986C47.5366 20.6866 47.3206 20.4346 47.3446 20.1586L47.3566 19.8226C47.3566 19.7626 47.3806 19.6906 47.4046 19.6426L48.3646 19.6906C48.3646 19.7386 48.3766 19.7866 48.3766 19.8466Z" fill="#423232"/>
<path d="M53.3924 20.1105L53.3804 20.4225C53.3684 20.6865 53.1404 20.8905 52.8764 20.8785C52.6124 20.8665 52.4084 20.6385 52.4204 20.3745L52.4324 20.0625C52.4324 20.0025 52.4444 19.9425 52.4684 19.8945L53.3684 19.9305C53.3924 19.9905 53.3924 20.0505 53.3924 20.1105Z" fill="#423232"/>
<path d="M49.5767 18.2013C49.8407 18.2373 50.0447 17.9613 49.9487 17.6973C49.9007 17.5533 49.8167 17.4213 49.6847 17.3373C49.2767 17.0853 47.7527 17.0613 46.9487 17.6373C46.2407 18.1653 48.3767 18.0333 49.5767 18.2013Z" fill="#423232"/>
<path d="M52.9005 18.3336C52.6845 18.3336 52.5525 18.0576 52.6605 17.8296C52.7205 17.7096 52.8045 17.6016 52.9245 17.5416C53.2965 17.3616 54.2925 17.4696 54.7365 18.0816C55.1325 18.6216 53.8965 18.3216 52.9005 18.3336Z" fill="#423232"/>
<path d="M49.1568 19.7129L48.3528 19.6769L47.3928 19.6409L47.1768 19.6289" stroke="#423232" stroke-width="0.373253" stroke-miterlimit="10" stroke-linecap="round" stroke-linejoin="round"/>
<path d="M53.8966 19.9545L53.3686 19.9305L52.4686 19.8945H52.4326" stroke="#423232" stroke-width="0.373253" stroke-miterlimit="10" stroke-linecap="round" stroke-linejoin="round"/>
<path d="M51.0872 24.8715C50.378 25.2945 49.1214 24.8342 48.5366 24.125" stroke="#423232" stroke-width="0.373253" stroke-miterlimit="10" stroke-linecap="round" stroke-linejoin="round"/>
<path d="M56.624 16.7987C56.288 17.8427 55.556 18.8147 55.04 19.3907C55.364 17.5667 55.268 16.8467 55.076 15.9947C55.016 15.7307 54.944 15.4787 54.86 15.2267C52.976 17.0627 49.748 15.2507 49.748 15.2507C49.748 15.2507 49.064 15.8147 47.864 15.6827C46.58 15.5507 46.232 14.7587 46.232 14.7587C45.884 17.1827 43.592 16.2587 44.012 18.6707C44.132 19.3307 44.132 19.9667 43.568 20.6267C43.472 20.2907 43.004 18.9227 41.468 19.1147C40.016 19.2947 39.464 22.6547 42.464 23.8067C42.428 24.9227 40.652 27.7187 40.712 24.5987C40.724 23.9627 38.9 24.0107 37.904 21.9107C37.472 20.9987 37.592 20.1467 37.784 19.5347C37.976 18.9467 37.964 18.3107 37.772 17.7227C37.556 17.0387 37.388 16.0067 37.784 14.7587C38.456 12.6227 39.896 12.1307 40.268 11.8787C40.64 11.6267 40.52 9.77871 43.676 8.74671C45.716 8.07471 47.9 9.23871 48.356 9.15471C48.812 9.07071 52.004 6.97071 54.464 8.95071C56.84 10.8707 55.952 13.1387 55.952 13.1387C55.952 13.1387 57.44 14.2787 56.624 16.7987Z" fill="#423232"/>
<path d="M49.7478 22.028H46.9518C46.2198 22.028 45.6318 21.44 45.6318 20.708V19.568C45.6318 18.836 46.2198 18.248 46.9518 18.248H49.7478C50.4798 18.248 51.0678 18.836 51.0678 19.568V20.708C51.0678 21.44 50.4678 22.028 49.7478 22.028Z" stroke="#423232" stroke-width="0.373253" stroke-miterlimit="10" stroke-linecap="round" stroke-linejoin="round"/>
<path d="M54.5719 18.248H53.1919C52.7119 18.248 52.3159 18.644 52.3159 19.124V20.168C52.4839 20.768 52.7239 21.344 53.0839 21.86C53.1199 21.86 53.1559 21.872 53.1919 21.872H54.5719C55.0519 21.872 55.4479 21.476 55.4479 20.996V19.124C55.4599 18.632 55.0639 18.248 54.5719 18.248Z" stroke="#423232" stroke-width="0.373253" stroke-miterlimit="10" stroke-linecap="round" stroke-linejoin="round"/>
<path d="M51.0679 19.3399C51.4759 19.2919 51.9919 19.2559 52.4239 19.3039" stroke="#423232" stroke-width="0.373253" stroke-miterlimit="10" stroke-linecap="round" stroke-linejoin="round"/>
<path d="M45.6321 19.4238L42.8481 19.5198" stroke="#423232" stroke-width="0.373253" stroke-miterlimit="10" stroke-linecap="round" stroke-linejoin="round"/>
</g>
</g>
<rect x="27.5" y="2" width="39" height="39" rx="19.5" stroke="white" stroke-width="3"/>
<g clip-path="url(#clip2_2418_5045)">
<rect x="55" y="3.5" width="36" height="36" rx="18" fill="#8E99D7"/>
<mask id="mask4_2418_5045" style="mask-type:alpha" maskUnits="userSpaceOnUse" x="55" y="3" width="36" height="37">
<path d="M73 39.5C63.0504 39.5 55 31.4376 55 21.5C55 11.5504 63.0624 3.5 73 3.5C82.9496 3.5 91 11.5624 91 21.5C91.0119 31.4496 82.9496 39.5 73 39.5Z" fill="#F7C0B5"/>
</mask>
<g mask="url(#mask4_2418_5045)">
<path d="M83.0558 36.6575C82.9718 36.7175 82.8758 36.7775 82.7918 36.8375C82.6958 36.8975 82.6118 36.9575 82.5158 37.0055C82.4318 37.0535 82.3598 37.1015 82.2758 37.1495C82.2638 37.1615 82.2518 37.1615 82.2398 37.1735C81.9638 37.3415 81.6758 37.4975 81.3878 37.6415C81.3038 37.6895 81.2078 37.7375 81.1238 37.7735C81.1238 37.7735 81.1118 37.7855 81.0998 37.7855C81.0038 37.8335 80.9078 37.8815 80.8118 37.9295C80.6198 38.0255 80.4158 38.1095 80.2238 38.1935C80.1278 38.2415 80.0198 38.2775 79.9238 38.3135C79.8278 38.3495 79.7198 38.3975 79.6238 38.4335C79.5278 38.4695 79.4198 38.5175 79.3238 38.5535C79.3238 38.5535 79.3238 38.5535 79.3118 38.5535C79.2158 38.5895 79.1078 38.6255 79.0118 38.6615C78.7958 38.7335 78.5678 38.8055 78.3518 38.8775C78.2798 38.9015 78.1958 38.9255 78.1238 38.9495C77.8958 39.0215 77.6678 39.0815 77.4398 39.1295C77.3558 39.1535 77.2718 39.1655 77.1758 39.1895C76.9598 39.2375 76.7318 39.2855 76.5158 39.3335C76.4678 39.3455 76.4318 39.3455 76.3838 39.3575C76.3118 39.3695 76.2278 39.3815 76.1558 39.3935C76.0478 39.4055 75.9518 39.4295 75.8438 39.4415C75.7958 39.4535 75.7478 39.4535 75.6998 39.4655C75.6398 39.4775 75.5678 39.4895 75.4958 39.4895C75.3038 39.5135 75.0998 39.5375 74.9078 39.5615C74.8478 39.5735 74.7758 39.5735 74.7158 39.5855H74.7038C74.6198 39.5975 74.5358 39.5975 74.4518 39.6095C74.3678 39.6215 74.2838 39.6215 74.1998 39.6215C74.1518 39.6215 74.0918 39.6335 74.0438 39.6335C73.9478 39.6335 73.8638 39.6455 73.7798 39.6455C73.6598 39.6455 73.5518 39.6575 73.4318 39.6575C73.3118 39.6575 73.2038 39.6575 73.0838 39.6575C72.9998 39.6575 72.9158 39.6575 72.8318 39.6575C67.7798 39.5855 63.2198 37.4375 59.9798 34.0295C59.9798 34.0295 59.9798 34.0175 59.9678 34.0175C60.3398 33.2855 61.7198 31.9655 63.1598 30.8735C64.9838 29.4935 67.5638 28.6415 67.5638 28.6415C67.5638 28.6415 69.2558 28.3655 75.5318 29.6735C80.3198 30.6815 82.3598 34.7735 83.0558 36.6575Z" fill="#FEE4BF"/>
<path d="M76.8639 32.9977C76.6119 34.2337 74.9799 34.9657 72.2319 33.8617C68.8599 32.4937 67.5639 28.6417 67.5639 28.6417C67.3839 25.8817 66.9639 23.5177 66.9639 23.5177C70.8639 23.1817 75.4719 27.7417 75.4719 27.7417L75.9999 29.9977C76.0479 30.1897 76.1439 30.3577 76.2879 30.4777C76.5399 30.9097 77.0319 32.2057 76.8639 32.9977Z" fill="#FEE4BF"/>
<path d="M76.2877 30.4892C73.9957 30.3692 72.3037 30.0332 70.4917 26.7812C72.0277 28.1372 73.8397 28.6532 75.7477 28.8932L75.9997 29.9972C76.0477 30.2012 76.1437 30.3692 76.2877 30.4892Z" fill="#EFBD9C"/>
<path d="M81.0276 16.0293C81.2436 17.0373 81.3516 17.8533 80.7636 20.5413C80.1756 23.2293 81.3036 25.9173 78.4716 28.3773C76.5636 30.0333 73.2276 30.3453 70.5636 28.5333C69.6636 27.9213 68.8356 27.0693 68.1636 25.9533C67.6356 25.0773 67.0236 24.2493 66.3396 23.4933C65.3916 22.4613 64.2516 20.3853 64.8156 16.7133C65.7276 10.7373 71.6436 10.0533 75.1356 10.7133C78.6276 11.3733 80.4396 13.3653 81.0276 16.0293Z" fill="#FEE4BF"/>
<path d="M69.544 20.7211C69.544 20.7211 69.172 18.9211 67.42 19.1371C65.908 19.3291 65.38 22.9531 68.812 23.9611" fill="#FEE4BF"/>
<path d="M68.7038 22.3179C68.7038 22.3179 68.2718 22.0419 68.3198 21.5619C68.3918 20.9979 68.3198 20.6499 68.0558 20.5419C67.3958 20.2659 67.2638 21.0339 67.2878 21.1299" stroke="#423232" stroke-width="0.373253" stroke-miterlimit="10" stroke-linecap="round" stroke-linejoin="round"/>
<path d="M77.8596 23.482C77.8596 23.482 78.3156 23.506 78.7476 22.99C78.9876 22.702 79.1916 22.342 79.0596 22.234C78.9276 22.114 76.7556 22.45 76.6116 22.738C76.4676 23.026 77.3076 23.482 77.8596 23.482Z" fill="#EFBD9C"/>
<path d="M78.2197 19.4492C78.2197 19.4492 78.2437 20.5892 78.9757 21.8612C79.2997 22.4252 78.8077 23.3492 77.7397 23.5052" stroke="#423232" stroke-width="0.373253" stroke-miterlimit="10" stroke-linecap="round" stroke-linejoin="round"/>
<path d="M80.1037 26.109C80.1037 26.121 80.1037 26.121 80.1037 26.109C80.0917 26.121 80.0917 26.121 80.1037 26.109C79.8037 26.889 79.3117 27.633 78.4717 28.365C76.5637 30.021 73.2277 30.333 70.5637 28.521C70.2637 28.317 69.9757 28.089 69.6997 27.837C69.5077 27.597 69.3397 27.345 69.1957 27.081C68.3317 25.461 68.7037 23.949 68.7037 23.949C68.7037 23.949 69.1957 23.961 69.7837 25.113C70.2757 26.073 72.1717 26.037 72.9517 24.237C73.8157 22.233 75.9757 23.109 76.4677 23.301C76.9597 23.493 77.7277 23.493 77.7277 23.493C79.6717 23.469 79.0837 24.777 79.2877 25.497C79.5877 26.481 80.1037 26.109 80.1037 26.109Z" fill="#423232"/>
<path d="M87.0904 44.1058H56.7544C56.7544 44.1058 56.8864 38.5138 58.7584 34.5658C60.1384 31.6378 63.6904 29.9698 66.1624 29.1178C66.7144 28.9258 67.2184 28.7818 67.6264 28.6738C67.7584 29.0338 69.0904 32.5618 72.2824 33.8578C75.0304 34.9738 76.6624 34.2298 76.9144 32.9938C77.0704 32.2018 76.5784 30.9058 76.3264 30.4858C76.1824 30.3658 76.0864 30.1858 76.0384 30.0058L75.9424 29.6098C76.1584 29.5618 76.3624 29.5018 76.5784 29.4418C76.6864 29.4658 76.7944 29.4898 76.9024 29.5138C78.4504 29.8858 80.7424 30.7858 83.4304 33.0538C86.5384 35.6458 87.0904 44.1058 87.0904 44.1058Z" fill="#FFDE55"/>
<path d="M77.3466 36.2587C76.9266 36.3787 75.4626 34.8547 75.1626 34.5907C74.8866 34.9027 72.9426 37.0987 71.9826 36.9547C70.9266 36.7987 68.2266 34.9867 66.8586 32.1427C66.1026 30.5827 66.0786 29.6347 66.1626 29.1187C66.1986 28.8787 66.2706 28.7227 66.3066 28.6387C66.4266 28.3627 67.2906 27.2947 67.5066 27.3067V27.3187C67.6146 28.4707 67.9866 29.5867 68.6106 30.5587C69.3786 31.7467 70.5906 33.1747 72.2826 33.8587C75.0306 34.9747 76.4586 33.8707 76.6986 32.6347C76.8546 31.8427 76.5786 30.9067 76.3266 30.4867C76.1826 30.3667 76.0866 30.1867 76.0386 30.0067L75.9426 29.6107C76.1586 29.5627 76.3626 29.5027 76.5786 29.4427C76.6386 29.4187 76.7106 29.4067 76.7706 29.3827C76.8066 29.4307 76.8546 29.4787 76.8906 29.5267C77.3946 30.1027 77.9226 30.8947 78.2106 32.2387C78.7026 34.3867 77.8146 36.1147 77.3466 36.2587Z" fill="#423232"/>
<path d="M75.1265 34.5176C75.1265 34.5176 76.0025 35.0216 75.9785 35.4416C75.9545 35.8616 76.2065 37.1936 76.2065 37.1936" stroke="#423232" stroke-width="0.373253" stroke-miterlimit="10" stroke-linecap="round" stroke-linejoin="round"/>
<path d="M75.1142 36.1151C75.2732 36.1151 75.4022 35.9861 75.4022 35.8271C75.4022 35.668 75.2732 35.5391 75.1142 35.5391C74.9551 35.5391 74.8262 35.668 74.8262 35.8271C74.8262 35.9861 74.9551 36.1151 75.1142 36.1151Z" fill="#423232"/>
<path d="M75.2226 37.242C75.3816 37.242 75.5106 37.1131 75.5106 36.954C75.5106 36.795 75.3816 36.666 75.2226 36.666C75.0635 36.666 74.9346 36.795 74.9346 36.954C74.9346 37.1131 75.0635 37.242 75.2226 37.242Z" fill="#423232"/>
<path d="M62.6943 44.1063L62.1543 39.6543" stroke="#544D4D" stroke-width="0.373253" stroke-miterlimit="10" stroke-linecap="round" stroke-linejoin="round"/>
<path d="M83.6466 38.1426C83.6466 38.1426 83.2866 39.0186 83.3946 39.8946C83.5026 40.7706 83.8146 42.0546 83.3706 44.1066" stroke="#544D4D" stroke-width="0.373253" stroke-miterlimit="10" stroke-linecap="round" stroke-linejoin="round"/>
<path d="M74.3766 19.8466C74.3766 19.8586 74.3766 19.8706 74.3766 19.8706L74.3646 20.2066C74.3526 20.4946 74.1126 20.7106 73.8246 20.6986C73.5366 20.6866 73.3206 20.4346 73.3446 20.1586L73.3566 19.8226C73.3566 19.7626 73.3806 19.6906 73.4046 19.6426L74.3646 19.6906C74.3646 19.7386 74.3766 19.7866 74.3766 19.8466Z" fill="#423232"/>
<path d="M79.3924 20.1105L79.3804 20.4225C79.3684 20.6865 79.1404 20.8905 78.8764 20.8785C78.6124 20.8665 78.4084 20.6385 78.4204 20.3745L78.4324 20.0625C78.4324 20.0025 78.4444 19.9425 78.4684 19.8945L79.3684 19.9305C79.3924 19.9905 79.3924 20.0505 79.3924 20.1105Z" fill="#423232"/>
<path d="M75.5767 18.2013C75.8407 18.2373 76.0447 17.9613 75.9487 17.6973C75.9007 17.5533 75.8167 17.4213 75.6847 17.3373C75.2767 17.0853 73.7527 17.0613 72.9487 17.6373C72.2407 18.1653 74.3767 18.0333 75.5767 18.2013Z" fill="#423232"/>
<path d="M78.9005 18.3336C78.6845 18.3336 78.5525 18.0576 78.6605 17.8296C78.7205 17.7096 78.8045 17.6016 78.9245 17.5416C79.2965 17.3616 80.2925 17.4696 80.7365 18.0816C81.1325 18.6216 79.8965 18.3216 78.9005 18.3336Z" fill="#423232"/>
<path d="M75.1568 19.7129L74.3528 19.6769L73.3928 19.6409L73.1768 19.6289" stroke="#423232" stroke-width="0.373253" stroke-miterlimit="10" stroke-linecap="round" stroke-linejoin="round"/>
<path d="M79.8966 19.9545L79.3686 19.9305L78.4686 19.8945H78.4326" stroke="#423232" stroke-width="0.373253" stroke-miterlimit="10" stroke-linecap="round" stroke-linejoin="round"/>
<path d="M77.2694 24.9021C77.2818 25.1011 77.1325 25.4495 76.8588 25.6983C75.4529 24.8398 74.8184 25.2877 74.8184 25.2877C74.3207 24.5288 74.4327 23.4961 75.6395 24.28C76.4856 24.815 76.9957 24.9021 77.2694 24.9021Z" fill="#423232"/>
<path d="M76.8588 25.6992C76.5602 25.9605 76.1123 26.1223 75.5027 25.8734C75.2165 25.7615 74.9925 25.5375 74.8184 25.2887C74.8184 25.2887 75.4529 24.8408 76.8588 25.6992Z" fill="#FE9DAB"/>
<path d="M77.5055 24.8522C77.5055 24.8522 76.983 25.1383 75.6392 24.2799C74.0343 23.2472 74.3577 25.4121 75.4899 25.8724C76.6719 26.3576 77.2816 25.3001 77.2691 24.902" stroke="#423232" stroke-width="0.373253" stroke-miterlimit="10" stroke-linecap="round" stroke-linejoin="round"/>
<path d="M74.8184 25.2887C74.8184 25.2887 75.4529 24.8408 76.8588 25.6992" stroke="#423232" stroke-width="0.373253" stroke-miterlimit="10" stroke-linecap="round" stroke-linejoin="round"/>
<path d="M83.4077 14.5907C83.4077 13.0787 82.3877 11.8187 81.0077 11.4227C81.0797 11.1227 81.0917 10.8107 81.0197 10.4867C80.7797 9.44266 79.8437 8.71066 78.7757 8.78266C78.3557 8.80666 77.9597 8.96266 77.6357 9.20266C77.1317 8.03866 75.9677 7.22266 74.6237 7.22266C73.1957 7.22266 71.9837 8.13466 71.5277 9.40666C71.0237 8.80666 70.2677 8.42266 69.4277 8.42266C67.9637 8.42266 66.7637 9.57466 66.6917 11.0267C66.4637 10.9547 66.2117 10.9187 65.9597 10.9307C64.9877 10.9907 64.1957 11.7827 64.1237 12.7547C64.0997 13.0787 64.1597 13.3907 64.2797 13.6787C62.9118 13.8227 61.8438 14.9867 61.8438 16.3907C61.8438 17.4467 62.4437 18.3707 63.3317 18.8267C62.9717 19.1867 62.7437 19.6787 62.7437 20.2187C62.7437 21.2267 63.5118 22.0667 64.4958 22.1747C64.4358 22.3667 64.4117 22.5947 64.4837 22.8227C64.5917 23.2187 64.9157 23.5307 65.3117 23.6147C65.5517 23.6627 65.7797 23.6387 65.9837 23.5547C66.0917 23.7107 66.1997 23.8427 66.2957 23.9627C66.4157 24.1067 66.5117 24.2387 66.6077 24.3707C67.1597 25.1627 68.4197 24.8147 68.4677 23.8547C68.4677 23.8427 68.4677 23.8427 68.4677 23.8307C65.4677 22.6787 66.0077 19.3307 67.4717 19.1387C69.0077 18.9467 69.4877 20.3147 69.5717 20.6507C71.2157 19.5947 68.8757 15.7907 71.2877 14.6627C73.4357 13.6667 75.6917 15.1787 78.4517 15.5507C79.4717 15.6947 80.4317 14.6867 80.8637 15.2507C80.9477 15.5027 81.0197 15.7547 81.0797 16.0187C81.2717 16.8707 81.3677 17.5907 81.0437 19.4147C81.8357 18.9827 82.2197 18.3347 82.2917 17.6987C82.3157 17.4827 82.3157 17.2547 82.3037 17.0387C82.9757 16.4507 83.4077 15.5747 83.4077 14.5907Z" fill="#423232"/>
</g>
</g>
<rect x="53.5" y="2" width="39" height="39" rx="19.5" stroke="white" stroke-width="3"/>
<g clip-path="url(#clip3_2418_5045)">
<rect x="81" y="3.5" width="36" height="36" rx="18" fill="#FBBF6A"/>
<mask id="mask5_2418_5045" style="mask-type:alpha" maskUnits="userSpaceOnUse" x="81" y="3" width="36" height="37">
<path d="M99 39.5C89.0504 39.5 81 31.4376 81 21.5C81 11.5504 89.0624 3.5 99 3.5C108.95 3.5 117 11.5624 117 21.5C117.012 31.4496 108.95 39.5 99 39.5Z" fill="#F7C0B5"/>
</mask>
<g mask="url(#mask5_2418_5045)">
<path d="M109.104 36.6575C109.02 36.7175 108.924 36.7775 108.84 36.8375C108.744 36.8975 108.66 36.9575 108.564 37.0055C108.48 37.0535 108.408 37.1015 108.324 37.1495C108.312 37.1615 108.3 37.1615 108.288 37.1735C108.012 37.3415 107.724 37.4975 107.436 37.6415C107.352 37.6895 107.256 37.7375 107.172 37.7735C107.172 37.7735 107.16 37.7855 107.148 37.7855C107.052 37.8335 106.956 37.8815 106.86 37.9295C106.668 38.0255 106.464 38.1095 106.272 38.1935C106.176 38.2415 106.068 38.2775 105.972 38.3135C105.876 38.3495 105.768 38.3975 105.672 38.4335C105.576 38.4695 105.468 38.5175 105.372 38.5535C105.372 38.5535 105.372 38.5535 105.36 38.5535C105.264 38.5895 105.156 38.6255 105.06 38.6615C104.844 38.7335 104.616 38.8055 104.4 38.8775C104.328 38.9015 104.244 38.9255 104.172 38.9495C103.944 39.0215 103.716 39.0815 103.488 39.1295C103.404 39.1535 103.32 39.1655 103.224 39.1895C103.008 39.2375 102.78 39.2855 102.564 39.3335C102.516 39.3455 102.48 39.3455 102.432 39.3575C102.36 39.3695 102.276 39.3815 102.204 39.3935C102.096 39.4055 102 39.4295 101.892 39.4415C101.844 39.4535 101.796 39.4535 101.748 39.4655C101.688 39.4775 101.616 39.4895 101.544 39.4895C101.352 39.5135 101.148 39.5375 100.956 39.5615C100.896 39.5735 100.824 39.5735 100.764 39.5855H100.752C100.668 39.5975 100.584 39.5975 100.5 39.6095C100.416 39.6215 100.332 39.6215 100.248 39.6215C100.2 39.6215 100.14 39.6335 100.092 39.6335C99.9956 39.6335 99.9116 39.6455 99.8276 39.6455C99.7076 39.6455 99.5996 39.6575 99.4796 39.6575C99.3596 39.6575 99.2516 39.6575 99.1316 39.6575C99.0476 39.6575 98.9636 39.6575 98.8796 39.6575C93.8276 39.5855 89.2676 37.4375 86.0276 34.0295C86.0276 34.0295 86.0276 34.0175 86.0156 34.0175C86.3876 33.2855 87.7676 31.9655 89.2076 30.8735C91.0316 29.4935 93.6116 28.6415 93.6116 28.6415C93.6116 28.6415 95.3036 28.3655 101.58 29.6735C106.368 30.6815 108.408 34.7735 109.104 36.6575Z" fill="#AD827B"/>
<path d="M102.912 32.9977C102.66 34.2337 101.028 34.9657 98.2797 33.8617C94.9077 32.4937 93.6117 28.6417 93.6117 28.6417C93.4317 25.8817 93.0117 23.5177 93.0117 23.5177C96.9117 23.1817 101.52 27.7417 101.52 27.7417L102.048 29.9977C102.096 30.1897 102.192 30.3577 102.336 30.4777C102.588 30.9097 103.08 32.2057 102.912 32.9977Z" fill="#AD827B"/>
<path d="M102.336 30.4892C100.044 30.3692 98.3516 30.0332 96.5396 26.7812C98.0756 28.1372 99.8876 28.6532 101.796 28.8932L102.048 29.9972C102.096 30.2012 102.192 30.3692 102.336 30.4892Z" fill="#8E5650"/>
<path d="M107.075 16.0293C107.291 17.0373 107.399 17.8533 106.811 20.5413C106.223 23.2293 107.351 25.9173 104.519 28.3773C102.611 30.0333 99.2754 30.3453 96.6114 28.5333C95.7114 27.9213 94.8834 27.0693 94.2114 25.9533C93.6834 25.0773 93.0714 24.2493 92.3874 23.4933C91.4394 22.4613 90.2994 20.3853 90.8634 16.7133C91.7754 10.7373 97.6914 10.0533 101.183 10.7133C104.675 11.3733 106.487 13.3653 107.075 16.0293Z" fill="#AD827B"/>
<path d="M95.5918 20.7211C95.5918 20.7211 95.2198 18.9211 93.4678 19.1371C91.9558 19.3291 91.4278 22.9531 94.8598 23.9611" fill="#AD827B"/>
<path d="M94.7516 22.3179C94.7516 22.3179 94.3196 22.0419 94.3676 21.5619C94.4396 20.9979 94.3676 20.6499 94.1036 20.5419C93.4436 20.2659 93.3116 21.0339 93.3356 21.1299" stroke="#423232" stroke-width="0.373253" stroke-miterlimit="10" stroke-linecap="round" stroke-linejoin="round"/>
<path d="M103.907 23.482C103.907 23.482 104.363 23.506 104.795 22.99C105.035 22.702 105.239 22.342 105.107 22.234C104.975 22.114 102.803 22.45 102.659 22.738C102.515 23.026 103.355 23.482 103.907 23.482Z" fill="#8E605C"/>
<path d="M104.268 19.4492C104.268 19.4492 104.292 20.5892 105.024 21.8612C105.348 22.4252 104.856 23.3492 103.788 23.5052" stroke="#423232" stroke-width="0.373253" stroke-miterlimit="10" stroke-linecap="round" stroke-linejoin="round"/>
<path d="M94.7461 29.7453C94.7461 29.7453 94.5061 28.2573 94.0981 28.3413C92.2021 28.7733 86.6701 30.3813 84.7381 34.5573C82.9141 38.5293 82.7461 44.0973 82.7461 44.0973H113.094C113.094 44.0973 112.542 35.6373 109.446 33.0453C107.61 31.4973 105.954 30.5493 104.598 29.9733C102.798 29.2053 100.986 30.8133 100.47 30.7773C99.5461 30.7293 94.7461 29.7453 94.7461 29.7453Z" fill="#544D4D"/>
<path d="M88.686 44.0965L88.146 39.6445" stroke="white" stroke-width="0.373253" stroke-miterlimit="10" stroke-linecap="round" stroke-linejoin="round"/>
<path d="M109.638 38.1328C109.638 38.1328 109.278 39.0088 109.386 39.8848C109.494 40.7608 109.806 42.0448 109.362 44.0968" stroke="white" stroke-width="0.373253" stroke-miterlimit="10" stroke-linecap="round" stroke-linejoin="round"/>
<path d="M93.3658 27.1296C93.3658 27.1296 92.5018 27.4416 92.3458 27.6096C92.1898 27.7776 92.1178 27.8856 92.1178 27.8856C92.1178 27.8856 91.6858 28.3656 91.4458 29.5296C91.3378 30.0216 91.5898 30.8256 91.3978 31.4616C90.8458 33.2256 93.4618 35.9376 97.7818 37.5336C101.058 38.7456 104.67 37.6416 105.174 35.3616C105.654 33.1656 105.366 32.1696 105.138 31.4616C104.682 30.0936 104.538 29.7096 103.926 29.1816C103.542 28.8456 103.278 29.5416 101.838 29.9376C101.394 30.0576 100.854 30.1536 100.158 30.1776C96.0178 30.3336 94.2658 27.9816 93.6418 27.3096C93.4858 27.1776 93.4138 27.1056 93.3658 27.1296Z" fill="white"/>
<path d="M101.802 29.9249C101.358 30.0449 100.818 30.1409 100.122 30.1649C95.982 30.3209 94.23 27.9689 93.606 27.2969" stroke="#CCCCCC" stroke-width="0.373253" stroke-miterlimit="10" stroke-linecap="round" stroke-linejoin="round"/>
<path d="M103.998 28.75C105.09 29.662 106.986 32.05 106.53 37.39C106.302 40.03 107.586 41.122 107.298 41.542C107.25 41.614 107.19 41.65 107.142 41.662C106.938 41.71 106.746 41.806 106.65 41.998C106.614 42.082 106.554 42.142 106.47 42.19C106.398 42.238 106.314 42.238 106.242 42.226C105.99 42.166 105.714 42.31 105.558 42.526C105.498 42.61 105.426 42.67 105.318 42.694C105.246 42.718 105.174 42.706 105.126 42.694C104.922 42.634 104.694 42.694 104.514 42.838C104.466 42.874 104.418 42.898 104.358 42.898C104.25 42.898 104.166 42.85 104.094 42.778C103.926 42.622 103.686 42.562 103.446 42.646C103.422 42.658 103.41 42.658 103.386 42.658C103.218 42.682 103.086 42.55 102.99 42.322C102.894 42.106 102.666 42.01 102.426 42.034C102.378 42.034 102.33 42.034 102.27 42.022C101.802 41.914 101.202 41.266 101.19 40.474C101.178 39.694 101.358 38.338 101.658 37.702C102.582 35.746 102.918 34.342 102.966 33.286C103.062 31.354 101.838 29.626 101.958 29.59C103.182 29.338 103.998 28.75 103.998 28.75Z" fill="white"/>
<path d="M101.646 37.7015C102.57 35.7455 102.906 34.3415 102.954 33.2855C103.026 31.7975 102.306 30.4175 102.042 29.8535" stroke="#CCCCCC" stroke-width="0.373253" stroke-miterlimit="10" stroke-linecap="round" stroke-linejoin="round"/>
<path d="M101.178 40.4732C101.166 39.6932 101.346 38.3372 101.646 37.7012C102.57 35.7452 102.906 34.3412 102.954 33.2852" stroke="#CCCCCC" stroke-width="0.373253" stroke-miterlimit="10" stroke-linecap="round" stroke-linejoin="round"/>
<path d="M102.246 36.286C102.246 36.286 98.5978 36.646 96.1978 34.834" stroke="#CCCCCC" stroke-width="0.373253" stroke-miterlimit="10" stroke-linecap="round" stroke-linejoin="round"/>
<path d="M103.23 29.9609C103.566 30.4529 103.95 31.1729 104.046 32.0609" stroke="#CCCCCC" stroke-width="0.373253" stroke-miterlimit="10" stroke-linecap="round" stroke-linejoin="round"/>
<path d="M104.754 42.6936C104.754 42.6936 104.142 41.3976 104.754 38.5776C105.402 35.5776 105.102 34.1016 105.102 34.1016" stroke="#CCCCCC" stroke-width="0.373253" stroke-miterlimit="10" stroke-linecap="round" stroke-linejoin="round"/>
<path d="M91.4219 30.1289C91.4219 30.1289 92.2259 31.7849 93.1979 32.5529" stroke="#CCCCCC" stroke-width="0.373253" stroke-miterlimit="10" stroke-linecap="round" stroke-linejoin="round"/>
<path d="M102.858 34.1008C102.858 34.1008 100.578 34.2568 98.9702 33.6328" stroke="#CCCCCC" stroke-width="0.373253" stroke-miterlimit="10" stroke-linecap="round" stroke-linejoin="round"/>
<path d="M101.577 18.0822C101.841 18.1182 102.045 17.8422 101.949 17.5782C101.901 17.4342 101.817 17.3022 101.685 17.2182C101.277 16.9662 99.7527 16.9422 98.9487 17.5182C98.2407 18.0462 100.377 17.9142 101.577 18.0822Z" fill="#423232"/>
<path d="M104.901 18.2145C104.685 18.2145 104.553 17.9385 104.661 17.7105C104.721 17.5905 104.805 17.4825 104.925 17.4225C105.297 17.2425 106.293 17.3505 106.737 17.9625C107.133 18.5025 105.897 18.2025 104.901 18.2145Z" fill="#423232"/>
<path d="M101.157 19.594C100.221 19.99 99.1768 19.498 99.1768 19.498" stroke="#423232" stroke-width="0.373253" stroke-miterlimit="10" stroke-linecap="round" stroke-linejoin="round"/>
<path d="M105.897 19.8337C105.897 19.8337 105.249 20.2297 104.433 19.7617" stroke="#423232" stroke-width="0.373253" stroke-miterlimit="10" stroke-linecap="round" stroke-linejoin="round"/>
<path d="M103.269 24.9021C103.281 25.1011 103.132 25.4495 102.858 25.6983C101.452 24.8398 100.818 25.2877 100.818 25.2877C100.32 24.5288 100.432 23.4961 101.639 24.28C102.485 24.815 102.995 24.9021 103.269 24.9021Z" fill="#423232"/>
<path d="M102.858 25.6992C102.56 25.9605 102.112 26.1223 101.502 25.8734C101.216 25.7615 100.992 25.5375 100.818 25.2887C100.818 25.2887 101.452 24.8408 102.858 25.6992Z" fill="#FE9DAB"/>
<path d="M103.505 24.8522C103.505 24.8522 102.982 25.1383 101.639 24.2799C100.034 23.2472 100.357 25.4121 101.489 25.8724C102.671 26.3576 103.281 25.3001 103.269 24.902" stroke="#423232" stroke-width="0.373253" stroke-miterlimit="10" stroke-linecap="round" stroke-linejoin="round"/>
<path d="M100.818 25.2887C100.818 25.2887 101.452 24.8408 102.858 25.6992" stroke="#423232" stroke-width="0.373253" stroke-miterlimit="10" stroke-linecap="round" stroke-linejoin="round"/>
<path d="M108.908 20.7824C108.344 20.2664 108.188 19.5104 108.14 19.0064C108.5 19.2464 108.968 18.5144 108.944 17.6504C108.908 16.3664 108.572 15.4184 108.176 14.7584C108.452 14.4104 108.656 14.0024 108.764 13.5464C109.256 11.5544 107.636 10.0304 105.272 9.4544C103.82 9.0944 101.156 9.2744 98.0237 9.2264C97.4837 9.2144 96.9197 9.2384 96.3677 9.2984C95.6957 9.3704 95.0357 9.5144 94.4237 9.7664C93.4277 10.1384 92.5157 10.7264 91.8197 11.5784C90.5957 13.0904 90.2477 14.8184 90.1877 16.1624C90.1277 17.7584 89.7437 19.3304 88.9877 20.7464C88.1717 22.2704 87.6677 23.8904 88.4717 25.2824C88.4957 25.3184 88.5197 25.3544 88.5437 25.4024C88.1597 27.2984 90.2957 27.1304 90.7157 25.2104C90.6317 25.5704 90.5717 25.8824 90.5357 26.0984C90.2477 27.9824 91.6157 28.2224 92.2997 26.9144C92.3717 26.7824 92.5517 26.2424 92.7437 25.5584C92.7437 25.6784 92.7557 25.7984 92.7677 25.9064C92.7917 28.5344 94.6637 28.7624 94.5557 26.9864C94.5077 26.1944 94.6397 25.0904 94.8437 23.8904C91.4357 22.8704 91.9637 19.2704 93.4877 19.0784C95.2397 18.8504 95.6117 20.6624 95.6117 20.6624C95.7437 21.2264 95.9357 21.8984 96.2237 22.2224C96.7397 22.7864 97.6277 22.3904 97.0517 20.6144C96.9317 20.2424 96.8237 19.8224 96.7517 19.3784C97.2077 19.4984 97.6037 19.2464 97.4117 18.7424C97.2317 18.2864 97.1357 17.8664 97.1117 17.4704C97.0757 16.8584 97.2317 16.3064 97.4957 15.8504C97.7717 16.9424 98.9237 16.6064 98.9957 15.8144C99.0197 15.5504 99.1037 15.2384 99.2237 14.8904C99.5117 15.2624 99.9077 15.6104 100.4 15.8624C101.312 16.3184 101.96 16.1024 102.104 15.6344C102.692 15.8384 103.22 15.9944 103.628 16.0904C104.852 16.3904 106.064 16.2344 107.012 15.7304C107.06 15.8384 107.084 15.9344 107.096 15.9704C107.108 16.0304 107.12 16.0904 107.132 16.1504C107.24 16.6664 107.3 17.1704 107.252 17.9264C107.252 17.9624 107.252 17.9864 107.24 18.0224C107.24 18.0464 107.24 18.0704 107.228 18.0944C107.228 18.1544 107.216 18.2024 107.216 18.2624C107.216 18.2984 107.204 18.3224 107.204 18.3584C107.204 18.4064 107.192 18.4664 107.18 18.5264C107.168 18.5744 107.168 18.6224 107.156 18.6704C107.156 18.7064 107.144 18.7544 107.144 18.7904C107.132 18.8624 107.12 18.9344 107.108 19.0184C107.108 19.0304 107.108 19.0544 107.096 19.0664C107.084 19.1624 107.06 19.2584 107.048 19.3664C106.988 19.7024 106.916 20.0624 106.832 20.4824C106.328 22.8104 107.108 25.1624 105.464 27.3464C105.392 27.9944 105.956 28.8104 106.652 27.9584C107.192 27.2984 106.94 25.0904 106.904 24.6464C106.952 25.1144 107.696 26.6024 108.392 26.3864C108.776 26.2664 108.944 26.0624 108.884 25.3544C108.812 24.3584 108.032 23.3744 107.924 21.9224C108.644 22.5344 109.664 21.4664 108.908 20.7824Z" fill="#423232"/>
<path d="M94.2136 21.1158C94.2136 21.1158 93.2536 20.9718 93.3256 22.3158C93.3616 22.9998 93.3616 23.3718 93.3496 23.5638C93.3376 23.6958 93.4216 23.8158 93.5416 23.8638C93.6856 23.9238 93.8416 23.8638 93.9136 23.7198C94.0216 23.5278 94.1416 23.2638 94.1416 23.0478C94.1416 22.6878 94.5256 22.3638 94.5256 22.3638C94.5256 22.3638 94.1776 22.0638 94.2136 21.1158Z" fill="white"/>
<path d="M97.1178 44.2508C97.0218 44.1428 93.2538 37.6988 93.8178 35.2748C94.2018 33.6068 93.6978 31.6868 93.2538 29.9948C93.0738 29.2988 92.9058 28.6508 92.8098 28.0748C92.6418 27.0788 92.7618 26.1308 93.1698 25.2548C93.6138 24.2708 93.5418 23.4188 93.5418 23.4068L93.7818 23.3828C93.7818 23.4188 93.8538 24.3188 93.3858 25.3508C93.0018 26.1788 92.8938 27.0908 93.0498 28.0388C93.1458 28.6028 93.3138 29.2508 93.4938 29.9468C93.9498 31.6628 94.4538 33.6188 94.0578 35.3468C93.5298 37.6508 97.2858 44.0948 97.3098 44.1188L97.1178 44.2508Z" fill="white"/>
<path d="M93.3615 23.012C93.3735 23.276 93.3615 23.456 93.3615 23.564C93.3495 23.696 93.4335 23.816 93.5535 23.864C93.6975 23.924 93.8535 23.864 93.9255 23.72C94.0335 23.528 94.1535 23.264 94.1535 23.048C94.1535 23.036 94.1535 23.012 94.1535 23C93.9015 23.096 93.6135 23.168 93.3615 23.012Z" fill="#E5E5E5"/>
<path d="M104.654 30.9916C104.57 31.5436 104.558 32.4196 104.534 33.4396C104.498 35.4076 103.334 43.0756 102.77 44.2876L102.554 44.1916C103.094 43.0156 104.258 35.3836 104.294 33.4396C104.318 32.4196 104.33 31.5316 104.414 30.9556C104.594 29.7436 104.462 28.8316 104.39 28.4476C104.426 28.4116 104.462 28.3876 104.498 28.3516C104.534 28.3276 104.558 28.2916 104.594 28.2676C104.666 28.5796 104.87 29.5756 104.654 30.9916Z" fill="white"/>
</g>
</g>
<rect x="79.5" y="2" width="39" height="39" rx="19.5" stroke="white" stroke-width="3"/>
<rect x="105.5" y="2" width="39" height="39" rx="19.5" fill="black"/>
<path d="M118.432 26.5V18.388H115.228V19.828H116.764V26.5H118.432ZM119.865 22.456C119.865 25.132 120.969 26.62 122.997 26.62C125.025 26.62 126.141 25.132 126.141 22.456C126.141 19.768 125.001 18.268 122.997 18.268C120.993 18.268 119.865 19.768 119.865 22.456ZM121.581 22.456C121.581 20.704 122.085 19.756 122.997 19.756C123.921 19.756 124.425 20.704 124.425 22.456C124.425 24.196 123.921 25.132 122.997 25.132C122.061 25.132 121.581 24.196 121.581 22.456ZM131.424 25.348V23.128H133.644V21.688H131.424V19.468H129.864V21.688H127.644V23.128H129.864V25.348H131.424Z" fill="white"/>
<rect x="105.5" y="2" width="39" height="39" rx="19.5" stroke="white" stroke-width="3"/>
<path d="M157.84 20.354C157.849 19.8313 157.938 19.3413 158.106 18.884C158.283 18.4173 158.535 18.016 158.862 17.68C159.189 17.3347 159.59 17.064 160.066 16.868C160.542 16.6627 161.088 16.56 161.704 16.56C162.32 16.56 162.866 16.6627 163.342 16.868C163.818 17.064 164.219 17.3347 164.546 17.68C164.873 18.016 165.12 18.4173 165.288 18.884C165.465 19.3413 165.559 19.8313 165.568 20.354C165.596 21.1847 165.596 22.0153 165.568 22.846C165.549 23.3687 165.451 23.8633 165.274 24.33C165.106 24.7873 164.859 25.1887 164.532 25.534C164.205 25.8793 163.804 26.15 163.328 26.346C162.861 26.542 162.32 26.64 161.704 26.64C161.088 26.64 160.542 26.542 160.066 26.346C159.599 26.15 159.203 25.8793 158.876 25.534C158.549 25.1887 158.297 24.7873 158.12 24.33C157.952 23.8633 157.859 23.3687 157.84 22.846C157.812 22.0153 157.812 21.1847 157.84 20.354ZM164.238 20.424C164.219 19.9853 164.145 19.6027 164.014 19.276C163.893 18.9493 163.72 18.6787 163.496 18.464C163.272 18.2493 163.006 18.0907 162.698 17.988C162.399 17.876 162.068 17.82 161.704 17.82C161.34 17.82 161.004 17.876 160.696 17.988C160.397 18.0907 160.136 18.2493 159.912 18.464C159.688 18.6787 159.511 18.9493 159.38 19.276C159.249 19.6027 159.179 19.9853 159.17 20.424C159.151 20.844 159.142 21.236 159.142 21.6C159.142 21.964 159.151 22.356 159.17 22.776C159.179 23.2147 159.249 23.5973 159.38 23.924C159.511 24.2507 159.688 24.5213 159.912 24.736C160.136 24.9507 160.397 25.114 160.696 25.226C161.004 25.3287 161.34 25.38 161.704 25.38C162.068 25.38 162.399 25.3287 162.698 25.226C163.006 25.114 163.272 24.9507 163.496 24.736C163.72 24.5213 163.893 24.2507 164.014 23.924C164.145 23.5973 164.219 23.2147 164.238 22.776C164.257 22.356 164.266 21.964 164.266 21.6C164.266 21.236 164.257 20.844 164.238 20.424ZM170.074 26.5C169.953 26.5 169.86 26.4627 169.794 26.388C169.729 26.3133 169.678 26.234 169.64 26.15L166.854 19.654C166.845 19.626 166.84 19.5933 166.84 19.556C166.84 19.4627 166.873 19.3833 166.938 19.318C167.004 19.2527 167.083 19.22 167.176 19.22H167.694C167.834 19.22 167.937 19.2573 168.002 19.332C168.077 19.4067 168.128 19.4813 168.156 19.556L170.326 24.638L172.496 19.556C172.524 19.4813 172.571 19.4067 172.636 19.332C172.702 19.2573 172.79 19.22 172.902 19.22H173.476C173.57 19.22 173.649 19.2527 173.714 19.318C173.78 19.3833 173.812 19.4627 173.812 19.556C173.812 19.5933 173.808 19.626 173.798 19.654L171.012 26.15C170.975 26.234 170.924 26.3133 170.858 26.388C170.802 26.4627 170.714 26.5 170.592 26.5H170.074ZM174.681 22.16C174.718 21.7307 174.821 21.3293 174.989 20.956C175.157 20.5827 175.376 20.256 175.647 19.976C175.917 19.696 176.239 19.4767 176.613 19.318C176.995 19.1593 177.42 19.08 177.887 19.08C178.391 19.08 178.839 19.164 179.231 19.332C179.632 19.4907 179.973 19.724 180.253 20.032C180.533 20.34 180.747 20.7133 180.897 21.152C181.046 21.5907 181.121 22.0807 181.121 22.622V23C181.121 23.1027 181.083 23.1913 181.009 23.266C180.934 23.3407 180.845 23.378 180.743 23.378H175.927V23.462C175.945 24.0967 176.137 24.5867 176.501 24.932C176.874 25.268 177.336 25.436 177.887 25.436C178.4 25.436 178.783 25.366 179.035 25.226C179.296 25.0767 179.506 24.9133 179.665 24.736C179.739 24.6613 179.805 24.61 179.861 24.582C179.917 24.554 180.001 24.54 180.113 24.54H180.533C180.635 24.54 180.729 24.5773 180.813 24.652C180.897 24.7267 180.929 24.8153 180.911 24.918C180.883 25.086 180.803 25.2727 180.673 25.478C180.542 25.674 180.351 25.8607 180.099 26.038C179.856 26.206 179.548 26.3507 179.175 26.472C178.811 26.584 178.381 26.64 177.887 26.64C177.42 26.64 177 26.5607 176.627 26.402C176.253 26.234 175.927 26.01 175.647 25.73C175.376 25.4407 175.157 25.1047 174.989 24.722C174.821 24.33 174.718 23.9053 174.681 23.448C174.634 23.0187 174.634 22.5893 174.681 22.16ZM175.927 22.202H179.861V22.16C179.861 21.5907 179.679 21.138 179.315 20.802C178.96 20.4567 178.484 20.284 177.887 20.284C177.616 20.284 177.364 20.3307 177.131 20.424C176.897 20.508 176.692 20.634 176.515 20.802C176.337 20.9607 176.197 21.1567 176.095 21.39C175.992 21.6233 175.936 21.88 175.927 22.16V22.202ZM186.506 19.22C186.608 19.22 186.697 19.2573 186.772 19.332C186.846 19.4067 186.884 19.4953 186.884 19.598V20.046C186.884 20.1487 186.846 20.2373 186.772 20.312C186.697 20.3867 186.608 20.424 186.506 20.424H185.694C184.62 20.424 184.084 20.9607 184.084 22.034V26.122C184.084 26.2247 184.046 26.3133 183.972 26.388C183.897 26.4627 183.808 26.5 183.706 26.5H183.188C183.085 26.5 182.996 26.4627 182.922 26.388C182.847 26.3133 182.81 26.2247 182.81 26.122V19.598C182.81 19.4953 182.847 19.4067 182.922 19.332C182.996 19.2573 183.085 19.22 183.188 19.22H183.706C183.808 19.22 183.897 19.2573 183.972 19.332C184.046 19.4067 184.084 19.4953 184.084 19.598V20.032C184.27 19.752 184.494 19.5467 184.756 19.416C185.017 19.2853 185.358 19.22 185.778 19.22H186.506ZM194.999 26.122C194.999 26.2247 194.961 26.3133 194.887 26.388C194.812 26.4627 194.723 26.5 194.621 26.5H194.047C193.944 26.5 193.855 26.4627 193.781 26.388C193.706 26.3133 193.669 26.2247 193.669 26.122V18.408L191.401 20.13C191.317 20.2047 191.223 20.2327 191.121 20.214C191.018 20.1953 190.934 20.1487 190.869 20.074L190.533 19.64C190.467 19.556 190.439 19.4627 190.449 19.36C190.467 19.2573 190.519 19.1733 190.603 19.108L193.599 16.812C193.673 16.756 193.748 16.7233 193.823 16.714C193.897 16.7047 193.972 16.7 194.047 16.7H194.621C194.723 16.7 194.812 16.7373 194.887 16.812C194.961 16.8867 194.999 16.9753 194.999 17.078V26.122ZM204.041 20.424C204.051 20.844 204.055 21.2407 204.055 21.614C204.055 21.978 204.051 22.37 204.041 22.79C204.032 23.3313 203.953 23.84 203.803 24.316C203.663 24.7827 203.449 25.1887 203.159 25.534C202.87 25.8793 202.501 26.15 202.053 26.346C201.615 26.542 201.087 26.64 200.471 26.64C199.855 26.64 199.323 26.542 198.875 26.346C198.437 26.15 198.073 25.8793 197.783 25.534C197.494 25.1887 197.275 24.7827 197.125 24.316C196.985 23.84 196.911 23.3313 196.901 22.79C196.892 22.37 196.887 21.978 196.887 21.614C196.887 21.2407 196.892 20.844 196.901 20.424C196.911 19.8827 196.985 19.3787 197.125 18.912C197.275 18.436 197.494 18.0253 197.783 17.68C198.073 17.3347 198.437 17.064 198.875 16.868C199.323 16.6627 199.855 16.56 200.471 16.56C201.087 16.56 201.615 16.6627 202.053 16.868C202.501 17.064 202.87 17.3347 203.159 17.68C203.449 18.0253 203.663 18.436 203.803 18.912C203.953 19.3787 204.032 19.8827 204.041 20.424ZM198.217 22.79C198.236 23.6767 198.432 24.33 198.805 24.75C199.188 25.17 199.743 25.38 200.471 25.38C201.199 25.38 201.75 25.17 202.123 24.75C202.506 24.33 202.707 23.6767 202.725 22.79C202.735 22.37 202.739 21.978 202.739 21.614C202.739 21.2407 202.735 20.844 202.725 20.424C202.707 19.5373 202.506 18.884 202.123 18.464C201.75 18.0347 201.199 17.82 200.471 17.82C199.743 17.82 199.188 18.0347 198.805 18.464C198.432 18.884 198.236 19.5373 198.217 20.424C198.208 20.844 198.203 21.2407 198.203 21.614C198.203 21.978 198.208 22.37 198.217 22.79ZM212.914 20.424C212.924 20.844 212.928 21.2407 212.928 21.614C212.928 21.978 212.924 22.37 212.914 22.79C212.905 23.3313 212.826 23.84 212.676 24.316C212.536 24.7827 212.322 25.1887 212.032 25.534C211.743 25.8793 211.374 26.15 210.926 26.346C210.488 26.542 209.96 26.64 209.344 26.64C208.728 26.64 208.196 26.542 207.748 26.346C207.31 26.15 206.946 25.8793 206.656 25.534C206.367 25.1887 206.148 24.7827 205.998 24.316C205.858 23.84 205.784 23.3313 205.774 22.79C205.765 22.37 205.76 21.978 205.76 21.614C205.76 21.2407 205.765 20.844 205.774 20.424C205.784 19.8827 205.858 19.3787 205.998 18.912C206.148 18.436 206.367 18.0253 206.656 17.68C206.946 17.3347 207.31 17.064 207.748 16.868C208.196 16.6627 208.728 16.56 209.344 16.56C209.96 16.56 210.488 16.6627 210.926 16.868C211.374 17.064 211.743 17.3347 212.032 17.68C212.322 18.0253 212.536 18.436 212.676 18.912C212.826 19.3787 212.905 19.8827 212.914 20.424ZM207.09 22.79C207.109 23.6767 207.305 24.33 207.678 24.75C208.061 25.17 208.616 25.38 209.344 25.38C210.072 25.38 210.623 25.17 210.996 24.75C211.379 24.33 211.58 23.6767 211.598 22.79C211.608 22.37 211.612 21.978 211.612 21.614C211.612 21.2407 211.608 20.844 211.598 20.424C211.58 19.5373 211.379 18.884 210.996 18.464C210.623 18.0347 210.072 17.82 209.344 17.82C208.616 17.82 208.061 18.0347 207.678 18.464C207.305 18.884 207.109 19.5373 207.09 20.424C207.081 20.844 207.076 21.2407 207.076 21.614C207.076 21.978 207.081 22.37 207.09 22.79ZM221.787 20.424C221.797 20.844 221.801 21.2407 221.801 21.614C221.801 21.978 221.797 22.37 221.787 22.79C221.778 23.3313 221.699 23.84 221.549 24.316C221.409 24.7827 221.195 25.1887 220.905 25.534C220.616 25.8793 220.247 26.15 219.799 26.346C219.361 26.542 218.833 26.64 218.217 26.64C217.601 26.64 217.069 26.542 216.621 26.346C216.183 26.15 215.819 25.8793 215.529 25.534C215.24 25.1887 215.021 24.7827 214.871 24.316C214.731 23.84 214.657 23.3313 214.647 22.79C214.638 22.37 214.633 21.978 214.633 21.614C214.633 21.2407 214.638 20.844 214.647 20.424C214.657 19.8827 214.731 19.3787 214.871 18.912C215.021 18.436 215.24 18.0253 215.529 17.68C215.819 17.3347 216.183 17.064 216.621 16.868C217.069 16.6627 217.601 16.56 218.217 16.56C218.833 16.56 219.361 16.6627 219.799 16.868C220.247 17.064 220.616 17.3347 220.905 17.68C221.195 18.0253 221.409 18.436 221.549 18.912C221.699 19.3787 221.778 19.8827 221.787 20.424ZM215.963 22.79C215.982 23.6767 216.178 24.33 216.551 24.75C216.934 25.17 217.489 25.38 218.217 25.38C218.945 25.38 219.496 25.17 219.869 24.75C220.252 24.33 220.453 23.6767 220.471 22.79C220.481 22.37 220.485 21.978 220.485 21.614C220.485 21.2407 220.481 20.844 220.471 20.424C220.453 19.5373 220.252 18.884 219.869 18.464C219.496 18.0347 218.945 17.82 218.217 17.82C217.489 17.82 216.934 18.0347 216.551 18.464C216.178 18.884 215.982 19.5373 215.963 20.424C215.954 20.844 215.949 21.2407 215.949 21.614C215.949 21.978 215.954 22.37 215.963 22.79ZM227.58 22.874V25.66C227.58 25.7627 227.543 25.8513 227.468 25.926C227.394 26.0007 227.305 26.038 227.202 26.038H226.684C226.582 26.038 226.493 26.0007 226.418 25.926C226.344 25.8513 226.306 25.7627 226.306 25.66V22.874H223.562C223.46 22.874 223.371 22.8367 223.296 22.762C223.222 22.6873 223.184 22.5987 223.184 22.496V22.062C223.184 21.9593 223.222 21.8707 223.296 21.796C223.371 21.7213 223.46 21.684 223.562 21.684H226.306V18.94C226.306 18.8373 226.344 18.7487 226.418 18.674C226.493 18.5993 226.582 18.562 226.684 18.562H227.202C227.305 18.562 227.394 18.5993 227.468 18.674C227.543 18.7487 227.58 18.8373 227.58 18.94V21.684H230.338C230.441 21.684 230.53 21.7213 230.604 21.796C230.679 21.8707 230.716 21.9593 230.716 22.062V22.496C230.716 22.5987 230.679 22.6873 230.604 22.762C230.53 22.8367 230.441 22.874 230.338 22.874H227.58Z" fill="#333333"/>
<path d="M235.202 24.666C235.202 24.2927 235.277 23.966 235.426 23.686C235.575 23.406 235.781 23.168 236.042 22.972C236.303 22.776 236.607 22.6173 236.952 22.496C237.307 22.3747 237.68 22.2813 238.072 22.216L240.046 21.894V21.712C240.046 21.236 239.887 20.8813 239.57 20.648C239.262 20.4053 238.875 20.284 238.408 20.284C237.997 20.284 237.685 20.3587 237.47 20.508C237.265 20.6573 237.087 20.8347 236.938 21.04C236.882 21.1147 236.821 21.166 236.756 21.194C236.691 21.222 236.602 21.236 236.49 21.236H236.07C235.967 21.236 235.874 21.1987 235.79 21.124C235.715 21.0493 235.683 20.9607 235.692 20.858C235.711 20.6527 235.79 20.4427 235.93 20.228C236.079 20.0133 236.275 19.822 236.518 19.654C236.77 19.486 237.055 19.3507 237.372 19.248C237.699 19.136 238.044 19.08 238.408 19.08C238.828 19.08 239.215 19.1407 239.57 19.262C239.934 19.3833 240.242 19.5607 240.494 19.794C240.755 20.0273 240.956 20.3167 241.096 20.662C241.245 21.0073 241.32 21.404 241.32 21.852V26.122C241.32 26.2247 241.283 26.3133 241.208 26.388C241.133 26.4627 241.045 26.5 240.942 26.5H240.424C240.321 26.5 240.233 26.4627 240.158 26.388C240.083 26.3133 240.046 26.2247 240.046 26.122V25.548C239.962 25.7253 239.831 25.884 239.654 26.024C239.477 26.1547 239.271 26.2667 239.038 26.36C238.814 26.4533 238.576 26.5233 238.324 26.57C238.081 26.6167 237.853 26.64 237.638 26.64C237.274 26.64 236.938 26.5887 236.63 26.486C236.331 26.3833 236.075 26.248 235.86 26.08C235.655 25.9027 235.491 25.6927 235.37 25.45C235.258 25.2073 235.202 24.946 235.202 24.666ZM237.778 25.436C238.114 25.436 238.422 25.3847 238.702 25.282C238.982 25.1793 239.22 25.0393 239.416 24.862C239.621 24.6753 239.775 24.456 239.878 24.204C239.99 23.952 240.046 23.672 240.046 23.364V23.014L238.394 23.28C237.806 23.3733 237.339 23.5227 236.994 23.728C236.649 23.9333 236.476 24.1993 236.476 24.526C236.476 24.6287 236.499 24.7313 236.546 24.834C236.593 24.9367 236.667 25.0347 236.77 25.128C236.873 25.2213 237.003 25.296 237.162 25.352C237.33 25.408 237.535 25.436 237.778 25.436ZM244.301 23.35C244.338 23.7233 244.417 24.0407 244.539 24.302C244.669 24.5633 244.823 24.778 245.001 24.946C245.187 25.114 245.393 25.24 245.617 25.324C245.841 25.3987 246.069 25.436 246.303 25.436C246.751 25.436 247.133 25.352 247.451 25.184C247.768 25.016 248.015 24.736 248.193 24.344C248.258 24.1947 248.323 24.0967 248.389 24.05C248.463 23.994 248.552 23.966 248.655 23.966H249.075C249.177 23.966 249.266 24.0033 249.341 24.078C249.425 24.1527 249.462 24.2413 249.453 24.344C249.443 24.568 249.369 24.8153 249.229 25.086C249.098 25.3473 248.897 25.5947 248.627 25.828C248.365 26.052 248.039 26.2433 247.647 26.402C247.264 26.5607 246.816 26.64 246.303 26.64C245.789 26.64 245.332 26.556 244.931 26.388C244.539 26.22 244.203 25.9913 243.923 25.702C243.652 25.4127 243.437 25.072 243.279 24.68C243.129 24.288 243.045 23.868 243.027 23.42C243.017 23.2707 243.008 23.0887 242.999 22.874C242.999 22.65 243.008 22.4587 243.027 22.3C243.064 21.852 243.157 21.432 243.307 21.04C243.465 20.648 243.68 20.3073 243.951 20.018C244.221 19.7287 244.553 19.5 244.945 19.332C245.337 19.164 245.789 19.08 246.303 19.08C246.816 19.08 247.264 19.1593 247.647 19.318C248.039 19.4767 248.365 19.6727 248.627 19.906C248.897 20.13 249.098 20.3773 249.229 20.648C249.369 20.9093 249.443 21.152 249.453 21.376C249.462 21.4787 249.425 21.5673 249.341 21.642C249.266 21.7167 249.177 21.754 249.075 21.754H248.655C248.552 21.754 248.463 21.7307 248.389 21.684C248.323 21.628 248.258 21.5253 248.193 21.376C248.015 20.984 247.768 20.704 247.451 20.536C247.133 20.368 246.751 20.284 246.303 20.284C246.069 20.284 245.836 20.326 245.603 20.41C245.379 20.4847 245.173 20.606 244.987 20.774C244.809 20.942 244.655 21.1567 244.525 21.418C244.403 21.6793 244.329 21.9967 244.301 22.37C244.273 22.7153 244.273 23.042 244.301 23.35ZM253.032 24.05C253.032 24.2273 253.046 24.3953 253.074 24.554C253.111 24.7033 253.172 24.834 253.256 24.946C253.34 25.058 253.457 25.1467 253.606 25.212C253.765 25.268 253.965 25.296 254.208 25.296H254.95C255.053 25.296 255.141 25.3333 255.216 25.408C255.291 25.4827 255.328 25.5713 255.328 25.674V26.122C255.328 26.2247 255.291 26.3133 255.216 26.388C255.141 26.4627 255.053 26.5 254.95 26.5H254.068C253.256 26.5 252.668 26.29 252.304 25.87C251.94 25.45 251.758 24.8433 251.758 24.05V20.424H250.722C250.619 20.424 250.531 20.3867 250.456 20.312C250.381 20.2373 250.344 20.1487 250.344 20.046V19.598C250.344 19.4953 250.381 19.4067 250.456 19.332C250.531 19.2573 250.619 19.22 250.722 19.22H251.758V16.938C251.758 16.8353 251.795 16.7467 251.87 16.672C251.945 16.5973 252.033 16.56 252.136 16.56H252.654C252.757 16.56 252.845 16.5973 252.92 16.672C252.995 16.7467 253.032 16.8353 253.032 16.938V19.22H254.81C254.913 19.22 255.001 19.2573 255.076 19.332C255.151 19.4067 255.188 19.4953 255.188 19.598V20.046C255.188 20.1487 255.151 20.2373 255.076 20.312C255.001 20.3867 254.913 20.424 254.81 20.424H253.032V24.05ZM258.008 26.122C258.008 26.2247 257.97 26.3133 257.896 26.388C257.821 26.4627 257.732 26.5 257.63 26.5H257.112C257.009 26.5 256.92 26.4627 256.846 26.388C256.771 26.3133 256.734 26.2247 256.734 26.122V19.598C256.734 19.4953 256.771 19.4067 256.846 19.332C256.92 19.2573 257.009 19.22 257.112 19.22H257.63C257.732 19.22 257.821 19.2573 257.896 19.332C257.97 19.4067 258.008 19.4953 258.008 19.598V26.122ZM258.148 17.736C258.148 17.8387 258.11 17.9273 258.036 18.002C257.961 18.0767 257.872 18.114 257.77 18.114H256.972C256.869 18.114 256.78 18.0767 256.706 18.002C256.631 17.9273 256.594 17.8387 256.594 17.736V16.938C256.594 16.8353 256.631 16.7467 256.706 16.672C256.78 16.5973 256.869 16.56 256.972 16.56H257.77C257.872 16.56 257.961 16.5973 258.036 16.672C258.11 16.7467 258.148 16.8353 258.148 16.938V17.736ZM262.729 26.5C262.607 26.5 262.514 26.4627 262.449 26.388C262.383 26.3133 262.332 26.234 262.295 26.15L259.509 19.654C259.499 19.626 259.495 19.5933 259.495 19.556C259.495 19.4627 259.527 19.3833 259.593 19.318C259.658 19.2527 259.737 19.22 259.831 19.22H260.349C260.489 19.22 260.591 19.2573 260.657 19.332C260.731 19.4067 260.783 19.4813 260.811 19.556L262.981 24.638L265.151 19.556C265.179 19.4813 265.225 19.4067 265.291 19.332C265.356 19.2573 265.445 19.22 265.557 19.22H266.131C266.224 19.22 266.303 19.2527 266.369 19.318C266.434 19.3833 266.467 19.4627 266.467 19.556C266.467 19.5933 266.462 19.626 266.453 19.654L263.667 26.15C263.629 26.234 263.578 26.3133 263.513 26.388C263.457 26.4627 263.368 26.5 263.247 26.5H262.729ZM267.335 22.16C267.372 21.7307 267.475 21.3293 267.643 20.956C267.811 20.5827 268.03 20.256 268.301 19.976C268.572 19.696 268.894 19.4767 269.267 19.318C269.65 19.1593 270.074 19.08 270.541 19.08C271.045 19.08 271.493 19.164 271.885 19.332C272.286 19.4907 272.627 19.724 272.907 20.032C273.187 20.34 273.402 20.7133 273.551 21.152C273.7 21.5907 273.775 22.0807 273.775 22.622V23C273.775 23.1027 273.738 23.1913 273.663 23.266C273.588 23.3407 273.5 23.378 273.397 23.378H268.581V23.462C268.6 24.0967 268.791 24.5867 269.155 24.932C269.528 25.268 269.99 25.436 270.541 25.436C271.054 25.436 271.437 25.366 271.689 25.226C271.95 25.0767 272.16 24.9133 272.319 24.736C272.394 24.6613 272.459 24.61 272.515 24.582C272.571 24.554 272.655 24.54 272.767 24.54H273.187C273.29 24.54 273.383 24.5773 273.467 24.652C273.551 24.7267 273.584 24.8153 273.565 24.918C273.537 25.086 273.458 25.2727 273.327 25.478C273.196 25.674 273.005 25.8607 272.753 26.038C272.51 26.206 272.202 26.3507 271.829 26.472C271.465 26.584 271.036 26.64 270.541 26.64C270.074 26.64 269.654 26.5607 269.281 26.402C268.908 26.234 268.581 26.01 268.301 25.73C268.03 25.4407 267.811 25.1047 267.643 24.722C267.475 24.33 267.372 23.9053 267.335 23.448C267.288 23.0187 267.288 22.5893 267.335 22.16ZM268.581 22.202H272.515V22.16C272.515 21.5907 272.333 21.138 271.969 20.802C271.614 20.4567 271.138 20.284 270.541 20.284C270.27 20.284 270.018 20.3307 269.785 20.424C269.552 20.508 269.346 20.634 269.169 20.802C268.992 20.9607 268.852 21.1567 268.749 21.39C268.646 21.6233 268.59 21.88 268.581 22.16V22.202ZM278.812 19.598C278.812 19.4953 278.849 19.4067 278.924 19.332C278.999 19.2573 279.087 19.22 279.19 19.22H279.708C279.811 19.22 279.899 19.2573 279.974 19.332C280.049 19.4067 280.086 19.4953 280.086 19.598V23.294C280.086 24.0127 280.245 24.5493 280.562 24.904C280.889 25.2587 281.36 25.436 281.976 25.436C282.564 25.436 283.026 25.2587 283.362 24.904C283.698 24.5493 283.866 24.0127 283.866 23.294V19.598C283.866 19.4953 283.903 19.4067 283.978 19.332C284.053 19.2573 284.141 19.22 284.244 19.22H284.762C284.865 19.22 284.953 19.2573 285.028 19.332C285.103 19.4067 285.14 19.4953 285.14 19.598V26.122C285.14 26.2247 285.103 26.3133 285.028 26.388C284.953 26.4627 284.865 26.5 284.762 26.5H284.244C284.141 26.5 284.053 26.4627 283.978 26.388C283.903 26.3133 283.866 26.2247 283.866 26.122V25.688C283.689 25.9213 283.437 26.1407 283.11 26.346C282.783 26.542 282.335 26.64 281.766 26.64C281.327 26.64 280.926 26.57 280.562 26.43C280.198 26.2807 279.885 26.0753 279.624 25.814C279.363 25.5433 279.162 25.2167 279.022 24.834C278.882 24.442 278.812 23.9987 278.812 23.504V19.598ZM291.38 24.484C291.38 24.3067 291.328 24.162 291.226 24.05C291.132 23.9287 290.988 23.826 290.792 23.742C290.596 23.658 290.344 23.5787 290.036 23.504C289.737 23.4293 289.387 23.35 288.986 23.266C288.23 23.1073 287.698 22.846 287.39 22.482C287.091 22.1087 286.942 21.6747 286.942 21.18C286.942 20.9 286.998 20.634 287.11 20.382C287.222 20.13 287.39 19.906 287.614 19.71C287.838 19.514 288.118 19.36 288.454 19.248C288.799 19.136 289.2 19.08 289.658 19.08C290.115 19.08 290.512 19.1313 290.848 19.234C291.193 19.3367 291.482 19.4673 291.716 19.626C291.949 19.7847 292.126 19.9573 292.248 20.144C292.369 20.3213 292.434 20.494 292.444 20.662C292.453 20.7647 292.416 20.8533 292.332 20.928C292.257 21.0027 292.168 21.04 292.066 21.04H291.604C291.548 21.04 291.478 21.0307 291.394 21.012C291.319 20.984 291.249 20.928 291.184 20.844C291.062 20.6853 290.88 20.5547 290.638 20.452C290.404 20.34 290.078 20.284 289.658 20.284C289.228 20.284 288.878 20.3633 288.608 20.522C288.346 20.6807 288.216 20.9 288.216 21.18C288.216 21.3573 288.253 21.502 288.328 21.614C288.402 21.7167 288.524 21.81 288.692 21.894C288.86 21.9687 289.079 22.0387 289.35 22.104C289.63 22.1693 289.975 22.2487 290.386 22.342C290.815 22.4353 291.174 22.5567 291.464 22.706C291.753 22.846 291.986 23.0093 292.164 23.196C292.341 23.3733 292.467 23.574 292.542 23.798C292.616 24.0127 292.654 24.2413 292.654 24.484C292.654 24.764 292.584 25.0347 292.444 25.296C292.313 25.5573 292.122 25.786 291.87 25.982C291.618 26.178 291.31 26.3367 290.946 26.458C290.591 26.5793 290.185 26.64 289.728 26.64C289.27 26.64 288.864 26.584 288.51 26.472C288.155 26.36 287.852 26.2247 287.6 26.066C287.348 25.898 287.152 25.7207 287.012 25.534C286.881 25.338 286.811 25.156 286.802 24.988C286.792 24.8853 286.825 24.7967 286.9 24.722C286.974 24.6473 287.068 24.61 287.18 24.61H287.684C287.74 24.61 287.805 24.6193 287.88 24.638C287.954 24.6473 288.024 24.6987 288.09 24.792C288.239 24.9973 288.444 25.156 288.706 25.268C288.967 25.38 289.308 25.436 289.728 25.436C289.933 25.436 290.134 25.4127 290.33 25.366C290.535 25.3193 290.712 25.254 290.862 25.17C291.02 25.086 291.146 24.988 291.24 24.876C291.333 24.7547 291.38 24.624 291.38 24.484ZM293.982 22.16C294.019 21.7307 294.122 21.3293 294.29 20.956C294.458 20.5827 294.677 20.256 294.948 19.976C295.218 19.696 295.54 19.4767 295.914 19.318C296.296 19.1593 296.721 19.08 297.188 19.08C297.692 19.08 298.14 19.164 298.532 19.332C298.933 19.4907 299.274 19.724 299.554 20.032C299.834 20.34 300.048 20.7133 300.198 21.152C300.347 21.5907 300.422 22.0807 300.422 22.622V23C300.422 23.1027 300.384 23.1913 300.31 23.266C300.235 23.3407 300.146 23.378 300.044 23.378H295.228V23.462C295.246 24.0967 295.438 24.5867 295.802 24.932C296.175 25.268 296.637 25.436 297.188 25.436C297.701 25.436 298.084 25.366 298.336 25.226C298.597 25.0767 298.807 24.9133 298.966 24.736C299.04 24.6613 299.106 24.61 299.162 24.582C299.218 24.554 299.302 24.54 299.414 24.54H299.834C299.936 24.54 300.03 24.5773 300.114 24.652C300.198 24.7267 300.23 24.8153 300.212 24.918C300.184 25.086 300.104 25.2727 299.974 25.478C299.843 25.674 299.652 25.8607 299.4 26.038C299.157 26.206 298.849 26.3507 298.476 26.472C298.112 26.584 297.682 26.64 297.188 26.64C296.721 26.64 296.301 26.5607 295.928 26.402C295.554 26.234 295.228 26.01 294.948 25.73C294.677 25.4407 294.458 25.1047 294.29 24.722C294.122 24.33 294.019 23.9053 293.982 23.448C293.935 23.0187 293.935 22.5893 293.982 22.16ZM295.228 22.202H299.162V22.16C299.162 21.5907 298.98 21.138 298.616 20.802C298.261 20.4567 297.785 20.284 297.188 20.284C296.917 20.284 296.665 20.3307 296.432 20.424C296.198 20.508 295.993 20.634 295.816 20.802C295.638 20.9607 295.498 21.1567 295.396 21.39C295.293 21.6233 295.237 21.88 295.228 22.16V22.202ZM305.807 19.22C305.909 19.22 305.998 19.2573 306.073 19.332C306.147 19.4067 306.185 19.4953 306.185 19.598V20.046C306.185 20.1487 306.147 20.2373 306.073 20.312C305.998 20.3867 305.909 20.424 305.807 20.424H304.995C303.921 20.424 303.385 20.9607 303.385 22.034V26.122C303.385 26.2247 303.347 26.3133 303.273 26.388C303.198 26.4627 303.109 26.5 303.007 26.5H302.489C302.386 26.5 302.297 26.4627 302.223 26.388C302.148 26.3133 302.111 26.2247 302.111 26.122V19.598C302.111 19.4953 302.148 19.4067 302.223 19.332C302.297 19.2573 302.386 19.22 302.489 19.22H303.007C303.109 19.22 303.198 19.2573 303.273 19.332C303.347 19.4067 303.385 19.4953 303.385 19.598V20.032C303.571 19.752 303.795 19.5467 304.057 19.416C304.318 19.2853 304.659 19.22 305.079 19.22H305.807ZM311.546 24.484C311.546 24.3067 311.494 24.162 311.392 24.05C311.298 23.9287 311.154 23.826 310.958 23.742C310.762 23.658 310.51 23.5787 310.202 23.504C309.903 23.4293 309.553 23.35 309.152 23.266C308.396 23.1073 307.864 22.846 307.556 22.482C307.257 22.1087 307.108 21.6747 307.108 21.18C307.108 20.9 307.164 20.634 307.276 20.382C307.388 20.13 307.556 19.906 307.78 19.71C308.004 19.514 308.284 19.36 308.62 19.248C308.965 19.136 309.366 19.08 309.824 19.08C310.281 19.08 310.678 19.1313 311.014 19.234C311.359 19.3367 311.648 19.4673 311.882 19.626C312.115 19.7847 312.292 19.9573 312.414 20.144C312.535 20.3213 312.6 20.494 312.61 20.662C312.619 20.7647 312.582 20.8533 312.498 20.928C312.423 21.0027 312.334 21.04 312.232 21.04H311.77C311.714 21.04 311.644 21.0307 311.56 21.012C311.485 20.984 311.415 20.928 311.35 20.844C311.228 20.6853 311.046 20.5547 310.804 20.452C310.57 20.34 310.244 20.284 309.824 20.284C309.394 20.284 309.044 20.3633 308.774 20.522C308.512 20.6807 308.382 20.9 308.382 21.18C308.382 21.3573 308.419 21.502 308.494 21.614C308.568 21.7167 308.69 21.81 308.858 21.894C309.026 21.9687 309.245 22.0387 309.516 22.104C309.796 22.1693 310.141 22.2487 310.552 22.342C310.981 22.4353 311.34 22.5567 311.63 22.706C311.919 22.846 312.152 23.0093 312.33 23.196C312.507 23.3733 312.633 23.574 312.708 23.798C312.782 24.0127 312.82 24.2413 312.82 24.484C312.82 24.764 312.75 25.0347 312.61 25.296C312.479 25.5573 312.288 25.786 312.036 25.982C311.784 26.178 311.476 26.3367 311.112 26.458C310.757 26.5793 310.351 26.64 309.894 26.64C309.436 26.64 309.03 26.584 308.676 26.472C308.321 26.36 308.018 26.2247 307.766 26.066C307.514 25.898 307.318 25.7207 307.178 25.534C307.047 25.338 306.977 25.156 306.968 24.988C306.958 24.8853 306.991 24.7967 307.066 24.722C307.14 24.6473 307.234 24.61 307.346 24.61H307.85C307.906 24.61 307.971 24.6193 308.046 24.638C308.12 24.6473 308.19 24.6987 308.256 24.792C308.405 24.9973 308.61 25.156 308.872 25.268C309.133 25.38 309.474 25.436 309.894 25.436C310.099 25.436 310.3 25.4127 310.496 25.366C310.701 25.3193 310.878 25.254 311.028 25.17C311.186 25.086 311.312 24.988 311.406 24.876C311.499 24.7547 311.546 24.624 311.546 24.484ZM315.632 24.806C315.734 24.806 315.823 24.8433 315.898 24.918C315.972 24.9927 316.01 25.0813 316.01 25.184V26.122C316.01 26.2247 315.972 26.3133 315.898 26.388C315.823 26.4627 315.734 26.5 315.632 26.5H314.694C314.591 26.5 314.502 26.4627 314.428 26.388C314.353 26.3133 314.316 26.2247 314.316 26.122V25.184C314.316 25.0813 314.353 24.9927 314.428 24.918C314.502 24.8433 314.591 24.806 314.694 24.806H315.632Z" fill="#666666"/>
<defs>
<clipPath id="clip0_2418_5045">
<rect x="3" y="3.5" width="36" height="36" rx="18" fill="white"/>
</clipPath>
<clipPath id="clip1_2418_5045">
<rect x="29" y="3.5" width="36" height="36" rx="18" fill="white"/>
</clipPath>
<clipPath id="clip2_2418_5045">
<rect x="55" y="3.5" width="36" height="36" rx="18" fill="white"/>
</clipPath>
<clipPath id="clip3_2418_5045">
<rect x="81" y="3.5" width="36" height="36" rx="18" fill="white"/>
</clipPath>
</defs>
</svg>
