<svg width="244" height="491" viewBox="0 0 244 491" fill="none" xmlns="http://www.w3.org/2000/svg">
<path d="M203.021 490.693L36.307 490.607C26.6767 490.604 17.4419 486.776 10.6333 479.965C3.82479 473.154 -5.54061e-07 463.918 0 454.288L0.0862396 36.3071C0.0878568 31.5365 1.02929 26.813 2.85677 22.4063C4.68426 17.9997 7.36198 13.9962 10.737 10.6246C14.112 7.25305 18.1182 4.5794 22.5267 2.75641C26.9352 0.933406 31.6597 -0.00322839 36.4302 8.36036e-06L203.144 0.0985706C207.912 0.100188 212.633 1.0409 217.038 2.86699C221.442 4.69308 225.444 7.3688 228.814 10.7414C232.184 14.1139 234.857 18.1173 236.68 22.5229C238.503 26.9285 239.441 31.65 239.439 36.4179L239.365 454.399C239.362 459.168 238.419 463.89 236.591 468.296C234.763 472.701 232.085 476.703 228.71 480.073C225.335 483.443 221.33 486.116 216.922 487.938C212.514 489.76 207.791 490.697 203.021 490.693Z" fill="#263238"/>
<path d="M202.972 14.8708H170.644C168.516 14.9193 166.494 15.8107 165.022 17.3492C163.551 18.8877 162.75 20.9475 162.796 23.0759V28.9402C162.842 31.0687 162.042 33.1284 160.57 34.6669C159.099 36.2055 157.077 37.0969 154.948 37.1454H91.9316C89.8021 37.0937 87.78 36.1995 86.3088 34.6591C84.8376 33.1186 84.0374 31.0575 84.0837 28.9279V23.002C84.1267 20.8724 83.3234 18.8127 81.8499 17.2745C80.3764 15.7364 78.3531 14.8454 76.2236 14.7969H36.5778C33.2375 14.7953 29.9295 15.4518 26.843 16.729C23.7564 18.0061 20.9518 19.8789 18.5892 22.2403C16.2266 24.6018 14.3525 27.4055 13.0738 30.4915C11.7952 33.5774 11.137 36.885 11.137 40.2254L11.0508 448.202C11.0508 454.945 13.7278 461.412 18.4935 466.183C23.2592 470.953 29.7239 473.636 36.4669 473.643L202.861 473.741C209.607 473.742 216.078 471.063 220.85 466.295C225.623 461.527 228.307 455.059 228.314 448.313L228.437 40.3116C228.437 36.9686 227.778 33.6584 226.498 30.5701C225.218 27.4819 223.342 24.6762 220.977 22.3135C218.612 19.9508 215.805 18.0774 212.715 16.8003C209.626 15.5232 206.315 14.8676 202.972 14.8708Z" fill="white"/>
<path d="M190.837 446.513H48.5656C46.8654 446.51 45.2359 445.832 44.0348 444.629C42.8337 443.425 42.1592 441.794 42.1592 440.094V401.2C42.1592 399.5 42.8337 397.869 44.0348 396.666C45.2359 395.462 46.8654 394.785 48.5656 394.781H190.837C192.537 394.785 194.167 395.462 195.368 396.666C196.569 397.869 197.243 399.5 197.243 401.2V440.094C197.243 441.794 196.569 443.425 195.368 444.629C194.167 445.832 192.537 446.51 190.837 446.513ZM48.5656 396.013C47.1921 396.017 45.876 396.564 44.906 397.537C43.9359 398.509 43.3912 399.826 43.3912 401.2V440.094C43.3912 441.468 43.9359 442.785 44.906 443.757C45.876 444.73 47.1921 445.278 48.5656 445.281H190.837C192.21 445.278 193.527 444.73 194.497 443.757C195.467 442.785 196.011 441.468 196.011 440.094V401.2C196.011 399.826 195.467 398.509 194.497 397.537C193.527 396.564 192.21 396.017 190.837 396.013H48.5656Z" fill="#E0E0E0"/>
<path d="M81.3489 417.601C81.3507 415.829 80.9439 414.082 80.1603 412.493C79.3767 410.905 78.2373 409.518 76.8307 408.442C75.4242 407.365 73.7883 406.628 72.0503 406.286C70.3123 405.945 68.5189 406.009 66.8097 406.473C65.1004 406.938 63.5212 407.79 62.1949 408.964C60.8686 410.138 59.8309 411.602 59.1624 413.242C58.4939 414.882 58.2127 416.655 58.3406 418.421C58.4685 420.188 59.0021 421.901 59.8998 423.428C60.3433 424.18 60.8977 424.66 61.4521 425.485L68.1419 434.356C68.3374 434.611 68.5892 434.818 68.8776 434.961C69.166 435.103 69.4834 435.177 69.8051 435.177C70.1268 435.177 70.4442 435.103 70.7326 434.961C71.021 434.818 71.2728 434.611 71.4683 434.356L78.0472 425.633C78.6418 424.925 79.1971 424.185 79.7104 423.416C80.7636 421.657 81.3292 419.65 81.3489 417.601ZM69.8297 422.627C68.8253 422.63 67.8427 422.334 67.0064 421.778C66.1701 421.222 65.5176 420.43 65.1315 419.502C64.7454 418.575 64.6432 417.554 64.8376 416.569C65.0321 415.583 65.5145 414.678 66.2239 413.967C66.9333 413.256 67.8377 412.771 68.8226 412.574C69.8076 412.377 70.8288 412.477 71.757 412.861C72.6852 413.245 73.4787 413.895 74.037 414.73C74.5953 415.565 74.8933 416.547 74.8933 417.551C74.89 418.894 74.3559 420.182 73.4074 421.133C72.4588 422.083 71.1728 422.621 69.8297 422.627Z" fill="#4834D4"/>
<path d="M176.447 414.262H105.151C101.783 414.262 99.0527 416.992 99.0527 420.36V421.839C99.0527 425.207 101.783 427.937 105.151 427.937H176.447C179.815 427.937 182.545 425.207 182.545 421.839V420.36C182.545 416.992 179.815 414.262 176.447 414.262Z" fill="#E0E0E0"/>
<path d="M40.668 320.383C40.668 315.184 44.6473 311.5 50.0681 311.5C51.4649 311.429 52.8592 311.682 54.1417 312.24C55.4242 312.798 56.56 313.645 57.4601 314.716L54.3801 317.5C53.909 316.878 53.2998 316.374 52.6007 316.028C51.9017 315.681 51.1317 315.502 50.3515 315.504C49.1768 315.671 48.102 316.257 47.3244 317.153C46.5468 318.05 46.1187 319.196 46.1187 320.383C46.1187 321.569 46.5468 322.716 47.3244 323.612C48.102 324.509 49.1768 325.094 50.3515 325.262C51.1325 325.261 51.9029 325.079 52.6019 324.731C53.3009 324.383 53.9096 323.877 54.3801 323.253L57.4601 326.038C56.5625 327.112 55.4274 327.963 54.1445 328.523C52.8617 329.083 51.4661 329.337 50.0681 329.266C44.6473 329.216 40.668 325.582 40.668 320.383Z" fill="black"/>
<path d="M58.3105 320.383C58.3105 315.258 62.3392 311.5 67.7969 311.5C73.2547 311.5 77.2957 315.258 77.2957 320.383C77.2957 325.508 73.267 329.265 67.7969 329.265C62.3269 329.265 58.3105 325.52 58.3105 320.383ZM72.4169 320.383C72.3569 319.485 72.0358 318.623 71.4931 317.905C70.9503 317.187 70.2096 316.643 69.3619 316.34C68.5142 316.037 67.5965 315.989 66.7215 316.2C65.8466 316.412 65.0524 316.874 64.4368 317.531C63.8211 318.188 63.4107 319.01 63.256 319.897C63.1013 320.784 63.209 321.696 63.5659 322.523C63.9229 323.349 64.5134 324.053 65.2651 324.548C66.0168 325.044 66.8968 325.309 67.7969 325.311C68.4326 325.32 69.0631 325.196 69.6482 324.947C70.2332 324.698 70.76 324.33 71.1948 323.867C71.6295 323.403 71.9628 322.853 72.1733 322.254C72.3837 321.654 72.4667 321.016 72.4169 320.383Z" fill="black"/>
<path d="M96.0841 311.832V328.92H92.1047L84.5649 319.815V328.92H79.834V311.832H83.8133L91.3532 320.936V311.832H96.0841Z" fill="black"/>
<path d="M104.326 315.577V319.273H111.865V322.969H104.326V328.821H99.4961V311.832H112.888V315.528L104.326 315.577Z" fill="black"/>
<path d="M115.167 311.832H120.021V328.92H115.192L115.167 311.832Z" fill="black"/>
<path d="M130.9 324.386H128.264V328.92H123.435V311.832H131.245C135.902 311.832 138.835 314.296 138.835 318.152C138.879 319.283 138.583 320.402 137.986 321.364C137.389 322.326 136.517 323.086 135.484 323.548L139.18 328.92H134.017L130.9 324.386ZM130.9 315.639H128.215V320.653H130.9C132.896 320.653 133.907 319.717 133.907 318.189C133.907 316.661 132.946 315.664 130.95 315.664L130.9 315.639Z" fill="black"/>
<path d="M156.908 328.92V319.865L152.522 327.257H150.366L146.004 320.136V328.944H141.532V311.832H145.512L151.524 321.688L157.376 311.832H161.355V328.92H156.908Z" fill="black"/>
<path d="M178.48 325.187V328.883H164.768V311.832H178.159V315.528H169.535V318.399H177.125V322.008H169.548V325.138L178.48 325.187Z" fill="black"/>
<path d="M181.166 311.832H189.236C194.903 311.832 198.784 315.134 198.784 320.382C198.784 325.63 194.903 328.92 189.236 328.92H181.166V311.832ZM189.051 325.064C189.687 325.096 190.322 324.999 190.92 324.778C191.517 324.558 192.063 324.217 192.524 323.779C192.986 323.34 193.353 322.813 193.604 322.228C193.856 321.643 193.985 321.013 193.985 320.376C193.985 319.739 193.856 319.109 193.604 318.524C193.353 317.939 192.986 317.411 192.524 316.973C192.063 316.534 191.517 316.194 190.92 315.974C190.322 315.753 189.687 315.656 189.051 315.688H185.995V325.064H189.051Z" fill="black"/>
<path d="M174.008 367.406H65.4442C62.5389 367.406 60.1836 369.762 60.1836 372.667V373.936C60.1836 376.841 62.5389 379.196 65.4442 379.196H174.008C176.913 379.196 179.269 376.841 179.269 373.936V372.667C179.269 369.762 176.913 367.406 174.008 367.406Z" fill="#E0E0E0"/>
<path d="M50.1296 56.5617H34.6187C34.292 56.5617 33.9786 56.4319 33.7476 56.2008C33.5165 55.9698 33.3867 55.6564 33.3867 55.3297C33.3867 55.0029 33.5165 54.6895 33.7476 54.4585C33.9786 54.2275 34.292 54.0977 34.6187 54.0977H50.1296C50.4563 54.0977 50.7697 54.2275 51.0008 54.4585C51.2318 54.6895 51.3616 55.0029 51.3616 55.3297C51.3616 55.4914 51.3297 55.6516 51.2678 55.8011C51.2059 55.9506 51.1152 56.0864 51.0008 56.2008C50.8864 56.3152 50.7505 56.406 50.6011 56.4679C50.4516 56.5298 50.2914 56.5617 50.1296 56.5617Z" fill="#263238"/>
<path d="M49.9825 61.6007H34.484C34.1572 61.6007 33.8438 61.4709 33.6128 61.2399C33.3818 61.0088 33.252 60.6955 33.252 60.3687C33.252 60.042 33.3818 59.7286 33.6128 59.4976C33.8438 59.2665 34.1572 59.1367 34.484 59.1367H49.9825C50.3093 59.1367 50.6226 59.2665 50.8537 59.4976C51.0847 59.7286 51.2145 60.042 51.2145 60.3687C51.2145 60.6955 51.0847 61.0088 50.8537 61.2399C50.6226 61.4709 50.3093 61.6007 49.9825 61.6007Z" fill="#263238"/>
<path d="M49.7971 66.6281H34.3355C34.0088 66.6281 33.6954 66.4983 33.4644 66.2672C33.2333 66.0362 33.1035 65.7228 33.1035 65.3961C33.1035 65.0693 33.2333 64.756 33.4644 64.5249C33.6954 64.2939 34.0088 64.1641 34.3355 64.1641H49.7971C50.1239 64.1641 50.4372 64.2939 50.6683 64.5249C50.8993 64.756 51.0291 65.0693 51.0291 65.3961C51.0291 65.7228 50.8993 66.0362 50.6683 66.2672C50.4372 66.4983 50.1239 66.6281 49.7971 66.6281Z" fill="#263238"/>
</svg>
