<svg width="136" height="41" viewBox="0 0 136 41" fill="none" xmlns="http://www.w3.org/2000/svg">
<path d="M130.963 40.1484H5.03704C2.26793 40.1484 0 37.9342 0 35.2306V5.72334C0 3.01974 2.26793 0.805472 5.03704 0.805472H130.963C133.732 0.805472 136 3.01974 136 5.72334V35.2306C136 37.9342 133.732 40.1484 130.963 40.1484Z" fill="black"/>
<path d="M130.963 1.59356C133.295 1.59356 135.193 3.44637 135.193 5.72334V35.2306C135.193 37.5075 133.295 39.3603 130.963 39.3603H5.03704C2.70489 39.3603 0.807185 37.5075 0.807185 35.2306V5.72334C0.807185 3.44637 2.70489 1.59356 5.03704 1.59356H130.963ZM130.963 0.805472H5.03704C2.26793 0.805472 0 3.01974 0 5.72334V35.2306C0 37.9342 2.26793 40.1484 5.03704 40.1484H130.963C133.732 40.1484 136 37.9342 136 35.2306V5.72334C136 3.01974 133.732 0.805472 130.963 0.805472Z" fill="#A6A6A6"/>
<path d="M47.7691 10.8818C47.7691 11.7031 47.5173 12.3609 47.0211 12.8515C46.4507 13.433 45.7077 13.7256 44.7973 13.7256C43.9271 13.7256 43.1841 13.4281 42.5747 12.8416C41.9639 12.2466 41.6592 11.5162 41.6592 10.6421C41.6592 9.76795 41.9639 9.03764 42.5747 8.4475C43.1841 7.85613 43.9271 7.55859 44.7973 7.55859C45.2304 7.55859 45.6435 7.64589 46.0376 7.80818C46.4305 7.97169 46.7504 8.193 46.9821 8.46594L46.4557 8.98478C46.0515 8.51881 45.5012 8.2889 44.7973 8.2889C44.1626 8.2889 43.6123 8.50528 43.1451 8.94174C42.683 9.37944 42.4513 9.94622 42.4513 10.6421C42.4513 11.338 42.683 11.9097 43.1451 12.3474C43.6123 12.7789 44.1626 13.0002 44.7973 13.0002C45.471 13.0002 46.0376 12.7789 46.4847 12.3425C46.7793 12.0535 46.9468 11.6552 46.9909 11.1462H44.7973V10.4355H47.7238C47.759 10.5892 47.7691 10.738 47.7691 10.8818Z" fill="white" stroke="white" strokeWidth="0.16" stroke-miterlimit="10"/>
<path d="M52.411 8.41947H49.662V10.2883H52.1402V10.9989H49.662V12.8677H52.411V13.5918H48.8838V7.69531H52.411V8.41947Z" fill="white" stroke="white" strokeWidth="0.16" stroke-miterlimit="10"/>
<path d="M55.688 13.5918H54.9098V8.41947H53.2236V7.69531H57.3754V8.41947H55.688V13.5918Z" fill="white" stroke="white" strokeWidth="0.16" stroke-miterlimit="10"/>
<path d="M60.3799 13.5918V7.69531H61.1568V13.5918H60.3799Z" fill="white" stroke="white" strokeWidth="0.16" stroke-miterlimit="10"/>
<path d="M64.6011 13.5918H63.8292V8.41947H62.1367V7.69531H66.2935V8.41947H64.6011V13.5918Z" fill="white" stroke="white" strokeWidth="0.16" stroke-miterlimit="10"/>
<path d="M74.1539 12.8318C73.5583 13.4281 72.8204 13.7256 71.9402 13.7256C71.0549 13.7256 70.317 13.4281 69.7214 12.8318C69.127 12.2367 68.8311 11.5064 68.8311 10.6421C68.8311 9.77778 69.127 9.04748 69.7214 8.45242C70.317 7.85613 71.0549 7.55859 71.9402 7.55859C72.8153 7.55859 73.5533 7.85612 74.1489 8.45733C74.7483 9.05731 75.0442 9.7827 75.0442 10.6421C75.0442 11.5064 74.7483 12.2367 74.1539 12.8318ZM70.2968 12.3375C70.7451 12.7789 71.2904 13.0002 71.9402 13.0002C72.5849 13.0002 73.1352 12.7789 73.5785 12.3375C74.0255 11.8962 74.2522 11.3294 74.2522 10.6421C74.2522 9.95483 74.0255 9.38804 73.5785 8.94666C73.1352 8.50528 72.5849 8.28398 71.9402 8.28398C71.2904 8.28398 70.7451 8.50528 70.2968 8.94666C69.8498 9.38804 69.6231 9.95483 69.6231 10.6421C69.6231 11.3294 69.8498 11.8962 70.2968 12.3375Z" fill="white" stroke="white" strokeWidth="0.16" stroke-miterlimit="10"/>
<path d="M76.1357 13.5918V7.69531H77.0802L80.0168 12.2812H80.0508L80.0168 11.1477V7.69531H80.7937V13.5918H79.9828L76.9077 8.7797H76.8737L76.9077 9.91819V13.5918H76.1357Z" fill="white" stroke="white" strokeWidth="0.16" stroke-miterlimit="10"/>
<path d="M68.6394 22.2017C66.2733 22.2017 64.3403 23.9598 64.3403 26.3855C64.3403 28.7916 66.2733 30.5682 68.6394 30.5682C71.0106 30.5682 72.9436 28.7916 72.9436 26.3855C72.9436 23.9598 71.0106 22.2017 68.6394 22.2017ZM68.6394 28.9207C67.3411 28.9207 66.2242 27.8744 66.2242 26.3855C66.2242 24.877 67.3411 23.8492 68.6394 23.8492C69.9377 23.8492 71.0597 24.877 71.0597 26.3855C71.0597 27.8744 69.9377 28.9207 68.6394 28.9207ZM59.2592 22.2017C56.888 22.2017 54.9601 23.9598 54.9601 26.3855C54.9601 28.7916 56.888 30.5682 59.2592 30.5682C61.6291 30.5682 63.5583 28.7916 63.5583 26.3855C63.5583 23.9598 61.6291 22.2017 59.2592 22.2017ZM59.2592 28.9207C57.9597 28.9207 56.8389 27.8744 56.8389 26.3855C56.8389 24.877 57.9597 23.8492 59.2592 23.8492C60.5575 23.8492 61.6745 24.877 61.6745 26.3855C61.6745 27.8744 60.5575 28.9207 59.2592 28.9207ZM48.0972 23.484V25.2618H52.4454C52.3182 26.2552 51.9782 26.9855 51.4569 27.4945C50.8222 28.1093 49.8337 28.7916 48.0972 28.7916C45.4212 28.7916 43.3258 26.6831 43.3258 24.0705C43.3258 21.4578 45.4212 19.3493 48.0972 19.3493C49.544 19.3493 50.5968 19.9013 51.3737 20.6169L52.6569 19.3641C51.5702 18.351 50.1246 17.5727 48.0972 17.5727C44.4277 17.5727 41.3438 20.4878 41.3438 24.0705C41.3438 27.6531 44.4277 30.5682 48.0972 30.5682C50.0805 30.5682 51.5702 29.9338 52.7413 28.7437C53.9414 27.572 54.3154 25.9245 54.3154 24.5942C54.3154 24.1811 54.2801 23.8012 54.2172 23.484H48.0972ZM93.7403 24.8622C93.3864 23.9266 92.2946 22.2017 90.0708 22.2017C87.8671 22.2017 86.0323 23.8971 86.0323 26.3855C86.0323 28.7289 87.8482 30.5682 90.2823 30.5682C92.2505 30.5682 93.3864 29.3965 93.8536 28.7142L92.3928 27.7638C91.9055 28.4597 91.2419 28.9207 90.2823 28.9207C89.3291 28.9207 88.6453 28.4941 88.2071 27.6531L93.938 25.338L93.7403 24.8622ZM87.8973 26.2552C87.8482 24.6422 89.1805 23.816 90.135 23.816C90.883 23.816 91.5177 24.1811 91.7292 24.7036L87.8973 26.2552ZM83.2393 30.3137H85.1231V18.019H83.2393V30.3137ZM80.1541 23.1336H80.0911C79.668 22.6443 78.8609 22.2017 77.8383 22.2017C75.6926 22.2017 73.7306 24.041 73.7306 26.3991C73.7306 28.7437 75.6926 30.5682 77.8383 30.5682C78.8609 30.5682 79.668 30.1219 80.0911 29.6178H80.1541V30.2178C80.1541 31.8173 79.2789 32.6767 77.8673 32.6767C76.7163 32.6767 76.0023 31.8653 75.7077 31.1829L74.0694 31.8505C74.5416 32.9595 75.792 34.3242 77.8673 34.3242C80.076 34.3242 81.9397 33.0554 81.9397 29.9682V22.4562H80.1541V23.1336ZM77.9995 28.9207C76.7012 28.9207 75.6145 27.8597 75.6145 26.3991C75.6145 24.9249 76.7012 23.8492 77.9995 23.8492C79.2789 23.8492 80.2876 24.9249 80.2876 26.3991C80.2876 27.8597 79.2789 28.9207 77.9995 28.9207ZM102.56 18.019H98.0545V30.3137H99.9333V25.6552H102.56C104.647 25.6552 106.693 24.1811 106.693 21.8365C106.693 19.4932 104.642 18.019 102.56 18.019ZM102.609 23.9451H99.9333V19.7292H102.609C104.012 19.7292 104.813 20.8665 104.813 21.8365C104.813 22.7881 104.012 23.9451 102.609 23.9451ZM114.223 22.1783C112.866 22.1783 111.454 22.7635 110.874 24.0606L112.541 24.743C112.9 24.0606 113.56 23.8393 114.257 23.8393C115.232 23.8393 116.221 24.411 116.236 25.4204V25.5495C115.896 25.3577 115.168 25.0737 114.272 25.0737C112.477 25.0737 110.647 26.0388 110.647 27.84C110.647 29.4875 112.118 30.5485 113.771 30.5485C115.036 30.5485 115.733 29.9916 116.171 29.3436H116.236V30.294H118.05V25.5778C118.05 23.3979 116.383 22.1783 114.223 22.1783ZM113.997 28.9158C113.382 28.9158 112.526 28.6183 112.526 27.8744C112.526 26.9228 113.594 26.5577 114.518 26.5577C115.345 26.5577 115.733 26.7359 116.236 26.9708C116.088 28.1093 115.085 28.9158 113.997 28.9158ZM124.661 22.4476L122.502 27.7773H122.438L120.205 22.4476H118.179L121.533 29.8957L119.619 34.0402H121.582L126.752 22.4476H124.661ZM107.726 30.3137H109.609V18.019H107.726V30.3137Z" fill="white"/>
<path d="M10.5121 8.22025C10.2162 8.5227 10.0449 8.99358 10.0449 9.6034V31.3551C10.0449 31.965 10.2162 32.4358 10.5121 32.7383L10.5851 32.8047L23.0694 20.6207V20.333L10.5851 8.14894L10.5121 8.22025Z" fill="url(#paint0_linear_5889_46618)"/>
<path d="M27.2262 24.6836L23.0693 20.6202V20.3325L27.2312 16.2691L27.3244 16.322L32.2531 19.06C33.6597 19.837 33.6597 21.1157 32.2531 21.8976L27.3244 24.6307L27.2262 24.6836Z" fill="url(#paint1_linear_5889_46618)"/>
<path d="M27.3241 24.632L23.069 20.4776L10.5117 32.7391C10.9789 33.2186 11.7408 33.2764 12.6071 32.7969L27.3241 24.632Z" fill="url(#paint2_linear_5889_46618)"/>
<path d="M27.3241 16.3222L12.6071 8.1573C11.7408 7.68272 10.9789 7.74051 10.5117 8.22L23.069 20.4766L27.3241 16.3222Z" fill="url(#paint3_linear_5889_46618)"/>
<defs>
<linearGradient id="paint0_linear_5889_46618" x1="21.961" y1="31.5817" x2="5.45898" y2="14.6798" gradientUnits="userSpaceOnUse">
<stop stop-color="#00A0FF"/>
<stop offset="0.0066" stop-color="#00A1FF"/>
<stop offset="0.2601" stop-color="#00BEFF"/>
<stop offset="0.5122" stop-color="#00D2FF"/>
<stop offset="0.7604" stop-color="#00DFFF"/>
<stop offset="1" stop-color="#00E3FF"/>
</linearGradient>
<linearGradient id="paint1_linear_5889_46618" x1="34.0847" y1="20.475" x2="9.7086" y2="20.475" gradientUnits="userSpaceOnUse">
<stop stop-color="#FFE000"/>
<stop offset="0.4087" stop-color="#FFBD00"/>
<stop offset="0.7754" stop-color="#FFA500"/>
<stop offset="1" stop-color="#FF9C00"/>
</linearGradient>
<linearGradient id="paint2_linear_5889_46618" x1="25.0103" y1="18.2192" x2="2.63226" y2="-4.70108" gradientUnits="userSpaceOnUse">
<stop stop-color="#FF3A44"/>
<stop offset="1" stop-color="#C31162"/>
</linearGradient>
<linearGradient id="paint3_linear_5889_46618" x1="7.35078" y1="39.9747" x2="17.3436" y2="29.7399" gradientUnits="userSpaceOnUse">
<stop stop-color="#32A071"/>
<stop offset="0.0685" stop-color="#2DA771"/>
<stop offset="0.4762" stop-color="#15CF74"/>
<stop offset="0.8009" stop-color="#06E775"/>
<stop offset="1" stop-color="#00F076"/>
</linearGradient>
</defs>
</svg>
