<svg width="543" height="543" viewBox="0 0 543 543" fill="none" xmlns="http://www.w3.org/2000/svg">
<path d="M495.521 420.285L217.896 260.035C215.301 258.723 212.435 258.039 209.528 258.039C206.621 258.039 203.754 258.723 201.16 260.035L44.331 350.368C38.0865 353.974 38.0756 359.871 44.331 363.476L319.969 522.576C322.257 523.73 324.785 524.331 327.348 524.331C329.911 524.331 332.439 523.73 334.727 522.576L495.531 429.951C500.125 427.29 500.125 422.935 495.521 420.285Z" fill="#EBEBEB"/>
<path d="M194.709 488.309L122.37 473.051L99.8359 490.991L194.709 488.309Z" fill="#4834D4"/>
<g opacity="0.15">
<path d="M194.709 488.309L122.37 473.051L99.8359 490.991L194.709 488.309Z" fill="white"/>
</g>
<path d="M194.709 488.312L128.507 465.375L134.806 448.238L194.709 488.312Z" fill="#4834D4"/>
<g opacity="0.15">
<path d="M194.709 488.308L128.507 465.371L134.806 448.234L194.709 488.308Z" fill="white"/>
</g>
<path d="M128.507 465.371L132.188 475.113L194.709 488.307L128.507 465.371Z" fill="#4834D4"/>
<g opacity="0.2">
<path d="M128.507 465.371L132.188 475.113L194.709 488.307L128.507 465.371Z" fill="black"/>
</g>
<path d="M120.373 466.721C120.527 466.684 120.663 466.591 120.753 466.46C120.858 466.303 120.903 466.113 120.879 465.926C120.855 465.738 120.764 465.565 120.622 465.44L119.059 464.071C118.995 464.01 118.92 463.963 118.836 463.933C118.753 463.904 118.665 463.893 118.577 463.901C118.489 463.909 118.404 463.937 118.328 463.981C118.252 464.025 118.186 464.086 118.135 464.158C118.031 464.315 117.985 464.503 118.007 464.691C118.029 464.878 118.117 465.051 118.255 465.179L119.84 466.569C119.913 466.632 119.998 466.678 120.09 466.704C120.182 466.731 120.278 466.736 120.373 466.721Z" fill="#455A64"/>
<path d="M113.226 460.464C112.238 459.487 111.272 458.487 110.327 457.488C110.204 457.346 110.137 457.165 110.137 456.978C110.137 456.791 110.204 456.609 110.327 456.468C110.386 456.402 110.458 456.35 110.538 456.314C110.619 456.279 110.706 456.26 110.794 456.26C110.882 456.26 110.969 456.279 111.049 456.314C111.13 456.35 111.202 456.402 111.261 456.468C112.195 457.467 113.161 458.444 114.128 459.411C114.264 459.544 114.347 459.722 114.361 459.912C114.375 460.102 114.319 460.291 114.204 460.442C114.146 460.509 114.074 460.563 113.993 460.599C113.913 460.636 113.825 460.655 113.737 460.655C113.648 460.655 113.561 460.636 113.48 460.599C113.4 460.563 113.328 460.509 113.27 460.442L113.226 460.464ZM105.7 452.286C104.799 451.2 103.919 450.114 103.061 449.028C102.937 448.888 102.868 448.706 102.868 448.518C102.868 448.33 102.937 448.148 103.061 448.008C103.127 447.948 103.204 447.903 103.289 447.875C103.373 447.848 103.462 447.838 103.55 447.848C103.638 447.857 103.724 447.885 103.8 447.929C103.877 447.973 103.943 448.033 103.995 448.105C104.842 449.191 105.7 450.277 106.591 451.363C106.714 451.507 106.782 451.69 106.782 451.879C106.782 452.068 106.714 452.251 106.591 452.395C106.505 452.481 106.395 452.537 106.276 452.558C106.163 452.568 106.05 452.547 105.949 452.497C105.847 452.447 105.761 452.371 105.7 452.276V452.286ZM98.9455 443.316C98.1527 442.132 97.3816 440.938 96.6431 439.743C96.5416 439.585 96.5031 439.395 96.5353 439.21C96.5675 439.025 96.668 438.858 96.8169 438.744C96.8896 438.694 96.9721 438.659 97.0591 438.643C97.146 438.626 97.2354 438.629 97.3215 438.649C97.4075 438.669 97.4883 438.708 97.5586 438.762C97.6288 438.815 97.6869 438.883 97.7291 438.961C98.4459 440.145 99.2061 441.318 99.988 442.48C100.095 442.634 100.141 442.823 100.117 443.01C100.093 443.196 100.001 443.367 99.8577 443.49C99.7877 443.553 99.701 443.594 99.6079 443.609C99.4797 443.632 99.3476 443.615 99.2292 443.561C99.1109 443.506 99.0119 443.417 98.9455 443.305V443.316ZM93.1571 433.542C92.5055 432.271 91.8647 430.979 91.2783 429.698C91.1975 429.532 91.1817 429.342 91.234 429.165C91.2862 428.988 91.4028 428.837 91.5607 428.742C91.6414 428.703 91.7294 428.681 91.8191 428.677C91.9087 428.674 91.9982 428.689 92.0818 428.721C92.1654 428.754 92.2414 428.803 92.3049 428.867C92.3685 428.93 92.4183 429.006 92.4512 429.089C93.0268 430.338 93.6458 431.609 94.2974 432.869C94.3885 433.032 94.4145 433.223 94.3701 433.404C94.3258 433.586 94.2144 433.744 94.0585 433.846L93.863 433.922C93.7213 433.944 93.5765 433.92 93.4496 433.853C93.3226 433.787 93.2201 433.682 93.1571 433.553V433.542ZM88.5416 423.095C88.0529 421.77 87.5859 420.391 87.1515 419.033C87.087 418.859 87.0929 418.666 87.1679 418.496C87.2428 418.325 87.3811 418.191 87.5533 418.121C87.7275 418.074 87.9131 418.098 88.0697 418.188C88.2263 418.277 88.3413 418.425 88.3895 418.599C88.8131 419.945 89.2801 421.292 89.7579 422.595C89.8289 422.767 89.8313 422.96 89.7647 423.134C89.698 423.307 89.5673 423.449 89.3995 423.529H89.2909C89.1366 423.553 88.9787 423.524 88.8428 423.447C88.7069 423.37 88.6007 423.25 88.5416 423.106V423.095ZM85.2836 412.104C85.0338 411.018 84.7949 409.932 84.5777 408.846L84.4039 407.934C84.3613 407.756 84.3911 407.567 84.4867 407.411C84.5824 407.254 84.7361 407.142 84.9143 407.098C85.0968 407.076 85.2805 407.126 85.4265 407.238C85.5725 407.349 85.6693 407.514 85.6963 407.695L85.8592 408.597C86.0764 409.683 86.3044 410.769 86.5542 411.855C86.6048 412.03 86.5842 412.219 86.4968 412.379C86.4094 412.54 86.2622 412.66 86.0872 412.713C85.9926 412.733 85.8949 412.733 85.8002 412.714C85.7055 412.694 85.6159 412.655 85.5372 412.599C85.4585 412.542 85.3924 412.47 85.3431 412.387C85.2938 412.304 85.2624 412.211 85.251 412.115L85.2836 412.104ZM84.0998 401.451C83.9169 401.454 83.7397 401.387 83.6044 401.264C83.4691 401.141 83.386 400.971 83.3722 400.788C83.2202 399.366 83.0899 397.921 83.003 396.499C82.9925 396.409 82.9999 396.319 83.025 396.232C83.0501 396.146 83.0922 396.065 83.1489 395.996C83.2056 395.926 83.2757 395.868 83.3551 395.826C83.4345 395.783 83.5215 395.757 83.6111 395.749C83.7975 395.752 83.9754 395.827 84.1072 395.959C84.239 396.091 84.3142 396.269 84.317 396.455C84.4039 397.856 84.5234 399.279 84.6754 400.669C84.7022 400.838 84.6647 401.011 84.5702 401.154C84.4757 401.296 84.3311 401.399 84.165 401.44L84.0998 401.451ZM83.4591 390.102C83.2758 390.08 83.1076 389.99 82.9886 389.848C82.8697 389.707 82.8088 389.526 82.8184 389.342C82.8184 387.919 82.8835 386.475 82.9813 385.052C82.9922 384.889 83.0641 384.736 83.1828 384.623C83.3016 384.51 83.4583 384.446 83.622 384.444C83.8051 384.478 83.9689 384.58 84.0814 384.728C84.1938 384.877 84.2469 385.062 84.2302 385.248C84.1324 386.638 84.0781 388.05 84.0673 389.45C84.0713 389.606 84.0216 389.757 83.9266 389.88C83.8316 390.003 83.6971 390.089 83.546 390.124L83.4591 390.102ZM84.2953 378.84C84.1157 378.789 83.9615 378.673 83.8631 378.514C83.7646 378.356 83.729 378.166 83.7632 377.982C83.9804 376.592 84.241 375.18 84.5342 373.801C84.548 373.714 84.5799 373.631 84.6277 373.557C84.6756 373.484 84.7383 373.421 84.812 373.373C84.8857 373.324 84.9686 373.292 85.0554 373.278C85.1422 373.264 85.2311 373.268 85.3162 373.291C85.4937 373.353 85.6425 373.477 85.7345 373.641C85.8265 373.806 85.8554 373.997 85.8157 374.181C85.5225 375.539 85.2727 376.918 85.0555 378.286C85.0504 378.376 85.0254 378.464 84.9823 378.543C84.9392 378.622 84.8792 378.69 84.8065 378.743C84.7338 378.796 84.6502 378.832 84.5618 378.849C84.4734 378.866 84.3824 378.863 84.2953 378.84ZM86.728 367.926C86.5571 367.847 86.4209 367.709 86.3449 367.537C86.2689 367.365 86.2583 367.171 86.3153 366.992C86.7388 365.656 87.1949 364.32 87.6836 363.028C87.7106 362.944 87.7553 362.866 87.8148 362.801C87.8743 362.735 87.9472 362.683 88.0285 362.648C88.1098 362.613 88.1977 362.596 88.2862 362.598C88.3747 362.6 88.4618 362.62 88.5416 362.659C88.7067 362.751 88.8336 362.899 88.8993 363.076C88.965 363.253 88.9652 363.448 88.9 363.625C88.4221 364.896 87.966 366.199 87.5642 367.513C87.5305 367.626 87.4675 367.727 87.3816 367.807C87.2957 367.888 87.1901 367.943 87.0755 367.969C86.9488 368.003 86.8145 367.991 86.6954 367.937L86.728 367.926Z" fill="#455A64"/>
<path d="M484.649 253.844L444.564 213.738L468 258.666L484.649 253.844Z" fill="#4834D4"/>
<path opacity="0.15" d="M484.649 253.844L444.564 213.738L468 258.666L484.649 253.844Z" fill="white"/>
<path d="M444.564 213.738L491.697 249.392L508.345 244.57L444.564 213.738Z" fill="#4834D4"/>
<path opacity="0.15" d="M444.564 213.738L491.697 249.392L508.345 244.57L444.564 213.738Z" fill="white"/>
<path d="M491.697 249.392L484.975 262.163L484.649 253.844L444.564 213.738L491.697 249.392Z" fill="#4834D4"/>
<path opacity="0.2" d="M491.697 249.392L484.975 262.163L484.649 253.844L444.564 213.738L491.697 249.392Z" fill="black"/>
<path d="M484.975 262.162L479.1 255.451L484.649 253.844L484.975 262.162Z" fill="#4834D4"/>
<path opacity="0.2" d="M484.649 253.844L479.1 255.451L480.034 256.526L484.649 253.844Z" fill="black"/>
<path d="M493.044 259.992C492.891 259.994 492.744 260.052 492.631 260.155C492.509 260.283 492.436 260.45 492.425 260.627C492.413 260.803 492.463 260.978 492.566 261.122L493.76 262.685C493.807 262.754 493.868 262.812 493.939 262.855C494.01 262.898 494.09 262.925 494.172 262.934C494.255 262.944 494.339 262.935 494.417 262.909C494.496 262.883 494.569 262.84 494.629 262.783C494.759 262.66 494.838 262.493 494.852 262.314C494.866 262.136 494.814 261.959 494.705 261.817C494.314 261.285 493.913 260.731 493.511 260.231C493.457 260.157 493.387 260.097 493.306 260.055C493.225 260.014 493.135 259.992 493.044 259.992Z" fill="#455A64"/>
<path d="M498.473 267.159C499.212 268.245 499.918 269.331 500.645 270.417C500.738 270.569 500.773 270.749 500.743 270.925C500.713 271.101 500.62 271.26 500.483 271.372C500.416 271.422 500.341 271.457 500.26 271.475C500.179 271.493 500.096 271.494 500.015 271.478C499.934 271.461 499.857 271.428 499.79 271.38C499.723 271.332 499.666 271.27 499.625 271.199C498.94 270.113 498.245 269.027 497.518 267.941C497.421 267.79 497.38 267.61 497.404 267.433C497.428 267.256 497.515 267.093 497.648 266.974C497.753 266.89 497.883 266.844 498.017 266.844C498.113 266.855 498.205 266.89 498.284 266.945C498.364 267 498.429 267.073 498.473 267.159ZM503.903 276.14C504.533 277.313 505.142 278.486 505.728 279.669C505.807 279.827 505.826 280.008 505.78 280.179C505.733 280.349 505.626 280.496 505.478 280.592C505.407 280.637 505.327 280.665 505.244 280.675C505.161 280.685 505.077 280.677 504.997 280.651C504.917 280.625 504.844 280.582 504.783 280.525C504.722 280.468 504.674 280.398 504.642 280.321C504.066 279.159 503.469 277.997 502.839 276.857C502.756 276.7 502.732 276.519 502.77 276.347C502.807 276.174 502.905 276.02 503.046 275.912C503.141 275.845 503.255 275.811 503.371 275.814C503.478 275.814 503.582 275.841 503.675 275.892C503.768 275.944 503.847 276.018 503.903 276.107V276.14ZM508.476 285.718C508.986 286.946 509.475 288.205 509.931 289.443C509.996 289.61 509.996 289.795 509.932 289.961C509.867 290.128 509.743 290.265 509.583 290.345C509.506 290.376 509.423 290.39 509.339 290.387C509.256 290.385 509.174 290.365 509.099 290.329C509.023 290.294 508.956 290.243 508.901 290.18C508.846 290.117 508.805 290.044 508.78 289.965C508.338 288.734 507.86 287.507 507.346 286.283C507.278 286.122 507.271 285.941 507.327 285.775C507.383 285.609 507.498 285.469 507.65 285.382C507.734 285.339 507.827 285.316 507.922 285.317C508.045 285.313 508.167 285.346 508.271 285.411C508.376 285.477 508.458 285.573 508.508 285.686L508.476 285.718ZM512.005 295.818C512.374 297.121 512.711 298.435 513.015 299.728C513.064 299.896 513.046 300.077 512.965 300.233C512.884 300.388 512.746 300.507 512.581 300.564C512.498 300.586 512.412 300.591 512.328 300.578C512.244 300.565 512.163 300.535 512.092 300.489C512.02 300.443 511.959 300.382 511.912 300.311C511.865 300.24 511.834 300.159 511.82 300.075C511.527 298.816 511.191 297.523 510.821 296.231C510.767 296.064 510.779 295.882 510.853 295.723C510.928 295.564 511.06 295.439 511.223 295.373H511.419C511.552 295.369 511.683 295.406 511.794 295.48C511.905 295.554 511.99 295.661 512.038 295.786L512.005 295.818ZM514.318 306.352C514.525 307.688 514.698 309.035 514.85 310.381C514.876 310.554 514.833 310.729 514.732 310.871C514.631 311.013 514.479 311.11 514.307 311.142C514.223 311.149 514.138 311.139 514.057 311.113C513.976 311.087 513.902 311.044 513.838 310.989C513.774 310.933 513.722 310.865 513.685 310.788C513.648 310.712 513.627 310.629 513.623 310.544C513.471 309.23 513.297 307.895 513.091 306.591C513.061 306.419 513.097 306.242 513.191 306.095C513.286 305.948 513.432 305.842 513.601 305.799H513.71C513.861 305.798 514.007 305.85 514.124 305.945C514.24 306.04 514.321 306.172 514.351 306.32L514.318 306.352ZM515.306 317.147C515.306 318.212 515.306 319.276 515.306 320.34V321.22C515.311 321.305 515.298 321.39 515.269 321.47C515.24 321.55 515.196 321.624 515.138 321.686C515.081 321.749 515.011 321.8 514.934 321.835C514.856 321.871 514.773 321.89 514.687 321.893C514.517 321.877 514.358 321.795 514.245 321.666C514.132 321.537 514.073 321.37 514.079 321.198V320.34C514.079 319.254 514.079 318.233 514.079 317.191C514.067 317.018 514.123 316.848 514.234 316.716C514.346 316.584 514.505 316.501 514.677 316.485C514.848 316.482 515.013 316.546 515.137 316.664C515.261 316.782 515.333 316.944 515.339 317.115L515.306 317.147ZM514.405 327.236C514.575 327.268 514.727 327.363 514.829 327.502C514.932 327.641 514.978 327.814 514.959 327.986C514.829 329.332 514.677 330.69 514.492 332.025C514.485 332.11 514.461 332.193 514.422 332.268C514.382 332.344 514.328 332.41 514.262 332.464C514.196 332.518 514.12 332.558 514.038 332.581C513.956 332.605 513.871 332.612 513.786 332.601C513.618 332.562 513.471 332.461 513.374 332.318C513.277 332.175 513.238 332.001 513.265 331.83C513.449 330.505 513.601 329.169 513.732 327.855C513.74 327.694 513.807 327.541 513.922 327.426C514.036 327.312 514.189 327.244 514.351 327.236H514.405ZM512.874 337.868C513.04 337.923 513.179 338.039 513.263 338.192C513.348 338.345 513.372 338.524 513.33 338.694C513.048 340.008 512.722 341.332 512.374 342.625C512.355 342.707 512.32 342.784 512.271 342.852C512.221 342.92 512.159 342.977 512.087 343.021C512.015 343.064 511.935 343.093 511.852 343.105C511.769 343.117 511.685 343.113 511.603 343.092C511.441 343.024 511.31 342.899 511.234 342.741C511.158 342.583 511.142 342.403 511.191 342.234C511.527 340.963 511.842 339.66 512.125 338.368C512.15 338.224 512.224 338.093 512.335 337.998C512.446 337.903 512.587 337.849 512.733 337.846C512.789 337.828 512.849 337.824 512.906 337.836L512.874 337.868ZM509.985 348.131C510.143 348.213 510.265 348.35 510.327 348.517C510.389 348.683 510.387 348.867 510.322 349.032C509.866 350.27 509.355 351.53 508.834 352.746C508.803 352.825 508.757 352.897 508.697 352.956C508.638 353.016 508.566 353.063 508.488 353.093C508.409 353.124 508.325 353.138 508.24 353.134C508.156 353.131 508.073 353.109 507.998 353.072C507.847 352.981 507.735 352.838 507.682 352.67C507.63 352.502 507.642 352.32 507.715 352.16C508.237 350.965 508.725 349.727 509.181 348.511C509.221 348.388 509.298 348.281 509.401 348.203C509.504 348.126 509.628 348.081 509.757 348.077C509.844 348.064 509.934 348.072 510.018 348.098L509.985 348.131ZM505.695 357.785C505.837 357.89 505.936 358.042 505.974 358.214C506.011 358.385 505.986 358.565 505.902 358.719C505.261 359.881 504.588 361.033 503.893 362.14C503.852 362.213 503.797 362.276 503.729 362.325C503.662 362.374 503.585 362.408 503.504 362.425C503.422 362.441 503.338 362.44 503.257 362.421C503.176 362.402 503.1 362.365 503.035 362.314C502.897 362.201 502.804 362.042 502.774 361.867C502.745 361.691 502.779 361.51 502.872 361.358C503.556 360.272 504.218 359.186 504.837 358.013C504.889 357.913 504.966 357.829 505.062 357.77C505.158 357.71 505.268 357.678 505.38 357.677C505.501 357.665 505.623 357.691 505.728 357.753L505.695 357.785Z" fill="#455A64"/>
<path d="M215.126 169.142L497.388 390.958C504.469 396.529 503.654 402.426 503.013 407.726C502.373 413.025 499.408 420.258 493.359 423.755L338.408 513.176C332.359 516.673 323.291 516.239 318.165 512.21L35.8379 290.459C30.7011 286.43 30.2124 280.066 30.864 274.767C31.5156 269.467 33.8071 261.159 39.8669 257.662L194.85 168.176C200.91 164.69 207.98 163.539 215.126 169.142Z" fill="#37474F"/>
<path d="M206.829 176.073L47.4581 268.09L330.98 490.72L327.972 515.524C324.453 515.441 321.042 514.286 318.198 512.212L35.8379 290.461C30.7011 286.432 30.2124 280.068 30.864 274.769C31.5156 269.469 33.8071 261.161 39.8669 257.664L194.85 168.178C198.629 166.006 203.191 164.485 208.088 165.647L208.001 166.418L206.829 176.073Z" fill="#263238"/>
<path d="M494.662 392.178L212.856 170.797C208.794 167.604 201.551 167.267 196.761 170.026L45.4274 257.383C38.9114 261.13 38.1077 267.755 43.6138 272.077L323.682 492.079C327.266 494.903 333.652 495.207 337.887 492.752L493.326 403.016C498.116 400.247 498.724 395.371 494.662 392.178Z" fill="#455A64"/>
<path d="M121.089 338.485C122.17 339.481 123.006 340.712 123.533 342.083C124.061 343.454 124.265 344.928 124.13 346.391C124.119 346.917 123.984 347.432 123.734 347.895C123.485 348.357 123.129 348.754 122.696 349.052C122.175 349.345 120.21 350.518 119.667 350.822C119.199 351.033 118.678 351.096 118.173 351.003C117.669 350.91 117.205 350.665 116.843 350.301L94.3953 332.675C93.3167 331.676 92.4816 330.443 91.9545 329.07C91.4273 327.698 91.2221 326.222 91.3545 324.758C91.3734 324.254 91.5029 323.76 91.7337 323.312C91.9645 322.863 92.2911 322.471 92.6903 322.163C93.2333 321.826 95.275 320.642 95.818 320.349C96.2857 320.133 96.8086 320.066 97.3158 320.157C97.8229 320.248 98.2896 320.494 98.6524 320.859L121.089 338.485Z" fill="#455A64"/>
<path d="M118.081 340.235L95.6334 322.598C93.6134 321.013 91.702 321.979 91.3545 324.77C91.2221 326.234 91.4273 327.71 91.9545 329.082C92.4816 330.455 93.3167 331.688 94.3953 332.687L116.843 350.313C118.863 351.898 120.774 350.932 121.122 348.141C121.254 346.678 121.049 345.205 120.522 343.834C119.994 342.463 119.159 341.232 118.081 340.235Z" fill="#37474F"/>
<path d="M81.8082 307.644C82.8906 308.638 83.7283 309.869 84.2559 311.241C84.7834 312.612 84.9864 314.087 84.849 315.551C84.8326 316.072 84.6957 316.583 84.4489 317.043C84.202 317.502 83.852 317.899 83.4263 318.2C82.905 318.483 80.9394 319.656 80.3964 319.96C79.927 320.172 79.4041 320.235 78.8977 320.142C78.3912 320.049 77.9252 319.803 77.5619 319.438L55.1251 301.824C54.0447 300.828 53.2083 299.597 52.681 298.226C52.1536 296.855 51.9494 295.38 52.0843 293.917C52.1009 293.411 52.2293 292.915 52.4602 292.465C52.6912 292.014 53.019 291.62 53.4201 291.311C53.9523 290.974 55.9939 289.791 56.5369 289.497C57.0046 289.281 57.5276 289.214 58.0347 289.305C58.5418 289.397 59.0086 289.642 59.3714 290.008L81.8082 307.644Z" fill="#455A64"/>
<path d="M78.7999 309.38L56.3632 291.754C54.3432 290.169 52.421 291.135 52.0843 293.926C51.9494 295.389 52.1536 296.864 52.681 298.235C53.2083 299.606 54.0447 300.837 55.1251 301.832L77.5619 319.458C79.5819 321.044 81.5041 320.077 81.8407 317.286C81.9756 315.823 81.7715 314.349 81.2441 312.978C80.7167 311.607 79.8804 310.376 78.7999 309.38Z" fill="#37474F"/>
<path d="M217.949 182.947L481.098 389.678C484.975 392.73 484.421 397.378 479.838 400.017L339.244 481.206C334.672 483.867 327.798 483.541 323.899 480.479L58.85 272.271C55.6898 269.795 55.4509 266.276 57.9595 263.583C58.155 263.376 58.3396 263.17 58.5568 262.974C59.0428 262.569 59.5623 262.206 60.1098 261.888L99.6619 239.082L102.247 237.595C102.984 237.191 103.818 236.998 104.657 237.039C105.496 237.079 106.308 237.35 107.003 237.823C107.737 238.293 108.586 238.554 109.457 238.575C110.329 238.596 111.189 238.377 111.945 237.942L158.045 211.335C159.555 210.456 159.826 208.979 158.621 208.077C158.364 207.906 158.156 207.672 158.016 207.398C157.877 207.123 157.81 206.817 157.823 206.509C157.836 206.201 157.929 205.902 158.091 205.64C158.254 205.378 158.481 205.163 158.751 205.015L159.001 204.863L197.706 182.524L198.521 182.046C204.32 178.679 213.051 179.103 217.949 182.947Z" fill="black"/>
<path d="M106.221 244.211C105.527 243.739 104.715 243.467 103.875 243.427C103.036 243.387 102.202 243.579 101.465 243.983L98.8801 245.438L59.3279 268.244C58.7805 268.562 58.261 268.925 57.775 269.33C57.5578 269.537 57.3731 269.732 57.1777 269.939C56.9822 270.145 57.0691 270.08 57.0039 270.156C57.4878 270.951 58.1136 271.65 58.8501 272.219L323.899 480.481C327.798 483.544 334.672 483.87 339.244 481.209L479.871 400.02C480.741 399.522 481.526 398.888 482.195 398.141C481.716 397.333 481.09 396.622 480.348 396.045L217.2 189.314C212.302 185.47 203.57 185.046 197.771 188.391L196.957 188.869L159.273 210.589C159.273 210.589 158.686 215.411 158.621 216.019C158.544 216.385 158.385 216.729 158.155 217.024C157.926 217.319 157.632 217.559 157.296 217.724L111.163 244.352C110.405 244.784 109.544 244.999 108.672 244.974C107.801 244.949 106.953 244.685 106.221 244.211Z" fill="#EBEBEB"/>
<path d="M96.3711 265.884C96.3025 265.874 96.2384 265.844 96.1865 265.797L95.6327 265.276L93.8734 266.286C93.8375 266.318 93.7911 266.336 93.743 266.336C93.6949 266.336 93.6485 266.318 93.6127 266.286L93.3955 266.069C93.3593 266.039 93.3297 266.002 93.3086 265.96C93.3059 265.921 93.3059 265.881 93.3086 265.841L93.1675 262.92C93.1603 262.88 93.1603 262.84 93.1675 262.8C93.1926 262.757 93.2305 262.723 93.276 262.702L93.515 262.572C93.5818 262.549 93.6545 262.549 93.7213 262.572C93.7931 262.58 93.8591 262.615 93.9059 262.67L95.8716 264.473L96.2625 264.245C96.3202 264.207 96.3894 264.192 96.4574 264.202C96.5254 264.212 96.5874 264.246 96.6318 264.299L96.773 264.418C96.8273 264.473 96.8599 264.516 96.849 264.559C96.8381 264.603 96.849 264.646 96.7404 264.69L96.3494 264.907L96.9141 265.428C96.9141 265.428 97.001 265.526 96.9902 265.569C96.9793 265.613 96.9902 265.656 96.8707 265.7L96.5775 265.874C96.511 265.896 96.4396 265.9 96.3711 265.884ZM95.2851 264.798L93.8951 263.517L94.0145 265.537L95.2851 264.798Z" fill="#455A64"/>
<path d="M98.1091 264.366C97.4255 264.269 96.7904 263.957 96.2955 263.475C96.0606 263.304 95.8687 263.08 95.7349 262.822C95.6011 262.564 95.529 262.278 95.5244 261.987C95.5736 261.711 95.6906 261.451 95.865 261.231C96.0394 261.012 96.2657 260.838 96.5235 260.728C96.7659 260.585 97.0248 260.471 97.2946 260.391C97.5322 260.308 97.7815 260.264 98.0331 260.261C98.0496 260.251 98.0683 260.246 98.0874 260.246C98.1064 260.246 98.1252 260.251 98.1417 260.261V260.326L98.2286 260.652C98.2286 260.652 98.2286 260.717 98.2286 260.728H98.1308C97.7469 260.758 97.3752 260.877 97.0448 261.075C96.8669 261.146 96.7109 261.263 96.5926 261.413C96.4744 261.564 96.3981 261.743 96.3715 261.933C96.3842 262.147 96.4444 262.356 96.5477 262.543C96.6511 262.731 96.7949 262.894 96.9688 263.019C97.327 263.381 97.7909 263.621 98.2937 263.703C98.7347 263.767 99.1841 263.675 99.5643 263.443C99.7047 263.363 99.8359 263.269 99.9553 263.16C100.057 263.081 100.145 262.985 100.216 262.878L99.3037 262.042L98.5652 262.465C98.5095 262.508 98.4395 262.527 98.3697 262.52C98.3047 262.502 98.245 262.468 98.196 262.422L98.0657 262.302C98.0005 262.237 97.9788 262.194 97.9788 262.15C98.0027 262.097 98.0452 262.055 98.0982 262.031L99.2603 261.358C99.3289 261.317 99.4085 261.298 99.4883 261.303C99.5708 261.321 99.6463 261.363 99.7055 261.423L101.009 262.617L101.096 262.726C101.096 262.726 101.096 262.791 101.096 262.834C100.86 263.304 100.479 263.685 100.01 263.92C99.4455 264.282 98.7749 264.439 98.1091 264.366Z" fill="#455A64"/>
<path d="M112.683 255.645C112.783 255.734 112.859 255.847 112.903 255.974C112.947 256.101 112.957 256.237 112.933 256.369C112.909 256.501 112.851 256.625 112.766 256.728C112.68 256.831 112.57 256.911 112.444 256.959C112.164 257.118 111.843 257.189 111.521 257.164C111.2 257.139 110.894 257.018 110.642 256.818C110.544 256.728 110.471 256.616 110.428 256.49C110.386 256.365 110.377 256.23 110.401 256.1C110.424 255.97 110.481 255.848 110.565 255.745C110.649 255.643 110.757 255.564 110.88 255.515C111.161 255.357 111.481 255.286 111.801 255.309C112.122 255.332 112.429 255.449 112.683 255.645Z" fill="#455A64"/>
<path d="M109.588 254.33C109.146 254.534 108.783 254.877 108.554 255.306C108.325 255.735 108.242 256.228 108.317 256.708C108.358 256.804 108.429 256.884 108.519 256.937C108.609 256.99 108.713 257.012 108.817 257.002C109.132 257.002 109.371 256.795 109.316 256.567C109.263 256.23 109.321 255.884 109.482 255.582C109.643 255.28 109.897 255.039 110.207 254.895C110.958 254.496 111.835 254.406 112.65 254.645C112.775 254.695 112.914 254.698 113.041 254.652C113.167 254.606 113.272 254.514 113.335 254.395C113.4 254.221 113.335 254.037 113.052 253.972C112.48 253.8 111.879 253.744 111.284 253.805C110.69 253.867 110.113 254.045 109.588 254.33Z" fill="#455A64"/>
<path d="M108.339 253.182C107.677 253.489 107.124 253.987 106.75 254.613C106.376 255.239 106.199 255.962 106.243 256.69C106.271 256.797 106.337 256.891 106.429 256.952C106.521 257.014 106.632 257.041 106.742 257.027C107.046 257.027 107.275 256.831 107.253 256.614C107.214 256.021 107.355 255.43 107.657 254.919C107.96 254.407 108.409 253.999 108.947 253.747C110.241 253.043 111.751 252.845 113.182 253.193C113.306 253.23 113.439 253.225 113.559 253.177C113.679 253.13 113.78 253.044 113.845 252.932C113.91 252.748 113.758 252.563 113.519 252.498C111.767 252.071 109.92 252.316 108.339 253.182Z" fill="#455A64"/>
<path d="M77.4101 277.453L76.335 276.454L78.2029 275.379L79.2889 276.378L77.4101 277.453Z" fill="#455A64"/>
<path d="M80.2227 275.835L78.0615 273.848L79.9294 272.762L82.0906 274.749L80.2227 275.835Z" fill="#455A64"/>
<path d="M83.0245 274.213L79.7773 271.227L81.6561 270.141L84.9033 273.127L83.0245 274.213Z" fill="#455A64"/>
<path d="M85.837 272.584L81.5039 268.609L83.3827 267.523L87.705 271.509L85.837 272.584Z" fill="#455A64"/>
<path d="M199.824 201.596C199.485 201.515 199.129 201.554 198.814 201.705L191.82 205.734C191.364 205.994 191.375 206.537 191.82 206.961L193.786 208.774C194.074 209.027 194.428 209.192 194.807 209.252C194.973 209.273 195.141 209.273 195.307 209.252C195.486 209.248 195.661 209.2 195.817 209.111L202.811 205.082C203.267 204.821 203.256 204.278 202.811 203.855L200.845 202.041C200.552 201.802 200.199 201.649 199.824 201.596ZM194.829 208.959C194.665 208.925 194.515 208.846 194.394 208.731L192.429 206.928C192.081 206.613 192.07 206.179 192.429 205.994L199.422 201.965C199.506 201.917 199.598 201.887 199.694 201.878H199.824C199.988 201.912 200.138 201.991 200.259 202.106L202.224 203.92C202.561 204.235 202.572 204.658 202.224 204.854L195.23 208.883C195.165 208.925 195.092 208.953 195.016 208.967C194.939 208.98 194.861 208.977 194.785 208.959H194.829Z" fill="#455A64"/>
<path d="M194.035 205.535L196.359 207.707L195.273 208.337C195.221 208.364 195.163 208.378 195.105 208.378C195.046 208.378 194.989 208.364 194.937 208.337L193.199 206.751C192.96 206.523 192.949 206.198 193.199 206.056L194.035 205.535Z" fill="#455A64"/>
<path d="M194.546 205.245L195.86 204.484L198.184 206.624L196.87 207.384L194.546 205.245Z" fill="#455A64"/>
<path d="M196.37 204.198L197.684 203.438L200.019 205.588L198.705 206.337L196.37 204.198Z" fill="#455A64"/>
<path d="M199.661 202.531L201.345 204.073C201.649 204.367 201.508 204.736 200.965 205.04L200.53 205.3L198.195 203.128L199.281 202.531C199.404 202.484 199.539 202.484 199.661 202.531Z" fill="#455A64"/>
<path d="M201.073 201.994C201.269 201.874 201.757 202.092 202.159 202.461L202.517 202.797C202.93 203.167 203.104 203.569 202.919 203.688L202.583 203.905L200.726 202.2L201.073 201.994Z" fill="#455A64"/>
<path d="M181.666 213.528L187.411 208.641L189.138 213.365L186.01 211.975L181.666 213.528Z" fill="#455A64"/>
<path d="M111.597 228.157L132.731 215.95C133.359 215.594 134.072 215.416 134.793 215.435C135.515 215.454 136.217 215.67 136.825 216.059C137.824 216.841 137.618 218.079 136.358 218.807L115.225 231.002C114.598 231.361 113.884 231.541 113.162 231.522C112.44 231.502 111.737 231.285 111.13 230.894C110.131 230.112 110.338 228.885 111.597 228.157Z" fill="#263238"/>
<path d="M142.831 209.113C143.569 208.713 144.403 208.524 145.241 208.564C146.079 208.604 146.891 208.873 147.587 209.341C148.793 210.285 148.608 211.719 147.197 212.599C146.458 212.998 145.625 213.187 144.786 213.147C143.948 213.107 143.137 212.838 142.44 212.371C141.245 211.371 141.419 209.938 142.831 209.113Z" fill="#263238"/>
<path d="M173.315 248.771L170.817 246.816C170.356 246.468 169.808 246.254 169.232 246.198C168.657 246.143 168.078 246.247 167.559 246.501L164.496 248.26C164.304 248.369 164.145 248.527 164.034 248.718C163.923 248.909 163.864 249.125 163.864 249.346C163.864 249.567 163.923 249.784 164.034 249.974C164.145 250.165 164.304 250.323 164.496 250.432L166.994 252.387C166.839 252.468 166.71 252.589 166.619 252.739C166.529 252.888 166.481 253.059 166.481 253.234C166.481 253.409 166.529 253.58 166.619 253.729C166.71 253.879 166.839 254 166.994 254.081L172.022 258.034C172.378 258.297 172.798 258.458 173.238 258.501C173.678 258.543 174.121 258.464 174.52 258.273L180.917 254.581C181.072 254.5 181.201 254.378 181.292 254.229C181.382 254.079 181.43 253.908 181.43 253.734C181.43 253.559 181.382 253.388 181.292 253.238C181.201 253.089 181.072 252.967 180.917 252.887L175.878 248.933C175.509 248.668 175.073 248.511 174.62 248.482C174.166 248.454 173.714 248.553 173.315 248.771ZM165.148 250.085C164.648 249.683 164.648 249.118 165.148 248.825L168.211 247.055C168.507 246.912 168.836 246.852 169.163 246.883C169.491 246.913 169.803 247.033 170.068 247.228L172.555 249.194L167.624 252.039L165.148 250.085Z" fill="#455A64"/>
<path d="M191.646 312.767C192.189 313.19 192.135 313.581 191.505 313.951L190.679 314.428C190.416 314.613 190.1 314.704 189.779 314.688C189.459 314.673 189.153 314.551 188.909 314.341L166.939 297.096L164.235 305.577C164.029 306.131 163.529 306.359 162.736 306.24L161.737 306.12C161.433 306.096 161.146 305.97 160.923 305.762C160.834 305.685 160.771 305.581 160.744 305.466C160.716 305.351 160.726 305.231 160.771 305.121L164.029 295.022C164.095 294.825 164.215 294.652 164.376 294.522C164.545 294.39 164.723 294.27 164.908 294.164L165.734 293.686C165.998 293.505 166.314 293.416 166.634 293.431C166.953 293.447 167.259 293.567 167.504 293.773L191.646 312.767Z" fill="#455A64"/>
<path d="M180.179 295.215C179.369 294.543 178.688 293.73 178.169 292.815C177.646 291.919 177.379 290.897 177.398 289.861C177.447 288.731 177.825 287.64 178.484 286.722C179.42 285.457 180.631 284.421 182.025 283.692C183.53 282.799 185.163 282.143 186.868 281.748C188.35 281.415 189.872 281.302 191.386 281.412C192.762 281.507 194.113 281.83 195.383 282.367C196.551 282.848 197.647 283.488 198.641 284.268C199.987 285.218 200.995 286.572 201.518 288.134C201.929 289.749 201.958 291.436 201.605 293.064L200.204 305.825L214.779 297.419C215.052 297.227 215.382 297.131 215.716 297.147C216.051 297.163 216.37 297.289 216.625 297.506L217.179 297.941C217.722 298.364 217.656 298.766 216.983 299.157L199.205 309.506C198.941 309.687 198.625 309.776 198.306 309.761C197.986 309.745 197.68 309.625 197.435 309.42L196.881 308.985C196.647 308.811 196.478 308.562 196.403 308.279C196.322 307.903 196.322 307.515 196.403 307.139L198.119 293.14C198.276 292.309 198.367 291.467 198.391 290.621C198.406 289.981 198.318 289.343 198.13 288.731C197.962 288.187 197.689 287.682 197.327 287.243C196.914 286.748 196.448 286.3 195.936 285.908C194.362 284.643 192.426 283.913 190.409 283.823C188.231 283.762 186.083 284.34 184.229 285.484C182.22 286.646 181.145 287.928 180.971 289.339C180.929 290.133 181.07 290.925 181.383 291.656C181.695 292.386 182.171 293.036 182.774 293.553C182.881 293.64 182.96 293.756 183.002 293.887C183.045 294.018 183.048 294.158 183.013 294.292C182.946 294.499 182.807 294.676 182.622 294.791L181.753 295.291C181.518 295.45 181.237 295.529 180.953 295.515C180.669 295.501 180.398 295.396 180.179 295.215Z" fill="#455A64"/>
<path d="M213.942 282.283C214.049 282.347 214.135 282.44 214.189 282.552C214.243 282.664 214.263 282.79 214.246 282.913C214.209 283.041 214.146 283.159 214.059 283.261C213.973 283.362 213.867 283.443 213.746 283.5L211.661 284.705C211.397 284.886 211.081 284.975 210.762 284.96C210.442 284.944 210.136 284.824 209.891 284.618L208.121 283.228C208.016 283.16 207.93 283.067 207.871 282.957C207.812 282.847 207.783 282.723 207.784 282.598C207.802 282.471 207.852 282.349 207.93 282.247C208.008 282.144 208.111 282.063 208.23 282.012L210.325 280.807C210.613 280.634 210.947 280.554 211.281 280.578C211.604 280.583 211.917 280.694 212.172 280.893L213.942 282.283ZM226.844 292.416C226.951 292.479 227.037 292.573 227.091 292.685C227.145 292.797 227.165 292.922 227.148 293.046C227.111 293.172 227.049 293.29 226.965 293.391C226.881 293.491 226.777 293.574 226.659 293.632L224.563 294.838C224.299 295.018 223.983 295.108 223.663 295.092C223.344 295.076 223.038 294.956 222.793 294.751L221.033 293.361C220.925 293.296 220.836 293.203 220.775 293.093C220.714 292.982 220.683 292.857 220.686 292.731C220.703 292.601 220.755 292.479 220.835 292.376C220.915 292.273 221.021 292.193 221.142 292.144L223.227 290.939C223.516 290.77 223.849 290.691 224.183 290.711C224.506 290.719 224.817 290.829 225.073 291.026L226.844 292.416Z" fill="#455A64"/>
<path d="M225.562 259.078C225.836 258.886 226.166 258.791 226.5 258.806C226.834 258.822 227.153 258.948 227.408 259.165L227.962 259.6C228.09 259.687 228.189 259.813 228.244 259.958C228.28 260.086 228.305 260.217 228.32 260.349L228.244 272.795L229.113 272.295C230.536 271.462 232.048 270.792 233.62 270.297C235.079 269.829 236.596 269.57 238.127 269.526C239.6 269.496 241.067 269.709 242.471 270.156C243.906 270.634 245.242 271.37 246.413 272.328C247.488 273.103 248.345 274.143 248.9 275.347C249.316 276.34 249.393 277.444 249.117 278.485C248.774 279.643 248.151 280.698 247.304 281.559C246.244 282.667 245.025 283.611 243.687 284.361C242.151 285.255 240.509 285.956 238.8 286.446C237.284 286.887 235.719 287.143 234.141 287.206C232.779 287.263 231.415 287.127 230.09 286.804C228.973 286.552 227.917 286.079 226.984 285.414C226.891 285.356 226.816 285.271 226.769 285.171C226.723 285.07 226.707 284.959 226.724 284.849C226.764 284.735 226.827 284.629 226.91 284.54C226.992 284.45 227.091 284.378 227.202 284.328L227.81 283.98C228.059 283.834 228.337 283.741 228.624 283.709C229.043 283.678 229.462 283.768 229.83 283.97C230.81 284.452 231.87 284.75 232.957 284.849C233.98 284.939 235.01 284.891 236.02 284.708C237.011 284.539 237.98 284.258 238.909 283.872C239.789 283.51 240.645 283.093 241.472 282.623C242.479 282.065 243.406 281.375 244.23 280.57C244.868 279.972 245.349 279.226 245.631 278.398C245.862 277.651 245.815 276.845 245.501 276.129C245.091 275.259 244.462 274.51 243.676 273.957C242.045 272.592 239.958 271.894 237.834 272.002C235.522 272.207 233.29 272.95 231.318 274.174L227.495 276.346C227.232 276.528 226.917 276.619 226.597 276.606C226.277 276.592 225.971 276.474 225.725 276.27L225.171 275.835C225.007 275.716 224.873 275.56 224.78 275.379C224.72 275.231 224.687 275.073 224.682 274.912V262.597L211.542 270.199C211.28 270.381 210.965 270.471 210.647 270.455C210.329 270.439 210.025 270.319 209.782 270.112L209.228 269.678C208.664 269.233 208.696 268.831 209.337 268.462L225.562 259.078Z" fill="#455A64"/>
<path d="M268.003 268.632C268.546 269.055 268.492 269.446 267.862 269.815L267.026 270.293C266.762 270.474 266.446 270.563 266.126 270.547C265.807 270.532 265.501 270.412 265.256 270.206L243.264 252.95L240.56 261.442C240.354 261.996 239.854 262.213 239.061 262.105L238.062 261.974C237.756 261.956 237.464 261.833 237.237 261.627C237.152 261.546 237.094 261.442 237.068 261.328C237.043 261.214 237.053 261.095 237.096 260.986L240.354 250.875C240.422 250.683 240.542 250.514 240.701 250.387C240.863 250.251 241.038 250.131 241.223 250.028L242.059 249.551C242.321 249.369 242.635 249.279 242.953 249.295C243.271 249.31 243.576 249.431 243.818 249.637L268.003 268.632Z" fill="#455A64"/>
<path d="M195.545 346.834L307.099 282.423C308.659 281.58 310.419 281.179 312.19 281.265C313.961 281.352 315.675 281.921 317.145 282.912L342.514 302.829C345.055 304.827 344.686 307.857 341.688 309.584L230.124 373.995C228.566 374.843 226.805 375.248 225.034 375.163C223.262 375.079 221.548 374.509 220.078 373.517L194.709 353.6C192.222 351.601 192.537 348.604 195.545 346.834Z" fill="white"/>
<path d="M241.244 382.749L352.809 318.338C354.366 317.49 356.127 317.087 357.898 317.171C359.669 317.255 361.384 317.824 362.854 318.816L388.212 338.733C390.764 340.731 390.384 343.761 387.387 345.499L275.844 409.909C274.285 410.755 272.525 411.157 270.754 411.073C268.983 410.988 267.269 410.421 265.798 409.432L240.44 389.503C237.834 387.505 238.246 384.443 241.244 382.749Z" fill="white"/>
<path d="M286.953 418.653L398.562 354.242C400.119 353.393 401.88 352.989 403.651 353.073C405.423 353.158 407.137 353.727 408.607 354.72L433.922 374.67C436.463 376.668 436.094 379.687 433.086 381.425L321.532 445.814C319.974 446.662 318.214 447.067 316.442 446.982C314.67 446.898 312.956 446.328 311.486 445.336L286.117 425.408C283.576 423.409 283.945 420.39 286.953 418.653Z" fill="white"/>
<path d="M332.316 421.509H332.262C329.745 421.715 327.234 421.052 325.148 419.63L321.89 417.067C318.176 414.145 311.606 413.809 307.218 416.372C302.874 418.902 302.288 423.322 306.002 426.244L308.913 428.524C309.748 429.085 310.391 429.889 310.754 430.827C311.117 431.765 311.183 432.792 310.943 433.77L311.552 435.138C312.091 435.504 312.722 435.714 313.373 435.745C314.025 435.776 314.672 435.626 315.244 435.312L333.793 424.625C334.035 424.535 334.248 424.38 334.408 424.177C334.568 423.974 334.669 423.731 334.7 423.474C334.731 423.218 334.692 422.958 334.585 422.722C334.479 422.486 334.31 422.285 334.097 422.138C333.581 421.752 332.96 421.533 332.316 421.509ZM329.058 433.509C331.165 432.293 331.425 430.164 329.633 428.763L322.031 433.172C323.062 433.86 324.26 434.255 325.498 434.315C326.736 434.374 327.966 434.095 329.058 433.509Z" fill="#E0E0E0"/>
<path d="M286.704 384.759H286.65C284.133 384.968 281.621 384.305 279.536 382.88L276.278 380.317C272.553 377.395 265.983 377.059 261.595 379.622C257.251 382.152 256.665 386.572 260.39 389.494L263.301 391.774C264.132 392.338 264.772 393.142 265.135 394.08C265.498 395.017 265.566 396.042 265.331 397.019L265.929 398.388C266.469 398.753 267.099 398.962 267.75 398.993C268.402 399.024 269.049 398.874 269.621 398.562L288.181 387.854C288.423 387.763 288.635 387.608 288.795 387.405C288.955 387.202 289.057 386.959 289.088 386.703C289.119 386.446 289.08 386.186 288.973 385.95C288.867 385.715 288.698 385.513 288.485 385.367C287.967 384.988 287.345 384.776 286.704 384.759ZM283.446 396.705C285.553 395.488 285.813 393.371 284.032 391.97L276.43 396.314C277.448 397.021 278.64 397.435 279.877 397.512C281.114 397.588 282.349 397.324 283.446 396.748V396.705Z" fill="#E0E0E0"/>
<g opacity="0.3">
<path d="M326.126 267.905L292.515 241.516L238.779 413.592L272.38 439.993L326.126 267.905Z" fill="white"/>
<path d="M427.591 354.61L370.63 309.855L318.644 476.339L323.9 480.477C327.799 483.539 334.673 483.865 339.245 481.205L398.801 446.811L427.591 354.61Z" fill="white"/>
<path d="M208.197 389.58L261.933 217.492L217.95 182.947C213.052 179.102 204.32 178.679 198.521 182.024L197.706 182.502L174.39 195.957L132.492 330.143L208.197 389.58Z" fill="white"/>
</g>
<path d="M369.87 82.7163C369.978 82.5829 370.113 82.4742 370.267 82.3974C370.42 82.3206 370.589 82.2775 370.76 82.271C370.929 82.2523 371.101 82.2687 371.263 82.3191C371.426 82.3696 371.576 82.453 371.705 82.5642L376.364 86.5281C376.496 86.6359 376.604 86.7695 376.683 86.9208C376.761 87.0721 376.808 87.2378 376.82 87.4078C376.835 87.5793 376.816 87.752 376.764 87.916C376.711 88.0801 376.627 88.2321 376.516 88.3635L373.345 92.0993C373.236 92.2316 373.1 92.3396 372.947 92.4163C372.793 92.493 372.626 92.5367 372.454 92.5446C372.283 92.5641 372.11 92.5482 371.946 92.4977C371.781 92.4473 371.629 92.3634 371.499 92.2513L366.84 88.2874C366.708 88.1775 366.601 88.0417 366.524 87.8885C366.448 87.7353 366.404 87.568 366.394 87.3969C366.375 87.2269 366.392 87.0547 366.445 86.8918C366.497 86.7289 366.584 86.579 366.698 86.4521L369.87 82.7163ZM386.974 62.5818C387.082 62.4485 387.218 62.3397 387.371 62.263C387.525 62.1862 387.693 62.1431 387.865 62.1366C388.035 62.1176 388.208 62.1339 388.373 62.1843C388.537 62.2347 388.689 62.3183 388.82 62.4298L393.468 66.3937C393.601 66.5031 393.71 66.6386 393.789 66.7917C393.867 66.9449 393.913 67.1125 393.925 67.2842C393.942 67.4541 393.924 67.6258 393.871 67.7884C393.819 67.951 393.734 68.101 393.62 68.229L380.1 84.1606C379.99 84.292 379.854 84.3992 379.701 84.4758C379.548 84.5524 379.38 84.5967 379.209 84.6059C379.037 84.6254 378.864 84.6083 378.699 84.5559C378.534 84.5035 378.382 84.4169 378.254 84.3018L373.584 80.3705C373.32 80.1452 373.156 79.8246 373.127 79.4787C373.099 79.1329 373.208 78.7897 373.432 78.5243L386.974 62.5818Z" fill="#4834D4"/>
<path d="M356.208 68.4982C356.264 68.1561 356.453 67.85 356.734 67.6466C357.014 67.4432 357.364 67.3589 357.707 67.4122L363.734 68.4113C363.904 68.4374 364.067 68.4982 364.213 68.5897C364.358 68.6812 364.484 68.8016 364.581 68.9434C364.686 69.0788 364.761 69.2351 364.8 69.4019C364.84 69.5686 364.843 69.7419 364.809 69.91L364.016 74.7427C363.988 74.9134 363.926 75.0766 363.832 75.2223C363.739 75.3679 363.617 75.493 363.473 75.5897C363.338 75.6949 363.182 75.7696 363.015 75.809C362.848 75.8483 362.675 75.8513 362.507 75.8178L356.48 74.8187C356.309 74.7938 356.146 74.7336 356 74.642C355.854 74.5504 355.729 74.4293 355.632 74.2865C355.532 74.1487 355.46 73.9922 355.421 73.8263C355.382 73.6603 355.376 73.4882 355.404 73.32L356.208 68.4982ZM360.552 42.4342C360.581 42.2638 360.644 42.1011 360.738 41.9556C360.831 41.8101 360.952 41.6848 361.095 41.5871C361.23 41.482 361.387 41.4072 361.553 41.3679C361.72 41.3285 361.894 41.3255 362.062 41.359L368.089 42.3581C368.259 42.383 368.423 42.4432 368.569 42.5349C368.714 42.6265 368.84 42.7475 368.936 42.8903C369.041 43.0256 369.116 43.182 369.155 43.3487C369.195 43.5155 369.198 43.6888 369.164 43.8568L365.754 64.4908C365.727 64.662 365.665 64.8256 365.572 64.9715C365.478 65.1173 365.355 65.2421 365.211 65.3379C365.076 65.443 364.919 65.5178 364.753 65.5571C364.586 65.5965 364.412 65.5995 364.244 65.566L358.217 64.5668C358.047 64.542 357.883 64.4818 357.737 64.3901C357.592 64.2985 357.466 64.1775 357.37 64.0347C357.27 63.8969 357.198 63.7404 357.159 63.5744C357.119 63.4085 357.114 63.2363 357.142 63.0682L360.552 42.4342Z" fill="#4834D4"/>
<g opacity="0.3">
<path d="M356.208 68.4982C356.264 68.1561 356.453 67.85 356.734 67.6466C357.014 67.4432 357.364 67.3589 357.707 67.4122L363.734 68.4113C363.904 68.4374 364.067 68.4982 364.213 68.5897C364.358 68.6812 364.484 68.8016 364.581 68.9434C364.686 69.0788 364.761 69.2351 364.8 69.4019C364.84 69.5686 364.843 69.7419 364.809 69.91L364.016 74.7427C363.988 74.9134 363.926 75.0766 363.832 75.2223C363.739 75.3679 363.617 75.493 363.473 75.5897C363.338 75.6949 363.182 75.7696 363.015 75.809C362.848 75.8483 362.675 75.8513 362.507 75.8178L356.48 74.8187C356.309 74.7938 356.146 74.7336 356 74.642C355.854 74.5504 355.729 74.4293 355.632 74.2865C355.532 74.1487 355.46 73.9922 355.421 73.8263C355.382 73.6603 355.376 73.4882 355.404 73.32L356.208 68.4982ZM360.552 42.4342C360.581 42.2638 360.644 42.1011 360.738 41.9556C360.831 41.8101 360.952 41.6848 361.095 41.5871C361.23 41.482 361.387 41.4072 361.553 41.3679C361.72 41.3285 361.894 41.3255 362.062 41.359L368.089 42.3581C368.259 42.383 368.423 42.4432 368.569 42.5349C368.714 42.6265 368.84 42.7475 368.936 42.8903C369.041 43.0256 369.116 43.182 369.155 43.3487C369.195 43.5155 369.198 43.6888 369.164 43.8568L365.754 64.4908C365.727 64.662 365.665 64.8256 365.572 64.9715C365.478 65.1173 365.355 65.2421 365.211 65.3379C365.076 65.443 364.919 65.5178 364.753 65.5571C364.586 65.5965 364.412 65.5995 364.244 65.566L358.217 64.5668C358.047 64.542 357.883 64.4818 357.737 64.3901C357.592 64.2985 357.466 64.1775 357.37 64.0347C357.27 63.8969 357.198 63.7404 357.159 63.5744C357.119 63.4085 357.114 63.2363 357.142 63.0682L360.552 42.4342Z" fill="white"/>
</g>
<path d="M282.888 200.712C282.504 200.456 282.312 200.072 282.312 199.56C282.312 199.304 282.397 199.048 282.568 198.792C282.568 198.792 282.675 198.643 282.888 198.344L287.304 194.504L281.48 193.992L280.968 193.864C280.627 193.779 280.371 193.565 280.2 193.224C280.029 192.84 279.987 192.456 280.072 192.072L281.544 187.592C281.629 187.251 281.843 186.995 282.184 186.824C282.568 186.653 282.931 186.611 283.272 186.696C283.4 186.696 283.571 186.781 283.784 186.952L288.776 189.896L287.56 184.2L287.496 183.688C287.496 183.347 287.624 183.027 287.88 182.728C288.179 182.429 288.52 182.28 288.904 182.28H293.576C293.96 182.28 294.28 182.429 294.536 182.728C294.835 183.027 294.984 183.347 294.984 183.688L294.92 184.2L293.64 189.896L298.696 186.952L299.208 186.696C299.293 186.653 299.4 186.632 299.528 186.632C299.869 186.632 300.168 186.717 300.424 186.888C300.723 187.059 300.893 187.293 300.936 187.592L302.472 192.072L302.536 192.456C302.536 192.755 302.429 193.053 302.216 193.352C302.045 193.608 301.811 193.779 301.512 193.864L301.064 193.992L295.176 194.568L299.592 198.344C299.848 198.6 299.976 198.749 299.976 198.792C300.147 199.048 300.232 199.304 300.232 199.56C300.232 200.072 300.04 200.456 299.656 200.712L295.88 203.528C295.624 203.656 295.347 203.72 295.048 203.72C294.493 203.72 294.109 203.549 293.896 203.208C293.853 203.165 293.811 203.123 293.768 203.08C293.725 202.995 293.661 202.888 293.576 202.76L291.272 197.32L288.904 202.76C288.819 202.888 288.755 202.995 288.712 203.08C288.669 203.123 288.627 203.165 288.584 203.208C288.371 203.549 287.987 203.72 287.432 203.72C287.133 203.72 286.856 203.656 286.6 203.528L282.888 200.712ZM320.668 229C320.241 229 319.879 228.851 319.58 228.552C319.281 228.253 319.132 227.891 319.132 227.464V194.44L309.468 201.864C309.212 202.077 308.892 202.184 308.508 202.184C307.996 202.184 307.591 201.971 307.292 201.544L304.54 197.96C304.327 197.661 304.22 197.363 304.22 197.064C304.22 196.552 304.455 196.125 304.924 195.784L319.26 184.648C319.729 184.349 320.263 184.2 320.86 184.2H326.62C327.047 184.2 327.409 184.349 327.708 184.648C328.007 184.947 328.156 185.309 328.156 185.736V227.464C328.156 227.891 328.007 228.253 327.708 228.552C327.409 228.851 327.047 229 326.62 229H320.668ZM339.348 229C338.964 229 338.644 228.872 338.388 228.616C338.132 228.317 338.004 227.976 338.004 227.592C338.004 227.464 338.046 227.272 338.132 227.016L353.492 191.88H333.46C333.033 191.88 332.67 191.731 332.372 191.432C332.073 191.133 331.924 190.771 331.924 190.344V185.8C331.924 185.331 332.052 184.947 332.308 184.648C332.606 184.349 332.99 184.2 333.46 184.2H361.62C362.089 184.2 362.473 184.349 362.772 184.648C363.07 184.947 363.22 185.331 363.22 185.8V189.832C363.22 190.728 363.006 191.645 362.58 192.584L347.348 227.464C347.092 227.933 346.814 228.317 346.516 228.616C346.217 228.872 345.812 229 345.3 229H339.348ZM385.538 229C385.111 229 384.748 228.851 384.45 228.552C384.151 228.253 384.002 227.891 384.002 227.464V219.272H363.713C363.287 219.272 362.924 219.123 362.625 218.824C362.327 218.525 362.177 218.163 362.177 217.736V213.32C362.177 212.637 362.412 211.997 362.881 211.4L381.762 185.288C381.975 184.947 382.295 184.691 382.722 184.52C383.148 184.307 383.618 184.2 384.13 184.2H391.17C391.639 184.2 392.002 184.349 392.257 184.648C392.556 184.904 392.706 185.267 392.706 185.736V211.656H398.465C398.935 211.656 399.298 211.805 399.554 212.104C399.852 212.36 400.002 212.723 400.002 213.192V217.736C400.002 218.163 399.852 218.525 399.554 218.824C399.298 219.123 398.935 219.272 398.465 219.272H392.706V227.464C392.706 227.891 392.556 228.253 392.257 228.552C392.002 228.851 391.639 229 391.17 229H385.538ZM371.201 211.912H384.194V193.544L371.201 211.912ZM409.686 226.504C409.302 226.504 408.961 226.376 408.662 226.12C408.406 225.864 408.299 225.544 408.342 225.16L409.43 218.248H403.99C403.563 218.248 403.201 218.12 402.902 217.864C402.646 217.565 402.518 217.203 402.518 216.776V213.064C402.518 212.637 402.646 212.296 402.902 212.04C403.201 211.741 403.563 211.592 403.99 211.592H410.39L411.798 201.992H405.654C405.227 201.992 404.865 201.864 404.566 201.608C404.31 201.309 404.182 200.947 404.182 200.52V196.808C404.182 196.381 404.31 196.04 404.566 195.784C404.865 195.485 405.227 195.336 405.654 195.336H412.822L413.846 188.424C413.931 188.04 414.102 187.72 414.358 187.464C414.614 187.208 414.934 187.08 415.318 187.08H419.094C419.478 187.08 419.798 187.208 420.054 187.464C420.31 187.72 420.438 188.04 420.438 188.424L419.414 195.336H427.35L428.374 188.424C428.459 188.04 428.63 187.72 428.886 187.464C429.142 187.208 429.462 187.08 429.846 187.08H433.622C434.006 187.08 434.326 187.208 434.582 187.464C434.838 187.72 434.966 188.04 434.966 188.424L433.942 195.336H439.254C439.681 195.336 440.022 195.485 440.278 195.784C440.577 196.04 440.726 196.381 440.726 196.808V200.52C440.726 200.947 440.577 201.309 440.278 201.608C440.022 201.864 439.681 201.992 439.254 201.992H432.982L431.51 211.592H437.59C438.017 211.592 438.358 211.741 438.614 212.04C438.913 212.296 439.062 212.637 439.062 213.064V216.776C439.062 217.203 438.913 217.565 438.614 217.864C438.358 218.12 438.017 218.248 437.59 218.248H430.55L429.526 225.16C429.441 225.544 429.27 225.864 429.014 226.12C428.758 226.376 428.417 226.504 427.99 226.504H424.214C423.83 226.504 423.489 226.376 423.19 226.12C422.934 225.864 422.827 225.544 422.87 225.16L423.958 218.248H416.022L414.998 225.16C414.913 225.544 414.742 225.864 414.486 226.12C414.23 226.376 413.889 226.504 413.462 226.504H409.686ZM416.982 211.592H424.918L426.326 201.992H418.454L416.982 211.592Z" fill="black"/>
</svg>
