<svg width="91" height="91" viewBox="0 0 91 91" fill="none" xmlns="http://www.w3.org/2000/svg">
<g clip-path="url(#clip0_2173_18401)">
<path d="M45.8638 34.2158C45.8638 30.3865 45.8638 26.58 45.8638 22.7734C45.875 22.7715 45.8862 22.7695 45.8974 22.7676C45.9619 23.0738 46.0287 23.3794 46.0903 23.6862C46.2444 24.4532 46.3816 25.224 46.5523 25.9873C46.811 27.1444 47.0801 28.2996 47.3675 29.45C47.6688 30.6562 47.9713 31.8633 48.3195 33.0565C48.7971 34.6936 49.2834 36.3299 49.831 37.9445C50.3193 39.3845 50.8666 40.8065 51.4424 42.2142C51.9385 43.4271 52.4821 44.623 53.059 45.7998C53.6104 46.9247 54.2116 48.0268 54.8292 49.1173C55.2975 49.9442 55.7999 50.7548 56.3351 51.5401C56.8933 52.3592 57.4827 53.1604 58.1065 53.9306C58.7467 54.7208 59.4379 55.4703 60.1197 56.2259C60.9191 57.1119 61.8115 57.8989 62.751 58.633C63.2283 59.0061 63.7082 59.376 64.2058 59.7619C58.0943 59.7619 51.9936 59.7619 45.8638 59.7619C45.8638 51.2636 45.8638 42.7511 45.8638 34.2158Z" fill="#0A1E45"/>
<path d="M43.7706 49.2752C43.7706 52.7848 43.7706 56.2717 43.7706 59.77C38.3654 59.77 32.9746 59.77 27.5142 59.77C27.7948 59.6014 28.0247 59.4774 28.2397 59.3315C29.0543 58.7785 29.8903 58.2522 30.6681 57.6509C31.3721 57.1066 32.0304 56.4981 32.6725 55.88C33.2879 55.2875 33.8848 54.6707 34.4394 54.0215C35.4671 52.8185 36.3901 51.5343 37.2154 50.1836C37.6319 49.502 38.0286 48.8073 38.4101 48.1054C38.7749 47.4342 39.1402 46.7601 39.4491 46.0624C40.0169 44.7798 40.5696 43.4892 41.0794 42.1827C41.5111 41.0764 41.9182 39.9563 42.2555 38.8185C42.7671 37.0927 43.2088 35.3463 43.6806 33.6087C43.6874 33.5835 43.6993 33.5597 43.7088 33.5352C43.7294 33.5368 43.75 33.5384 43.7706 33.54C43.7706 38.7775 43.7706 44.015 43.7706 49.2752Z" fill="#0A1E45"/>
<path d="M37.6327 26.8418C39.0545 27.1269 40.2793 28.4102 40.5012 29.8687C40.6293 30.7104 40.5568 31.5204 40.1664 32.2707C39.5887 33.3812 38.6812 34.0911 37.4301 34.3041C36.3021 34.4961 35.2545 34.2722 34.358 33.5495C33.6292 32.9619 33.1403 32.202 32.9885 31.2585C32.8561 30.4359 32.9241 29.6315 33.2982 28.8776C33.7116 28.0447 34.343 27.4382 35.2004 27.0496C35.6953 26.8253 36.2123 26.7548 36.7346 26.7212C37.0237 26.7025 37.3202 26.7966 37.6327 26.8418Z" fill="#0A1E45"/>
<path d="M52.5114 67.2957C52.4146 67.2957 52.3393 67.2957 52.2461 67.2957C51.9706 66.1952 51.6961 65.0989 51.4146 63.9744C51.6163 63.9744 51.8105 63.9629 52.0017 63.982C52.0534 63.9871 52.1229 64.0781 52.1384 64.141C52.297 64.7839 52.4456 65.4293 52.5989 66.0735C52.6121 66.129 52.639 66.1812 52.6665 66.2534C52.8604 65.5134 53.0463 64.7953 53.241 64.0797C53.2532 64.035 53.3315 63.9845 53.384 63.9782C53.8016 63.9282 53.8561 63.9821 53.965 64.4199C54.1122 65.012 54.2744 65.6004 54.4323 66.1899C54.437 66.2075 54.4649 66.219 54.4854 66.2361C54.6603 65.5365 54.8417 64.8426 55.0017 64.1438C55.0331 64.0064 55.0787 63.9672 55.205 63.9728C55.3475 63.9791 55.4904 63.9742 55.6605 63.9742C55.5756 64.3394 55.5013 64.6826 55.4157 65.0231C55.238 65.7293 55.0481 66.4324 54.8791 67.1406C54.8482 67.2699 54.7994 67.2998 54.6855 67.2969C54.5121 67.2924 54.3384 67.2957 54.162 67.2957C53.9518 66.5196 53.7447 65.7553 53.5348 64.9805C53.3183 65.7569 53.1056 66.5195 52.8891 67.2957C52.7736 67.2957 52.6532 67.2957 52.5114 67.2957Z" fill="#0A1E45"/>
<path d="M36.8096 65.0647C36.8096 64.6944 36.8096 64.3468 36.8096 63.973C37.0618 63.973 37.302 63.9648 37.5409 63.9793C37.595 63.9826 37.6603 64.0553 37.6934 64.1118C38.1036 64.8115 38.5087 65.5141 38.9344 66.2492C38.9344 65.4804 38.9344 64.7409 38.9344 63.9872C39.1434 63.9872 39.3283 63.9872 39.5265 63.9872C39.5265 65.0808 39.5265 66.1756 39.5265 67.2941C39.3373 67.2941 39.1495 67.3033 38.9636 67.2887C38.9065 67.2842 38.8352 67.2263 38.8032 67.1732C38.4079 66.5162 38.0187 65.8556 37.6278 65.1961C37.5618 65.0847 37.4952 64.9736 37.4069 64.8257C37.4069 65.6657 37.4069 66.4641 37.4069 67.2783C37.2086 67.2783 37.0237 67.2783 36.8096 67.2783C36.8096 66.5519 36.8096 65.8197 36.8096 65.0647Z" fill="#0A1E45"/>
<path d="M49.4562 67.3398C48.768 67.3723 48.2425 67.1241 47.9105 66.5365C47.6675 66.1067 47.628 65.6413 47.7468 65.1611C47.9312 64.4159 48.5757 63.8948 49.3675 63.9209C49.796 63.9349 50.1793 64.0077 50.5308 64.278C50.8398 64.5155 51.0167 64.8347 51.074 65.1837C51.1421 65.598 51.1533 66.0366 50.9577 66.4374C50.6581 67.0515 50.1565 67.3425 49.4562 67.3398ZM48.4098 65.7413C48.4705 65.9506 48.4955 66.1798 48.5987 66.3654C48.8717 66.8562 49.5851 66.9885 50.0537 66.5941C50.4548 66.2566 50.4944 65.4231 50.293 65.0008C50.0847 64.5642 49.6226 64.3995 49.3439 64.4339C48.7079 64.5125 48.3344 65.0279 48.4098 65.7413Z" fill="#0A1E45"/>
<path d="M28.746 66.4549C28.7939 66.3098 28.8331 66.1804 28.882 66.0192C28.5708 66.0192 28.3089 66.0192 28.0379 66.0192C28.0379 65.8507 28.0379 65.7013 28.0379 65.5354C28.5217 65.5354 29.0099 65.5354 29.4998 65.5354C29.6415 66.3207 29.3242 67.1536 28.4127 67.3233C27.856 67.4269 27.3043 67.3687 26.8448 66.9908C26.5674 66.7626 26.4259 66.4378 26.3483 66.0933C26.2583 65.6937 26.2843 65.2978 26.4347 64.912C26.6539 64.35 27.2078 63.9299 27.7885 63.9316C28.0911 63.9325 28.4046 63.9477 28.6934 64.0278C29.0798 64.1349 29.4404 64.5809 29.4321 65.0511C29.216 65.0511 28.9994 65.0511 28.766 65.0511C28.7428 64.6462 28.4581 64.4749 28.1084 64.4374C27.7762 64.4019 27.4737 64.511 27.2504 64.7997C26.8671 65.2952 26.9605 66.2899 27.3816 66.6336C27.7862 66.964 28.5623 66.8467 28.746 66.4549Z" fill="#0A1E45"/>
<path d="M42.4329 64.1634C42.8367 64.4417 43.0801 64.784 43.1441 65.2774C43.2089 65.778 43.1477 66.2287 42.8847 66.6582C42.6332 67.0691 42.2354 67.2438 41.7919 67.2836C41.3423 67.324 40.8861 67.2925 40.4185 67.2925C40.4185 66.1886 40.4185 65.0951 40.4185 63.9645C41.083 64.0328 41.7709 63.8257 42.4329 64.1634ZM42.1786 64.7676C41.864 64.4355 41.4595 64.4714 41.0532 64.4749C41.0532 65.2551 41.0532 66.0162 41.0532 66.7872C41.5718 66.809 42.0709 66.7889 42.3444 66.2707C42.5518 65.8777 42.5333 65.0763 42.1786 64.7676Z" fill="#0A1E45"/>
<path d="M31.52 66.4403C31.4341 66.3096 31.3827 66.1622 31.2794 66.0803C31.1763 65.9983 31.0212 65.9818 30.8524 65.9241C30.8524 66.4154 30.8524 66.8439 30.8524 67.283C30.632 67.283 30.432 67.283 30.2222 67.283C30.2222 66.1846 30.2222 65.0952 30.2222 63.9726C30.5555 63.9726 30.8932 63.9672 31.2306 63.9745C31.4467 63.9792 31.6633 63.9947 31.8781 64.0194C32.3006 64.0679 32.5945 64.4562 32.6225 64.8154C32.6644 65.3535 32.4814 65.6554 32.0152 65.8446C31.9889 65.8554 31.9691 65.8822 31.9245 65.92C32.2192 66.3655 32.5137 66.8109 32.833 67.2936C32.5828 67.2936 32.3674 67.2993 32.1528 67.2888C32.1093 67.2866 32.059 67.2298 32.0288 67.1863C31.8603 66.9437 31.6969 66.6974 31.52 66.4403ZM31.8942 64.6907C31.6048 64.3506 31.2191 64.5129 30.8608 64.471C30.8608 64.8305 30.8608 65.1669 30.8608 65.5374C31.0655 65.5154 31.2562 65.4948 31.4469 65.4743C31.8996 65.4258 32.0516 65.1753 31.8942 64.6907Z" fill="#0A1E45"/>
<path d="M59.1069 67.2361C59.105 66.1404 59.105 65.0665 59.105 64.0177C59.6784 64.0177 60.2379 63.9704 60.7856 64.0306C61.3666 64.0944 61.5981 64.6579 61.5014 65.1921C61.4335 65.5673 61.1579 65.7495 60.8073 65.904C61.1098 66.3618 61.4036 66.8065 61.7249 67.2929C61.4728 67.2929 61.2519 67.2989 61.0319 67.2876C60.9907 67.2855 60.9455 67.2197 60.915 67.1746C60.7002 66.857 60.4778 66.5437 60.2801 66.2156C60.1539 66.0061 60.0007 65.9186 59.7444 65.997C59.7444 66.4152 59.7444 66.8435 59.7444 67.3088C59.5179 67.2906 59.3134 67.2743 59.1069 67.2361ZM60.7434 64.6337C60.4439 64.3795 60.092 64.5007 59.7541 64.4727C59.7541 64.8328 59.7541 65.1692 59.7541 65.5382C59.9529 65.5157 60.1368 65.4978 60.3198 65.4736C60.8273 65.4063 60.9769 65.1334 60.7434 64.6337Z" fill="#0A1E45"/>
<path d="M64.4733 64.5786C64.4942 64.6974 64.5142 64.7974 64.5375 64.9145C64.3252 64.9145 64.1386 64.9145 63.9511 64.9145C63.7744 64.4003 63.2478 64.2371 62.8892 64.5713C62.6771 64.7691 62.7559 65.1172 63.0342 65.1958C63.2598 65.2595 63.5002 65.2723 63.7235 65.3418C63.944 65.4104 64.1721 65.4913 64.3602 65.6203C64.8159 65.9329 64.7017 67.0352 63.9936 67.2481C63.5395 67.3846 63.0871 67.4077 62.6446 67.2146C62.2977 67.0633 62.1018 66.792 62.0607 66.4118C62.0554 66.3622 62.0341 66.3143 62.0171 66.255C62.2383 66.255 62.4491 66.255 62.6796 66.255C62.7176 66.5142 62.8258 66.7518 63.1126 66.8125C63.3833 66.8697 63.6594 66.8901 63.8769 66.642C64.0598 66.4334 64.0345 66.1333 63.7782 66.0243C63.5588 65.9309 63.311 65.9067 63.0813 65.8342C62.8597 65.7643 62.623 65.706 62.4325 65.5819C62.0596 65.3391 62.1133 64.9335 62.175 64.5783C62.2338 64.2399 62.6698 63.9459 63.0395 63.9286C63.2657 63.918 63.4968 63.9069 63.719 63.9403C64.0833 63.9951 64.3294 64.2215 64.4733 64.5786Z" fill="#0A1E45"/>
<path d="M34.1863 64.0737C34.242 64.0294 34.285 63.977 34.3297 63.9756C34.5866 63.9677 34.8439 63.9718 35.1078 63.9718C35.4701 65.0734 35.8298 66.1673 36.2 67.293C35.9703 67.293 35.7755 67.2991 35.5816 67.2883C35.5389 67.2859 35.4778 67.2312 35.4623 67.1875C35.3818 66.9591 35.3132 66.7265 35.2338 66.4743C34.8806 66.4743 34.5102 66.4695 34.1401 66.4798C34.0884 66.4812 34.0153 66.5465 33.9926 66.5995C33.9322 66.741 33.8881 66.8903 33.8482 67.0394C33.7984 67.2254 33.7127 67.338 33.4926 67.297C33.3774 67.2755 33.255 67.2932 33.1221 67.2932C33.4776 66.2106 33.8261 65.1499 34.1863 64.0737ZM34.3041 66.0192C34.559 66.0192 34.8139 66.0192 35.088 66.0192C34.9379 65.5484 34.7949 65.1 34.6305 64.5843C34.4656 65.0862 34.3224 65.5195 34.1847 65.9545C34.1809 65.9666 34.2358 65.9971 34.3041 66.0192Z" fill="#0A1E45"/>
<path d="M57.1976 66.793C57.6128 66.793 58.0057 66.793 58.4105 66.793C58.4105 66.9626 58.4105 67.1171 58.4105 67.2827C57.6948 67.2827 56.9844 67.2827 56.2563 67.2827C56.2563 66.1943 56.2563 65.0994 56.2563 63.9883C56.9462 63.9883 57.6467 63.9883 58.3623 63.9883C58.3623 64.1361 58.3623 64.2906 58.3623 64.4668C57.877 64.4668 57.3884 64.4668 56.8879 64.4668C56.8879 64.7636 56.8879 65.0395 56.8879 65.3367C57.2757 65.3367 57.6583 65.3367 58.0494 65.3367C58.0494 65.5068 58.0494 65.6561 58.0494 65.8267C57.6701 65.8267 57.2875 65.8267 56.8905 65.8267C56.8905 66.1536 56.8905 66.4599 56.8905 66.793C56.9839 66.793 57.0795 66.793 57.1976 66.793Z" fill="#0A1E45"/>
<path d="M46.4555 64.7943C46.4555 65.6338 46.4555 66.4509 46.4555 67.2807C46.2417 67.2807 46.0417 67.2807 45.821 67.2807C45.821 66.3495 45.821 65.4217 45.821 64.4731C45.4946 64.4731 45.1879 64.4731 44.8726 64.4731C44.8726 64.3033 44.8726 64.154 44.8726 63.9883C45.6907 63.9883 46.5123 63.9883 47.3498 63.9883C47.3498 64.1344 47.3498 64.289 47.3498 64.4647C47.0646 64.4647 46.7731 64.4647 46.4555 64.4647C46.4555 64.5807 46.4555 64.6763 46.4555 64.7943Z" fill="#0A1E45"/>
<path d="M31.897 64.7078C32.0512 65.1747 31.8992 65.4252 31.4464 65.4737C31.2558 65.4941 31.0651 65.5147 30.8604 65.5368C30.8604 65.1662 30.8604 64.8299 30.8604 64.4704C31.2187 64.5123 31.6043 64.35 31.897 64.7078Z" fill="white"/>
<path d="M60.7566 64.6462C60.9772 65.1334 60.8275 65.4063 60.3201 65.4736C60.1371 65.4978 59.9532 65.5157 59.7544 65.5382C59.7544 65.1692 59.7544 64.8328 59.7544 64.4727C60.0923 64.5007 60.4442 64.3795 60.7566 64.6462Z" fill="white"/>
<path d="M34.2832 66.0188C34.2353 65.9968 34.1805 65.9662 34.1843 65.9542C34.322 65.5192 34.4652 65.0858 34.63 64.584C34.7945 65.0997 34.9374 65.5481 35.0875 66.0189C34.8134 66.0189 34.5585 66.0189 34.2832 66.0188Z" fill="white"/>
</g>
<defs>
<clipPath id="clip0_2173_18401">
<rect width="91" height="91" fill="white"/>
</clipPath>
</defs>
</svg>
