<svg width="103" height="104" viewBox="0 0 103 104" fill="none" xmlns="http://www.w3.org/2000/svg">
<rect y="0.5" width="103" height="103" rx="51.5" fill="#EDEBFF"/>
<path d="M25.9951 47.0932H31.8808V66.7128H27.957C27.4367 66.7128 26.9377 66.9712 26.5697 67.4311C26.2018 67.891 25.9951 68.5148 25.9951 69.1652C25.9951 69.8157 26.2018 70.4395 26.5697 70.8994C26.9377 71.3593 27.4367 71.6177 27.957 71.6177H75.0427C75.563 71.6177 76.0621 71.3593 76.43 70.8994C76.7979 70.4395 77.0046 69.8157 77.0046 69.1652C77.0046 68.5148 76.7979 67.891 76.43 67.4311C76.0621 66.9712 75.563 66.7128 75.0427 66.7128H71.1189V47.0932H77.0046C77.4315 47.0927 77.8466 46.9181 78.1869 46.596C78.5272 46.2739 78.7742 45.8219 78.8904 45.3084C79.0067 44.795 78.9857 44.2482 78.8308 43.7509C78.6759 43.2537 78.3955 42.8332 78.0322 42.5531L52.5274 22.9336C52.2184 22.6961 51.8627 22.5703 51.4999 22.5703C51.1371 22.5703 50.7814 22.6961 50.4723 22.9336L24.9676 42.5531C24.6042 42.8332 24.3238 43.2537 24.1689 43.7509C24.014 44.2482 23.9931 44.795 24.1093 45.3084C24.2255 45.8219 24.4725 46.2739 24.8128 46.596C25.1531 46.9181 25.5682 47.0927 25.9951 47.0932ZM35.8046 47.0932H43.6522V66.7128H35.8046V47.0932ZM55.4237 47.0932V66.7128H47.5761V47.0932H55.4237ZM67.1951 66.7128H59.3475V47.0932H67.1951V66.7128ZM51.4999 27.8998L70.0742 42.1883H32.9255L51.4999 27.8998ZM80.9284 78.975C80.9284 79.6254 80.7217 80.2492 80.3538 80.7092C79.9859 81.1691 79.4869 81.4275 78.9665 81.4275H24.0332C23.5129 81.4275 23.0138 81.1691 22.6459 80.7092C22.278 80.2492 22.0713 79.6254 22.0713 78.975C22.0713 78.3246 22.278 77.7008 22.6459 77.2409C23.0138 76.7809 23.5129 76.5226 24.0332 76.5226H78.9665C79.4869 76.5226 79.9859 76.7809 80.3538 77.2409C80.7217 77.7008 80.9284 78.3246 80.9284 78.975Z" fill="#4834D4"/>
</svg>
