<svg width="105" height="103" viewBox="0 0 105 103" fill="none" xmlns="http://www.w3.org/2000/svg">
<rect x="0.428711" y="0.261719" width="104.143" height="102.476" rx="51.2381" fill="#EDEBFF"/>
<path fill-rule="evenodd" clip-rule="evenodd" d="M46.7629 22.332H58.2381C63.3673 22.332 67.4305 22.332 70.609 22.842C73.8797 23.3687 76.528 24.4754 78.6182 26.9687C80.7056 29.4654 81.6321 32.6287 82.073 36.5354C82.3242 38.7787 82.4274 41.3887 82.4693 44.412C82.5058 44.6654 82.5095 44.924 82.4805 45.1787C82.5 47.0654 82.5 49.1054 82.5 51.312V51.6854C82.5 57.812 82.5 62.6654 82.073 66.462C81.6321 70.3687 80.7056 73.532 78.6182 76.0287C76.528 78.522 73.8797 79.6287 70.609 80.1554C67.4277 80.6654 63.3673 80.6654 58.2381 80.6654H46.7629C41.6337 80.6654 37.5705 80.6654 34.3919 80.1554C31.1213 79.6287 28.473 78.522 26.3828 76.0287C24.2954 73.532 23.3689 70.3687 22.928 66.462C22.501 62.662 22.501 57.812 22.501 51.6854V51.312C22.501 49.1054 22.501 47.0654 22.5205 45.1787C22.4906 44.9241 22.4934 44.6656 22.5289 44.412C22.5735 41.3887 22.6768 38.7787 22.928 36.5354C23.3689 32.6287 24.2954 29.4654 26.3828 26.9687C28.473 24.4754 31.1213 23.3687 34.3919 22.842C37.5733 22.332 41.6337 22.332 46.7629 22.332ZM26.6925 47.332C26.687 48.6254 26.687 50.012 26.687 51.4987C26.687 57.8554 26.6925 62.3687 27.0777 65.7987C27.4544 69.1487 28.1632 71.082 29.3437 72.492C30.5241 73.902 32.1427 74.7487 34.9501 75.1987C37.8189 75.6587 41.5974 75.6654 46.9192 75.6654H58.0818C63.4036 75.6654 67.1849 75.6587 70.0537 75.1987C72.8583 74.7487 74.4769 73.902 75.6573 72.492C76.8378 71.082 77.5466 69.1487 77.9233 65.7954C78.3084 62.3687 78.314 57.8554 78.314 51.4987C78.314 50.012 78.314 48.6254 78.3084 47.332H26.6925ZM78.2415 42.332H26.7595C26.8153 40.3754 26.9102 38.6854 27.0777 37.1987C27.4544 33.8487 28.1632 31.9154 29.3437 30.5054C30.5241 29.0954 32.1427 28.2487 34.9501 27.7987C37.8189 27.3387 41.5974 27.332 46.9192 27.332H58.0818C63.4036 27.332 67.1849 27.3387 70.0537 27.7987C72.8583 28.2487 74.4769 29.0954 75.6573 30.5054C76.8378 31.9154 77.5466 33.8487 77.9233 37.202C78.0908 38.6854 78.1857 40.3754 78.2415 42.332ZM33.6636 64.832C33.6636 64.169 33.8841 63.5331 34.2766 63.0643C34.6691 62.5954 35.2015 62.332 35.7566 62.332H46.9192C47.4743 62.332 48.0066 62.5954 48.3992 63.0643C48.7917 63.5331 49.0122 64.169 49.0122 64.832C49.0122 65.4951 48.7917 66.131 48.3992 66.5998C48.0066 67.0686 47.4743 67.332 46.9192 67.332H35.7566C35.2015 67.332 34.6691 67.0686 34.2766 66.5998C33.8841 66.131 33.6636 65.4951 33.6636 64.832ZM51.8028 64.832C51.8028 64.169 52.0233 63.5331 52.4158 63.0643C52.8084 62.5954 53.3407 62.332 53.8958 62.332H58.0818C58.6369 62.332 59.1692 62.5954 59.5618 63.0643C59.9543 63.5331 60.1748 64.169 60.1748 64.832C60.1748 65.4951 59.9543 66.131 59.5618 66.5998C59.1692 67.0686 58.6369 67.332 58.0818 67.332H53.8958C53.3407 67.332 52.8084 67.0686 52.4158 66.5998C52.0233 66.131 51.8028 65.4951 51.8028 64.832Z" fill="#4834D4"/>
</svg>
