<svg width="31" height="40" viewBox="0 0 31 40" fill="none" xmlns="http://www.w3.org/2000/svg">
<path d="M26.7143 16H3.85714C2.27919 16 1 17.2792 1 18.8571V36C1 37.578 2.27919 38.8571 3.85714 38.8571H26.7143C28.2922 38.8571 29.5714 37.578 29.5714 36V18.8571C29.5714 17.2792 28.2922 16 26.7143 16Z" stroke="black" stroke-opacity="0.26" stroke-linecap="round" stroke-linejoin="round"/>
<path d="M25 15.7154V11.4297C25 8.77752 23.9464 6.23398 22.0711 4.35862C20.1957 2.48326 17.6522 1.42969 15 1.42969C12.3478 1.42969 9.8043 2.48326 7.92893 4.35862C6.05357 6.23398 5 8.77752 5 11.4297V15.7154" stroke="black" stroke-opacity="0.26" stroke-linecap="round" stroke-linejoin="round"/>
<path d="M14.9999 28.572C15.7888 28.572 16.4284 27.9324 16.4284 27.1434C16.4284 26.3544 15.7888 25.7148 14.9999 25.7148C14.2109 25.7148 13.5713 26.3544 13.5713 27.1434C13.5713 27.9324 14.2109 28.572 14.9999 28.572Z" stroke="black" stroke-opacity="0.26" stroke-linecap="round" stroke-linejoin="round"/>
</svg>
