<svg width="136" height="140" viewBox="0 0 136 140" fill="none" xmlns="http://www.w3.org/2000/svg">
<path d="M123.079 64.177C123.198 65.4577 123.278 66.7502 123.318 68.053L122.319 68.0839C122.339 68.7201 122.348 69.3589 122.348 70.0001C122.348 70.6413 122.339 71.2801 122.319 71.9164L123.318 71.9472C123.278 73.2501 123.198 74.5425 123.079 75.8233L122.083 75.7305C121.964 77.0075 121.805 78.2727 121.609 79.5246L122.597 79.6796C122.395 80.9667 122.153 82.2402 121.873 83.4987L120.897 83.2816C120.619 84.5312 120.303 85.7657 119.95 86.9837L120.91 87.2623C120.548 88.5113 120.147 89.7434 119.71 90.957L118.769 90.6178C118.335 91.8212 117.864 93.0061 117.358 94.1711L118.275 94.5697C117.757 95.7614 117.203 96.9326 116.614 98.0818L115.724 97.6255C115.141 98.762 114.523 99.8767 113.872 100.968L114.731 101.48C114.065 102.596 113.366 103.687 112.633 104.752L111.809 104.186C111.086 105.238 110.331 106.264 109.544 107.263L110.33 107.882C109.528 108.901 108.694 109.893 107.83 110.856L107.086 110.189C106.234 111.138 105.353 112.058 104.443 112.948L105.143 113.663C104.216 114.57 103.261 115.445 102.278 116.289L101.627 115.53C100.66 116.359 99.6665 117.157 98.6477 117.921L99.2476 118.721C98.2113 119.498 97.1493 120.24 96.0631 120.947L95.5176 120.109C94.4511 120.803 93.361 121.462 92.2488 122.085L92.7371 122.957C91.6082 123.589 90.4569 124.183 89.2847 124.739L88.8563 123.835C87.7084 124.38 86.5401 124.886 85.353 125.353L85.7191 126.284C84.5166 126.757 83.2951 127.19 82.056 127.582L81.7542 126.629C80.5457 127.011 79.3201 127.354 78.0791 127.655L78.3149 128.627C77.0615 128.931 75.7925 129.194 74.5094 129.414L74.3406 128.428C73.0925 128.642 71.8306 128.814 70.5565 128.944L70.6577 129.938C69.378 130.068 68.0862 130.156 66.7836 130.2L66.75 129.201C66.1149 129.222 65.4771 129.233 64.8368 129.233C64.1966 129.233 63.5588 129.222 62.9237 129.201L62.89 130.2C61.5875 130.156 60.2957 130.068 59.016 129.938L59.1171 128.944C57.843 128.814 56.5812 128.642 55.333 128.428L55.1643 129.414C53.8811 129.194 52.6121 128.931 51.3587 128.627L51.5945 127.655C50.3535 127.354 49.128 127.011 47.9194 126.629L47.6177 127.582C46.3786 127.19 45.1571 126.757 43.9546 126.284L44.3207 125.353C43.1336 124.886 41.9653 124.38 40.8173 123.835L40.389 124.739C39.2168 124.183 38.0654 123.589 36.9366 122.957L37.4248 122.085C36.3126 121.462 35.2225 120.803 34.156 120.109L33.6106 120.947C32.5244 120.24 31.4624 119.498 30.4261 118.721L31.0259 117.921C30.0071 117.157 29.0135 116.359 28.0468 115.53L27.3955 116.289C26.413 115.445 25.4576 114.57 24.5311 113.663L25.2305 112.948C24.3209 112.058 23.4394 111.138 22.5878 110.189L21.8434 110.856C20.9794 109.893 20.1456 108.901 19.3434 107.882L20.1293 107.263C19.343 106.264 18.5876 105.238 17.8646 104.186L17.0405 104.752C16.3081 103.687 15.6084 102.596 14.943 101.48L15.8017 100.968C15.1506 99.8767 14.5328 98.762 13.9499 97.6255L13.0601 98.0818C12.4707 96.9326 11.9164 95.7614 11.3985 94.5697L12.3157 94.1711C11.8094 93.0061 11.3387 91.8212 10.9048 90.6178L9.96408 90.957C9.52652 89.7434 9.12588 88.5114 8.76354 87.2623L9.72394 86.9837C9.37062 85.7657 9.05431 84.5312 8.77638 83.2816L7.80023 83.4987C7.52033 82.2402 7.27872 80.9668 7.07673 79.6796L8.06464 79.5246C7.86819 78.2727 7.70982 77.0075 7.59081 75.7305L6.59512 75.8233C6.47577 74.5426 6.39538 73.2501 6.35519 71.9472L7.35471 71.9164C7.33508 71.2802 7.3252 70.6414 7.3252 70.0001C7.3252 69.3589 7.33508 68.7201 7.35471 68.0839L6.35519 68.0531C6.39538 66.7502 6.47577 65.4577 6.59512 64.177L7.59081 64.2698C7.70981 62.9928 7.86818 61.7276 8.06464 60.4757L7.07673 60.3207C7.27872 59.0335 7.52032 57.7601 7.80023 56.5016L8.77637 56.7187C9.05431 55.4691 9.37061 54.2346 9.72394 53.0166L8.76354 52.738C9.12587 51.4889 9.52652 50.2569 9.96407 49.0433L10.9048 49.3825C11.3387 48.1791 11.8094 46.9942 12.3157 45.8292L11.3985 45.4306C11.9164 44.2389 12.4707 43.0677 13.0601 41.9185L13.9499 42.3748C14.5328 41.2383 15.1506 40.1236 15.8017 39.0323L14.943 38.5199C15.6084 37.4048 16.3081 36.3136 17.0405 35.248L17.8646 35.8145C18.5876 34.7627 19.343 33.7363 20.1293 32.7369L19.3434 32.1185C20.1456 31.0989 20.9794 30.1069 21.8434 29.1439L22.5878 29.8117C23.4394 28.8624 24.3209 27.942 25.2305 27.0519L24.5311 26.3371C25.4576 25.4305 26.4129 24.5548 27.3955 23.7117L28.0467 24.4706C29.0135 23.641 30.0071 22.8435 31.0259 22.0797L30.4261 21.2796C31.4623 20.5026 32.5244 19.7599 33.6105 19.0529L34.156 19.891C35.2225 19.1969 36.3126 18.5379 37.4248 17.9157L36.9366 17.043C38.0654 16.4114 39.2168 15.817 40.389 15.2613L40.8173 16.1649C41.9653 15.6207 43.1335 15.1143 44.3206 14.6473L43.9546 13.7167C45.1571 13.2437 46.3786 12.8103 47.6177 12.4181L47.9194 13.3715C49.128 12.9889 50.3535 12.6463 51.5945 12.3451L51.3587 11.3734C52.6121 11.0692 53.8811 10.8065 55.1642 10.5867L55.333 11.5724C56.5812 11.3586 57.843 11.1863 59.1171 11.0568L59.016 10.0619C60.2957 9.93179 61.5875 9.84412 62.89 9.80029L62.9237 10.7997C63.5588 10.7783 64.1966 10.7676 64.8368 10.7676C65.4771 10.7676 66.1148 10.7783 66.75 10.7997L66.7836 9.80029C68.0862 9.84412 69.378 9.93179 70.6577 10.0619L70.5565 11.0568C71.8306 11.1863 73.0924 11.3586 74.3406 11.5724L74.5094 10.5867C75.7925 10.8065 77.0615 11.0692 78.3149 11.3734L78.0791 12.3451C79.3201 12.6463 80.5457 12.9889 81.7542 13.3715L82.056 12.4181C83.2951 12.8103 84.5166 13.2437 85.7191 13.7167L85.353 14.6473C86.5401 15.1143 87.7084 15.6207 88.8563 16.1649L89.2847 15.2613C90.4569 15.817 91.6082 16.4114 92.7371 17.043L92.2488 17.9157C93.361 18.5379 94.4511 19.1969 95.5176 19.891L96.0631 19.0529C97.1493 19.7599 98.2113 20.5026 99.2476 21.2796L98.6477 22.0797C99.6665 22.8435 100.66 23.641 101.627 24.4706L102.278 23.7117C103.261 24.5548 104.216 25.4305 105.143 26.3371L104.443 27.0519C105.353 27.942 106.234 28.8624 107.086 29.8117L107.83 29.1438C108.694 30.1068 109.528 31.0989 110.33 32.1185L109.544 32.7369C110.331 33.7363 111.086 34.7627 111.809 35.8145L112.633 35.248C113.366 36.3136 114.065 37.4047 114.731 38.5199L113.872 39.0323C114.523 40.1236 115.141 41.2382 115.724 42.3748L116.614 41.9185C117.203 43.0677 117.757 44.2389 118.275 45.4306L117.358 45.8291C117.864 46.9941 118.335 48.1791 118.769 49.3825L119.71 49.0433C120.147 50.2569 120.548 51.4889 120.91 52.738L119.95 53.0166C120.303 54.2346 120.619 55.4691 120.897 56.7187L121.873 56.5016C122.153 57.76 122.395 59.0335 122.597 60.3207L121.609 60.4757C121.805 61.7276 121.964 62.9927 122.083 64.2698L123.079 64.177Z" stroke="#8796F8" strokeWidth="2" stroke-dasharray="4 4"/>
<path d="M22.1396 17.5C22.1396 12.8587 23.9307 8.40752 27.1188 5.12563C30.307 1.84374 34.631 0 39.1396 0L90.1396 0C94.6483 0 98.9723 1.84374 102.16 5.12563C105.349 8.40752 107.14 12.8587 107.14 17.5V122.5C107.14 127.141 105.349 131.592 102.16 134.874C98.9723 138.156 94.6483 140 90.1396 140H39.1396C34.631 140 30.307 138.156 27.1188 134.874C23.9307 131.592 22.1396 127.141 22.1396 122.5V17.5ZM73.1396 113.75C73.1396 111.429 72.2441 109.204 70.6501 107.563C69.056 105.922 66.894 105 64.6396 105C62.3853 105 60.2233 105.922 58.6292 107.563C57.0352 109.204 56.1396 111.429 56.1396 113.75C56.1396 116.071 57.0352 118.296 58.6292 119.937C60.2233 121.578 62.3853 122.5 64.6396 122.5C66.894 122.5 69.056 121.578 70.6501 119.937C72.2441 118.296 73.1396 116.071 73.1396 113.75Z" fill="white"/>
</svg>
