<svg id="animated-svg" width="144" height="293" viewBox="0 0 144 293" fill="none" xmlns="http://www.w3.org/2000/svg">
<path d="M121.144 292.686L21.5856 292.224C18.7361 292.217 15.916 291.648 13.2871 290.549C10.6583 289.449 8.27256 287.841 6.2669 285.817C4.26124 283.793 2.67521 281.393 1.59983 278.754C0.524452 276.115 -0.0190587 273.29 0.000510228 270.441L1.05663 21.536C1.07176 18.6913 1.64733 15.8775 2.75043 13.2554C3.85353 10.6332 5.46256 8.2542 7.48554 6.25421C9.50851 4.25423 11.9058 2.67251 14.5403 1.59945C17.1749 0.526383 19.9951 -0.0169816 22.8397 0.000404403L122.398 0.445962C128.141 0.467806 133.64 2.76654 137.69 6.83786C141.739 10.9092 144.009 16.4206 144 22.163L142.944 271.084C142.935 273.935 142.364 276.757 141.263 279.386C140.162 282.016 138.553 284.403 136.528 286.41C134.502 288.417 132.101 290.004 129.461 291.081C126.822 292.158 123.995 292.703 121.144 292.686Z" fill="#455A64"/>
<path d="M122.267 9.10918H102.959C102.331 9.11778 101.711 9.25021 101.135 9.4989C100.558 9.7476 100.037 10.1077 99.5999 10.5584C99.1629 11.0092 98.8193 11.5418 98.5886 12.1256C98.3579 12.7095 98.2448 13.3332 98.2557 13.9609V17.4594C98.2691 18.7261 97.7831 19.9472 96.9029 20.8583C96.0227 21.7694 94.8191 22.2972 93.5526 22.3275L55.9107 22.146C55.2787 22.1312 54.6558 21.9908 54.0785 21.733C53.5012 21.4753 52.9808 21.1053 52.5477 20.6446C52.1147 20.1839 51.7776 19.6418 51.556 19.0496C51.3344 18.4574 51.2328 17.8271 51.2571 17.1953V13.6638C51.2791 13.0326 51.1759 12.4032 50.9535 11.812C50.7311 11.2209 50.3939 10.6795 49.9613 10.2193C49.5287 9.75907 49.0092 9.38904 48.4329 9.13053C47.8566 8.87203 47.2348 8.73016 46.6034 8.71312H39.8044H22.9061C20.9145 8.70225 18.9402 9.08379 17.0961 9.83592C15.2519 10.588 13.574 11.696 12.1581 13.0966C10.7421 14.4972 9.61596 16.163 8.84381 17.9989C8.07166 19.8347 7.66866 21.8047 7.65786 23.7963L6.6182 266.76C6.60943 270.784 8.19833 274.647 11.0358 277.5C13.8732 280.352 17.7272 281.962 21.7509 281.975L121.112 282.437C125.134 282.455 128.999 280.877 131.861 278.05C134.722 275.223 136.346 271.377 136.376 267.354L137.399 24.3903C137.415 22.3918 137.035 20.41 136.281 18.5588C135.528 16.7077 134.416 15.0236 133.01 13.6036C131.604 12.1835 129.931 11.0554 128.087 10.2841C126.243 9.51275 124.265 9.11347 122.267 9.10918Z" fill="white"/>
<path d="M120.631 174.43H22.3105V181.014H120.631V174.43Z" fill="#455A64"/>
<path d="M117.134 200.324C117.134 200.555 96.1427 200.753 70.267 200.753C44.3913 200.753 23.3838 200.555 23.3838 200.324C23.3838 200.093 44.3748 199.895 70.267 199.895C96.1592 199.895 117.134 200.093 117.134 200.324Z" fill="#455A64"/>
<path d="M117.134 44.3587C117.134 44.6063 96.1427 44.7878 70.267 44.7878C44.3913 44.7878 23.3838 44.6063 23.3838 44.3587C23.3838 44.1112 44.3748 43.9297 70.267 43.9297C96.1592 43.9297 117.134 44.0782 117.134 44.3587Z" fill="#455A64"/>
<path d="M117.134 212.304C117.134 212.535 96.1427 212.733 70.267 212.733C44.3913 212.733 23.3838 212.535 23.3838 212.304C23.3838 212.073 44.3748 211.875 70.267 211.875C96.1592 211.875 117.134 212.057 117.134 212.304Z" fill="#455A64"/>
<path d="M117.134 224.234C117.134 224.465 96.1427 224.663 70.267 224.663C44.3913 224.663 23.3838 224.465 23.3838 224.234C23.3838 224.003 44.3748 223.805 70.267 223.805C96.1592 223.805 117.134 224.036 117.134 224.234Z" fill="#455A64"/>
<path d="M117.134 236.247C117.134 236.478 96.1427 236.677 70.267 236.677C44.3913 236.677 23.3838 236.478 23.3838 236.247C23.3838 236.016 44.3748 235.818 70.267 235.818C96.1592 235.818 117.134 236 117.134 236.247Z" fill="#455A64"/>
<path d="M117.134 248.212C117.134 248.46 96.1427 248.641 70.267 248.641C44.3913 248.641 23.3838 248.46 23.3838 248.212C23.3838 247.965 44.3748 247.783 70.267 247.783C96.1592 247.783 117.134 247.981 117.134 248.212Z" fill="#455A64"/>
<path d="M118.471 261.792C118.471 262.023 97.4796 262.221 71.6039 262.221C45.7282 262.221 24.7207 262.023 24.7207 261.792C24.7207 261.561 45.7117 261.363 71.6039 261.363C97.4961 261.363 118.471 261.545 118.471 261.792Z" fill="#455A64"/>
<path d="M121.952 57.9727H23.3838V153.34H121.952V57.9727Z" fill="#E0E0E0"/>
<path d="M31.0244 145.17L58.3028 96.0918L80.5974 127.463L94.1459 110.795L114.312 145.17H31.0244Z" fill="#FF725E"/>
<path d="M90.1041 86.555C90.1041 87.9585 89.6879 89.3304 88.9082 90.4973C88.1285 91.6643 87.0203 92.5738 85.7236 93.1108C84.427 93.6479 83.0002 93.7885 81.6237 93.5147C80.2473 93.2409 78.9829 92.565 77.9905 91.5726C76.9981 90.5802 76.3223 89.3158 76.0485 87.9393C75.7747 86.5629 75.9152 85.1361 76.4523 83.8394C76.9893 82.5428 77.8988 81.4346 79.0657 80.6549C80.2326 79.8751 81.6046 79.459 83.0081 79.459C84.8887 79.4633 86.6911 80.2124 88.0209 81.5422C89.3507 82.872 90.0997 84.6744 90.1041 86.555Z" fill="#FF725E"/>
<path d="M114.313 145.436C114.313 145.436 114.313 145.304 114.313 145.04C114.313 144.775 114.313 144.396 114.313 143.934C114.313 142.911 114.313 141.492 114.313 139.643C114.313 135.864 114.313 130.385 114.197 123.438C114.197 109.51 114.082 89.6742 113.999 65.8613L114.396 66.2573H31.1247C31.0091 66.3564 31.9993 65.3662 31.5867 65.7953V87.2483C31.5867 94.2618 31.5867 101.127 31.5867 107.794C31.5867 121.161 31.5867 133.785 31.5867 145.403L31.1742 144.99L91.3912 145.205L108.389 145.304H112.894H114.049H114.461H114.098H112.976H108.554L91.6552 145.403L31.1742 145.617H30.7616V145.205C30.7616 133.653 30.7616 120.963 30.7616 107.596C30.7616 100.995 30.7616 94.0638 30.7616 87.0503V65.5972C30.3325 66.0098 31.3227 65.0032 31.2402 65.1187H114.511H114.676V65.8118C114.577 89.7402 114.511 109.658 114.461 123.652C114.461 130.55 114.461 135.996 114.362 139.759C114.362 141.574 114.362 142.977 114.362 143.967C114.362 144.412 114.362 144.759 114.362 145.04C114.365 145.173 114.348 145.307 114.313 145.436Z" fill="#455A64"/>
</svg>
