<svg width="101" height="101" viewBox="0 0 101 101" fill="none" xmlns="http://www.w3.org/2000/svg">
<rect x="0.5" y="0.828125" width="100" height="99.3429" rx="49.6714" fill="#EDEBFF"/>
<path d="M60.85 26.3484C61.765 26.3484 62.6425 26.7119 63.2895 27.3589C63.9365 28.0059 64.3 28.8834 64.3 29.7984V71.1984C64.3 72.1134 63.9365 72.991 63.2895 73.638C62.6425 74.285 61.765 74.6484 60.85 74.6484H40.15C39.235 74.6484 38.3575 74.285 37.7105 73.638C37.0635 72.991 36.7 72.1134 36.7 71.1984V29.7984C36.7 28.8834 37.0635 28.0059 37.7105 27.3589C38.3575 26.7119 39.235 26.3484 40.15 26.3484H60.85ZM40.15 22.8984C38.32 22.8984 36.565 23.6254 35.271 24.9194C33.977 26.2134 33.25 27.9684 33.25 29.7984V71.1984C33.25 73.0284 33.977 74.7835 35.271 76.0775C36.565 77.3715 38.32 78.0984 40.15 78.0984H60.85C62.68 78.0984 64.435 77.3715 65.729 76.0775C67.023 74.7835 67.75 73.0284 67.75 71.1984V29.7984C67.75 27.9684 67.023 26.2134 65.729 24.9194C64.435 23.6254 62.68 22.8984 60.85 22.8984H40.15Z" fill="#4834D4"/>
</svg>
