<svg width="24" height="24" viewBox="0 0 24 24" fill="none" xmlns="http://www.w3.org/2000/svg">
<path d="M18.3072 5.66723C17.9472 6.02723 17.9172 6.58723 18.2372 6.98723C19.6872 8.80723 20.4472 11.2972 19.7672 13.9072C18.9772 16.9572 16.5872 19.2372 13.5572 19.8472C8.4572 20.8572 3.9872 16.9172 3.9872 11.9872C3.9872 7.90723 7.0372 4.54723 10.9872 4.05723V6.07723C7.8572 6.60723 5.5572 9.53723 6.0572 12.9072C6.4472 15.5172 8.6172 17.6172 11.2372 17.9372C14.8772 18.3872 17.9872 15.5472 17.9872 11.9872C17.9872 10.7372 17.6072 9.58723 16.9572 8.62723C16.6172 8.12723 15.8872 8.09723 15.4572 8.51723L15.4472 8.52723C15.1072 8.86723 15.0772 9.39723 15.3372 9.79723C15.9372 10.7172 16.1772 11.8972 15.8272 13.1172C15.4372 14.4872 14.2872 15.5772 12.8872 15.8872C10.2872 16.4572 7.9872 14.4972 7.9872 11.9872C7.9872 10.1272 9.2672 8.57723 10.9872 8.12723V10.2672C10.3872 10.6172 9.9872 11.2472 9.9872 11.9872C9.9872 13.0872 10.8872 13.9872 11.9872 13.9872C13.0872 13.9872 13.9872 13.0872 13.9872 11.9872C13.9872 11.2472 13.5872 10.6072 12.9872 10.2672V2.69723C12.9872 2.30723 12.6672 1.98723 12.2772 1.98723C6.9172 1.78723 2.2972 6.04723 2.0072 11.3872C1.6472 17.9372 7.4172 23.2072 14.0172 21.7872C17.8972 20.9572 20.8972 17.9872 21.7672 14.1172C22.4772 10.9572 21.5672 7.95723 19.7972 5.74723C19.4272 5.27723 18.7272 5.24723 18.3072 5.66723Z" fill="#E54D80"/>
</svg>
