<svg width="24" height="24" viewBox="0 0 24 24" fill="none" xmlns="http://www.w3.org/2000/svg">
<path d="M4.66992 6.90172C5.36992 6.19172 6.06992 5.55172 6.37992 5.68172C6.87992 5.88172 6.37992 6.71172 6.07992 7.20172C5.82992 7.62172 3.21992 11.0917 3.21992 13.5117C3.21992 14.7917 3.69992 15.8517 4.55992 16.4917C5.30992 17.0517 6.29992 17.2217 7.19992 16.9517C8.26992 16.6417 9.14992 15.5517 10.2599 14.1817C11.4699 12.6917 13.0899 10.7417 14.3399 10.7417C15.9699 10.7417 15.9899 11.7517 16.0999 12.5317C12.3199 13.1717 10.7199 16.2017 10.7199 17.9017C10.7199 19.6017 12.1599 20.9917 13.9299 20.9917C15.5599 20.9917 18.2199 19.6617 18.6199 14.8917H21.0799V12.3917H18.6099C18.4599 10.7417 17.5199 8.19172 14.5799 8.19172C12.3299 8.19172 10.3999 10.1017 9.63992 11.0317C9.05992 11.7617 7.57992 13.5117 7.34992 13.7517C7.09992 14.0517 6.66992 14.5917 6.23992 14.5917C5.78992 14.5917 5.51992 13.7617 5.87992 12.6717C6.22992 11.5817 7.27992 9.81172 7.72992 9.15172C8.50992 8.01172 9.02992 7.23172 9.02992 5.87172C9.02992 3.70172 7.38992 3.01172 6.51992 3.01172C5.19992 3.01172 4.04992 4.01172 3.79992 4.26172C3.43992 4.62172 3.13992 4.92172 2.91992 5.19172L4.66992 6.90172ZM13.9599 18.5617C13.6499 18.5617 13.2199 18.3017 13.2199 17.8417C13.2199 17.2417 13.9499 15.6417 16.0899 15.0817C15.7899 17.7717 14.6599 18.5617 13.9599 18.5617Z" fill="#F2CC0D"/>
</svg>
