<svg width="76" height="75" viewBox="0 0 76 75" fill="none" xmlns="http://www.w3.org/2000/svg">
<path fill-rule="evenodd" clip-rule="evenodd" d="M24.9998 67.0655C25.9618 67.0655 26.6648 67.2693 27.1088 67.6768C27.5528 68.0843 27.775 68.718 27.7755 69.578V74.1875H26.3325V69.773C26.3325 68.801 25.7875 68.315 24.6975 68.315C24.2267 68.3111 23.7645 68.4412 23.3648 68.69C23.4339 68.9808 23.4665 69.2791 23.4615 69.578V74.1875H22.0185V69.773C22.0185 68.801 21.4735 68.315 20.3835 68.315C19.8862 68.3155 19.3929 68.4049 18.927 68.579V74.1875H17.4848V67.7878C17.9623 67.5504 18.4678 67.374 18.9893 67.2628C19.5456 67.1331 20.1146 67.0657 20.6858 67.0618C21.5858 67.0618 22.2545 67.2368 22.692 67.5868C23.4126 67.2425 24.2012 67.0644 24.9998 67.0655ZM32.7195 74.399C31.6195 74.399 30.7928 74.0843 30.2393 73.4548C29.6858 72.8253 29.4088 71.909 29.4083 70.706C29.4083 68.2715 30.5083 67.0545 32.7083 67.055C33.8168 67.055 34.6503 67.3673 35.2088 67.9918C35.7673 68.6163 36.0468 69.521 36.0473 70.706C36.0473 71.89 35.7588 72.8015 35.1818 73.4405C34.6048 74.0795 33.784 74.399 32.7195 74.399ZM32.7053 73.163C33.9698 73.163 34.6018 72.344 34.6013 70.706C34.6013 69.8915 34.4513 69.283 34.1513 68.8805C33.8513 68.478 33.3703 68.2765 32.7083 68.276C32.0398 68.276 31.5613 68.482 31.2728 68.894C30.9843 69.306 30.84 69.91 30.84 70.706C30.84 71.5015 30.9888 72.11 31.2863 72.5315C31.5838 72.953 32.0568 73.1625 32.7053 73.16V73.163ZM40.8645 67.0685C41.8905 67.0685 42.669 67.3785 43.2 67.9985C43.731 68.6185 43.9973 69.4968 43.9988 70.6333C43.9988 72.0033 43.6805 72.9728 43.044 73.5418C42.4075 74.1108 41.5985 74.3965 40.617 74.399C38.6475 74.399 37.6628 73.8715 37.6628 72.8165V64.4278H39.0923V67.499C39.3797 67.3616 39.6816 67.2568 39.9923 67.1863C40.2775 67.1131 40.5702 67.0725 40.8645 67.0655V67.0685ZM40.5068 73.1353C41.2568 73.1353 41.7818 72.9178 42.0818 72.4828C42.3818 72.0478 42.5318 71.4508 42.5318 70.6918C42.5318 69.9148 42.3738 69.3225 42.0578 68.915C41.7418 68.5075 41.2725 68.304 40.65 68.3045C40.3788 68.3063 40.1089 68.3411 39.846 68.408C39.583 68.4715 39.3304 68.5726 39.096 68.708V72.458C39.0935 72.908 39.5638 73.1328 40.5068 73.1323V73.1353ZM45.6293 64.7915H47.1683V66.1108H45.6293V64.7915ZM45.6705 67.2628H47.1135L47.127 74.1905H45.6705V67.2628ZM49.158 74.1905V64.5808H50.5875V74.1875L49.158 74.1905ZM55.4213 67.049C56.4933 67.049 57.2788 67.399 57.7778 68.099C58.2768 68.799 58.5218 69.7778 58.5128 71.0353H53.6738C53.7203 71.7203 53.9203 72.241 54.2738 72.5975C54.6273 72.954 55.1288 73.132 55.7783 73.1315C56.5564 73.1323 57.3221 72.9365 58.0043 72.5623V73.9228C57.2898 74.2403 56.4713 74.399 55.5488 74.399C54.5138 74.399 53.7008 74.082 53.1098 73.448C52.5188 72.814 52.2235 71.914 52.224 70.748C52.224 69.554 52.5033 68.6403 53.0618 68.0068C53.6203 67.3733 54.4068 67.054 55.4213 67.049ZM55.38 68.249C54.8945 68.249 54.5145 68.3788 54.24 68.6383C53.9655 68.8978 53.7868 69.3373 53.7038 69.9568H57.0428C56.9783 69.3643 56.8133 68.9318 56.5478 68.6593C56.2823 68.3868 55.893 68.25 55.38 68.249ZM41.5988 11.1335C40.0073 10.74 38.7823 10.543 37.9238 10.5425C31.5195 10.5425 26.3273 15.7175 26.3273 22.0993C26.3273 28.481 31.5218 33.6568 37.9238 33.6568C44.3258 33.6568 49.521 28.4818 49.521 22.0993C49.5215 21.1669 49.4092 20.2379 49.1865 19.3325L58.4063 16.8493C59.1531 19.6886 59.2944 22.6532 58.8208 25.5506C58.3473 28.4481 57.2695 31.2135 55.6575 33.6673L40.3905 61.9715H26.247L36.297 43.4465C36.3518 43.3445 36.1905 43.1195 36.0555 43.1075C25.3163 42.1325 16.9043 33.1325 16.9043 22.1758C16.9043 10.5665 26.3468 1.15626 37.9958 1.15626C40.1282 1.15392 42.2487 1.4743 44.2853 2.10651L41.5988 11.1335Z" fill="#0A1E45"/>
<path d="M37.8563 28.4566C41.3667 28.4566 44.2125 25.6109 44.2125 22.1004C44.2125 18.5899 41.3667 15.7441 37.8563 15.7441C34.3458 15.7441 31.5 18.5899 31.5 22.1004C31.5 25.6109 34.3458 28.4566 37.8563 28.4566Z" fill="#0A1E45"/>
<path d="M48.8342 17.7666C47.733 15.01 45.6106 12.7847 42.9092 11.5543M52.8797 16.0326C51.3245 12.2095 48.3838 9.114 44.6454 7.36484M56.7804 14.7328C54.7995 9.69268 50.9039 5.64158 45.9452 3.46484" stroke="#0A1E45" stroke-width="3.75" stroke-linecap="round"/>
</svg>
