<svg width="181" height="90" viewBox="0 0 181 90" fill="none" xmlns="http://www.w3.org/2000/svg">
<rect width="181" height="90" fill="#F2F4F8"/>
<g clip-path="url(#clip0_8973_58486)">
<path fill-rule="evenodd" clip-rule="evenodd" d="M79.0068 64.8166C79.6353 64.8166 80.0946 64.9497 80.3847 65.2159C80.6748 65.4822 80.82 65.8962 80.8203 66.4581V69.4696H79.8776V66.5855C79.8776 65.9504 79.5215 65.6329 78.8094 65.6329C78.5018 65.6304 78.1998 65.7153 77.9386 65.8779C77.9838 66.0679 78.005 66.2628 78.0018 66.4581V69.4696H77.0591V66.5855C77.0591 65.9504 76.703 65.6329 75.9909 65.6329C75.6659 65.6332 75.3437 65.6916 75.0393 65.8054V69.4696H74.097V65.2884C74.409 65.1333 74.7392 65.0181 75.08 64.9454C75.4434 64.8607 75.8152 64.8167 76.1884 64.8141C76.7764 64.8141 77.2133 64.9285 77.4991 65.1571C77.9699 64.9322 78.4851 64.8159 79.0068 64.8166ZM84.0504 69.6078C83.3317 69.6078 82.7916 69.4022 82.43 68.9909C82.0684 68.5796 81.8874 67.981 81.8871 67.195C81.8871 65.6045 82.6057 64.8094 84.0431 64.8097C84.7673 64.8097 85.3118 65.0137 85.6767 65.4217C86.0416 65.8297 86.2242 66.4208 86.2245 67.195C86.2245 67.9686 86.036 68.5641 85.6591 68.9816C85.2821 69.3991 84.7459 69.6078 84.0504 69.6078ZM84.0411 68.8003C84.8672 68.8003 85.2801 68.2652 85.2798 67.195C85.2798 66.6629 85.1818 66.2653 84.9858 66.0024C84.7898 65.7394 84.4756 65.6078 84.0431 65.6074C83.6063 65.6074 83.2937 65.742 83.1052 66.0112C82.9167 66.2804 82.8225 66.675 82.8225 67.195C82.8225 67.7148 82.9196 68.1123 83.114 68.3877C83.3084 68.6631 83.6174 68.7999 84.0411 68.7983V68.8003ZM89.3718 64.8185C90.0421 64.8185 90.5507 65.0211 90.8977 65.4261C91.2446 65.8312 91.4185 66.405 91.4195 67.1475C91.4195 68.0426 91.2116 68.676 90.7957 69.0477C90.3799 69.4195 89.8513 69.6062 89.2101 69.6078C87.9234 69.6078 87.28 69.2632 87.28 68.5739V63.0932H88.2139V65.0998C88.4017 65.0101 88.599 64.9415 88.8019 64.8955C88.9883 64.8476 89.1795 64.8212 89.3718 64.8166V64.8185ZM89.1381 68.7822C89.6281 68.7822 89.9711 68.64 90.1671 68.3558C90.3631 68.0716 90.4611 67.6816 90.4611 67.1857C90.4611 66.6781 90.3578 66.2912 90.1514 66.0249C89.9449 65.7587 89.6384 65.6257 89.2317 65.6261C89.0545 65.6273 88.8781 65.65 88.7064 65.6937C88.5345 65.7352 88.3695 65.8012 88.2164 65.8897V68.3397C88.2147 68.6337 88.522 68.7805 89.1381 68.7802V68.7822ZM92.4848 63.3309H93.4903V64.1928H92.4848V63.3309ZM92.5117 64.9454H93.4545L93.4633 69.4716H92.5117V64.9454ZM94.7902 69.4716V63.1932H95.7242V69.4696L94.7902 69.4716ZM98.8822 64.8058C99.5826 64.8058 100.096 65.0345 100.422 65.4918C100.748 65.9491 100.908 66.5886 100.902 67.4101H97.7405C97.7709 67.8577 97.9016 68.1979 98.1325 68.4308C98.3635 68.6637 98.6911 68.78 99.1155 68.7797C99.6238 68.7802 100.124 68.6523 100.57 68.4078V69.2966C100.103 69.5041 99.5682 69.6078 98.9655 69.6078C98.2893 69.6078 97.7582 69.4007 97.372 68.9865C96.9859 68.5723 96.793 67.9843 96.7933 67.2225C96.7933 66.4424 96.9758 65.8454 97.3407 65.4315C97.7056 65.0176 98.2194 64.8091 98.8822 64.8058ZM98.8553 65.5898C98.5381 65.5898 98.2898 65.6746 98.1105 65.8441C97.9311 66.0136 97.8143 66.3008 97.7601 66.7055H99.9416C99.8995 66.3184 99.7917 66.0359 99.6182 65.8578C99.4447 65.6798 99.1904 65.5905 98.8553 65.5898ZM89.8515 28.2743C88.8117 28.0173 88.0114 27.8885 87.4505 27.8882C83.2664 27.8882 79.8741 31.2692 79.8741 35.4386C79.8741 39.608 83.2679 42.9895 87.4505 42.9895C91.6332 42.9895 95.0274 39.6085 95.0274 35.4386C95.0277 34.8295 94.9543 34.2225 94.8088 33.631L100.832 32.0086C101.32 33.8636 101.413 35.8005 101.103 37.6935C100.794 39.5865 100.09 41.3933 99.0366 42.9964L89.0621 61.4885H79.8217L86.3877 49.3855C86.4235 49.3189 86.3181 49.1719 86.2299 49.164C79.2136 48.527 73.7178 42.647 73.7178 35.4886C73.7178 27.9039 79.8869 21.7559 87.4976 21.7559C88.8907 21.7543 90.2761 21.9636 91.6067 22.3767L89.8515 28.2743Z" fill="#0A1E45"/>
<path d="M87.4057 39.5926C89.6992 39.5926 91.5584 37.7334 91.5584 35.4399C91.5584 33.1464 89.6992 31.2871 87.4057 31.2871C85.1122 31.2871 83.2529 33.1464 83.2529 35.4399C83.2529 37.7334 85.1122 39.5926 87.4057 39.5926Z" fill="#0A1E45"/>
<path d="M94.578 32.6075C93.8586 30.8065 92.4719 29.3526 90.707 28.5488M97.2211 31.4746C96.205 28.9768 94.2838 26.9545 91.8414 25.8117M99.7696 30.6254C98.4753 27.3325 95.9303 24.6858 92.6906 23.2637" stroke="#0A1E45" strokeWidth="2.45" stroke-linecap="round"/>
</g>
<defs>
<clipPath id="clip0_8973_58486">
<rect width="49" height="49" fill="white" transform="translate(63 21)"/>
</clipPath>
</defs>
</svg>
