<svg width="131" height="131" viewBox="0 0 131 131" fill="none" xmlns="http://www.w3.org/2000/svg">
<path fill-rule="evenodd" clip-rule="evenodd" d="M42.7935 117.143C44.4738 117.143 45.7017 117.499 46.4772 118.211C47.2527 118.922 47.6409 120.029 47.6418 121.531V129.583H45.1213V121.872C45.1213 120.174 44.1694 119.325 42.2655 119.325C41.4432 119.319 40.6358 119.546 39.9377 119.98C40.0584 120.488 40.1152 121.009 40.1066 121.531V129.583H37.5862V121.872C37.5862 120.174 36.6343 119.325 34.7304 119.325C33.8617 119.326 33.0001 119.482 32.1864 119.787V129.583H29.6673V118.405C30.5013 117.99 31.3842 117.682 32.2951 117.488C33.2668 117.261 34.2606 117.143 35.2583 117.136C36.8303 117.136 37.9984 117.442 38.7626 118.053C40.0212 117.452 41.3986 117.141 42.7935 117.143ZM56.2773 129.952C54.356 129.952 52.9119 129.402 51.9451 128.303C50.9783 127.203 50.4945 125.603 50.4936 123.502C50.4936 119.249 52.415 117.124 56.2576 117.125C58.1938 117.125 59.6497 117.67 60.6252 118.761C61.6007 119.852 62.0889 121.432 62.0898 123.502C62.0898 125.57 61.5858 127.162 60.578 128.278C59.5702 129.394 58.1366 129.952 56.2773 129.952ZM56.2524 127.793C58.4611 127.793 59.565 126.363 59.5641 123.502C59.5641 122.079 59.3021 121.016 58.7781 120.313C58.2541 119.61 57.4139 119.258 56.2576 119.257C55.09 119.257 54.2542 119.617 53.7503 120.337C53.2464 121.056 52.9944 122.111 52.9944 123.502C52.9944 124.891 53.2542 125.954 53.7739 126.69C54.2935 127.426 55.1197 127.792 56.2524 127.788V127.793ZM70.5039 117.148C72.296 117.148 73.6557 117.69 74.5832 118.773C75.5107 119.856 75.9758 121.39 75.9784 123.375C75.9784 125.768 75.4225 127.461 74.3107 128.455C73.199 129.449 71.7859 129.948 70.0716 129.952C66.6315 129.952 64.9115 129.031 64.9115 127.188V112.536H67.4084V117.9C67.9104 117.66 68.4377 117.477 68.9804 117.354C69.4786 117.226 69.9897 117.155 70.5039 117.143V117.148ZM69.879 127.745C71.189 127.745 72.106 127.365 72.63 126.605C73.154 125.845 73.416 124.803 73.416 123.477C73.416 122.12 73.14 121.085 72.5881 120.373C72.0361 119.662 71.2165 119.306 70.1292 119.307C69.6555 119.31 69.184 119.371 68.7249 119.488C68.2654 119.599 67.8242 119.775 67.4149 120.012V126.562C67.4105 127.348 68.2319 127.74 69.879 127.74V127.745ZM78.8263 113.171H81.5144V115.475H78.8263V113.171ZM78.8984 117.488H81.4188L81.4424 129.588H78.8984V117.488ZM84.9899 129.588V112.803H87.4867V129.583L84.9899 129.588ZM95.9297 117.114C97.8021 117.114 99.1741 117.726 100.046 118.948C100.917 120.171 101.345 121.88 101.329 124.077H92.8774C92.9586 125.273 93.3079 126.183 93.9254 126.806C94.5428 127.428 95.4188 127.739 96.5532 127.738C97.9123 127.74 99.2498 127.398 100.441 126.744V129.12C99.1933 129.675 97.7637 129.952 96.1524 129.952C94.3446 129.952 92.9245 129.398 91.8923 128.291C90.86 127.184 90.3443 125.612 90.3451 123.575C90.3451 121.49 90.8329 119.894 91.8084 118.787C92.7839 117.681 94.1577 117.123 95.9297 117.114ZM95.8576 119.21C95.0096 119.21 94.3459 119.437 93.8664 119.89C93.387 120.343 93.0748 121.111 92.9298 122.193H98.7619C98.6492 121.158 98.361 120.403 97.8973 119.927C97.4336 119.451 96.7537 119.212 95.8576 119.21ZM71.7864 19.4484C69.0066 18.7611 66.8669 18.417 65.3674 18.4162C54.1813 18.4162 45.1122 27.4552 45.1122 38.6019C45.1122 49.7487 54.1852 58.789 65.3674 58.789C76.5495 58.789 85.6239 49.75 85.6239 38.6019C85.6247 36.9734 85.4285 35.3508 85.0396 33.7694L101.143 29.4319C102.448 34.3913 102.695 39.5695 101.868 44.6304C101.04 49.6912 99.1579 54.5215 96.3423 58.8074L69.676 108.245H44.972L62.526 75.8885C62.6216 75.7103 62.34 75.3173 62.1042 75.2964C43.3463 73.5934 28.6533 57.8734 28.6533 38.7356C28.6533 18.4581 45.1462 2.02151 65.4931 2.02151C69.2178 2.01741 72.9216 2.577 76.4788 3.68128L71.7864 19.4484Z" fill="#0A1E45"/>
<path d="M65.2468 49.7025C71.3784 49.7025 76.349 44.7319 76.349 38.6003C76.349 32.4687 71.3784 27.498 65.2468 27.498C59.1152 27.498 54.1445 32.4687 54.1445 38.6003C54.1445 44.7319 59.1152 49.7025 65.2468 49.7025Z" fill="#0A1E45"/>
<path d="M84.4232 31.0312C82.4998 26.2164 78.7926 22.3295 74.0742 20.1804M91.4894 28.0025C88.7729 21.3247 83.6366 15.918 77.1069 12.8628M98.3027 25.7322C94.8426 16.9287 88.0384 9.85281 79.3771 6.05078" stroke="#0A1E45" stroke-width="6.55" stroke-linecap="round"/>
</svg>
