<svg width="115" height="115" viewBox="0 0 115 115" fill="none" xmlns="http://www.w3.org/2000/svg">
<path d="M71.0595 1.41016C74.866 1.46306 78.4977 2.18526 81.8891 3.91026C84.8791 5.44091 87.3171 7.58106 88.9811 10.5308C90.0626 12.4781 90.772 14.6097 91.073 16.8167C91.6917 21.0533 91.0661 25.1519 89.6688 29.1597C88.8477 31.5103 87.7115 33.7148 86.481 35.8803C83.974 40.2882 80.7529 44.1085 77.0062 47.4953C72.1993 51.8446 66.9281 55.6514 61.288 58.8469C59.103 60.0809 56.8375 61.117 54.4006 61.7507C52.9078 62.1539 51.3664 62.3489 49.8202 62.3303C47.7847 62.2889 46.1919 61.362 44.9534 59.8003C43.8097 58.3986 43.2204 56.6259 43.2974 54.8185C43.3108 54.3157 43.3834 53.8162 43.5136 53.3304C44.2507 50.7118 45.2524 48.2037 46.7497 45.9163C47.8939 44.1695 49.2578 42.6181 51.0415 41.5084C53.0252 40.2733 55.1815 39.7454 57.5137 40.2549C58.2428 40.4258 58.929 40.7448 59.5296 41.1921C61.0649 42.2892 60.9844 44.0108 60.2472 45.1102C59.6157 46.0656 58.9097 46.9696 58.1358 47.8138C56.8248 49.226 55.4322 50.5612 54.0729 51.9274C52.87 53.136 51.7395 54.4045 50.823 55.85C50.348 56.5998 49.9099 57.3646 49.7788 58.265C49.6132 59.3943 50.1997 60.1637 51.3393 60.2695C51.929 60.3176 52.5225 60.2579 53.0908 60.0935C54.8422 59.6094 56.4683 58.8285 58.0657 57.9867C60.529 56.6838 62.8025 55.091 65.0186 53.4109C67.705 51.3742 70.3166 49.2502 72.7236 46.8881C75.4652 44.2005 77.9089 41.2795 79.7788 37.9089C81.145 35.4479 82.1513 32.8489 82.5986 30.0613C82.9942 27.606 82.7734 25.214 81.6361 22.96C81.0884 21.8459 80.2317 20.9129 79.1682 20.2725C78.6771 19.9769 78.1355 19.7749 77.5708 19.6768C75.5158 19.3122 73.5274 19.6112 71.5736 20.2633C69.5369 20.9441 67.6475 21.9377 65.8109 23.0233C61.825 25.3877 57.8345 27.7509 54.0361 30.4132C52.1317 31.7472 50.2859 33.1663 48.4195 34.5532C46.7336 35.8067 45.0592 37.0751 43.2169 38.0998C41.7218 38.9511 40.1037 39.5652 38.4202 39.9202C36.3341 40.3434 34.4113 39.9501 32.6449 38.8162C30.8118 37.6398 29.5284 36.0252 28.9649 33.8885C28.6061 32.5395 28.7476 31.2021 29.0569 29.8704C29.5089 27.9154 30.3668 26.1444 31.4363 24.4654C34.0813 20.3185 37.4071 16.8006 41.2745 13.7934C47.0061 9.33711 53.3127 5.90551 60.1345 3.42266C63.6369 2.14152 67.3305 1.46112 71.0595 1.41016Z" fill="black"/>
<path d="M23.9045 96.2208C23.8849 94.919 23.7366 93.7483 22.9845 92.7328C22.6182 92.2422 22.1112 91.8747 21.5309 91.6794C20.0359 91.1435 18.5133 91.2068 17.0286 91.6656C15.8384 92.0336 14.6907 92.535 13.5257 92.9824C13.2957 93.0675 13.0864 93.1767 12.8081 93.3009C12.2596 91.9405 11.7202 90.6203 11.1556 89.2403C11.9732 88.8527 12.7437 88.4571 13.5384 88.1179C15.3692 87.3347 17.2678 86.7977 19.2642 86.6769C21.2606 86.5562 23.2306 86.662 25.0476 87.6303C27.1026 88.7182 28.5861 90.2891 29.2071 92.5753C29.2967 92.8745 29.3504 93.1834 29.367 93.4953C29.4463 96.4634 29.5533 99.4316 29.5659 102.4C29.574 104.428 29.4406 106.458 29.3808 108.488C29.3701 108.766 29.2542 109.03 29.0565 109.226C27.6362 110.79 25.8986 111.871 23.9298 112.597C21.8186 113.367 19.5703 113.69 17.3276 113.546C15.2576 113.431 13.4705 112.583 11.9594 111.177C10.4483 109.77 9.39262 108.072 9.09822 105.99C8.69572 103.139 9.51797 100.666 11.5673 98.63C12.8852 97.3213 14.509 96.6451 16.3386 96.4059C18.3626 96.1426 20.3935 96.2127 22.4244 96.2185L23.9045 96.2208ZM23.6388 100.855C23.5195 100.832 23.399 100.815 23.2777 100.806C22.5877 100.792 21.8897 100.768 21.1962 100.778C20.3648 100.791 19.5299 100.794 18.703 100.873C17.8486 100.954 17.0194 101.204 16.357 101.774C15.2576 102.722 14.931 103.959 15.199 105.354C15.5325 107.079 16.4962 108.284 18.2143 108.797C19.1002 109.062 20.0382 109.102 20.9432 108.912C21.7844 108.758 22.5691 108.382 23.2156 107.822C23.3251 107.737 23.4151 107.63 23.4795 107.507C23.544 107.385 23.5815 107.25 23.5894 107.111C23.6158 106.505 23.694 105.9 23.6986 105.294C23.7078 103.906 23.6871 102.518 23.6756 101.13C23.6687 101.038 23.6564 100.946 23.6388 100.855Z" fill="black"/>
<path d="M93.073 100.739C88.1395 100.739 83.298 100.634 78.3887 100.762C78.414 101.107 78.4289 101.434 78.46 101.753C78.5865 103.056 78.8671 104.322 79.4179 105.517C79.8462 106.491 80.5111 107.343 81.3522 107.996C82.6862 109.009 84.2088 109.175 85.8062 108.969C87.1264 108.799 88.3557 108.316 89.5816 107.829C90.1439 107.607 90.7017 107.369 91.3066 107.122C91.8816 108.325 92.4451 109.507 93.0316 110.724C92.9235 110.802 92.8223 110.889 92.7096 110.954C90.3176 112.373 87.7485 113.287 84.9736 113.529C82.4436 113.748 80.0286 113.333 77.8436 111.934C76.3555 110.98 75.3136 109.634 74.4419 108.127C73.3683 106.253 72.7182 104.166 72.5375 102.014C72.1725 98.0891 73.0059 94.4351 75.0376 91.0518C76.4544 88.7001 78.5692 87.4224 81.2165 86.982C83.6499 86.5541 86.1564 86.9713 88.3201 88.1642C89.5322 88.8208 90.3763 89.8547 91.072 91.0139C91.992 92.5422 92.4762 94.227 92.7085 95.9727C92.8971 97.3803 92.9569 98.8051 93.0696 100.228C93.0834 100.374 93.073 100.526 93.073 100.739ZM87.093 96.2717C86.8067 94.9595 86.6112 93.6186 85.7521 92.5066C85.3213 91.9539 84.7162 91.5632 84.0352 91.398C82.2239 90.9184 80.4035 91.7533 79.6249 93.468C79.3466 94.0786 79.1833 94.7422 78.9809 95.385C78.8901 95.676 78.8314 95.9784 78.759 96.2717C79.2454 96.4005 86.5951 96.4062 87.0953 96.2751L87.093 96.2717Z" fill="black"/>
<path d="M60.7088 80.696L66.5957 79.7852V87.0152C67.9021 87.0934 69.1464 87.0083 70.3976 87.1429V91.5968C69.1326 91.6175 67.894 91.5796 66.6026 91.6578C66.6026 91.9085 66.6026 92.0959 66.6026 92.2834C66.5918 96.5706 66.5826 100.858 66.575 105.146C66.575 105.821 66.629 106.497 66.69 107.17C66.7866 108.205 67.3604 108.862 68.3632 109.114C68.9164 109.254 69.4845 109.333 70.0457 109.44L70.6092 109.555V113.335C70.5458 113.367 70.4785 113.389 70.4091 113.402C68.7381 113.477 67.0741 113.433 65.4583 112.942C63.8805 112.466 62.5649 111.603 61.6725 110.182C61.1654 109.377 60.9078 108.472 60.7962 107.537C60.7288 106.951 60.6958 106.362 60.6973 105.773C60.6973 97.6309 60.7019 89.4896 60.7111 81.3492L60.7088 80.696Z" fill="black"/>
<path d="M96.3091 80.7015L102.002 79.7148V80.5003C102.002 87.8948 102.005 95.2893 102.011 102.684C102.011 104.037 102.022 105.391 102.033 106.746C102.042 108.082 102.529 108.763 103.806 109.161C104.24 109.281 104.68 109.375 105.125 109.443C105.396 109.494 105.671 109.518 106.001 109.558V113.42C105.971 113.446 105.934 113.463 105.896 113.472C104.279 113.537 102.669 113.511 101.097 113.051C100.144 112.777 99.2571 112.312 98.4895 111.685C97.0601 110.515 96.4782 108.948 96.3287 107.18C96.285 106.663 96.2907 106.14 96.2919 105.62C96.2919 97.5306 96.2976 89.4423 96.3091 81.3547V80.7015Z" fill="black"/>
<path d="M49.078 113.052L43.3285 112.972C43.325 112.732 43.3165 112.512 43.3184 112.294C43.3606 108.84 43.4038 105.386 43.4483 101.931C43.4799 99.1715 43.5012 96.4116 43.5409 93.6519C43.5497 93.1515 43.5952 92.6524 43.6768 92.1586C43.7698 91.5952 44.0719 91.129 44.4879 90.7381C46.777 88.571 49.5011 87.2911 52.5942 86.7661C54.5326 86.4386 56.5142 86.4635 58.4438 86.8398C58.5459 86.8596 58.6479 86.884 58.7476 86.9107C58.7969 86.9241 58.8437 86.9489 58.9386 86.987C58.2623 88.6383 57.4444 90.2141 56.6727 91.772C55.777 91.7595 54.9287 91.7212 54.082 91.7416C52.6197 91.7697 51.18 92.107 49.8576 92.7315C49.4824 92.9091 49.3401 93.1348 49.3353 93.5637C49.2636 99.85 49.1796 106.136 49.0833 112.422L49.078 113.052Z" fill="black"/>
<path d="M39.2722 87.2598C39.3332 95.8756 39.2665 104.441 39.3217 113.059H33.6947C33.6809 112.851 33.6533 112.633 33.6533 112.416C33.6533 107 33.6533 101.582 33.6533 96.1642C33.6533 93.6814 33.674 91.1985 33.6844 88.7157C33.6844 88.5271 33.6844 88.3385 33.6844 88.1016L39.2722 87.2598Z" fill="black"/>
<path d="M36.2258 84.7247C33.4784 84.7178 31.758 81.9831 32.8977 79.4013C33.598 77.8178 34.801 77.2163 36.5363 77.2267C38.8616 77.2462 40.5854 79.5589 40.0311 81.8186C39.5884 83.6241 38.1394 84.7293 36.2258 84.7247Z" fill="black"/>
</svg>
