<svg width="181" height="90" viewBox="0 0 181 90" fill="none" xmlns="http://www.w3.org/2000/svg">
<rect width="181" height="90" fill="#F2F4F8"/>
<g clip-path="url(#clip0_8973_58524)">
<g clip-path="url(#clip1_8973_58524)">
<path d="M93.5953 19.4941C95.2878 19.5177 96.9026 19.8388 98.4105 20.6058C99.74 21.2864 100.824 22.238 101.564 23.5495C102.045 24.4154 102.36 25.3632 102.494 26.3445C102.769 28.2282 102.491 30.0506 101.87 31.8326C101.505 32.8778 100.999 33.858 100.452 34.8208C99.3376 36.7808 97.9053 38.4794 96.2394 39.9853C94.1021 41.9192 91.7583 43.6118 89.2505 45.0327C88.279 45.5813 87.2716 46.0421 86.1881 46.3238C85.5243 46.5031 84.839 46.5898 84.1515 46.5815C83.2464 46.5631 82.5382 46.151 81.9875 45.4566C81.479 44.8334 81.217 44.0451 81.2512 43.2415C81.2572 43.0179 81.2894 42.7958 81.3473 42.5798C81.6751 41.4155 82.1205 40.3003 82.7862 39.2833C83.295 38.5065 83.9014 37.8167 84.6945 37.3233C85.5766 36.7741 86.5353 36.5394 87.5723 36.766C87.8965 36.842 88.2016 36.9838 88.4687 37.1827C89.1513 37.6705 89.1155 38.436 88.7877 38.9248C88.5069 39.3496 88.193 39.7516 87.8489 40.127C87.266 40.7549 86.6468 41.3485 86.0424 41.956C85.5075 42.4934 85.0049 43.0574 84.5974 43.7002C84.3862 44.0335 84.1914 44.3736 84.1331 44.774C84.0594 45.2761 84.3202 45.6182 84.8269 45.6652C85.0891 45.6866 85.353 45.6601 85.6057 45.587C86.3845 45.3717 87.1075 45.0245 87.8177 44.6502C88.913 44.0709 89.9239 43.3627 90.9093 42.6156C92.1037 41.71 93.265 40.7656 94.3352 39.7153C95.5542 38.5203 96.6408 37.2216 97.4722 35.7228C98.0797 34.6286 98.5271 33.473 98.726 32.2335C98.9019 31.1418 98.8037 30.0782 98.298 29.076C98.0545 28.5806 97.6736 28.1658 97.2007 27.881C96.9824 27.7496 96.7415 27.6598 96.4905 27.6162C95.5767 27.4541 94.6926 27.587 93.8239 27.8769C92.9183 28.1796 92.0782 28.6214 91.2616 29.1041C89.4893 30.1554 87.715 31.2062 86.026 32.39C85.1793 32.9831 84.3586 33.6141 83.5287 34.2308C82.7791 34.7881 82.0346 35.3521 81.2154 35.8077C80.5506 36.1863 79.8311 36.4593 79.0826 36.6172C78.1551 36.8053 77.3001 36.6305 76.5147 36.1263C75.6996 35.6032 75.129 34.8853 74.8784 33.9352C74.7189 33.3354 74.7818 32.7407 74.9193 32.1486C75.1203 31.2794 75.5018 30.4919 75.9773 29.7454C77.1534 27.9015 78.6321 26.3373 80.3518 25.0002C82.9002 23.0188 85.7044 21.4929 88.7376 20.389C90.2949 19.8193 91.9372 19.5168 93.5953 19.4941Z" fill="#0A1E45"/>
<path d="M72.6285 61.6501C72.6198 61.0713 72.5538 60.5507 72.2194 60.0992C72.0566 59.8811 71.8311 59.7177 71.5731 59.6309C70.9084 59.3926 70.2314 59.4207 69.5712 59.6247C69.042 59.7883 68.5317 60.0113 68.0137 60.2102C67.9115 60.248 67.8184 60.2966 67.6946 60.3518C67.4507 59.7469 67.2109 59.1599 66.9599 58.5463C67.3234 58.374 67.666 58.1981 68.0193 58.0473C68.8334 57.699 69.6776 57.4602 70.5653 57.4066C71.4529 57.3529 72.3289 57.3999 73.1368 57.8305C74.0505 58.3142 74.7101 59.0127 74.9863 60.0292C75.0261 60.1622 75.05 60.2996 75.0573 60.4383C75.0926 61.758 75.1402 63.0778 75.1458 64.3975C75.1494 65.2995 75.0901 66.202 75.0635 67.1045C75.0587 67.2282 75.0072 67.3456 74.9193 67.4328C74.2878 68.1282 73.5152 68.6088 72.6398 68.9315C71.701 69.274 70.7014 69.4177 69.7042 69.3533C68.7838 69.3022 67.9892 68.9254 67.3173 68.3C66.6454 67.6746 66.176 66.9194 66.0451 65.9939C65.8661 64.7263 66.2317 63.6264 67.1429 62.7214C67.7289 62.1395 68.4509 61.8388 69.2644 61.7324C70.1644 61.6153 71.0674 61.6465 71.9704 61.6491L72.6285 61.6501ZM72.5104 63.7108C72.4573 63.7003 72.4037 63.693 72.3498 63.6888C72.043 63.6827 71.7326 63.6719 71.4243 63.6765C71.0546 63.6821 70.6834 63.6837 70.3157 63.7185C69.9358 63.7548 69.5671 63.8657 69.2726 64.1193C68.7838 64.5407 68.6386 65.0909 68.7577 65.7111C68.906 66.4781 69.3345 67.014 70.0984 67.2421C70.4923 67.3599 70.9094 67.3774 71.3118 67.2932C71.6859 67.2247 72.0347 67.0573 72.3222 66.8084C72.3709 66.7707 72.4109 66.723 72.4396 66.6685C72.4682 66.6139 72.4849 66.5539 72.4884 66.4924C72.5002 66.223 72.5349 65.954 72.537 65.6845C72.5411 65.0673 72.5319 64.4502 72.5267 63.833C72.5237 63.792 72.5182 63.7512 72.5104 63.7108Z" fill="#0A1E45"/>
<path d="M103.384 63.6586C101.19 63.6586 99.0374 63.6115 96.8545 63.6688C96.8658 63.8222 96.8724 63.9674 96.8862 64.1091C96.9425 64.6884 97.0673 65.2514 97.3122 65.7827C97.5026 66.216 97.7983 66.595 98.1723 66.8851C98.7654 67.3356 99.4424 67.4092 100.153 67.3177C100.74 67.242 101.286 67.0273 101.831 66.811C102.081 66.7123 102.329 66.6064 102.598 66.4965C102.854 67.0313 103.105 67.557 103.365 68.098C103.317 68.1328 103.272 68.1716 103.222 68.2003C102.159 68.8312 101.016 69.2377 99.7824 69.3451C98.6575 69.4428 97.5837 69.2582 96.6122 68.6359C95.9505 68.212 95.4872 67.6132 95.0997 66.9434C94.6223 66.11 94.3333 65.1822 94.2529 64.2251C94.0906 62.4801 94.4612 60.8555 95.3645 59.3511C95.9945 58.3054 96.9348 57.7373 98.1119 57.5415C99.1939 57.3513 100.308 57.5367 101.27 58.0672C101.809 58.3591 102.185 58.8188 102.494 59.3342C102.903 60.0138 103.118 60.7629 103.222 61.5391C103.306 62.165 103.332 62.7985 103.382 63.431C103.388 63.496 103.384 63.5635 103.384 63.6586ZM100.725 61.6721C100.598 61.0886 100.511 60.4924 100.129 59.998C99.9371 59.7522 99.668 59.5785 99.3652 59.505C98.5598 59.2918 97.7504 59.663 97.4042 60.4254C97.2805 60.6969 97.2079 60.992 97.1179 61.2778C97.0775 61.4072 97.0514 61.5417 97.0192 61.6721C97.2355 61.7293 100.503 61.7319 100.726 61.6736L100.725 61.6721Z" fill="#0A1E45"/>
<path d="M88.9934 54.7468L91.6109 54.3418V57.5565C92.1918 57.5913 92.7451 57.5535 93.3014 57.6133V59.5937C92.7389 59.6029 92.1882 59.586 91.614 59.6208C91.614 59.7323 91.614 59.8156 91.614 59.899C91.6092 61.8052 91.6051 63.7116 91.6017 65.6182C91.6017 65.9184 91.6258 66.219 91.6529 66.5182C91.6958 66.9784 91.951 67.2704 92.3969 67.3823C92.6428 67.4447 92.8954 67.48 93.1449 67.5275L93.3955 67.5787V69.2594C93.3673 69.2734 93.3374 69.2833 93.3065 69.2891C92.5635 69.3223 91.8236 69.3029 91.1052 69.0846C90.4037 68.8729 89.8187 68.4894 89.4219 67.8574C89.1964 67.4994 89.0819 67.097 89.0323 66.6813C89.0023 66.4209 88.9876 66.159 88.9883 65.8969C88.9883 62.2767 88.9903 58.6568 88.9944 55.0372L88.9934 54.7468Z" fill="#0A1E45"/>
<path d="M104.823 54.7473L107.354 54.3086V54.6578C107.354 57.9457 107.355 61.2336 107.358 64.5215C107.358 65.1233 107.363 65.7251 107.367 66.3275C107.372 66.9217 107.588 67.2244 108.156 67.4013C108.349 67.4546 108.545 67.4966 108.742 67.5271C108.863 67.5496 108.985 67.5603 109.132 67.5782V69.2953C109.118 69.3066 109.102 69.3144 109.085 69.3183C108.366 69.3474 107.65 69.3357 106.951 69.1311C106.528 69.0092 106.133 68.8025 105.792 68.5237C105.156 68.0036 104.898 67.3067 104.831 66.5208C104.812 66.2907 104.814 66.058 104.815 65.8269C104.815 62.2302 104.817 58.6338 104.823 55.0378V54.7473Z" fill="#0A1E45"/>
<path d="M83.822 69.1341L81.2656 69.0983C81.2641 68.9914 81.2603 68.8937 81.2611 68.7971C81.2799 67.2611 81.2991 65.7252 81.3189 64.1893C81.3329 62.9622 81.3424 61.735 81.3601 60.5079C81.364 60.2854 81.3842 60.0635 81.4205 59.844C81.4618 59.5935 81.5962 59.3862 81.7812 59.2123C82.799 58.2488 84.0102 57.6797 85.3855 57.4463C86.2474 57.3006 87.1285 57.3117 87.9865 57.479C88.0318 57.4878 88.0772 57.4987 88.1215 57.5106C88.1434 57.5165 88.1643 57.5275 88.2065 57.5445C87.9057 58.2787 87.5421 58.9793 87.199 59.6721C86.8007 59.6665 86.4235 59.6495 86.047 59.6585C85.3969 59.671 84.7567 59.821 84.1687 60.0987C84.0019 60.1777 83.9386 60.278 83.9365 60.4687C83.9046 63.2639 83.8672 66.0589 83.8244 68.8539L83.822 69.1341Z" fill="#0A1E45"/>
<path d="M79.4622 57.6641C79.4893 61.495 79.4597 65.3034 79.4842 69.1353H76.9823C76.9761 69.0428 76.9639 68.9461 76.9639 68.8495C76.9639 66.4411 76.9639 64.0324 76.9639 61.6233C76.9639 60.5193 76.9731 59.4154 76.9777 58.3114C76.9777 58.2276 76.9777 58.1437 76.9777 58.0384L79.4622 57.6641Z" fill="#0A1E45"/>
<path d="M78.1071 56.539C76.8856 56.536 76.1206 55.32 76.6273 54.1721C76.9387 53.468 77.4736 53.2005 78.2452 53.2051C79.2791 53.2138 80.0456 54.2421 79.7991 55.2469C79.6023 56.0497 78.958 56.5411 78.1071 56.539Z" fill="#0A1E45"/>
</g>
</g>
<defs>
<clipPath id="clip0_8973_58524">
<rect width="52" height="52" fill="white" transform="translate(62 18)"/>
</clipPath>
<clipPath id="clip1_8973_58524">
<rect width="51.1333" height="51.1333" fill="white" transform="translate(62 18.8652)"/>
</clipPath>
</defs>
</svg>
