<svg width="75" height="75" viewBox="0 0 75 75" fill="none" xmlns="http://www.w3.org/2000/svg">
<path d="M46.3422 0.919922C48.8247 0.954422 51.1932 1.42542 53.405 2.55042C55.355 3.54867 56.945 4.94442 58.0302 6.86817C58.7355 8.13813 59.1982 9.52833 59.3945 10.9677C59.798 13.7307 59.39 16.4037 58.4787 19.0174C57.9432 20.5504 57.2022 21.9882 56.3997 23.4004C54.7647 26.2752 52.664 28.7667 50.2205 30.9754C47.0856 33.8119 43.6478 36.2946 39.9695 38.3787C38.5445 39.1834 37.067 39.8592 35.4777 40.2724C34.5041 40.5354 33.4989 40.6626 32.4905 40.6504C31.163 40.6234 30.1242 40.0189 29.3165 39.0004C28.5706 38.0863 28.1863 36.9302 28.2365 35.7514C28.2453 35.4235 28.2926 35.0978 28.3775 34.7809C28.8582 33.0732 29.5115 31.4374 30.488 29.9457C31.2342 28.8064 32.1237 27.7947 33.287 27.0709C34.5807 26.2654 35.987 25.9212 37.508 26.2534C37.9835 26.3649 38.431 26.573 38.8227 26.8647C39.824 27.5802 39.7715 28.7029 39.2907 29.4199C38.8789 30.043 38.4184 30.6326 37.9137 31.1832C37.0587 32.1042 36.1505 32.9749 35.264 33.8659C34.4795 34.6542 33.7422 35.4814 33.1445 36.4242C32.8347 36.9132 32.549 37.4119 32.4635 37.9992C32.3555 38.7357 32.738 39.2374 33.4812 39.3064C33.8658 39.3378 34.2529 39.2989 34.6235 39.1917C35.7657 38.8759 36.8262 38.3667 37.868 37.8177C39.4745 36.9679 40.9572 35.9292 42.4025 34.8334C44.1545 33.5052 45.8577 32.1199 47.4275 30.5794C49.2155 28.8267 50.8092 26.9217 52.0287 24.7234C52.9197 23.1184 53.576 21.4234 53.8677 19.6054C54.1257 18.0042 53.9817 16.4442 53.24 14.9742C52.8828 14.2476 52.3241 13.6391 51.6305 13.2214C51.3102 13.0286 50.957 12.8969 50.5887 12.8329C49.2485 12.5952 47.9517 12.7902 46.6775 13.2154C45.3492 13.6594 44.117 14.3074 42.9192 15.0154C40.3197 16.5574 37.7172 18.0987 35.24 19.8349C33.998 20.7049 32.7942 21.6304 31.577 22.5349C30.4775 23.3524 29.3855 24.1797 28.184 24.8479C27.2089 25.4031 26.1536 25.8037 25.0557 26.0352C23.6952 26.3112 22.4412 26.0547 21.2892 25.3152C20.0937 24.5479 19.2567 23.4949 18.8892 22.1014C18.6552 21.2217 18.7475 20.3494 18.9492 19.4809C19.244 18.2059 19.8035 17.0509 20.501 15.9559C22.226 13.2514 24.395 10.9572 26.9172 8.99592C30.6552 6.08967 34.7682 3.85167 39.2172 2.23242C41.5014 1.3969 43.9103 0.95316 46.3422 0.919922Z" fill="#0A1E45"/>
<path d="M15.5891 62.7524C15.5764 61.9034 15.4796 61.1399 14.9891 60.4777C14.7503 60.1577 14.4196 59.918 14.0411 59.7907C13.0661 59.4412 12.0731 59.4824 11.1049 59.7817C10.3286 60.0217 9.58011 60.3487 8.82036 60.6404C8.67036 60.6959 8.53386 60.7672 8.35236 60.8482C7.99461 59.9609 7.64286 59.0999 7.27461 58.1999C7.80786 57.9472 8.31036 57.6892 8.82861 57.4679C10.0226 56.9572 11.2609 56.6069 12.5629 56.5282C13.8649 56.4494 15.1496 56.5184 16.3346 57.1499C17.6749 57.8594 18.6424 58.8839 19.0474 60.3749C19.1058 60.5701 19.1408 60.7715 19.1516 60.9749C19.2034 62.9107 19.2731 64.8464 19.2814 66.7822C19.2866 68.1052 19.1996 69.4289 19.1606 70.7527C19.1536 70.9342 19.078 71.1063 18.9491 71.2342C18.0229 72.2542 16.8896 72.9592 15.6056 73.4324C14.2287 73.9348 12.7625 74.1455 11.2999 74.0512C9.94986 73.9762 8.78436 73.4234 7.79886 72.5062C6.81336 71.5889 6.12486 70.4812 5.93286 69.1237C5.67036 67.2644 6.20661 65.6512 7.54311 64.3237C8.40261 63.4702 9.46161 63.0292 10.6549 62.8732C11.9749 62.7014 13.2994 62.7472 14.6239 62.7509L15.5891 62.7524ZM15.4159 65.7749C15.3381 65.7596 15.2594 65.7488 15.1804 65.7427C14.7304 65.7337 14.2751 65.7179 13.8229 65.7247C13.2806 65.7329 12.7361 65.7352 12.1969 65.7862C11.6396 65.8394 11.0989 66.0022 10.6669 66.3742C9.94986 66.9922 9.73686 67.7992 9.91161 68.7089C10.1291 69.8339 10.7576 70.6199 11.8781 70.9544C12.4559 71.1272 13.0676 71.153 13.6579 71.0294C14.2065 70.929 14.7182 70.6835 15.1399 70.3184C15.2112 70.2631 15.2699 70.1931 15.312 70.1131C15.354 70.0332 15.3784 69.9451 15.3836 69.8549C15.4009 69.4597 15.4519 69.0652 15.4549 68.6699C15.4609 67.7647 15.4474 66.8594 15.4399 65.9542C15.4354 65.894 15.4273 65.8342 15.4159 65.7749Z" fill="#0A1E45"/>
<path d="M60.7 65.7001C57.4825 65.7001 54.325 65.6311 51.1233 65.7151C51.1398 65.9401 51.1495 66.1531 51.1698 66.3608C51.2523 67.2106 51.4353 68.0363 51.7945 68.8156C52.0739 69.4512 52.5075 70.007 53.056 70.4326C53.926 71.0933 54.919 71.2013 55.9608 71.0671C56.8218 70.9561 57.6235 70.6411 58.423 70.3238C58.7898 70.1791 59.1535 70.0238 59.548 69.8626C59.923 70.6471 60.2905 71.4181 60.673 72.2116C60.6025 72.2626 60.5365 72.3196 60.463 72.3616C58.903 73.2871 57.2275 73.8833 55.4178 74.0408C53.7678 74.1841 52.1928 73.9133 50.7678 73.0006C49.7973 72.3788 49.1178 71.5006 48.5493 70.5181C47.8491 69.2957 47.4252 67.9348 47.3073 66.5311C47.0693 63.9716 47.6128 61.5886 48.9378 59.3821C49.8618 57.8483 51.241 57.0151 52.9675 56.7278C54.5545 56.4488 56.1892 56.7208 57.6003 57.4988C58.3908 57.9271 58.9413 58.6013 59.395 59.3573C59.995 60.3541 60.3108 61.4528 60.4623 62.5913C60.5853 63.5093 60.6243 64.4386 60.6978 65.3663C60.7068 65.4616 60.7 65.5606 60.7 65.7001ZM56.8 62.7863C56.6133 61.9306 56.4858 61.0561 55.9255 60.3308C55.6446 59.9704 55.2499 59.7156 54.8058 59.6078C53.6245 59.2951 52.4373 59.8396 51.9295 60.9578C51.748 61.3561 51.6415 61.7888 51.5095 62.2081C51.4503 62.3978 51.412 62.5951 51.3648 62.7863C51.682 62.8703 56.4753 62.8741 56.8015 62.7886L56.8 62.7863Z" fill="#0A1E45"/>
<path d="M39.5925 52.6272L43.4317 52.0332V56.7485C44.2837 56.7995 45.0952 56.744 45.9112 56.8317V59.7365C45.0862 59.75 44.2785 59.7252 43.4362 59.7762C43.4362 59.9397 43.4362 60.062 43.4362 60.1842C43.4292 62.9802 43.4232 65.7765 43.4182 68.573C43.4182 69.0132 43.4535 69.4542 43.4932 69.893C43.5562 70.568 43.9305 70.9962 44.5845 71.1605C44.9452 71.252 45.3157 71.3037 45.6817 71.3735L46.0492 71.4485V73.9137C46.0079 73.9341 45.964 73.9488 45.9187 73.9572C44.829 74.006 43.7437 73.9775 42.69 73.6572C41.661 73.3467 40.803 72.7842 40.221 71.8572C39.8902 71.3322 39.7222 70.742 39.6495 70.1322C39.6055 69.7503 39.584 69.3661 39.585 68.9817C39.585 63.6717 39.588 58.3622 39.594 53.0532L39.5925 52.6272Z" fill="#0A1E45"/>
<path d="M62.8106 52.6318L66.5231 51.9883V52.5005C66.5231 57.323 66.5252 62.1455 66.5292 66.968C66.5292 67.8508 66.5367 68.7335 66.5434 69.617C66.5494 70.4885 66.8674 70.9325 67.6999 71.192C67.9828 71.2703 68.27 71.3319 68.5602 71.3765C68.7372 71.4095 68.9164 71.4253 69.1317 71.4515V73.97C69.1117 73.9866 69.088 73.9982 69.0627 74.0038C68.0082 74.0465 66.9581 74.0293 65.9329 73.7293C65.3117 73.5505 64.7332 73.2473 64.2327 72.8383C63.3004 72.0755 62.9209 71.0533 62.8234 69.9005C62.7949 69.563 62.7987 69.2218 62.7994 68.8828C62.7994 63.6073 62.8031 58.3323 62.8106 53.0578V52.6318Z" fill="#0A1E45"/>
<path d="M32.0077 73.7296L28.2581 73.6772C28.2558 73.5204 28.2503 73.377 28.2515 73.2353C28.279 70.9825 28.3072 68.7296 28.3362 66.4768C28.3568 64.6769 28.3707 62.8769 28.3966 61.0771C28.4023 60.7508 28.432 60.4253 28.4852 60.1033C28.5459 59.7358 28.7429 59.4318 29.0142 59.1768C30.5071 57.7635 32.2837 56.9288 34.3009 56.5864C35.5651 56.3728 36.8575 56.3891 38.1159 56.6345C38.1824 56.6474 38.249 56.6633 38.314 56.6807C38.3461 56.6894 38.3766 56.7056 38.4386 56.7305C37.9975 57.8074 37.4641 58.8351 36.9608 59.8512C36.3766 59.843 35.8234 59.818 35.2712 59.8313C34.3176 59.8496 33.3786 60.0696 32.5161 60.4769C32.2715 60.5927 32.1787 60.7399 32.1755 61.0197C32.1287 65.1194 32.074 69.219 32.0112 73.3186L32.0077 73.7296Z" fill="#0A1E45"/>
<path d="M25.6118 56.9082C25.6515 62.5272 25.608 68.1132 25.644 73.7337H21.9743C21.9653 73.598 21.9473 73.4562 21.9473 73.3145C21.9473 69.782 21.9473 66.249 21.9473 62.7155C21.9473 61.0962 21.9608 59.477 21.9675 57.8577C21.9675 57.7347 21.9675 57.6117 21.9675 57.4572L25.6118 56.9082Z" fill="#0A1E45"/>
<path d="M23.6258 55.2553C21.834 55.2508 20.712 53.4673 21.4553 51.7836C21.912 50.7508 22.6965 50.3586 23.8283 50.3653C25.3448 50.3781 26.469 51.8863 26.1075 53.3601C25.8188 54.5376 24.8738 55.2583 23.6258 55.2553Z" fill="#0A1E45"/>
</svg>
