<svg width="75" height="75" viewBox="0 0 75 75" fill="none" xmlns="http://www.w3.org/2000/svg">
<path d="M73.6514 1.35156H1.27637V73.7266H73.6514V1.35156Z" fill="#162D4C"/>
<path d="M32.8906 12.1871V12.1504H54.7156V12.1886L32.8906 12.1871Z" fill="#E4B935"/>
<path d="M32.889 12.1875H54.714C54.549 12.981 54.387 13.7752 54.2183 14.568C53.5723 17.6015 52.9243 20.634 52.2743 23.6655C52.0118 24.8978 51.7493 26.1308 51.4838 27.3615C51.45 27.5115 51.465 27.5648 51.6338 27.567C52.2338 27.576 52.8338 27.567 53.4338 27.5438C53.7273 27.5263 54.0218 27.5454 54.3105 27.6008C54.8355 27.7118 54.9818 28.0905 54.6675 28.5308C54.4918 28.7598 54.2633 28.943 54.0015 29.0648C53.4098 29.37 52.7693 29.5005 52.1175 29.5853C51.7964 29.6345 51.472 29.6596 51.147 29.6603C51.021 29.6603 50.9888 29.7188 50.9678 29.82C50.7678 30.77 50.566 31.722 50.3625 32.676L48.5108 41.4075C48.4733 41.5845 48.4358 41.7608 48.4005 41.9393C48.3825 42.0398 48.3465 42.1005 48.2318 42.0795C48.2006 42.0765 48.1692 42.0765 48.138 42.0795H26.7833C26.5253 42.0795 26.526 42.0795 26.5815 41.8155C27.6505 36.7815 28.719 31.7475 29.787 26.7135C30.0255 25.5905 30.2648 24.468 30.5048 23.346C30.5256 23.2811 30.5213 23.2107 30.4928 23.1488C30.174 22.518 30.0728 21.8333 30.006 21.1418C29.8358 19.3838 30.2445 17.7045 30.7238 16.038C30.8625 15.558 31.3845 15.2625 31.9538 15.327C32.163 15.3503 32.223 15.2932 32.262 15.0952C32.4518 14.1472 32.6595 13.203 32.862 12.2572C32.8689 12.2332 32.878 12.2099 32.889 12.1875ZM40.314 27.7125C40.3699 27.7065 40.4262 27.7065 40.482 27.7125C41.1675 27.8685 41.5185 27.4635 41.796 26.9348C41.8275 26.874 41.8598 26.8125 41.8868 26.7503C42.0795 26.3115 42.0788 26.3108 41.724 26.0003C41.7007 25.9783 41.6756 25.9582 41.649 25.9403C41.4938 25.8458 41.4945 25.7445 41.5898 25.59C41.8848 25.11 42.316 24.7287 42.8285 24.4945C43.341 24.2604 43.9115 24.1841 44.4675 24.2753C44.6577 24.301 44.8371 24.3789 44.9858 24.5003C45.4733 24.891 45.9773 25.2593 46.4918 25.6148C46.9651 25.9508 47.459 26.2566 47.9708 26.5305C48.1605 26.6295 48.171 26.625 48.1538 26.421C48.1208 26.0355 48.0825 25.6503 48.039 25.2653C47.9423 24.3997 47.6805 23.6025 47.127 22.9073C46.7303 22.4093 46.353 21.8955 45.948 21.4035C45.9086 21.3611 45.8794 21.3103 45.8626 21.255C45.8459 21.1996 45.842 21.1411 45.8513 21.084C45.9413 20.3745 45.9428 20.37 45.5003 19.809C44.5253 18.573 43.3673 17.514 42.1838 16.4835C42.1141 16.4307 42.0329 16.3952 41.9468 16.38C41.1286 16.1787 40.2915 16.0638 39.4493 16.0373C38.9603 16.0148 38.5073 16.0688 38.106 16.3688C37.7783 16.614 37.431 16.6545 37.0193 16.5863C35.6903 16.365 34.3545 16.1835 33.0203 15.9945C32.6318 15.9398 32.247 15.8445 31.8503 15.864C31.509 15.8797 31.3193 15.9983 31.233 16.2795C30.8078 17.6685 30.483 19.0778 30.5303 20.544C30.5549 21.8972 31.0029 23.2086 31.8113 24.294C32.7113 25.5075 33.9293 26.286 35.322 26.8133C36.9278 27.4193 38.6063 27.636 40.3103 27.7095L40.314 27.7125ZM40.164 36.9173C40.0853 36.969 40.0335 37.0035 39.981 37.0365C39.3308 37.4445 38.6813 37.854 38.0273 38.256C37.8953 38.337 37.8893 38.379 38.0123 38.481C39.0623 39.3473 40.1078 40.2203 41.1555 41.0903C41.1818 41.1128 41.2058 41.151 41.2613 41.1248C41.2725 40.9313 41.295 40.7325 41.292 40.5338C41.2917 40.3094 41.3389 40.0875 41.4308 39.8828C41.7225 39.1868 42.0015 38.4855 42.288 37.7873C42.3247 37.7016 42.3414 37.6088 42.3368 37.5158C42.3113 36.8978 42.2873 36.2798 42.2685 35.6618C42.2654 35.5499 42.2314 35.4412 42.1703 35.3475C41.5073 34.275 40.8488 33.2003 40.1835 32.1285C40.154 32.0859 40.1349 32.037 40.1276 31.9857C40.1203 31.9344 40.1251 31.8821 40.1415 31.833C40.2525 31.4498 40.353 31.0635 40.4633 30.6795C40.5049 30.5293 40.5176 30.3725 40.5008 30.2175C40.4618 29.7945 40.4258 29.3715 40.3965 28.9478C40.3883 28.8068 40.3485 28.7603 40.1993 28.7595C39.206 28.7602 38.2151 28.662 37.2413 28.4663C34.7055 27.9413 32.6618 26.6723 31.2038 24.507C31.1745 24.4643 31.1603 24.4028 31.0823 24.3855C31.074 24.4208 31.065 24.4553 31.0575 24.4898C30.4105 27.5588 29.7638 30.6283 29.1173 33.6983C29.0363 34.0815 29.0363 34.086 29.4218 34.1265C29.6708 34.1528 29.9078 34.2323 30.1718 34.1363C31.4505 33.6765 32.7375 33.24 34.02 32.7863C34.0836 32.757 34.1541 32.7461 34.2236 32.7549C34.2931 32.7636 34.3587 32.7916 34.413 32.8358C36.1155 34.0508 37.8215 35.2613 39.531 36.4673L40.164 36.9173ZM34.1685 33.4995C34.1685 34.4175 34.1685 35.3228 34.1685 36.2288C34.1702 36.3833 34.1398 36.5365 34.0793 36.6788C33.5843 37.857 33.0953 39.0383 32.5988 40.2165C32.5706 40.2711 32.557 40.332 32.5594 40.3934C32.5617 40.4548 32.58 40.5145 32.6123 40.5668C32.7173 40.7513 32.8103 40.9418 32.8965 41.136C32.9124 41.1851 32.9447 41.2273 32.988 41.2554C33.0313 41.2835 33.0829 41.2959 33.1343 41.2905C34.3283 41.2838 35.5215 41.2905 36.7148 41.2853C36.7665 41.2853 36.8258 41.3093 36.8813 41.2485C36.7718 41.0235 36.666 40.7903 36.5475 40.5653C36.4868 40.457 36.4686 40.33 36.4965 40.209C36.789 38.7795 37.074 37.3478 37.371 35.919C37.401 35.7773 37.371 35.7068 37.2585 35.628C36.2795 34.9465 35.3023 34.2625 34.3268 33.576C34.2837 33.5302 34.2252 33.5019 34.1625 33.4965L34.1685 33.4995ZM50.6798 29.184C50.817 29.184 50.9543 29.1885 51.0915 29.184C51.9113 29.151 52.7205 29.0498 53.5005 28.7798C53.7405 28.7081 53.9618 28.5844 54.1485 28.4175C54.237 28.3328 54.3173 28.233 54.2655 28.1048C54.2198 27.9908 54.096 27.9825 53.9925 27.9818C53.7428 27.9818 53.4915 27.975 53.2425 27.9975C52.1891 28.0981 51.1263 28.0192 50.0993 27.7643C48.2723 27.3105 46.644 26.4488 45.138 25.3418C44.9427 25.1891 44.7092 25.0929 44.463 25.0635C43.7603 24.9885 43.1498 25.1513 42.6953 25.7333C42.6113 25.8405 42.609 25.9088 42.7193 26.0063C43.299 26.52 43.9238 26.9806 44.586 27.3825C46.4535 28.521 48.4673 29.1825 50.6738 29.181L50.6798 29.184ZM45.0893 28.3725C45.1088 28.503 45.1268 28.5975 45.1365 28.6988C45.1673 29.0213 45.273 29.3348 45.2408 29.6633C45.1418 30.6705 44.9273 31.6605 44.7953 32.6633C44.6933 33.444 44.589 34.2255 44.631 35.0145C44.6648 35.652 44.8718 36.2265 45.4125 36.6053C45.9225 36.9623 46.4828 37.071 47.0715 36.7673C47.1173 36.7479 47.1558 36.7146 47.1814 36.672C47.207 36.6294 47.2184 36.5798 47.214 36.5303C47.2117 36.3181 47.1908 36.1065 47.1518 35.898C47.1255 35.766 47.0828 35.7315 46.9403 35.757C46.4108 35.8523 46.047 35.4713 46.1505 34.9455C46.2413 34.4835 46.425 34.053 46.6005 33.6203C47.0273 32.5815 47.5343 31.578 47.9775 30.5453C48.0907 30.2543 48.1602 29.9483 48.1838 29.637C48.1958 29.535 48.1838 29.4825 48.0563 29.466C47.8464 29.4354 47.6385 29.3923 47.4338 29.337C46.6127 29.1216 45.8242 28.7972 45.0893 28.3725Z" fill="white"/>
<path d="M40.6542 50.7456C40.874 50.7809 41.0894 50.8392 41.297 50.9196C41.978 51.2038 42.341 51.7311 42.374 52.4503C42.4355 53.7786 41.7957 54.7543 40.7397 55.4856C40.061 55.953 39.2553 56.2011 38.4312 56.1966C37.3385 56.2048 36.245 56.1966 35.1515 56.1966C34.859 56.1966 34.793 56.1141 34.8515 55.8306C35.513 52.6251 36.1747 49.4196 36.8367 46.2141C36.9042 45.8848 36.9867 45.8203 37.3167 45.8203C38.0225 45.8203 38.7282 45.8203 39.4347 45.8203C40.088 45.8203 40.7322 45.8953 41.3367 46.1616C41.9922 46.4503 42.4842 46.9033 42.5547 47.6503C42.6552 48.7161 42.296 49.6123 41.4372 50.2843C41.1927 50.4645 40.9304 50.619 40.6542 50.7456ZM37.7615 54.9853V54.9741C37.9925 54.9741 38.2235 54.9838 38.4537 54.9741C39.563 54.9208 40.2905 54.2811 40.4907 53.1906C40.6527 52.3041 40.2222 51.6906 39.338 51.5571C38.786 51.4753 38.2287 51.5376 37.6745 51.5181C37.583 51.5181 37.5777 51.5691 37.565 51.6321C37.5035 51.9373 37.4397 52.2426 37.376 52.5471C37.22 53.2971 37.067 54.0471 36.9057 54.7971C36.8727 54.9471 36.9012 55.0033 37.0692 54.9921C37.2987 54.9741 37.5305 54.9853 37.7615 54.9853ZM38.384 50.3046C38.6208 50.3188 38.8584 50.3052 39.092 50.2641C39.9537 50.0668 40.6115 49.2996 40.697 48.3891C40.7652 47.6653 40.4465 47.2348 39.7377 47.0893C39.4235 47.0248 39.1047 47.0428 38.7882 47.0226C38.5707 47.0083 38.4972 47.0743 38.456 47.2911C38.2752 48.2451 38.075 49.1953 37.871 50.1456C37.8387 50.2956 37.8837 50.3128 38.0097 50.3046C38.1357 50.2963 38.2587 50.3046 38.384 50.3046Z" fill="white"/>
<path d="M49.3852 49.6345C49.4835 49.3908 49.5742 49.1845 49.6492 48.9768C49.6704 48.8946 49.7203 48.8229 49.79 48.7745C49.8597 48.7262 49.9444 48.7045 50.0287 48.7135C50.3475 48.7203 50.6662 48.7135 50.985 48.7135C51.2212 48.7135 51.2902 48.8013 51.2452 49.027C50.8952 50.7565 50.5452 52.4863 50.1952 54.2163C50.1597 54.3558 50.1475 54.5003 50.1592 54.6438C50.1915 54.8838 50.2717 54.9685 50.5117 55C50.6617 55.0195 50.7247 55.102 50.6992 55.243C50.6565 55.4823 50.607 55.7208 50.5492 55.957C50.5369 56.0292 50.4986 56.0943 50.4415 56.1402C50.3845 56.186 50.3126 56.2094 50.2395 56.206C49.9394 56.22 49.6388 56.1907 49.347 56.119C48.8857 55.9975 48.6337 55.6998 48.5752 55.219C48.5685 55.1643 48.5662 55.1088 48.561 55.0443C48.48 55.0638 48.4515 55.1313 48.411 55.1778C47.481 56.1933 46.329 56.5533 44.9865 56.32C44.082 56.1625 43.5195 55.5978 43.317 54.6955C43.1437 53.9268 43.2367 53.1678 43.392 52.411C43.575 51.511 43.8832 50.6628 44.442 49.9143C45.4072 48.61 46.9612 48.3333 48.1432 48.6295C48.69 48.7713 49.0935 49.1028 49.3852 49.6345ZM44.9602 53.7933C44.9604 53.9624 44.9749 54.1313 45.0037 54.298C45.0855 54.796 45.36 55.072 45.858 55.1553C46.833 55.3188 47.766 54.895 48.2512 54.0205C48.7325 53.1398 48.9672 52.1457 48.9307 51.1428C48.9135 50.4333 48.5767 49.993 47.9797 49.8183C47.6294 49.7222 47.2617 49.7081 46.905 49.777C46.2735 49.8835 45.9052 50.3065 45.6472 50.845C45.2002 51.7765 45.0412 52.7763 44.9602 53.7933Z" fill="white"/>
<path d="M63.8489 45.8867C63.6414 46.8967 63.4334 47.9047 63.2249 48.9107C63.0179 49.918 62.8117 50.9252 62.6032 51.9392C62.7007 51.9332 62.7322 51.8642 62.7779 51.8192C63.7147 50.8915 64.6529 49.9652 65.5829 49.0307C65.6776 48.9274 65.7939 48.8462 65.9236 48.7929C66.0532 48.7397 66.193 48.7156 66.3329 48.7225C66.6757 48.7352 67.0199 48.7225 67.3634 48.7292C67.4384 48.7292 67.5329 48.709 67.5659 48.784C67.5989 48.859 67.5074 48.9115 67.4557 48.9595C66.3057 50.042 65.1522 51.1225 63.9952 52.201C63.8737 52.3142 63.8737 52.3847 63.9599 52.5182C64.6769 53.629 65.3849 54.7457 66.0982 55.8602C66.1319 55.9127 66.1657 55.966 66.1949 56.02C66.2564 56.1325 66.2227 56.2112 66.0952 56.212C65.5514 56.212 65.0077 56.2172 64.4647 56.2052C64.3019 56.2052 64.2082 56.0725 64.1287 55.9367C63.5892 55.0097 63.0477 54.0847 62.5042 53.1617C62.4712 53.1055 62.4554 53.0335 62.3722 52.9945C62.2177 53.7445 62.0654 54.4847 61.9117 55.2265C61.8637 55.459 61.8179 55.6915 61.7654 55.9225C61.7129 56.1535 61.6252 56.2157 61.4009 56.2172C61.0514 56.2172 60.7012 56.2172 60.3509 56.2172C60.0389 56.2172 59.9804 56.1482 60.0427 55.849C60.2347 54.9212 60.4297 53.9935 60.6217 53.065C61.0427 51.0395 61.4604 49.017 61.8749 46.9975C61.8814 46.946 61.9012 46.8972 61.9322 46.8556C61.9632 46.8141 62.0045 46.7813 62.0519 46.7605C62.5882 46.495 63.1199 46.2205 63.6539 45.9512C63.7107 45.9102 63.7788 45.8876 63.8489 45.8867Z" fill="white"/>
<path d="M54.6088 49.9229C54.8689 49.5748 55.1689 49.2584 55.5028 48.9802C56.291 48.3352 57.8885 48.4357 58.6295 49.1129C59.2295 49.6627 59.3923 50.3669 59.2625 51.1304C59.0938 52.1197 58.8695 53.0992 58.6738 54.0839C58.631 54.2977 58.5905 54.5144 58.6498 54.7334C58.691 54.8872 58.757 55.0109 58.9498 55.0094C59.1118 55.0094 59.1748 55.1084 59.1478 55.2577C59.105 55.4962 59.057 55.7354 59.0015 55.9717C58.9888 56.041 58.9513 56.1033 58.8962 56.1471C58.8411 56.1909 58.7719 56.2133 58.7015 56.2102C58.4016 56.2266 58.101 56.196 57.8105 56.1194C57.1355 55.9297 56.8025 55.4444 56.8355 54.6944C56.8573 54.1852 57.0065 53.6992 57.0958 53.2027C57.2173 52.5277 57.4205 51.8677 57.458 51.1777C57.4667 51.0408 57.4667 50.9036 57.458 50.7667C57.4055 50.0092 56.933 49.6477 56.1898 49.7737C55.9576 49.8112 55.736 49.8975 55.5395 50.0267C55.3431 50.156 55.1762 50.3253 55.0498 50.5237C54.7153 51.0142 54.5735 51.5737 54.455 52.1452C54.1965 53.3902 53.9358 54.6352 53.6728 55.8802C53.6173 56.1427 53.528 56.2109 53.2595 56.2117C52.8973 56.2117 52.5343 56.2117 52.172 56.2117C51.9418 56.2117 51.872 56.1172 51.9155 55.8907C52.2655 54.1802 52.617 52.4697 52.97 50.7592C53.009 50.5702 53.0555 50.3842 52.9985 50.1862C52.9535 50.0362 52.8725 49.9387 52.6985 49.9244C52.4893 49.9072 52.4443 49.8344 52.4863 49.6244C52.5283 49.4144 52.5703 49.2082 52.6138 49.0012C52.6233 48.9223 52.6618 48.8498 52.7218 48.7978C52.7819 48.7458 52.8591 48.7181 52.9385 48.7199C53.2448 48.7003 53.5523 48.7302 53.849 48.8084C54.3433 48.9517 54.5495 49.2044 54.599 49.7159C54.599 49.7699 54.599 49.8239 54.6088 49.9229Z" fill="white"/>
<path d="M10.8075 50.2853H11.94C12.5025 50.2853 13.065 50.2853 13.6275 50.2853C13.8983 50.2853 13.9635 50.3648 13.9103 50.6303C13.8683 50.8381 13.8233 51.0451 13.7768 51.2521C13.7175 51.5131 13.6268 51.5851 13.3425 51.5851C12.48 51.5851 11.6175 51.5851 10.7558 51.5791C10.5915 51.5791 10.5233 51.6106 10.488 51.7883C10.227 53.1098 9.94951 54.4276 9.67876 55.7476C9.60376 56.1226 9.54376 56.1736 9.15376 56.1736C8.79751 56.1736 8.44126 56.1736 8.08576 56.1736C7.82776 56.1736 7.76101 56.0903 7.81351 55.8368C8.12851 54.3098 8.44426 52.7833 8.76076 51.2573C9.10576 49.5898 9.44976 47.9226 9.79276 46.2556C9.87676 45.8476 9.93301 45.7981 10.3545 45.7988L15.2295 45.8078C15.5775 45.8078 15.63 45.8716 15.5588 46.2038C15.5168 46.3988 15.477 46.5946 15.4305 46.7888C15.3728 47.0311 15.2873 47.0986 15.0383 47.0986C13.9133 47.0986 12.7883 47.0986 11.6633 47.0986C11.5133 47.0986 11.4503 47.1263 11.4188 47.2861C11.2238 48.2798 11.0153 49.2743 10.8075 50.2853Z" fill="white"/>
<path d="M25.5614 56.3627C24.9678 56.3572 24.379 56.2559 23.8177 56.0627C23.6199 56.0011 23.4398 55.8928 23.2927 55.7469C23.1427 55.5902 23.1427 55.4469 23.2739 55.2789C23.3594 55.1717 23.4547 55.0727 23.5462 54.9692C23.7712 54.7119 23.8087 54.7029 24.1462 54.8192C24.6142 54.9767 25.0852 55.1192 25.5824 55.1439C26.0227 55.1672 26.4554 55.1499 26.8709 54.9804C27.0345 54.9163 27.1795 54.8124 27.2929 54.6782C27.4063 54.544 27.4845 54.3837 27.5204 54.2117C27.5902 53.9409 27.5114 53.7542 27.2737 53.6042C27.0206 53.4557 26.7501 53.3393 26.4682 53.2577C26.1487 53.1542 25.8299 53.0424 25.5052 52.9577C24.3427 52.6479 24.0629 51.7712 24.2902 50.7729C24.5609 49.5842 25.5014 48.7479 26.7517 48.5694C27.6419 48.4442 28.5209 48.4944 29.3594 48.8642C29.5279 48.9308 29.6835 49.0262 29.8192 49.1462C29.9587 49.2797 29.9692 49.3907 29.8492 49.5384C29.6992 49.7169 29.5432 49.8849 29.3939 50.0634C29.3189 50.1512 29.2372 50.1452 29.1412 50.1174C28.7759 50.0132 28.4272 49.8534 28.0514 49.7852C27.6232 49.7102 27.1942 49.6839 26.7712 49.8054C26.5888 49.8536 26.4218 49.9479 26.2864 50.0792C26.151 50.2106 26.0517 50.3746 25.9979 50.5554C25.8629 50.9567 26.0107 51.2432 26.4142 51.3699C26.9137 51.5267 27.4154 51.6752 27.9142 51.8274C28.1663 51.8975 28.4089 51.9982 28.6364 52.1274C29.0579 52.3787 29.2664 52.7559 29.2912 53.2382C29.3579 54.5327 28.6612 55.5594 27.3772 56.0634C26.8259 56.2794 26.2514 56.3649 25.5614 56.3627Z" fill="white"/>
<path d="M31.8295 49.8369C31.6008 49.8369 31.3698 49.8369 31.1395 49.8369C30.8725 49.8369 30.8133 49.7672 30.8643 49.5114C30.901 49.3277 30.9393 49.1447 30.9835 48.9632C30.996 48.888 31.0359 48.8202 31.0954 48.7727C31.155 48.7252 31.23 48.7014 31.306 48.7059C31.5123 48.7059 31.7193 48.6939 31.9248 48.7059C32.0628 48.7157 32.1048 48.6632 32.1265 48.5357C32.1835 48.1982 32.257 47.8607 32.3215 47.5254C32.3335 47.4639 32.3388 47.4077 32.407 47.3754C33.0243 47.0649 33.6408 46.7514 34.2753 46.4297C34.2918 46.6314 34.2265 46.8002 34.1943 46.9712C34.096 47.4962 33.9888 48.0114 33.8778 48.5304C33.8485 48.6662 33.8688 48.7179 34.024 48.7097C34.279 48.6969 34.5363 48.7037 34.792 48.7097C34.999 48.7134 35.0635 48.7884 35.0268 48.9932C34.99 49.1979 34.9458 49.3839 34.8985 49.5774C34.8513 49.7709 34.7313 49.8452 34.543 49.8437C34.2745 49.8437 34.0053 49.8437 33.7368 49.8437C33.6408 49.8437 33.592 49.8654 33.571 49.9674C33.2925 51.3624 33.0115 52.7564 32.728 54.1494C32.6936 54.3092 32.7016 54.4752 32.7513 54.6309C32.7892 54.7378 32.86 54.8298 32.9535 54.8938C33.0471 54.9578 33.1585 54.9905 33.2718 54.9872C33.7675 54.9999 33.772 55.0044 33.6775 55.4927C33.6483 55.6427 33.6153 55.7979 33.58 55.9494C33.5697 56.0187 33.5346 56.0819 33.4812 56.1273C33.4279 56.1727 33.3598 56.1971 33.2898 56.1962C32.8908 56.2059 32.488 56.2322 32.0898 56.1617C31.3098 56.0222 30.9235 55.5617 30.91 54.7607C30.901 54.2357 31.0443 53.7354 31.147 53.2284C31.372 52.1162 31.6038 51.0047 31.8318 49.8924C31.8335 49.8739 31.8328 49.8553 31.8295 49.8369Z" fill="white"/>
<path d="M21.4727 49.5431C21.5453 49.45 21.6226 49.3606 21.7044 49.2754C22.2647 48.7444 22.9494 48.5666 23.7009 48.5809C23.8509 48.5809 23.9162 48.6289 23.8757 48.7976C23.7947 49.1306 23.7324 49.4681 23.6604 49.8034C23.5967 50.1034 23.4984 50.1529 23.1992 50.1161C22.4319 50.0224 21.5927 50.2864 21.3429 51.3911C21.0099 52.8686 20.6912 54.3499 20.3679 55.8296C20.2929 56.1829 20.2269 56.2369 19.8609 56.2361C19.5302 56.2361 19.1987 56.2361 18.8679 56.2361C18.6092 56.2361 18.5454 56.1529 18.6002 55.8979C18.9687 54.1849 19.3377 52.4724 19.7072 50.7604C19.7468 50.6093 19.7664 50.4538 19.7657 50.2976C19.7537 50.0486 19.6637 49.9451 19.4139 49.9046C19.2639 49.8806 19.1934 49.7966 19.2227 49.6436C19.2654 49.4186 19.3082 49.1936 19.3592 48.9686C19.3696 48.8929 19.4076 48.8237 19.4658 48.7742C19.5241 48.7246 19.5985 48.6983 19.6749 48.7001C20.0619 48.6941 20.4497 48.7001 20.8254 48.8149C21.1749 48.9214 21.3894 49.1464 21.4194 49.5259L21.4727 49.5431Z" fill="white"/>
<path d="M14.9116 54.9245C14.9274 54.3897 15.0819 53.879 15.1929 53.3615C15.4981 51.9365 15.8116 50.5115 16.1229 49.0865C16.1799 48.8247 16.2729 48.7535 16.5354 48.752C16.8854 48.752 17.2354 48.752 17.5854 48.752C17.8486 48.752 17.9124 48.827 17.8576 49.0812C17.4891 50.7882 17.1194 52.4947 16.7484 54.2007C16.6976 54.4074 16.6791 54.6206 16.6936 54.833C16.7161 55.0722 16.8009 55.163 17.0319 55.1975C17.1699 55.2185 17.2336 55.3002 17.2104 55.4315C17.1669 55.6775 17.1174 55.922 17.0604 56.1642C17.0462 56.229 17.0099 56.2868 16.9578 56.3279C16.9057 56.3689 16.841 56.3906 16.7746 56.3892C16.3996 56.4012 16.0246 56.3712 15.6721 56.222C15.1494 56.0045 14.8981 55.565 14.9116 54.9245Z" fill="white"/>
<path d="M41.1136 60.7846C41.7466 61.1438 41.8021 61.8646 41.2636 62.3843C40.8706 62.7668 40.0126 62.8898 39.5251 62.6348C39.4115 62.5801 39.3158 62.4941 39.2494 62.3869C39.1829 62.2797 39.1485 62.1557 39.1501 62.0296C39.1354 61.8131 39.1818 61.5969 39.284 61.4055C39.3863 61.2141 39.5402 61.0554 39.7284 60.9473C39.8221 60.8888 39.9249 60.8446 40.0224 60.7973C40.0224 60.7831 40.0224 60.7658 40.0164 60.7628C39.4831 60.4868 39.6016 59.9806 39.8806 59.5838C40.0217 59.3978 40.2238 59.2674 40.4514 59.2156C40.706 59.1484 40.9723 59.1381 41.2314 59.1856C41.4804 59.2268 41.7084 59.3303 41.7856 59.5973C41.8328 59.7396 41.8427 59.8915 41.8145 60.0387C41.7863 60.1859 41.7208 60.3234 41.6244 60.4381C41.4916 60.5941 41.3161 60.6878 41.1136 60.7846ZM39.7891 61.8421C39.7836 61.949 39.8178 62.0541 39.8853 62.1372C39.9528 62.2204 40.0486 62.2755 40.1544 62.2921C40.6501 62.3986 41.1294 61.8916 41.0056 61.3921C40.9857 61.2933 40.9323 61.2045 40.8544 61.1407C40.7765 61.0768 40.6789 61.0419 40.5781 61.0418C40.1559 61.0238 39.7876 61.3958 39.7891 61.8421ZM40.8264 59.6161C40.7547 59.6156 40.6837 59.6292 40.6173 59.6562C40.5509 59.6832 40.4905 59.723 40.4395 59.7734C40.3885 59.8237 40.3479 59.8837 40.3201 59.9497C40.2923 60.0158 40.2778 60.0866 40.2774 60.1583C40.2744 60.2081 40.2813 60.258 40.2978 60.3051C40.3143 60.3522 40.34 60.3955 40.3735 60.4326C40.4069 60.4696 40.4475 60.4995 40.4926 60.5207C40.5378 60.5419 40.5868 60.5538 40.6366 60.5558C40.9104 60.5603 41.1991 60.2558 41.2051 59.9626C41.2089 59.7571 41.0559 59.6176 40.8264 59.6161Z" fill="white"/>
<path d="M44.5828 59.8598C44.5673 59.6929 44.4973 59.5356 44.3836 59.4124C44.2698 59.2892 44.1187 59.2068 43.9535 59.1781C43.7187 59.1361 43.477 59.1549 43.2515 59.2328C42.605 59.4661 42.3703 59.9926 42.3095 60.6143C42.2458 61.2833 42.6343 61.6283 43.3048 61.5503C43.5583 61.5203 43.733 61.3786 43.913 61.2128C43.8954 61.4311 43.8263 61.6422 43.7113 61.8286C43.517 62.1796 43.2268 62.3581 42.8158 62.2891C42.6796 62.2735 42.5452 62.2448 42.4145 62.2036C42.1895 62.1188 42.1843 62.3176 42.1205 62.4203C42.041 62.5486 42.1798 62.5763 42.2533 62.6123C42.8735 62.9206 43.5545 62.7878 43.9783 62.2253C44.5093 61.5301 44.6953 60.7238 44.5828 59.8598ZM44.0458 60.1921C44.0183 60.4031 43.9503 60.6069 43.8455 60.7921C43.727 60.9863 43.5643 61.1033 43.325 61.0921C43.025 61.0846 42.8938 60.9503 42.9005 60.6068C42.9144 60.4031 42.9673 60.204 43.0565 60.0203C43.1125 59.8941 43.2057 59.7879 43.3235 59.7158C43.4983 59.6146 43.691 59.5598 43.8718 59.6753C44.0525 59.7908 44.0795 59.9896 44.0458 60.1921Z" fill="white"/>
<path d="M46.2752 61.8762H44.9477C44.764 61.8762 44.7287 61.8185 44.8127 61.6512C44.8461 61.5918 44.8869 61.5368 44.9342 61.4877C45.541 60.7917 46.1575 60.104 46.7522 59.3982C46.927 59.1905 47.1272 59.2122 47.344 59.2235C47.4662 59.2295 47.419 59.3307 47.4047 59.3967C47.2987 59.9157 47.1917 60.4342 47.0837 60.9522C47.0653 61.0693 47.0403 61.1852 47.0087 61.2995C46.966 61.4315 47.0245 61.439 47.1325 61.445C47.2172 61.4495 47.368 61.37 47.3642 61.5575C47.359 61.8125 47.3035 61.8935 47.113 61.8732C46.9225 61.853 46.8557 61.9287 46.8437 62.0982C46.8351 62.1599 46.8228 62.221 46.807 62.2812C46.7132 62.7402 46.7132 62.7365 46.2445 62.711C46.1282 62.7042 46.1072 62.6577 46.1282 62.561C46.177 62.3412 46.2227 62.1215 46.2752 61.8762ZM46.6262 60.1632L45.5575 61.4382C45.829 61.4382 46.0502 61.4382 46.2715 61.4382C46.2853 61.4401 46.2993 61.4391 46.3127 61.4353C46.3261 61.4315 46.3385 61.4249 46.3492 61.416C46.3599 61.4072 46.3687 61.3961 46.3749 61.3837C46.3812 61.3712 46.3848 61.3576 46.3855 61.3437C46.4605 60.9687 46.5377 60.5922 46.6255 60.1625L46.6262 60.1632Z" fill="white"/>
<path d="M24.8819 62.749C24.5955 62.7486 24.312 62.6925 24.0471 62.584C23.9811 62.5555 23.8514 62.5382 23.9106 62.434C23.9699 62.3297 23.9804 62.1272 24.1919 62.1775C24.4815 62.2543 24.7802 62.2912 25.0799 62.287C25.2374 62.2833 25.3917 62.2419 25.5299 62.1662C25.8786 61.9712 25.8914 61.5992 25.5464 61.396C25.3766 61.3058 25.2012 61.2267 25.0214 61.159C24.2811 60.8402 24.1439 60.118 24.7311 59.5585C25.2036 59.1085 25.7729 59.0702 26.3751 59.2247C26.4291 59.239 26.4816 59.2585 26.5349 59.2765C26.8206 59.3747 26.8259 59.3957 26.6699 59.6425C26.6618 59.6606 26.6502 59.6769 26.6357 59.6904C26.6213 59.704 26.6043 59.7146 26.5857 59.7216C26.5672 59.7285 26.5474 59.7318 26.5276 59.7311C26.5078 59.7304 26.4884 59.7257 26.4704 59.7175C26.1776 59.6262 25.8699 59.5926 25.5644 59.6185C25.4607 59.6249 25.3601 59.6559 25.2708 59.7088C25.1815 59.7618 25.106 59.8352 25.0506 59.923C24.9006 60.1667 24.9561 60.388 25.2119 60.5132C25.3851 60.598 25.5681 60.6632 25.7451 60.7382C26.5086 61.0622 26.6166 61.9142 25.9611 62.4257C25.6881 62.6357 25.3274 62.7467 24.8819 62.749Z" fill="white"/>
<path d="M29.3069 60.5611C29.4816 60.3728 29.6279 60.1951 29.8716 60.1411C30.5324 59.9956 30.9884 60.4366 30.8534 61.0981C30.7904 61.4093 30.7236 61.7198 30.6636 62.0318C30.6426 62.1428 30.6299 62.2426 30.7791 62.3041C30.8961 62.3521 30.7949 62.4683 30.7911 62.5538C30.7926 62.5725 30.7902 62.5913 30.784 62.6089C30.7778 62.6266 30.768 62.6428 30.7553 62.6564C30.7425 62.6701 30.727 62.681 30.7098 62.6884C30.6926 62.6958 30.6741 62.6995 30.6554 62.6993C30.2459 62.7458 29.9894 62.4826 30.0614 62.0746C30.1154 61.7678 30.1814 61.4633 30.2414 61.1573C30.2523 61.108 30.2591 61.0578 30.2616 61.0073C30.2669 60.8296 30.2616 60.6496 30.0734 60.5573C29.9114 60.4771 29.6571 60.5453 29.5116 60.7073C29.3661 60.8693 29.2994 61.0823 29.2544 61.2998C29.1674 61.7146 29.0774 62.1286 28.9956 62.5448C28.9948 62.5679 28.9892 62.5905 28.979 62.6112C28.9689 62.6319 28.9545 62.6502 28.9368 62.665C28.9192 62.6798 28.8986 62.6907 28.8764 62.697C28.8542 62.7033 28.831 62.7049 28.8081 62.7016C28.3694 62.7121 28.3701 62.7158 28.4586 62.2861C28.5561 61.8096 28.6529 61.3333 28.7489 60.8573C28.7721 60.7411 28.8051 60.6181 28.6334 60.5746C28.5584 60.5551 28.5749 60.4838 28.5944 60.4343C28.6289 60.3481 28.5861 60.2228 28.7181 60.1853C28.7816 60.1653 28.8488 60.1594 28.9148 60.1681C28.9808 60.1768 29.0442 60.1998 29.1003 60.2357C29.1564 60.2715 29.204 60.3192 29.2397 60.3754C29.2754 60.4317 29.2984 60.495 29.3069 60.5611Z" fill="white"/>
<path d="M34.9277 61.6446C34.7657 61.6446 34.6022 61.6528 34.441 61.6446C34.321 61.6371 34.291 61.6881 34.291 61.7946C34.2752 62.1891 34.4882 62.3983 34.879 62.3503C35.0397 62.3301 35.198 62.294 35.3515 62.2423C35.4707 62.2026 35.515 62.2423 35.5622 62.3436C35.6095 62.4448 35.5885 62.5228 35.4872 62.5738C35.179 62.7304 34.8318 62.7934 34.4882 62.7553C33.907 62.6983 33.6437 62.3616 33.6985 61.7766C33.722 61.4587 33.8057 61.1482 33.9452 60.8616C34.2325 60.2893 34.7702 60.0253 35.3867 60.1491C35.7452 60.2241 35.9567 60.4588 35.9747 60.8241C35.9807 60.9363 35.9732 61.0489 35.9522 61.1593C35.8772 61.5208 35.7272 61.6431 35.359 61.6506C35.2157 61.6506 35.0717 61.6506 34.9285 61.6506L34.9277 61.6446ZM34.39 61.2343H35.1902C35.2209 61.238 35.2519 61.2329 35.2798 61.2196C35.3077 61.2063 35.3312 61.1854 35.3477 61.1593C35.4287 61.0206 35.3905 60.7296 35.2727 60.6156C35.155 60.5016 34.9795 60.4926 34.8055 60.5916C34.5617 60.7288 34.4725 60.9741 34.39 61.2343Z" fill="white"/>
<path d="M38.1442 59.9367C37.9417 60.0207 37.7602 60.0965 37.5772 60.1692C37.5322 60.1872 37.467 60.2187 37.4392 60.2007C37.3852 60.1662 37.428 60.098 37.431 60.044C37.4422 59.849 37.542 59.7357 37.731 59.6645C38.0745 59.5325 38.406 59.3757 38.7457 59.231C38.7952 59.2092 38.85 59.156 38.8957 59.1875C38.9415 59.219 38.9025 59.2917 38.8957 59.3427C38.6805 60.4002 38.4615 61.457 38.2485 62.5145C38.22 62.6562 38.157 62.7072 38.0092 62.705C37.5825 62.699 37.5855 62.705 37.6732 62.2887C37.8292 61.5507 37.9807 60.8112 38.1337 60.0725C38.139 60.0372 38.1382 59.999 38.1442 59.9367Z" fill="white"/>
<path d="M31.3433 61.854C31.351 61.5094 31.4334 61.1706 31.5848 60.861C31.8975 60.2085 32.7315 59.9152 33.3683 60.2362C33.4493 60.2775 33.6 60.2985 33.5468 60.4477C33.486 60.6142 33.3383 60.6855 33.1928 60.6165C32.619 60.3465 32.2133 60.6862 32.0595 61.1647C31.9769 61.4006 31.9392 61.65 31.9485 61.8997C31.968 62.2102 32.1608 62.3752 32.4735 62.3497C32.6219 62.3301 32.7674 62.2929 32.907 62.2387C32.982 62.214 33.0495 62.19 33.0878 62.2942C33.1193 62.3805 33.18 62.4555 33.0773 62.5432C32.7615 62.8125 31.947 62.8335 31.6223 62.574C31.3853 62.3895 31.3373 62.1315 31.3433 61.854Z" fill="white"/>
<path d="M26.8955 62.1337C26.9645 61.7894 27.0455 61.3837 27.1303 60.9719C27.1738 60.7582 27.2248 60.5459 27.2623 60.3314C27.2629 60.3084 27.2684 60.2857 27.2784 60.2649C27.2884 60.2441 27.3027 60.2257 27.3203 60.2108C27.3379 60.1959 27.3585 60.1849 27.3807 60.1786C27.4029 60.1722 27.4262 60.1706 27.449 60.1739C27.8923 60.1604 27.89 60.1567 27.8015 60.5842C27.7033 61.0604 27.6058 61.5359 27.512 62.0129C27.4895 62.1284 27.4678 62.2379 27.629 62.3002C27.743 62.3437 27.6463 62.4502 27.6425 62.5334C27.6388 62.6167 27.6163 62.6774 27.521 62.6962C27.1843 62.7622 26.8955 62.5349 26.8955 62.1337Z" fill="white"/>
<path d="M27.8039 59.1038C27.8789 59.1038 27.9366 59.1038 27.9921 59.1038C28.0476 59.1038 28.0979 59.1278 28.0866 59.1908C28.0611 59.331 28.0296 59.4698 27.9951 59.6078C27.9816 59.6603 27.9336 59.6783 27.8811 59.688C27.4386 59.7675 27.3876 59.7053 27.4776 59.271C27.5234 59.0355 27.6929 59.124 27.8039 59.1038Z" fill="white"/>
<path d="M40.31 27.7093C38.606 27.6343 36.9275 27.419 35.3202 26.8093C33.9275 26.2843 32.7095 25.5035 31.8095 24.29C31.0011 23.2046 30.5531 21.8932 30.5285 20.54C30.4842 19.0738 30.806 17.6645 31.2312 16.2755C31.3175 15.9943 31.5072 15.8758 31.8485 15.86C32.2452 15.8405 32.63 15.935 33.0185 15.9905C34.3527 16.1795 35.6885 16.361 37.0175 16.5823C37.4285 16.6505 37.7765 16.61 38.1042 16.3648C38.5055 16.0648 38.9585 16.0108 39.4475 16.0333C40.2901 16.0618 41.1275 16.1786 41.9457 16.382C42.0318 16.3972 42.1131 16.4327 42.1827 16.4855C43.3662 17.516 44.522 18.575 45.4992 19.811C45.9417 20.3705 45.9402 20.375 45.8502 21.086C45.8409 21.1431 45.8448 21.2016 45.8616 21.257C45.8784 21.3124 45.9076 21.3632 45.947 21.4055C46.352 21.8975 46.7292 22.4113 47.126 22.9093C47.6795 23.6045 47.9412 24.4018 48.038 25.2673C48.0815 25.6518 48.1197 26.037 48.1527 26.423C48.17 26.627 48.1595 26.6315 47.9697 26.5325C47.458 26.2586 46.964 25.9528 46.4907 25.6168C45.9762 25.2613 45.4722 24.893 44.9847 24.5023C44.8361 24.3809 44.6567 24.303 44.4665 24.2773C43.9105 24.1861 43.3399 24.2624 42.8275 24.4966C42.315 24.7307 41.8838 25.112 41.5887 25.592C41.4935 25.7465 41.4927 25.8478 41.648 25.9423C41.6746 25.9602 41.6996 25.9803 41.723 26.0023C42.0777 26.3098 42.0785 26.3105 41.8857 26.7523C41.8587 26.8145 41.8265 26.876 41.795 26.9368C41.5175 27.4618 41.1665 27.8705 40.481 27.7145C40.4243 27.7065 40.367 27.7048 40.31 27.7093ZM42.128 21.1685L41.1147 20.0315C41.03 19.9363 40.9835 20.0315 40.934 20.072C40.421 20.519 39.909 20.9675 39.398 21.4175C39.3545 21.4558 39.29 21.4813 39.281 21.5638L42.128 21.1685Z" fill="#162D4C"/>
<path d="M40.1577 36.9114L39.527 36.4614C37.82 35.2524 36.114 34.0427 34.409 32.8322C34.3546 32.788 34.289 32.76 34.2195 32.7513C34.1501 32.7425 34.0796 32.7534 34.016 32.7827C32.7335 33.2327 31.4465 33.6699 30.1677 34.1327C29.9015 34.2287 29.6645 34.1492 29.4177 34.1229C29.0322 34.0824 29.0322 34.0779 29.1132 33.6947C29.7582 30.6232 30.4035 27.5527 31.049 24.4832C31.0565 24.4487 31.0655 24.4142 31.0737 24.3789C31.1487 24.3962 31.166 24.4577 31.1952 24.5004C32.6532 26.6657 34.697 27.9377 37.2327 28.4597C38.2065 28.6554 39.1974 28.7536 40.1907 28.7529C40.3407 28.7529 40.3797 28.8002 40.388 28.9412C40.4142 29.3649 40.4532 29.7879 40.4922 30.2109C40.509 30.3659 40.4963 30.5227 40.4547 30.6729C40.3445 31.0569 40.244 31.4432 40.133 31.8264C40.1165 31.8755 40.1117 31.9278 40.119 31.9791C40.1263 32.0304 40.1455 32.0793 40.175 32.1219C40.8402 33.1937 41.4987 34.2684 42.1617 35.3409C42.2228 35.4346 42.2568 35.5434 42.26 35.6552C42.2787 36.2732 42.3027 36.8912 42.3282 37.5092C42.3328 37.6022 42.3162 37.695 42.2795 37.7807C41.993 38.4789 41.714 39.1802 41.4222 39.8762C41.3304 40.0809 41.2831 40.3028 41.2835 40.5272C41.2835 40.7259 41.264 40.9247 41.2527 41.1182C41.1972 41.1444 41.1732 41.1062 41.147 41.0837C40.097 40.2137 39.0545 39.3407 38.0037 38.4744C37.8807 38.3732 37.8867 38.3312 38.0187 38.2494C38.6727 37.8474 39.3222 37.4379 39.9725 37.0299C40.0272 36.9977 40.079 36.9632 40.1577 36.9114Z" fill="#162D4C"/>
<path d="M34.1628 33.4961C34.2242 33.5024 34.2812 33.5306 34.3233 33.5756C35.3008 34.2596 36.2781 34.9428 37.2551 35.6253C37.3691 35.7041 37.3976 35.7753 37.3676 35.9163C37.0676 37.3413 36.7856 38.7768 36.4931 40.2063C36.4652 40.3273 36.4834 40.4543 36.5441 40.5626C36.6626 40.7876 36.7691 41.0193 36.8778 41.2458C36.8223 41.3066 36.7631 41.2826 36.7113 41.2826C35.5181 41.2826 34.3248 41.2826 33.1308 41.2878C33.0795 41.2933 33.0279 41.2809 32.9846 41.2528C32.9413 41.2246 32.909 41.1825 32.8931 41.1333C32.8068 40.9398 32.7138 40.7486 32.6088 40.5641C32.5765 40.5119 32.5583 40.4521 32.5559 40.3907C32.5536 40.3294 32.5671 40.2684 32.5953 40.2138C33.0918 39.0356 33.5808 37.8543 34.0758 36.6761C34.1363 36.5339 34.1667 36.3806 34.1651 36.2261C34.1598 35.3193 34.1628 34.4141 34.1628 33.4961Z" fill="#162D4C"/>
<path d="M50.674 29.1808C48.4675 29.1808 46.4537 28.5208 44.5817 27.3808C43.9195 26.9789 43.2947 26.5183 42.715 26.0045C42.6047 25.907 42.607 25.8388 42.691 25.7315C43.1455 25.1495 43.756 24.9875 44.4587 25.0618C44.7049 25.0911 44.9383 25.1874 45.1337 25.34C46.6397 26.447 48.268 27.3088 50.095 27.7625C51.121 28.0158 52.1825 28.0934 53.2345 27.992C53.4827 27.9695 53.734 27.974 53.9845 27.9763C54.088 27.9763 54.2095 27.9853 54.2575 28.0993C54.3092 28.2275 54.229 28.3243 54.1405 28.412C53.9537 28.5789 53.7325 28.7026 53.4925 28.7743C52.7125 29.0443 51.9032 29.1455 51.0835 29.1785C50.9485 29.1853 50.8112 29.1808 50.674 29.1808Z" fill="#162D4C"/>
<path d="M45.0905 28.373C45.8262 28.7982 46.6154 29.1228 47.4373 29.3383C47.6421 29.3936 47.8499 29.4366 48.0598 29.4673C48.1835 29.4838 48.1993 29.5363 48.1873 29.6383C48.1637 29.9496 48.0942 30.2556 47.981 30.5465C47.5378 31.5778 47.0308 32.5813 46.604 33.6215C46.4263 34.0543 46.2425 34.4848 46.154 34.9468C46.0505 35.4718 46.4143 35.8535 46.9438 35.7583C47.0863 35.7328 47.129 35.7673 47.1553 35.8993C47.1943 36.1078 47.2152 36.3194 47.2175 36.5315C47.2219 36.5811 47.2105 36.6307 47.1849 36.6733C47.1593 36.7158 47.1208 36.7492 47.075 36.7685C46.4863 37.0723 45.926 36.9635 45.416 36.6065C44.8753 36.2278 44.666 35.6533 44.6345 35.0158C44.5925 34.2268 44.6968 33.4453 44.7988 32.6645C44.9308 31.6625 45.1453 30.6725 45.2443 29.6645C45.2765 29.336 45.1693 29.0225 45.14 28.7C45.128 28.601 45.11 28.5013 45.0905 28.373Z" fill="#162D4C"/>
<path d="M42.1293 21.1667L39.2793 21.562C39.2883 21.4795 39.3543 21.454 39.3963 21.4157C39.9068 20.9657 40.4188 20.5172 40.9323 20.0702C40.9818 20.0275 41.0283 19.9345 41.113 20.0297L42.1293 21.1667Z" fill="white"/>
</svg>
