<svg width="103" height="103" viewBox="0 0 103 103" fill="none" xmlns="http://www.w3.org/2000/svg">
<path d="M101.148 1.85547H1.75293V101.25H101.148V1.85547Z" fill="#162D4C"/>
<path d="M45.1699 16.738V16.6875H75.1429V16.74L45.1699 16.738Z" fill="#E4B935"/>
<path d="M45.1671 16.7383H75.1401C74.9135 17.828 74.691 18.9188 74.4592 20.0075C73.572 24.1735 72.6821 28.3381 71.7895 32.5014C71.429 34.1937 71.0685 35.887 70.7038 37.5772C70.6575 37.7832 70.6781 37.8564 70.9098 37.8595C71.7338 37.8718 72.5578 37.8595 73.3818 37.8275C73.7849 37.8035 74.1894 37.8298 74.5859 37.9058C75.3069 38.0583 75.5078 38.5784 75.0762 39.183C74.8349 39.4976 74.5211 39.7492 74.1616 39.9164C73.3489 40.3356 72.4693 40.5148 71.5742 40.6312C71.1331 40.6989 70.6876 40.7333 70.2414 40.7342C70.0683 40.7342 70.024 40.8145 69.9952 40.9536C69.7205 42.2583 69.4435 43.5657 69.164 44.8758L66.6209 56.8671C66.5694 57.1102 66.5179 57.3522 66.4695 57.5974C66.4448 57.7354 66.3954 57.8188 66.2378 57.79C66.1949 57.7858 66.1518 57.7858 66.109 57.79H36.7818C36.4275 57.79 36.4285 57.79 36.5048 57.4274C37.9729 50.514 39.4403 43.6007 40.907 36.6873C41.2345 35.1451 41.5631 33.6035 41.8927 32.0626C41.9213 31.9734 41.9154 31.8768 41.8762 31.7917C41.4385 30.9255 41.2994 29.9851 41.2077 29.0355C40.9739 26.6211 41.5353 24.315 42.1935 22.0263C42.384 21.3671 43.1009 20.9613 43.8826 21.0499C44.17 21.0818 44.2524 21.0035 44.306 20.7316C44.5666 19.4297 44.8519 18.1329 45.13 16.8341C45.1394 16.8011 45.1518 16.769 45.1671 16.7383ZM55.3641 38.0593C55.4407 38.051 55.5181 38.051 55.5948 38.0593C56.5362 38.2735 57.0182 37.7173 57.3993 36.9912C57.4426 36.9077 57.4869 36.8233 57.524 36.7378C57.7887 36.1352 57.7876 36.1342 57.3005 35.7078C57.2684 35.6776 57.2339 35.6501 57.1975 35.6254C56.9842 35.4956 56.9853 35.3566 57.1161 35.1444C57.5213 34.4852 58.1135 33.9615 58.8173 33.64C59.5211 33.3184 60.3046 33.2136 61.0682 33.3388C61.3294 33.3742 61.5757 33.4811 61.7799 33.6478C62.4494 34.1844 63.1416 34.6902 63.8482 35.1784C64.4981 35.6398 65.1765 36.0599 65.8793 36.436C66.1399 36.572 66.1543 36.5658 66.1306 36.2856C66.0853 35.7562 66.0328 35.2271 65.9731 34.6984C65.8402 33.5098 65.4807 32.4149 64.7206 31.4601C64.1757 30.7762 63.6576 30.0706 63.1014 29.3949C63.0473 29.3368 63.0072 29.267 62.9841 29.1909C62.9611 29.1149 62.9558 29.0346 62.9685 28.9561C63.0921 27.9818 63.0942 27.9756 62.4865 27.2051C61.1475 25.5077 59.5572 24.0533 57.9319 22.6381C57.8362 22.5656 57.7246 22.5168 57.6064 22.496C56.4827 22.2195 55.3331 22.0618 54.1765 22.0253C53.5049 21.9944 52.8828 22.0685 52.3317 22.4805C51.8816 22.8173 51.4047 22.873 50.8393 22.7792C49.0141 22.4754 47.1797 22.2261 45.3473 21.9666C44.8138 21.8914 44.2854 21.7606 43.7405 21.7873C43.2719 21.809 43.0113 21.9717 42.8928 22.358C42.3088 24.2655 41.8628 26.2009 41.9277 28.2145C41.9615 30.0729 42.5768 31.8739 43.687 33.3645C44.9229 35.0311 46.5957 36.1002 48.5084 36.8243C50.7136 37.6566 53.0187 37.9542 55.3589 38.0552L55.3641 38.0593ZM55.1581 50.7005C55.0499 50.7715 54.9788 50.8189 54.9067 50.8642C54.0137 51.4246 53.1217 51.9869 52.2236 52.539C52.0423 52.6503 52.0341 52.7079 52.203 52.848C53.645 54.0377 55.0808 55.2366 56.5197 56.4314C56.5558 56.4623 56.5887 56.5148 56.6649 56.4788C56.6804 56.213 56.7113 55.9401 56.7072 55.6671C56.7067 55.359 56.7716 55.0543 56.8977 54.7731C57.2984 53.8173 57.6816 52.8542 58.075 51.8953C58.1254 51.7777 58.1483 51.6502 58.142 51.5224C58.1069 50.6737 58.074 49.825 58.0482 48.9763C58.0439 48.8227 57.9972 48.6734 57.9133 48.5447C57.0028 47.0718 56.0984 45.5958 55.1848 44.1239C55.1443 44.0654 55.118 43.9983 55.108 43.9278C55.098 43.8574 55.1045 43.7856 55.1272 43.7181C55.2796 43.1918 55.4176 42.6613 55.569 42.134C55.6262 41.9276 55.6436 41.7123 55.6205 41.4995C55.567 40.9186 55.5175 40.3376 55.4774 39.7557C55.466 39.5621 55.4114 39.4982 55.2065 39.4972C53.8424 39.4981 52.4815 39.3632 51.1441 39.0944C47.6617 38.3734 44.855 36.6307 42.8527 33.6571C42.8125 33.5984 42.7929 33.5139 42.6858 33.4902C42.6745 33.5386 42.6621 33.586 42.6518 33.6334C41.7633 37.8481 40.8751 42.0636 39.9872 46.2797C39.876 46.806 39.876 46.8122 40.4054 46.8678C40.7473 46.9039 41.0728 47.0131 41.4354 46.8812C43.1915 46.2498 44.959 45.6504 46.7203 45.0272C46.8076 44.9871 46.9045 44.9721 46.9999 44.9841C47.0953 44.9962 47.1854 45.0346 47.26 45.0952C49.5981 46.7638 51.941 48.4262 54.2887 50.0825L55.1581 50.7005ZM46.9242 46.0068C46.9242 47.2675 46.9242 48.5107 46.9242 49.7549C46.9265 49.9672 46.8847 50.1776 46.8017 50.3729C46.1219 51.9911 45.4503 53.6133 44.7684 55.2314C44.7297 55.3064 44.7111 55.3901 44.7143 55.4744C44.7176 55.5587 44.7426 55.6407 44.787 55.7125C44.9312 55.9658 45.0589 56.2275 45.1774 56.4942C45.1992 56.5617 45.2435 56.6196 45.303 56.6582C45.3624 56.6968 45.4334 56.7139 45.5039 56.7064C47.1436 56.6971 48.7824 56.7064 50.4211 56.6992C50.4922 56.6992 50.5735 56.7322 50.6498 56.6487C50.4994 56.3397 50.3541 56.0194 50.1914 55.7104C50.108 55.5617 50.083 55.3873 50.1214 55.2211C50.5231 53.258 50.9145 51.2917 51.3223 49.3295C51.3635 49.1349 51.3223 49.0381 51.1678 48.9299C49.8233 47.994 48.4813 47.0546 47.1416 46.1118C47.0824 46.0489 47.0021 46.0101 46.916 46.0026L46.9242 46.0068ZM69.5997 40.0801C69.7882 40.0801 69.9767 40.0863 70.1652 40.0801C71.2909 40.0348 72.4023 39.8958 73.4735 39.525C73.8031 39.4266 74.107 39.2567 74.3634 39.0275C74.485 38.9111 74.5952 38.7741 74.5241 38.598C74.4613 38.4414 74.2913 38.4301 74.1492 38.4291C73.8062 38.4291 73.4612 38.4198 73.1192 38.4507C71.6725 38.5888 70.2129 38.4805 68.8025 38.1304C66.2934 37.5072 64.0573 36.3237 61.989 34.8035C61.7207 34.5938 61.4001 34.4617 61.062 34.4213C60.0969 34.3183 59.2585 34.5418 58.6343 35.3411C58.519 35.4884 58.5159 35.5821 58.6673 35.716C59.4634 36.4216 60.3214 37.0542 61.2309 37.6061C63.7956 39.1696 66.5612 40.0781 69.5914 40.076L69.5997 40.0801ZM61.9221 38.9657C61.9488 39.1449 61.9736 39.2747 61.987 39.4137C62.0292 39.8566 62.1744 40.2872 62.1301 40.7383C61.9942 42.1216 61.6996 43.4812 61.5183 44.8583C61.3782 45.9305 61.2351 47.0038 61.2927 48.0874C61.3391 48.9629 61.6234 49.7518 62.366 50.272C63.0664 50.7623 63.8358 50.9116 64.6444 50.4945C64.7072 50.4679 64.7601 50.4221 64.7952 50.3636C64.8304 50.3051 64.8461 50.237 64.8401 50.169C64.8368 49.8776 64.8082 49.5871 64.7546 49.3007C64.7185 49.1194 64.6598 49.072 64.4641 49.1071C63.7369 49.2379 63.2374 48.7146 63.3795 47.9926C63.5041 47.3581 63.7565 46.7669 63.9975 46.1726C64.5836 44.746 65.2799 43.3679 65.8886 41.9496C66.0441 41.5501 66.1395 41.1297 66.1718 40.7023C66.1883 40.5622 66.1718 40.4901 65.9967 40.4674C65.7085 40.4253 65.4231 40.3662 65.1418 40.2903C64.0143 39.9944 62.9314 39.5489 61.9221 38.9657Z" fill="white"/>
<path d="M55.8308 69.6898C56.1326 69.7383 56.4285 69.8184 56.7135 69.9287C57.6487 70.3191 58.1473 71.0432 58.1926 72.031C58.277 73.8551 57.3984 75.1951 55.9482 76.1994C55.0161 76.8413 53.9096 77.1821 52.7779 77.1758C51.2772 77.1872 49.7754 77.1758 48.2737 77.1758C47.872 77.1758 47.7813 77.0625 47.8617 76.6732C48.7701 72.271 49.6789 67.8688 50.5881 63.4665C50.6808 63.0144 50.7941 62.9258 51.2473 62.9258C52.2165 62.9258 53.1857 62.9258 54.156 62.9258C55.0531 62.9258 55.9379 63.0288 56.7681 63.3944C57.6683 63.791 58.344 64.4131 58.4408 65.439C58.5788 66.9026 58.0855 68.1335 56.9061 69.0563C56.5703 69.3038 56.21 69.516 55.8308 69.6898ZM51.8581 75.5124V75.4969C52.1753 75.4969 52.4926 75.5103 52.8088 75.4969C54.3321 75.4238 55.3312 74.5452 55.6062 73.0476C55.8287 71.8301 55.2375 70.9876 54.0231 70.8042C53.2651 70.692 52.4998 70.7775 51.7386 70.7507C51.6129 70.7507 51.6057 70.8207 51.5882 70.9072C51.5038 71.3265 51.4162 71.7457 51.3287 72.1639C51.1144 73.1939 50.9043 74.2239 50.6828 75.2539C50.6375 75.4599 50.6767 75.5371 50.9074 75.5216C51.2226 75.4969 51.5408 75.5124 51.8581 75.5124ZM52.713 69.0841C53.0381 69.1038 53.3645 69.0851 53.6853 69.0285C54.8688 68.7576 55.7721 67.704 55.8895 66.4535C55.9832 65.4596 55.5455 64.8684 54.5721 64.6685C54.1406 64.58 53.7028 64.6047 53.2681 64.5769C52.9694 64.5573 52.8685 64.6479 52.8119 64.9456C52.5636 66.2558 52.2886 67.5608 52.0085 68.8658C51.9642 69.0718 52.026 69.0955 52.199 69.0841C52.372 69.0728 52.541 69.0841 52.713 69.0841Z" fill="white"/>
<path d="M67.8223 68.1633C67.9572 67.8286 68.0819 67.5453 68.1849 67.26C68.2139 67.1472 68.2825 67.0486 68.3782 66.9823C68.4739 66.9159 68.5902 66.8862 68.706 66.8985C69.1438 66.9078 69.5815 66.8985 70.0193 66.8985C70.3437 66.8985 70.4385 67.019 70.3767 67.329C69.896 69.7042 69.4154 72.0797 68.9347 74.4556C68.8858 74.6472 68.8691 74.8456 68.8853 75.0427C68.9295 75.3723 69.0398 75.4887 69.3694 75.5319C69.5754 75.5587 69.6619 75.672 69.6269 75.8657C69.5681 76.1942 69.5002 76.5218 69.4209 76.8462C69.4039 76.9453 69.3513 77.0348 69.2729 77.0977C69.1946 77.1607 69.0959 77.1929 68.9955 77.1882C68.5833 77.2074 68.1705 77.1671 67.7698 77.0687C67.1363 76.9018 66.7902 76.4929 66.7099 75.8327C66.7006 75.7575 66.6975 75.6813 66.6903 75.5927C66.5791 75.6195 66.5399 75.7122 66.4843 75.7761C65.2071 77.1707 63.625 77.6651 61.7813 77.3447C60.5392 77.1284 59.7667 76.3529 59.4886 75.1138C59.2506 74.058 59.3784 73.0157 59.5916 71.9764C59.8429 70.7404 60.2662 69.5755 61.0336 68.5475C62.3592 66.7563 64.4933 66.3763 66.1166 66.7831C66.8675 66.9778 67.4216 67.4331 67.8223 68.1633ZM61.7453 73.8747C61.7455 74.107 61.7655 74.3389 61.805 74.5679C61.9173 75.2518 62.2943 75.6308 62.9782 75.7452C64.3172 75.9697 65.5985 75.3877 66.2649 74.1868C66.9258 72.9773 67.2482 71.612 67.1981 70.2347C67.1744 69.2603 66.712 68.6557 65.8921 68.4157C65.411 68.2837 64.9059 68.2643 64.4161 68.359C63.5488 68.5053 63.0431 69.0862 62.6888 69.8257C62.0749 71.105 61.8565 72.478 61.7453 73.8747Z" fill="white"/>
<path d="M87.6864 63.0156C87.4014 64.4027 87.1158 65.787 86.8295 67.1686C86.5452 68.5519 86.2619 69.9352 85.9756 71.3277C86.1095 71.3195 86.1527 71.2247 86.2156 71.1629C87.502 69.8888 88.7906 68.6168 90.0678 67.3334C90.1978 67.1915 90.3575 67.08 90.5356 67.0068C90.7136 66.9337 90.9055 66.9006 91.0978 66.9101C91.5685 66.9276 92.0413 66.9101 92.513 66.9193C92.616 66.9193 92.7458 66.8915 92.7911 66.9945C92.8364 67.0975 92.7108 67.1696 92.6397 67.2355C91.0603 68.7222 89.4762 70.2061 87.8873 71.6872C87.7204 71.8427 87.7204 71.9395 87.8389 72.1229C88.8235 73.6483 89.7959 75.182 90.7754 76.7126C90.8217 76.7847 90.8681 76.8578 90.9083 76.932C90.9927 77.0865 90.9464 77.1946 90.7713 77.1956C90.0245 77.1956 89.2778 77.2028 88.532 77.1864C88.3085 77.1864 88.1798 77.0041 88.0706 76.8176C87.3297 75.5445 86.586 74.2742 85.8396 73.0066C85.7943 72.9294 85.7727 72.8305 85.6583 72.7769C85.4462 73.8069 85.2371 74.8235 85.0259 75.8422C84.96 76.1615 84.8972 76.4808 84.8251 76.7981C84.753 77.1153 84.6325 77.2008 84.3245 77.2028C83.8445 77.2028 83.3635 77.2028 82.8825 77.2028C82.454 77.2028 82.3737 77.1081 82.4592 76.6971C82.7228 75.423 82.9906 74.1489 83.2543 72.8738C83.8325 70.0921 84.4062 67.3145 84.9755 64.5411C84.9844 64.4704 85.0115 64.4033 85.0541 64.3463C85.0967 64.2892 85.1533 64.2442 85.2185 64.2156C85.955 63.851 86.6853 63.474 87.4186 63.1042C87.4966 63.0478 87.5902 63.0169 87.6864 63.0156Z" fill="white"/>
<path d="M74.9968 68.5597C75.3539 68.0816 75.766 67.647 76.2245 67.265C77.307 66.3792 79.5009 66.5172 80.5186 67.4473C81.3426 68.2023 81.5661 69.1695 81.3879 70.218C81.1562 71.5766 80.8482 72.9218 80.5794 74.2741C80.5206 74.5677 80.465 74.8654 80.5464 75.1661C80.603 75.3773 80.6937 75.5472 80.9584 75.5452C81.1809 75.5452 81.2674 75.6811 81.2303 75.8861C81.1716 76.2136 81.1057 76.5422 81.0295 76.8667C81.0119 76.9618 80.9605 77.0474 80.8848 77.1076C80.8091 77.1678 80.7141 77.1985 80.6175 77.1942C80.2056 77.2167 79.7927 77.1747 79.3938 77.0696C78.4668 76.809 78.0095 76.1426 78.0548 75.1126C78.0847 74.4132 78.2897 73.7458 78.4122 73.0639C78.5791 72.1369 78.8582 71.2305 78.9097 70.2829C78.9216 70.0949 78.9216 69.9064 78.9097 69.7185C78.8376 68.6782 78.1887 68.1817 77.168 68.3547C76.8492 68.4063 76.5448 68.5247 76.275 68.7022C76.0052 68.8797 75.776 69.1123 75.6024 69.3847C75.143 70.0584 74.9483 70.8267 74.7856 71.6116C74.4306 73.3214 74.0725 75.0312 73.7113 76.741C73.6351 77.1015 73.5125 77.1952 73.1438 77.1963C72.6463 77.1963 72.1478 77.1963 71.6503 77.1963C71.3341 77.1963 71.2383 77.0665 71.298 76.7554C71.7787 74.4063 72.2614 72.0572 72.7462 69.7082C72.7998 69.4486 72.8636 69.1932 72.7853 68.9212C72.7235 68.7152 72.6123 68.5813 72.3733 68.5618C72.086 68.5381 72.0242 68.4382 72.0819 68.1498C72.1395 67.8614 72.1972 67.5781 72.257 67.2938C72.27 67.1855 72.3229 67.086 72.4053 67.0146C72.4878 66.9432 72.5939 66.905 72.7029 66.9076C73.1236 66.8807 73.5458 66.9217 73.9534 67.0291C74.6321 67.2259 74.9154 67.573 74.9834 68.2754C74.9834 68.3496 74.9834 68.4238 74.9968 68.5597Z" fill="white"/>
<path d="M14.8426 69.0599H16.3979C17.1704 69.0599 17.9429 69.0599 18.7154 69.0599C19.0872 69.0599 19.1769 69.1691 19.1037 69.5337C19.046 69.819 18.9842 70.1033 18.9204 70.3876C18.839 70.746 18.7144 70.8449 18.324 70.8449C17.1395 70.8449 15.955 70.8449 14.7715 70.8367C14.546 70.8367 14.4522 70.8799 14.4038 71.124C14.0454 72.9389 13.6643 74.7486 13.2925 76.5614C13.1895 77.0764 13.1071 77.1464 12.5715 77.1464C12.0822 77.1464 11.593 77.1464 11.1047 77.1464C10.7504 77.1464 10.6588 77.0321 10.7309 76.684C11.1635 74.5869 11.5971 72.4905 12.0317 70.3948C12.5055 68.1048 12.978 65.8151 13.449 63.5257C13.5644 62.9654 13.6416 62.8974 14.2205 62.8984L20.9155 62.9108C21.3934 62.9108 21.4655 62.9984 21.3677 63.4547C21.31 63.7225 21.2554 63.9913 21.1915 64.2581C21.1122 64.5907 20.9948 64.6834 20.6528 64.6834C19.1078 64.6834 17.5628 64.6834 16.0178 64.6834C15.8118 64.6834 15.7253 64.7216 15.6821 64.9409C15.4143 66.3057 15.1279 67.6715 14.8426 69.0599Z" fill="white"/>
<path d="M35.1047 77.4045C34.2895 77.397 33.4808 77.2578 32.7099 76.9925C32.4383 76.908 32.1909 76.7593 31.9889 76.5589C31.7829 76.3436 31.7829 76.1469 31.9632 75.9162C32.0806 75.7689 32.2114 75.6329 32.3371 75.4908C32.6461 75.1375 32.6976 75.1251 33.1611 75.2848C33.8038 75.5011 34.4506 75.6968 35.1335 75.7308C35.7381 75.7627 36.3324 75.739 36.9031 75.5063C37.1277 75.4182 37.3269 75.2755 37.4826 75.0912C37.6383 74.9069 37.7457 74.6867 37.795 74.4505C37.8908 74.0787 37.7827 73.8222 37.4562 73.6162C37.1086 73.4122 36.737 73.2524 36.35 73.1403C35.9112 72.9982 35.4734 72.8447 35.0274 72.7283C33.4309 72.3029 33.0467 71.0989 33.3588 69.7279C33.7307 68.0954 35.0223 66.947 36.7393 66.7018C37.9619 66.5298 39.1691 66.5988 40.3206 67.1066C40.552 67.198 40.7656 67.3291 40.952 67.4939C41.1436 67.6772 41.158 67.8297 40.9932 68.0326C40.7872 68.2777 40.573 68.5084 40.368 68.7536C40.265 68.8741 40.1527 68.8658 40.0209 68.8277C39.5193 68.6846 39.0403 68.4652 38.5243 68.3714C37.9362 68.2684 37.347 68.2324 36.7661 68.3992C36.5156 68.4654 36.2863 68.5949 36.1003 68.7753C35.9143 68.9557 35.7779 69.1809 35.7041 69.4292C35.5187 69.9803 35.7217 70.3738 36.2758 70.5478C36.9618 70.7631 37.6508 70.967 38.3358 71.1761C38.6821 71.2723 39.0152 71.4107 39.3277 71.5881C39.9065 71.9332 40.1929 72.4513 40.2269 73.1136C40.3185 74.8913 39.3617 76.3014 37.5983 76.9936C36.8413 77.2902 36.0523 77.4076 35.1047 77.4045Z" fill="white"/>
<path d="M43.7127 68.443C43.3986 68.443 43.0813 68.443 42.7651 68.443C42.3984 68.443 42.3171 68.3472 42.3871 67.9959C42.4376 67.7436 42.4901 67.4923 42.5509 67.243C42.568 67.1398 42.6227 67.0466 42.7045 66.9814C42.7863 66.9161 42.8894 66.8835 42.9938 66.8897C43.277 66.8897 43.5613 66.8732 43.8435 66.8897C44.0331 66.9031 44.0907 66.831 44.1206 66.6559C44.1989 66.1924 44.2998 65.7289 44.3884 65.2685C44.4049 65.184 44.4121 65.1068 44.5058 65.0625C45.3535 64.6361 46.2002 64.2055 47.0716 63.7637C47.0942 64.0407 47.0046 64.2725 46.9603 64.5073C46.8254 65.2283 46.6781 65.9359 46.5257 66.6487C46.4855 66.8351 46.5133 66.9062 46.7265 66.8949C47.0767 66.8774 47.43 66.8866 47.7812 66.8949C48.0655 66.9 48.1541 67.003 48.1036 67.2842C48.0531 67.5654 47.9924 67.8208 47.9275 68.0866C47.8626 68.3523 47.6978 68.4543 47.4393 68.4522C47.0705 68.4522 46.7008 68.4522 46.332 68.4522C46.2002 68.4522 46.1332 68.4821 46.1044 68.6222C45.7219 70.538 45.336 72.4524 44.9467 74.3655C44.8994 74.5849 44.9104 74.8129 44.9786 75.0267C45.0306 75.1734 45.1279 75.2998 45.2563 75.3878C45.3848 75.4757 45.5378 75.5206 45.6934 75.516C46.3742 75.5335 46.3804 75.5397 46.2506 76.2102C46.2105 76.4162 46.1652 76.6294 46.1167 76.8375C46.1025 76.9326 46.0543 77.0194 45.981 77.0817C45.9077 77.144 45.8143 77.1776 45.7181 77.1763C45.1702 77.1897 44.6171 77.2258 44.0701 77.129C42.9989 76.9374 42.4685 76.305 42.4499 75.2049C42.4376 74.4839 42.6343 73.7969 42.7754 73.1006C43.0844 71.5731 43.4027 70.0467 43.7158 68.5192C43.7182 68.4937 43.7171 68.4681 43.7127 68.443Z" fill="white"/>
<path d="M29.4893 68.0394C29.5891 67.9115 29.6953 67.7887 29.8076 67.6717C30.577 66.9424 31.5174 66.6983 32.5494 66.7179C32.7554 66.7179 32.8451 66.7838 32.7894 67.0155C32.6782 67.4729 32.5927 67.9364 32.4938 68.3968C32.4063 68.8088 32.2713 68.8768 31.8604 68.8263C30.8067 68.6975 29.6541 69.0601 29.3111 70.5773C28.8538 72.6064 28.4161 74.6406 27.9721 76.6728C27.8691 77.158 27.7785 77.2321 27.2758 77.2311C26.8216 77.2311 26.3664 77.2311 25.9121 77.2311C25.5568 77.2311 25.4692 77.1168 25.5444 76.7666C26.0505 74.414 26.5573 72.0622 27.0647 69.7111C27.1191 69.5036 27.1461 69.29 27.145 69.0755C27.1286 68.7336 27.005 68.5914 26.662 68.5358C26.456 68.5029 26.3591 68.3875 26.3993 68.1774C26.458 67.8684 26.5167 67.5594 26.5868 67.2504C26.6012 67.1464 26.6533 67.0513 26.7333 66.9833C26.8133 66.9153 26.9155 66.8791 27.0204 66.8816C27.5519 66.8734 28.0844 66.8816 28.6004 67.0392C29.0804 67.1855 29.375 67.4945 29.4162 68.0157L29.4893 68.0394Z" fill="white"/>
<path d="M20.4792 75.43C20.5009 74.6956 20.713 73.9942 20.8655 73.2835C21.2847 71.3265 21.7152 69.3695 22.1427 67.4125C22.221 67.053 22.3487 66.9552 22.7092 66.9531C23.1898 66.9531 23.6705 66.9531 24.1512 66.9531C24.5127 66.9531 24.6003 67.0561 24.5251 67.4053C24.019 69.7496 23.5112 72.0932 23.0017 74.4361C22.932 74.7199 22.9066 75.0128 22.9265 75.3044C22.9574 75.6329 23.0738 75.7576 23.391 75.8049C23.5806 75.8338 23.6681 75.9461 23.6362 76.1263C23.5764 76.4641 23.5085 76.7999 23.4302 77.1326C23.4106 77.2216 23.3608 77.301 23.2893 77.3574C23.2177 77.4137 23.1288 77.4435 23.0377 77.4416C22.5227 77.4581 22.0077 77.4169 21.5236 77.2119C20.8057 76.9132 20.4607 76.3097 20.4792 75.43Z" fill="white"/>
<path d="M56.4629 83.4784C57.3322 83.9718 57.4085 84.9616 56.6689 85.6754C56.1292 86.2007 54.9509 86.3696 54.2814 86.0194C54.1253 85.9443 53.9939 85.8262 53.9027 85.6789C53.8114 85.5317 53.7641 85.3614 53.7664 85.1882C53.7461 84.8909 53.8098 84.5939 53.9502 84.3311C54.0907 84.0683 54.3021 83.8503 54.5605 83.7019C54.6893 83.6216 54.8304 83.5608 54.9643 83.4959C54.9643 83.4763 54.9643 83.4527 54.956 83.4485C54.2237 83.0695 54.3864 82.3742 54.7696 81.8294C54.9633 81.5739 55.2408 81.3948 55.5534 81.3236C55.9031 81.2314 56.2689 81.2173 56.6246 81.2824C56.9666 81.3391 57.2797 81.4812 57.3858 81.8479C57.4506 82.0433 57.4642 82.2519 57.4254 82.4541C57.3867 82.6562 57.2968 82.845 57.1643 83.0026C56.982 83.2168 56.741 83.3455 56.4629 83.4784ZM54.6439 84.9307C54.6363 85.0775 54.6834 85.2219 54.776 85.3361C54.8686 85.4502 55.0003 85.526 55.1455 85.5487C55.8264 85.695 56.4845 84.9987 56.3146 84.3127C56.2873 84.1771 56.2139 84.0551 56.1069 83.9675C55.9999 83.8798 55.8658 83.8318 55.7275 83.8317C55.1476 83.807 54.6419 84.3179 54.6439 84.9307ZM56.0684 81.8737C55.97 81.873 55.8724 81.8917 55.7812 81.9288C55.6901 81.9659 55.6071 82.0205 55.5371 82.0897C55.467 82.1589 55.4113 82.2412 55.3731 82.3319C55.3349 82.4226 55.315 82.5199 55.3145 82.6184C55.3103 82.6868 55.3198 82.7553 55.3425 82.82C55.3651 82.8846 55.4005 82.9441 55.4464 82.995C55.4924 83.0458 55.548 83.087 55.6101 83.116C55.6721 83.1451 55.7394 83.1615 55.8078 83.1643C56.1838 83.1704 56.5803 82.7523 56.5886 82.3495C56.5937 82.0673 56.3836 81.8757 56.0684 81.8737Z" fill="white"/>
<path d="M61.2277 82.2084C61.2065 81.9791 61.1103 81.7632 60.9541 81.594C60.7979 81.4248 60.5904 81.3117 60.3635 81.2722C60.041 81.2145 59.7091 81.2404 59.3995 81.3474C58.5116 81.6677 58.1892 82.3907 58.1058 83.2446C58.0182 84.1634 58.5518 84.6372 59.4726 84.53C59.8207 84.4888 60.0607 84.2942 60.3079 84.0665C60.2837 84.3664 60.1888 84.6562 60.0308 84.9122C59.7641 85.3942 59.3655 85.6394 58.801 85.5446C58.614 85.5232 58.4295 85.4839 58.25 85.4272C57.941 85.3108 57.9338 85.5837 57.8462 85.7249C57.737 85.901 57.9276 85.9391 58.0285 85.9885C58.8803 86.4119 59.8156 86.2295 60.3975 85.457C61.1268 84.5022 61.3822 83.395 61.2277 82.2084ZM60.4902 82.6647C60.4526 82.9546 60.3592 83.2344 60.2152 83.4887C60.0525 83.7555 59.829 83.9162 59.5004 83.9007C59.0884 83.8904 58.9081 83.706 58.9174 83.2343C58.9364 82.9546 59.0092 82.6811 59.1317 82.4289C59.2086 82.2555 59.3365 82.1096 59.4983 82.0107C59.7383 81.8716 60.003 81.7964 60.2513 81.955C60.4995 82.1137 60.5366 82.3866 60.4902 82.6647Z" fill="white"/>
<path d="M63.5522 84.9746H61.7291C61.4767 84.9746 61.4283 84.8953 61.5437 84.6656C61.5895 84.5839 61.6455 84.5084 61.7105 84.441C62.5438 83.4852 63.3905 82.5407 64.2072 81.5714C64.4472 81.2861 64.7222 81.316 65.0199 81.3315C65.1878 81.3397 65.1229 81.4787 65.1033 81.5694C64.9578 82.2821 64.8108 82.9942 64.6625 83.7056C64.6372 83.8664 64.6028 84.0256 64.5595 84.1825C64.5008 84.3638 64.5811 84.3741 64.7295 84.3823C64.8458 84.3885 65.0529 84.2793 65.0477 84.5368C65.0405 84.887 64.9643 84.9983 64.7027 84.9704C64.4411 84.9426 64.3494 85.0467 64.3329 85.2794C64.3211 85.3641 64.3042 85.4481 64.2824 85.5308C64.1537 86.1611 64.1537 86.156 63.5099 86.121C63.3503 86.1117 63.3214 86.0478 63.3503 85.915C63.4172 85.6132 63.4801 85.3114 63.5522 84.9746ZM64.0342 82.622L62.5665 84.373C62.9393 84.373 63.2432 84.373 63.547 84.373C63.566 84.3756 63.5852 84.3743 63.6036 84.369C63.622 84.3638 63.6391 84.3548 63.6538 84.3426C63.6685 84.3304 63.6806 84.3152 63.6891 84.2981C63.6977 84.281 63.7026 84.2624 63.7036 84.2433C63.8066 83.7283 63.9127 83.2112 64.0332 82.621L64.0342 82.622Z" fill="white"/>
<path d="M34.17 86.1774C33.7768 86.1768 33.3875 86.0999 33.0236 85.9508C32.933 85.9117 32.7548 85.888 32.8362 85.7448C32.9175 85.6016 32.932 85.3235 33.2224 85.3925C33.6202 85.4981 34.0305 85.5487 34.4419 85.5429C34.6582 85.5378 34.8702 85.481 35.0599 85.3771C35.5389 85.1093 35.5564 84.5984 35.0826 84.3193C34.8495 84.1955 34.6086 84.0868 34.3616 83.9938C33.345 83.556 33.1565 82.5642 33.963 81.7958C34.6119 81.1778 35.3937 81.1252 36.2207 81.3374C36.2949 81.357 36.367 81.3838 36.4401 81.4085C36.8326 81.5434 36.8398 81.5723 36.6255 81.9111C36.6144 81.936 36.5985 81.9584 36.5786 81.977C36.5588 81.9956 36.5355 82.0102 36.51 82.0198C36.4845 82.0293 36.4574 82.0338 36.4302 82.0328C36.403 82.0318 36.3763 82.0255 36.3516 82.0141C35.9495 81.8888 35.527 81.8427 35.1073 81.8782C34.965 81.887 34.8268 81.9295 34.7042 82.0022C34.5815 82.075 34.4778 82.1758 34.4018 82.2964C34.1958 82.6311 34.272 82.935 34.6232 83.107C34.8611 83.2234 35.1125 83.313 35.3555 83.416C36.4041 83.8609 36.5524 85.031 35.6522 85.7335C35.2773 86.0219 34.7818 86.1743 34.17 86.1774Z" fill="white"/>
<path d="M40.2484 83.1697C40.4883 82.9112 40.6892 82.667 41.0239 82.5929C41.9314 82.3931 42.5576 82.9987 42.3722 83.9072C42.2857 84.3346 42.194 84.761 42.1116 85.1895C42.0828 85.342 42.0653 85.4789 42.2703 85.5634C42.4309 85.6293 42.2919 85.789 42.2867 85.9064C42.2887 85.932 42.2854 85.9578 42.2769 85.982C42.2684 86.0063 42.255 86.0285 42.2375 86.0473C42.2199 86.0661 42.1987 86.081 42.1751 86.0912C42.1515 86.1013 42.126 86.1064 42.1003 86.1062C41.5379 86.1701 41.1857 85.8085 41.2845 85.2482C41.3587 84.827 41.4493 84.4088 41.5317 83.9885C41.5468 83.9208 41.5561 83.8519 41.5595 83.7825C41.5668 83.5384 41.5596 83.2912 41.301 83.1645C41.0785 83.0543 40.7294 83.1481 40.5295 83.3705C40.3297 83.593 40.2381 83.8855 40.1763 84.1842C40.0568 84.7538 39.9332 85.3224 39.8209 85.894C39.8198 85.9257 39.812 85.9567 39.7981 85.9852C39.7842 86.0136 39.7644 86.0388 39.7402 86.0591C39.7159 86.0794 39.6876 86.0944 39.6571 86.103C39.6267 86.1117 39.5947 86.1138 39.5634 86.1093C38.9609 86.1237 38.9619 86.1289 39.0834 85.5387C39.2173 84.8843 39.3502 84.2302 39.482 83.5765C39.514 83.4169 39.5593 83.248 39.3234 83.1882C39.2204 83.1614 39.2431 83.0636 39.2699 82.9956C39.3172 82.8772 39.2585 82.7052 39.4398 82.6537C39.527 82.6261 39.6192 82.618 39.7099 82.6299C39.8006 82.6419 39.8876 82.6735 39.9647 82.7228C40.0418 82.772 40.1071 82.8375 40.1561 82.9147C40.2052 82.9919 40.2366 83.079 40.2484 83.1697Z" fill="white"/>
<path d="M47.9674 84.6575C47.7449 84.6575 47.5204 84.6688 47.2989 84.6575C47.1341 84.6472 47.0929 84.7172 47.0929 84.8635C47.0713 85.4052 47.3638 85.6926 47.9005 85.6267C48.1212 85.5989 48.3385 85.5492 48.5494 85.4784C48.7131 85.4238 48.7739 85.4784 48.8388 85.6174C48.9037 85.7565 48.8748 85.8636 48.7358 85.9336C48.3125 86.1486 47.8357 86.2352 47.3638 86.1829C46.5656 86.1046 46.2041 85.6421 46.2792 84.8387C46.3115 84.4022 46.4265 83.9757 46.6181 83.5821C47.0126 82.7962 47.7511 82.4337 48.5978 82.6036C49.0901 82.7066 49.3806 83.029 49.4053 83.5306C49.4136 83.6848 49.4032 83.8394 49.3744 83.991C49.2714 84.4875 49.0654 84.6554 48.5597 84.6657C48.3629 84.6657 48.1652 84.6657 47.9684 84.6657L47.9674 84.6575ZM47.2289 84.094H48.3279C48.37 84.099 48.4127 84.092 48.4509 84.0738C48.4892 84.0556 48.5216 84.0269 48.5442 83.991C48.6554 83.8005 48.6029 83.4009 48.4412 83.2443C48.2795 83.0877 48.0385 83.0754 47.7995 83.2113C47.4648 83.3998 47.3422 83.7366 47.2289 84.094Z" fill="white"/>
<path d="M52.3854 82.3138C52.1073 82.4292 51.858 82.5332 51.6067 82.6331C51.5449 82.6578 51.4553 82.7011 51.4172 82.6764C51.343 82.629 51.4017 82.5353 51.4058 82.4611C51.4213 82.1933 51.5583 82.0378 51.8178 81.9399C52.2896 81.7586 52.7448 81.5434 53.2114 81.3446C53.2794 81.3147 53.3546 81.2416 53.4174 81.2848C53.4802 81.3281 53.4267 81.428 53.4174 81.498C53.1218 82.9503 52.821 84.4016 52.5285 85.8539C52.4894 86.0486 52.4029 86.1186 52.2 86.1155C51.6139 86.1073 51.618 86.1155 51.7385 85.5439C51.9528 84.5304 52.1608 83.5148 52.3709 82.5002C52.3781 82.4518 52.3771 82.3993 52.3854 82.3138Z" fill="white"/>
<path d="M43.0456 84.9462C43.0562 84.473 43.1693 84.0077 43.3772 83.5825C43.8067 82.6864 44.9521 82.2837 45.8266 82.7245C45.9378 82.7812 46.1448 82.81 46.0717 83.015C45.9883 83.2436 45.7854 83.3415 45.5856 83.2467C44.7976 82.8759 44.2404 83.3425 44.0292 83.9997C43.9157 84.3236 43.864 84.666 43.8768 85.0091C43.9036 85.4355 44.1683 85.6621 44.5978 85.6271C44.8016 85.6002 45.0015 85.549 45.1931 85.4746C45.2961 85.4406 45.3888 85.4077 45.4414 85.5508C45.4846 85.6693 45.568 85.7723 45.4269 85.8928C44.9933 86.2626 43.8747 86.2914 43.4287 85.935C43.1033 85.6817 43.0373 85.3273 43.0456 84.9462Z" fill="white"/>
<path d="M36.9365 85.3317C37.0313 84.8589 37.1425 84.3017 37.2589 83.7362C37.3187 83.4426 37.3887 83.1511 37.4402 82.8566C37.441 82.8249 37.4486 82.7937 37.4623 82.7652C37.476 82.7366 37.4957 82.7113 37.5199 82.6909C37.5441 82.6704 37.5724 82.6554 37.6029 82.6466C37.6333 82.6379 37.6653 82.6358 37.6967 82.6403C38.3054 82.6217 38.3023 82.6166 38.1808 83.2037C38.0458 83.8577 37.9119 84.5107 37.7832 85.1658C37.7523 85.3244 37.7224 85.4748 37.9439 85.5603C38.1004 85.6201 37.9676 85.7663 37.9624 85.8806C37.9573 85.995 37.9264 86.0784 37.7955 86.1042C37.3331 86.1948 36.9365 85.8827 36.9365 85.3317Z" fill="white"/>
<path d="M38.1847 81.1703C38.2877 81.1703 38.367 81.1703 38.4432 81.1703C38.5194 81.1703 38.5884 81.2033 38.573 81.2898C38.538 81.4824 38.4947 81.6729 38.4473 81.8625C38.4288 81.9346 38.3629 81.9593 38.2908 81.9727C37.6831 82.0819 37.613 81.9964 37.7366 81.4C37.7995 81.0766 38.0322 81.1981 38.1847 81.1703Z" fill="white"/>
<path d="M55.3597 38.0519C53.0196 37.9489 50.7145 37.6533 48.5072 36.8159C46.5945 36.0949 44.9217 35.0227 43.6857 33.3562C42.5756 31.8655 41.9603 30.0645 41.9265 28.2062C41.8657 26.1925 42.3076 24.2571 42.8916 22.3496C43.0101 21.9633 43.2706 21.8006 43.7393 21.779C44.2842 21.7522 44.8126 21.882 45.3461 21.9582C47.1785 22.2177 49.0129 22.467 50.838 22.7709C51.4025 22.8646 51.8804 22.809 52.3305 22.4722C52.8816 22.0602 53.5037 21.986 54.1752 22.0169C55.3325 22.056 56.4825 22.2165 57.6062 22.4958C57.7244 22.5167 57.836 22.5654 57.9317 22.638C59.557 24.0532 61.1442 25.5076 62.4863 27.205C63.094 27.9734 63.092 27.9796 62.9684 28.956C62.9556 29.0344 62.9609 29.1147 62.984 29.1908C63.007 29.2668 63.0471 29.3366 63.1012 29.3948C63.6574 30.0705 64.1755 30.776 64.7204 31.4599C65.4805 32.4148 65.84 33.5096 65.9729 34.6983C66.0326 35.2263 66.0851 35.7554 66.1305 36.2855C66.1542 36.5656 66.1397 36.5718 65.8791 36.4359C65.1763 36.0597 64.498 35.6397 63.848 35.1782C63.1414 34.69 62.4492 34.1843 61.7797 33.6477C61.5755 33.481 61.3292 33.374 61.068 33.3387C60.3044 33.2134 59.5209 33.3183 58.8171 33.6398C58.1133 33.9614 57.5211 34.4851 57.1159 35.1443C56.9851 35.3564 56.9841 35.4955 57.1973 35.6253C57.2338 35.6499 57.2682 35.6775 57.3003 35.7077C57.7875 36.13 57.7885 36.131 57.5238 36.7377C57.4867 36.8232 57.4424 36.9076 57.3992 36.991C57.0181 37.712 56.536 38.2734 55.5946 38.0592C55.5168 38.0482 55.4381 38.0458 55.3597 38.0519ZM57.8565 29.0693L56.4649 27.5078C56.3486 27.377 56.2847 27.5078 56.2167 27.5634C55.5122 28.1773 54.809 28.7933 54.1073 29.4113C54.0475 29.4638 53.959 29.4988 53.9466 29.6121L57.8565 29.0693Z" fill="#162D4C"/>
<path d="M55.1496 50.6937L54.2833 50.0757C51.9391 48.4154 49.5962 46.754 47.2546 45.0916C47.18 45.031 47.0899 44.9925 46.9945 44.9805C46.8991 44.9685 46.8022 44.9834 46.7149 45.0236C44.9536 45.6416 43.1861 46.2421 41.43 46.8776C41.0643 47.0094 40.7388 46.9002 40.4 46.8642C39.8705 46.8086 39.8705 46.8024 39.9818 46.2761C40.8676 42.0579 41.7537 37.841 42.6402 33.6256C42.6505 33.5782 42.6629 33.5308 42.6742 33.4824C42.7772 33.5061 42.8009 33.5906 42.8411 33.6493C44.8434 36.6229 47.6501 38.3698 51.1326 39.0867C52.4699 39.3554 53.8308 39.4904 55.1949 39.4894C55.4009 39.4894 55.4545 39.5543 55.4658 39.7479C55.5018 40.3299 55.5554 40.9108 55.6089 41.4917C55.632 41.7045 55.6146 41.9198 55.5574 42.1262C55.406 42.6535 55.268 43.184 55.1156 43.7103C55.093 43.7778 55.0864 43.8496 55.0964 43.9201C55.1064 43.9905 55.1327 44.0577 55.1733 44.1161C56.0869 45.588 56.9912 47.064 57.9017 48.5369C57.9856 48.6656 58.0323 48.8149 58.0367 48.9685C58.0624 49.8172 58.0954 50.6659 58.1304 51.5146C58.1367 51.6424 58.1138 51.7699 58.0634 51.8875C57.67 52.8464 57.2868 53.8095 56.8862 54.7653C56.76 55.0465 56.6951 55.3512 56.6956 55.6594C56.6956 55.9323 56.6688 56.2053 56.6534 56.471C56.5771 56.507 56.5442 56.4545 56.5081 56.4236C55.0661 55.2288 53.6344 54.0299 52.1914 52.8402C52.0225 52.7012 52.0307 52.6435 52.212 52.5312C53.1102 51.9792 54.0021 51.4168 54.8952 50.8565C54.9703 50.8122 55.0414 50.7648 55.1496 50.6937Z" fill="#162D4C"/>
<path d="M46.9172 46.002C47.0014 46.0106 47.0797 46.0494 47.1376 46.1111C48.48 47.0505 49.8221 47.9888 51.1638 48.9261C51.3204 49.0343 51.3595 49.1321 51.3183 49.3258C50.9063 51.2828 50.5191 53.2542 50.1174 55.2174C50.079 55.3835 50.104 55.5579 50.1874 55.7066C50.3501 56.0156 50.4964 56.3339 50.6458 56.6449C50.5695 56.7284 50.4882 56.6954 50.4171 56.6954C48.7784 56.6954 47.1396 56.6954 45.4999 56.7026C45.4294 56.7101 45.3584 56.6931 45.299 56.6544C45.2395 56.6158 45.1952 56.5579 45.1734 56.4904C45.0549 56.2247 44.9272 55.9621 44.783 55.7087C44.7386 55.6369 44.7136 55.5549 44.7103 55.4706C44.7071 55.3863 44.7257 55.3026 44.7645 55.2277C45.4463 53.6095 46.1179 51.9873 46.7977 50.3692C46.8807 50.1738 46.9225 49.9634 46.9202 49.7512C46.913 48.5059 46.9172 47.2627 46.9172 46.002Z" fill="#162D4C"/>
<path d="M69.5921 40.0744C66.5619 40.0744 63.7963 39.168 61.2254 37.6024C60.3159 37.0505 59.4579 36.418 58.6618 35.7124C58.5103 35.5785 58.5134 35.4847 58.6288 35.3375C59.253 34.5382 60.0914 34.3157 61.0565 34.4177C61.3946 34.458 61.7152 34.5902 61.9835 34.7998C64.0517 36.3201 66.2879 37.5035 68.797 38.1267C70.206 38.4746 71.6639 38.5811 73.1085 38.4419C73.4495 38.411 73.7945 38.4172 74.1385 38.4202C74.2807 38.4202 74.4475 38.4326 74.5135 38.5892C74.5845 38.7653 74.4743 38.8982 74.3528 39.0187C74.0963 39.2479 73.7925 39.4178 73.4629 39.5162C72.3917 39.887 71.2803 40.026 70.1545 40.0713C69.9691 40.0806 69.7806 40.0744 69.5921 40.0744Z" fill="#162D4C"/>
<path d="M61.9245 38.9648C62.9348 39.5487 64.0187 39.9945 65.1474 40.2905C65.4286 40.3664 65.714 40.4255 66.0023 40.4676C66.1722 40.4903 66.1939 40.5624 66.1774 40.7025C66.145 41.1299 66.0496 41.5503 65.8941 41.9498C65.2854 43.366 64.5891 44.7442 64.003 46.1728C63.7589 46.7671 63.5066 47.3583 63.385 47.9928C63.2429 48.7138 63.7424 49.2381 64.4696 49.1073C64.6653 49.0722 64.724 49.1196 64.7601 49.3009C64.8137 49.5873 64.8423 49.8778 64.8456 50.1692C64.8516 50.2372 64.8359 50.3053 64.8007 50.3638C64.7656 50.4223 64.7128 50.4681 64.6499 50.4947C63.8413 50.9118 63.0719 50.7625 62.3715 50.2722C61.6289 49.752 61.3415 48.9631 61.2983 48.0876C61.2406 47.004 61.3838 45.9307 61.5238 44.8585C61.7051 43.4824 61.9997 42.1228 62.1357 40.7385C62.1799 40.2874 62.0327 39.8568 61.9925 39.4139C61.976 39.278 61.9513 39.141 61.9245 38.9648Z" fill="#162D4C"/>
<path d="M57.8574 29.0695L53.9434 29.6124C53.9557 29.4991 54.0464 29.464 54.104 29.4115C54.8051 28.7935 55.5083 28.1776 56.2135 27.5637C56.2815 27.505 56.3453 27.3773 56.4617 27.5081L57.8574 29.0695Z" fill="white"/>
</svg>
