<svg width="181" height="90" viewBox="0 0 181 90" fill="none" xmlns="http://www.w3.org/2000/svg">
<rect width="181" height="90" fill="#F2F4F8"/>
<g clip-path="url(#clip0_8973_58537)">
<g clip-path="url(#clip1_8973_58537)">
<path d="M112.065 19.9375H61.8848V70.1175H112.065V19.9375Z" fill="#0A1E45"/>
<path d="M83.8037 27.4493V27.4238H98.9357V27.4503L83.8037 27.4493Z" fill="#E4B935"/>
<path d="M83.804 27.4492H98.936C98.8216 27.9994 98.7093 28.5501 98.5923 29.0997C98.1444 31.2029 97.6951 33.3055 97.2444 35.4073C97.0624 36.2617 96.8804 37.1165 96.6964 37.9699C96.673 38.0739 96.6834 38.1108 96.8004 38.1123C97.2164 38.1186 97.6324 38.1123 98.0484 38.0962C98.2518 38.0841 98.456 38.0974 98.6562 38.1357C99.0202 38.2127 99.1216 38.4753 98.9038 38.7805C98.7819 38.9394 98.6235 39.0664 98.442 39.1508C98.0317 39.3624 97.5876 39.4529 97.1358 39.5117C96.9131 39.5458 96.6882 39.5632 96.4629 39.5637C96.3755 39.5637 96.3532 39.6042 96.3386 39.6744C96.1999 40.3331 96.0601 40.9931 95.919 41.6546L94.6351 47.7084C94.6091 47.8311 94.5831 47.9533 94.5586 48.0771C94.5462 48.1468 94.5212 48.1889 94.4416 48.1743C94.42 48.1723 94.3983 48.1723 94.3766 48.1743H79.5707C79.3918 48.1743 79.3923 48.1743 79.4308 47.9913C80.172 44.5011 80.9128 41.0108 81.6533 37.5206C81.8186 36.742 81.9845 35.9637 82.1509 35.1858C82.1654 35.1408 82.1624 35.092 82.1426 35.049C81.9216 34.6117 81.8514 34.1369 81.8051 33.6575C81.6871 32.4386 81.9705 31.2743 82.3028 30.1189C82.399 29.7861 82.7609 29.5812 83.1556 29.6259C83.3006 29.6421 83.3422 29.6025 83.3693 29.4653C83.5008 28.808 83.6449 28.1533 83.7853 27.4976C83.7901 27.4809 83.7963 27.4647 83.804 27.4492ZM88.952 38.2132C88.9907 38.2091 89.0298 38.2091 89.0685 38.2132C89.5438 38.3214 89.7871 38.0406 89.9795 37.674C90.0014 37.6319 90.0237 37.5892 90.0424 37.5461C90.1761 37.2419 90.1756 37.2413 89.9296 37.0261C89.9134 37.0108 89.896 36.9969 89.8776 36.9845C89.77 36.9189 89.7705 36.8487 89.8365 36.7416C90.0411 36.4088 90.3401 36.1444 90.6954 35.9821C91.0507 35.8198 91.4463 35.7668 91.8318 35.8301C91.9636 35.8479 92.088 35.9019 92.1911 35.9861C92.5291 36.257 92.8785 36.5123 93.2352 36.7588C93.5634 36.9917 93.9059 37.2038 94.2607 37.3937C94.3922 37.4623 94.3995 37.4592 94.3876 37.3178C94.3647 37.0505 94.3382 36.7834 94.308 36.5165C94.2409 35.9164 94.0594 35.3636 93.6757 34.8816C93.4006 34.5363 93.139 34.1801 92.8582 33.839C92.8309 33.8096 92.8107 33.7744 92.799 33.736C92.7874 33.6976 92.7847 33.6571 92.7912 33.6175C92.8536 33.1255 92.8546 33.1224 92.5478 32.7335C91.8718 31.8765 91.0689 31.1423 90.2484 30.4278C90.2001 30.3912 90.1437 30.3666 90.084 30.356C89.5167 30.2164 88.9364 30.1368 88.3524 30.1184C88.0134 30.1028 87.6993 30.1402 87.4211 30.3482C87.1939 30.5183 86.9531 30.5463 86.6676 30.499C85.7462 30.3456 84.8201 30.2198 83.895 30.0887C83.6256 30.0508 83.3589 29.9847 83.0838 29.9983C82.8472 30.0092 82.7156 30.0913 82.6558 30.2863C82.361 31.2494 82.1358 32.2265 82.1686 33.2431C82.1857 34.1812 82.4963 35.0905 83.0568 35.8431C83.6808 36.6844 84.5252 37.2242 85.4909 37.5897C86.6042 38.0099 87.768 38.1602 88.9494 38.2111L88.952 38.2132ZM88.848 44.5952C88.7934 44.6311 88.7575 44.655 88.7211 44.6779C88.2703 44.9607 87.82 45.2447 87.3665 45.5234C87.275 45.5795 87.2708 45.6087 87.3561 45.6794C88.0841 46.28 88.809 46.8853 89.5354 47.4885C89.5536 47.5041 89.5703 47.5306 89.6088 47.5124C89.6166 47.3782 89.6322 47.2404 89.6301 47.1026C89.6298 46.9471 89.6626 46.7932 89.7263 46.6513C89.9286 46.1687 90.122 45.6825 90.3206 45.1984C90.3461 45.139 90.3576 45.0746 90.3544 45.0101C90.3368 44.5817 90.3201 44.1532 90.3071 43.7247C90.3049 43.6472 90.2814 43.5718 90.239 43.5068C89.7793 42.7632 89.3228 42.0181 88.8615 41.275C88.8411 41.2455 88.8278 41.2116 88.8227 41.176C88.8177 41.1404 88.821 41.1042 88.8324 41.0701C88.9094 40.8044 88.979 40.5366 89.0555 40.2703C89.0843 40.1662 89.0931 40.0575 89.0815 39.95C89.0544 39.6567 89.0295 39.3635 89.0092 39.0697C89.0035 38.9719 88.9759 38.9397 88.8724 38.9391C88.1838 38.9396 87.4967 38.8715 86.8216 38.7358C85.0634 38.3718 83.6464 37.492 82.6356 35.9907C82.6153 35.9611 82.6054 35.9185 82.5513 35.9065C82.5456 35.9309 82.5394 35.9549 82.5342 35.9788C82.0856 38.1066 81.6372 40.2348 81.1889 42.3633C81.1328 42.6291 81.1328 42.6322 81.4 42.6603C81.5727 42.6785 81.737 42.7336 81.92 42.667C82.8066 42.3483 83.699 42.0456 84.5882 41.731C84.6323 41.7107 84.6811 41.7032 84.7293 41.7093C84.7775 41.7153 84.823 41.7348 84.8606 41.7653C86.041 42.6077 87.2239 43.447 88.4091 44.2832L88.848 44.5952ZM84.6911 42.2255C84.6911 42.862 84.6911 43.4897 84.6911 44.1178C84.6922 44.225 84.6712 44.3312 84.6292 44.4298C84.286 45.2467 83.947 46.0657 83.6028 46.8827C83.5832 46.9205 83.5738 46.9628 83.5754 47.0053C83.5771 47.0479 83.5897 47.0893 83.6121 47.1255C83.6849 47.2534 83.7494 47.3855 83.8092 47.5202C83.8202 47.5542 83.8426 47.5835 83.8726 47.603C83.9026 47.6225 83.9384 47.6311 83.974 47.6273C84.8019 47.6226 85.6292 47.6273 86.4565 47.6237C86.4924 47.6237 86.5335 47.6403 86.572 47.5982C86.496 47.4422 86.4227 47.2805 86.3406 47.1245C86.2984 47.0494 86.2858 46.9613 86.3052 46.8775C86.508 45.8863 86.7056 44.8937 86.9115 43.9031C86.9323 43.8048 86.9115 43.7559 86.8335 43.7013C86.1547 43.2288 85.4772 42.7546 84.8008 42.2786C84.771 42.2468 84.7304 42.2272 84.687 42.2235L84.6911 42.2255ZM96.1389 39.2335C96.2341 39.2335 96.3292 39.2366 96.4244 39.2335C96.9928 39.2106 97.5538 39.1404 98.0946 38.9532C98.261 38.9035 98.4144 38.8177 98.5439 38.702C98.6053 38.6433 98.6609 38.5741 98.625 38.4852C98.5933 38.4061 98.5075 38.4004 98.4358 38.3999C98.2626 38.3999 98.0884 38.3952 97.9158 38.4108C97.1854 38.4806 96.4485 38.4259 95.7364 38.2491C94.4697 37.9345 93.3408 37.337 92.2966 36.5695C92.1612 36.4637 91.9993 36.3969 91.8286 36.3766C91.3414 36.3246 90.9181 36.4374 90.603 36.8409C90.5448 36.9153 90.5432 36.9626 90.6196 37.0302C91.0216 37.3864 91.4548 37.7058 91.9139 37.9844C93.2087 38.7738 94.6049 39.2324 96.1348 39.2314L96.1389 39.2335ZM92.2628 38.6708C92.2764 38.7613 92.2888 38.8268 92.2956 38.897C92.3169 39.1206 92.3902 39.338 92.3679 39.5657C92.2992 40.2641 92.1505 40.9505 92.059 41.6457C91.9883 42.1871 91.916 42.7289 91.9451 43.2759C91.9685 43.7179 92.112 44.1163 92.487 44.3789C92.8406 44.6264 93.229 44.7018 93.6372 44.4912C93.6689 44.4778 93.6956 44.4546 93.7134 44.4251C93.7311 44.3956 93.739 44.3612 93.736 44.3269C93.7344 44.1798 93.7199 44.0331 93.6928 43.8885C93.6746 43.797 93.645 43.7731 93.5462 43.7907C93.1791 43.8568 92.9269 43.5926 92.9986 43.2281C93.0616 42.9078 93.189 42.6093 93.3106 42.3093C93.6065 41.5891 93.958 40.8933 94.2654 40.1773C94.3438 39.9756 94.392 39.7634 94.4084 39.5475C94.4167 39.4768 94.4084 39.4404 94.32 39.429C94.1744 39.4077 94.0303 39.3779 93.8884 39.3395C93.3191 39.1902 92.7724 38.9653 92.2628 38.6708Z" fill="white"/>
<path d="M89.1871 54.1844C89.3395 54.2088 89.4889 54.2493 89.6328 54.305C90.1049 54.5021 90.3566 54.8676 90.3795 55.3663C90.4221 56.2872 89.9786 56.9638 89.2464 57.4708C88.7758 57.7949 88.2172 57.9669 87.6458 57.9637C86.8882 57.9694 86.13 57.9637 85.3719 57.9637C85.1691 57.9637 85.1233 57.9065 85.1639 57.71C85.6225 55.4875 86.0813 53.265 86.5403 51.0425C86.5871 50.8143 86.6443 50.7695 86.8731 50.7695C87.3624 50.7695 87.8518 50.7695 88.3416 50.7695C88.7945 50.7695 89.2412 50.8215 89.6603 51.0061C90.1148 51.2063 90.4559 51.5204 90.5048 52.0383C90.5745 52.7772 90.3254 53.3986 89.73 53.8646C89.5605 53.9895 89.3786 54.0967 89.1871 54.1844ZM87.1815 57.1239V57.1161C87.3416 57.1161 87.5018 57.1229 87.6614 57.1161C88.4305 57.0792 88.9349 56.6356 89.0738 55.8796C89.1861 55.2649 88.8876 54.8396 88.2745 54.747C87.8918 54.6903 87.5054 54.7335 87.1212 54.72C87.0577 54.72 87.0541 54.7553 87.0452 54.799C87.0026 55.0107 86.9584 55.2223 86.9142 55.4334C86.806 55.9534 86.7 56.4734 86.5882 56.9934C86.5653 57.0974 86.585 57.1364 86.7015 57.1286C86.8606 57.1161 87.0213 57.1239 87.1815 57.1239ZM87.6131 53.8786C87.7772 53.8885 87.942 53.8791 88.104 53.8505C88.7014 53.7138 89.1575 53.1818 89.2168 52.5505C89.2641 52.0487 89.0431 51.7503 88.5517 51.6494C88.3338 51.6047 88.1128 51.6171 87.8934 51.6031C87.7426 51.5932 87.6916 51.639 87.663 51.7893C87.5377 52.4507 87.3988 53.1095 87.2574 53.7684C87.235 53.8724 87.2662 53.8843 87.3536 53.8786C87.441 53.8729 87.5262 53.8786 87.6131 53.8786Z" fill="white"/>
<path d="M95.2398 53.4123C95.3079 53.2433 95.3709 53.1003 95.4229 52.9563C95.4375 52.8993 95.4722 52.8496 95.5205 52.8161C95.5688 52.7826 95.6275 52.7675 95.686 52.7738C95.907 52.7784 96.128 52.7738 96.349 52.7738C96.5128 52.7738 96.5606 52.8346 96.5294 52.9911C96.2868 54.1902 96.0441 55.3895 95.8014 56.589C95.7768 56.6857 95.7683 56.7859 95.7765 56.8854C95.7988 57.0518 95.8545 57.1106 96.0209 57.1324C96.1249 57.1459 96.1685 57.2031 96.1509 57.3009C96.1212 57.4668 96.0869 57.6321 96.0469 57.7959C96.0383 57.8459 96.0117 57.8911 95.9722 57.9229C95.9326 57.9547 95.8828 57.9709 95.8321 57.9686C95.624 57.9783 95.4156 57.9579 95.2133 57.9082C94.8935 57.824 94.7188 57.6176 94.6782 57.2842C94.6735 57.2463 94.672 57.2078 94.6683 57.1631C94.6122 57.1766 94.5924 57.2234 94.5643 57.2556C93.9195 57.9597 93.1208 58.2093 92.19 58.0476C91.5629 57.9384 91.1729 57.5468 91.0325 56.9213C90.9124 56.3883 90.9769 55.862 91.0845 55.3374C91.2114 54.7134 91.4251 54.1252 91.8125 53.6063C92.4817 52.702 93.5592 52.5101 94.3787 52.7155C94.7578 52.8138 95.0375 53.0436 95.2398 53.4123ZM92.1718 56.2957C92.1719 56.413 92.182 56.5301 92.202 56.6457C92.2587 56.991 92.449 57.1823 92.7943 57.24C93.4703 57.3534 94.1171 57.0596 94.4536 56.4533C94.7872 55.8427 94.95 55.1534 94.9247 54.458C94.9127 53.9661 94.6793 53.6609 94.2653 53.5397C94.0224 53.4731 93.7675 53.4633 93.5202 53.5111C93.0823 53.585 92.827 53.8782 92.6481 54.2516C92.3382 54.8974 92.228 55.5906 92.1718 56.2957Z" fill="white"/>
<path d="M105.268 50.8145C105.124 51.5147 104.98 52.2136 104.835 52.9111C104.691 53.6095 104.548 54.3078 104.404 55.0109C104.472 55.0067 104.493 54.9589 104.525 54.9277C105.175 54.2844 105.825 53.6422 106.47 52.9943C106.536 52.9227 106.616 52.8664 106.706 52.8294C106.796 52.7925 106.893 52.7758 106.99 52.7806C107.228 52.7894 107.466 52.7806 107.704 52.7853C107.756 52.7853 107.822 52.7712 107.845 52.8232C107.868 52.8752 107.804 52.9116 107.768 52.9449C106.971 53.6954 106.171 54.4446 105.369 55.1923C105.285 55.2709 105.285 55.3197 105.345 55.4123C105.842 56.1824 106.333 56.9567 106.827 57.7294C106.851 57.7658 106.874 57.8027 106.894 57.8402C106.937 57.9182 106.913 57.9728 106.825 57.9733C106.448 57.9733 106.071 57.9769 105.695 57.9686C105.582 57.9686 105.517 57.8766 105.462 57.7825C105.088 57.1397 104.712 56.4984 104.335 55.8585C104.312 55.8195 104.301 55.7695 104.244 55.7425C104.137 56.2625 104.031 56.7757 103.924 57.29C103.891 57.4512 103.859 57.6124 103.823 57.7726C103.787 57.9327 103.726 57.9759 103.57 57.9769C103.328 57.9769 103.085 57.9769 102.842 57.9769C102.626 57.9769 102.585 57.9291 102.629 57.7216C102.762 57.0784 102.897 56.4351 103.03 55.7914C103.322 54.387 103.612 52.9848 103.899 51.5846C103.904 51.5489 103.917 51.515 103.939 51.4862C103.96 51.4574 103.989 51.4347 104.022 51.4203C104.394 51.2362 104.762 51.0459 105.132 50.8592C105.172 50.8307 105.219 50.8151 105.268 50.8145Z" fill="white"/>
<path d="M98.8611 53.6123C99.0415 53.3709 99.2495 53.1515 99.481 52.9586C100.028 52.5114 101.135 52.5811 101.649 53.0507C102.065 53.4318 102.178 53.9201 102.088 54.4495C101.971 55.1354 101.815 55.8145 101.68 56.4972C101.65 56.6454 101.622 56.7957 101.663 56.9476C101.692 57.0542 101.737 57.14 101.871 57.1389C101.983 57.1389 102.027 57.2076 102.008 57.311C101.979 57.4764 101.945 57.6423 101.907 57.8061C101.898 57.8541 101.872 57.8973 101.834 57.9277C101.796 57.9581 101.748 57.9736 101.699 57.9714C101.491 57.9828 101.282 57.9616 101.081 57.9085C100.613 57.777 100.382 57.4405 100.405 56.9205C100.42 56.5674 100.524 56.2305 100.585 55.8862C100.67 55.4182 100.811 54.9606 100.837 54.4822C100.843 54.3873 100.843 54.2922 100.837 54.1973C100.8 53.6721 100.473 53.4214 99.9573 53.5088C99.7963 53.5348 99.6427 53.5946 99.5065 53.6842C99.3702 53.7738 99.2545 53.8913 99.1669 54.0288C98.935 54.3689 98.8367 54.7568 98.7545 55.153C98.5753 56.0162 98.3945 56.8794 98.2122 57.7426C98.1737 57.9246 98.1118 57.972 97.9257 57.9725C97.6745 57.9725 97.4228 57.9725 97.1717 57.9725C97.012 57.9725 96.9637 57.907 96.9938 57.7499C97.2365 56.564 97.4802 55.378 97.7249 54.1921C97.752 54.061 97.7842 53.9321 97.7447 53.7948C97.7135 53.6908 97.6573 53.6232 97.5367 53.6133C97.3916 53.6014 97.3604 53.5509 97.3895 53.4053C97.4187 53.2597 97.4478 53.1167 97.4779 52.9732C97.4845 52.9185 97.5112 52.8683 97.5529 52.8322C97.5945 52.7961 97.648 52.7769 97.7031 52.7782C97.9155 52.7646 98.1286 52.7853 98.3344 52.8396C98.6771 52.9389 98.8201 53.1141 98.8544 53.4688C98.8544 53.5062 98.8544 53.5436 98.8611 53.6123Z" fill="white"/>
<path d="M68.4926 53.8626H69.2778C69.6678 53.8626 70.0578 53.8626 70.4478 53.8626C70.6356 53.8626 70.6808 53.9177 70.6439 54.1018C70.6148 54.2458 70.5836 54.3894 70.5513 54.5329C70.5102 54.7138 70.4473 54.7638 70.2502 54.7638C69.6522 54.7638 69.0542 54.7638 68.4568 54.7596C68.3429 54.7596 68.2956 54.7814 68.2711 54.9047C68.0902 55.8209 67.8978 56.7346 67.71 57.6498C67.658 57.9098 67.6164 57.9451 67.346 57.9451C67.099 57.9451 66.852 57.9451 66.6056 57.9451C66.4267 57.9451 66.3804 57.8874 66.4168 57.7116C66.6352 56.6529 66.8541 55.5945 67.0736 54.5365C67.3128 53.3804 67.5513 52.2244 67.7891 51.0686C67.8473 50.7858 67.8863 50.7514 68.1786 50.752L71.5586 50.7582C71.7998 50.7582 71.8362 50.8024 71.7868 51.0328C71.7577 51.168 71.7302 51.3037 71.6979 51.4384C71.6579 51.6063 71.5986 51.6531 71.426 51.6531C70.646 51.6531 69.866 51.6531 69.086 51.6531C68.982 51.6531 68.9383 51.6724 68.9164 51.7831C68.7812 52.4721 68.6367 53.1616 68.4926 53.8626Z" fill="white"/>
<path d="M78.722 58.0769C78.3105 58.0731 77.9022 58.0028 77.513 57.8689C77.3759 57.8262 77.251 57.7511 77.149 57.65C77.045 57.5413 77.045 57.442 77.136 57.3255C77.1953 57.2511 77.2614 57.1825 77.3248 57.1107C77.4808 56.9324 77.5068 56.9261 77.7408 57.0067C78.0653 57.1159 78.3918 57.2147 78.7366 57.2319C79.0418 57.248 79.3419 57.2361 79.63 57.1185C79.7434 57.0741 79.8439 57.0021 79.9225 56.909C80.0012 56.8159 80.0554 56.7048 80.0803 56.5855C80.1286 56.3978 80.074 56.2683 79.9092 56.1643C79.7338 56.0614 79.5461 55.9807 79.3507 55.9241C79.1292 55.8523 78.9082 55.7749 78.683 55.7161C77.877 55.5013 77.6831 54.8935 77.8406 54.2013C78.0284 53.3771 78.6804 52.7973 79.5473 52.6736C80.1645 52.5867 80.774 52.6216 81.3553 52.8779C81.4721 52.9241 81.58 52.9903 81.6741 53.0735C81.7708 53.166 81.7781 53.243 81.6949 53.3454C81.5909 53.4692 81.4827 53.5857 81.3792 53.7094C81.3272 53.7703 81.2706 53.7661 81.204 53.7469C80.9508 53.6746 80.709 53.5638 80.4484 53.5165C80.1515 53.4645 79.8541 53.4463 79.5608 53.5305C79.4343 53.5639 79.3186 53.6293 79.2247 53.7204C79.1308 53.8115 79.0619 53.9252 79.0247 54.0505C78.9311 54.3287 79.0335 54.5274 79.3133 54.6153C79.6596 54.7239 80.0075 54.8269 80.3533 54.9325C80.5281 54.981 80.6963 55.0509 80.854 55.1405C81.1463 55.3147 81.2908 55.5762 81.308 55.9106C81.3543 56.8081 80.8712 57.52 79.981 57.8694C79.5988 58.0192 79.2004 58.0785 78.722 58.0769Z" fill="white"/>
<path d="M83.0685 53.5538C82.9099 53.5538 82.7497 53.5538 82.5901 53.5538C82.405 53.5538 82.3639 53.5054 82.3992 53.3281C82.4247 53.2007 82.4512 53.0738 82.4819 52.948C82.4906 52.8959 82.5182 52.8488 82.5595 52.8159C82.6008 52.7829 82.6528 52.7665 82.7055 52.7696C82.8485 52.7696 82.992 52.7613 83.1345 52.7696C83.2302 52.7764 83.2593 52.74 83.2744 52.6516C83.3139 52.4176 83.3649 52.1836 83.4096 51.9511C83.4179 51.9085 83.4216 51.8695 83.4689 51.8471C83.8968 51.6318 84.3243 51.4145 84.7642 51.1914C84.7756 51.3313 84.7304 51.4483 84.708 51.5668C84.6399 51.9308 84.5656 52.2881 84.4886 52.6479C84.4683 52.742 84.4824 52.7779 84.59 52.7722C84.7668 52.7634 84.9452 52.768 85.1225 52.7722C85.266 52.7748 85.3107 52.8268 85.2852 52.9688C85.2598 53.1107 85.2291 53.2397 85.1963 53.3738C85.1636 53.508 85.0804 53.5595 84.9498 53.5584C84.7637 53.5584 84.577 53.5584 84.3908 53.5584C84.3243 53.5584 84.2905 53.5735 84.2759 53.6442C84.0828 54.6114 83.888 55.578 83.6914 56.5438C83.6676 56.6545 83.6731 56.7696 83.7076 56.8776C83.7338 56.9517 83.7829 57.0155 83.8478 57.0599C83.9126 57.1043 83.9899 57.1269 84.0684 57.1246C84.4122 57.1334 84.4153 57.1366 84.3498 57.4751C84.3295 57.5791 84.3066 57.6867 84.2822 57.7918C84.275 57.8398 84.2506 57.8836 84.2136 57.9151C84.1766 57.9465 84.1295 57.9635 84.0809 57.9628C83.8043 57.9696 83.525 57.9878 83.2489 57.9389C82.7081 57.8422 82.4403 57.5229 82.431 56.9676C82.4247 56.6036 82.524 56.2567 82.5953 55.9052C82.7513 55.134 82.912 54.3634 83.07 53.5922C83.0712 53.5794 83.0707 53.5665 83.0685 53.5538Z" fill="white"/>
<path d="M75.888 53.3493C75.9383 53.2848 75.992 53.2228 76.0486 53.1637C76.4371 52.7955 76.9118 52.6723 77.4329 52.6822C77.5369 52.6822 77.5821 52.7155 77.554 52.8325C77.4979 53.0633 77.4547 53.2973 77.4048 53.5298C77.3606 53.7378 77.2925 53.7721 77.085 53.7466C76.553 53.6816 75.9712 53.8647 75.798 54.6306C75.5671 55.655 75.3461 56.682 75.122 57.708C75.07 57.9529 75.0242 57.9903 74.7705 57.9898C74.5412 57.9898 74.3113 57.9898 74.082 57.9898C73.9026 57.9898 73.8584 57.9321 73.8964 57.7553C74.1518 56.5676 74.4077 55.3803 74.6639 54.1933C74.6913 54.0886 74.705 53.9807 74.7044 53.8725C74.6961 53.6998 74.6337 53.6281 74.4606 53.6C74.3566 53.5833 74.3077 53.5251 74.328 53.419C74.3576 53.263 74.3872 53.107 74.4226 52.951C74.4299 52.8985 74.4562 52.8505 74.4966 52.8162C74.5369 52.7819 74.5885 52.7636 74.6415 52.7649C74.9098 52.7607 75.1787 52.7649 75.4392 52.8444C75.6815 52.9183 75.8302 53.0743 75.851 53.3374L75.888 53.3493Z" fill="white"/>
<path d="M71.3392 57.0804C71.3501 56.7096 71.4573 56.3555 71.5342 55.9967C71.7459 55.0087 71.9632 54.0207 72.179 53.0327C72.2185 52.8512 72.283 52.8018 72.465 52.8008C72.7077 52.8008 72.9504 52.8008 73.193 52.8008C73.3755 52.8008 73.4197 52.8528 73.3818 53.0291C73.1263 54.2126 72.8699 55.3958 72.6127 56.5786C72.5775 56.7219 72.5647 56.8697 72.5747 57.0169C72.5903 57.1828 72.6491 57.2457 72.8093 57.2697C72.9049 57.2842 72.9491 57.3409 72.933 57.4319C72.9029 57.6025 72.8685 57.772 72.829 57.9399C72.8192 57.9849 72.794 58.025 72.7579 58.0534C72.7218 58.0819 72.6769 58.0969 72.6309 58.0959C72.3709 58.1043 72.1109 58.0835 71.8665 57.98C71.5041 57.8292 71.3299 57.5245 71.3392 57.0804Z" fill="white"/>
<path d="M89.5048 61.1446C89.9437 61.3937 89.9822 61.8934 89.6088 62.2537C89.3363 62.5189 88.7415 62.6042 88.4035 62.4274C88.3247 62.3895 88.2583 62.3299 88.2123 62.2555C88.1662 62.1812 88.1423 62.0952 88.1435 62.0078C88.1332 61.8577 88.1654 61.7078 88.2363 61.5751C88.3072 61.4424 88.4139 61.3323 88.5444 61.2574C88.6094 61.2169 88.6806 61.1862 88.7482 61.1534C88.7482 61.1436 88.7482 61.1316 88.7441 61.1295C88.3743 60.9381 88.4565 60.5872 88.6499 60.3121C88.7477 60.1831 88.8878 60.0927 89.0457 60.0567C89.2222 60.0102 89.4069 60.0031 89.5865 60.036C89.7591 60.0646 89.9172 60.1363 89.9707 60.3214C90.0034 60.4201 90.0103 60.5254 89.9907 60.6274C89.9712 60.7295 89.9258 60.8248 89.8589 60.9044C89.7669 61.0125 89.6452 61.0775 89.5048 61.1446ZM88.5865 61.8778C88.5827 61.9519 88.6064 62.0248 88.6532 62.0824C88.6999 62.1401 88.7664 62.1783 88.8397 62.1898C89.1835 62.2636 89.5157 61.9121 89.4299 61.5658C89.4161 61.4973 89.3791 61.4357 89.3251 61.3915C89.271 61.3472 89.2034 61.323 89.1335 61.323C88.8408 61.3105 88.5855 61.5684 88.5865 61.8778ZM89.3057 60.3344C89.256 60.3341 89.2067 60.3435 89.1607 60.3623C89.1146 60.381 89.0728 60.4086 89.0374 60.4435C89.002 60.4784 88.9739 60.52 88.9546 60.5658C88.9354 60.6116 88.9253 60.6607 88.925 60.7104C88.9229 60.7449 88.9277 60.7795 88.9392 60.8122C88.9506 60.8448 88.9684 60.8749 88.9916 60.9005C89.0148 60.9262 89.0429 60.947 89.0743 60.9617C89.1056 60.9763 89.1395 60.9846 89.1741 60.986C89.3639 60.9891 89.5641 60.778 89.5683 60.5747C89.5709 60.4322 89.4648 60.3355 89.3057 60.3344Z" fill="white"/>
<path d="M91.9112 60.5034C91.9005 60.3877 91.8519 60.2787 91.7731 60.1932C91.6942 60.1078 91.5894 60.0507 91.4749 60.0308C91.3121 60.0016 91.1445 60.0147 90.9882 60.0687C90.5399 60.2304 90.3772 60.5955 90.3351 61.0266C90.2909 61.4904 90.5602 61.7296 91.0251 61.6755C91.2009 61.6547 91.322 61.5564 91.4468 61.4415C91.4346 61.5929 91.3867 61.7392 91.3069 61.8684C91.1723 62.1118 90.971 62.2356 90.6861 62.1877C90.5917 62.1769 90.4985 62.157 90.4079 62.1284C90.2519 62.0697 90.2482 62.2075 90.204 62.2787C90.1489 62.3676 90.2451 62.3869 90.2961 62.4118C90.7261 62.6256 91.1983 62.5335 91.4921 62.1435C91.8602 61.6615 91.9892 61.1025 91.9112 60.5034ZM91.5389 60.7338C91.5198 60.8801 91.4727 61.0214 91.4 61.1498C91.3179 61.2845 91.205 61.3656 91.0391 61.3578C90.8311 61.3526 90.7401 61.2595 90.7448 61.0214C90.7544 60.8801 90.7911 60.7421 90.853 60.6147C90.8918 60.5272 90.9564 60.4535 91.0381 60.4036C91.1593 60.3334 91.2929 60.2954 91.4182 60.3755C91.5435 60.4556 91.5623 60.5934 91.5389 60.7338Z" fill="white"/>
<path d="M93.084 61.9005H92.1636C92.0362 61.9005 92.0117 61.8605 92.07 61.7445C92.0931 61.7033 92.1214 61.6652 92.1542 61.6312C92.5749 61.1486 93.0023 60.6718 93.4147 60.1824C93.5359 60.0384 93.6747 60.0535 93.825 60.0613C93.9097 60.0654 93.877 60.1356 93.8671 60.1814C93.7936 60.5412 93.7194 60.9007 93.6445 61.2599C93.6318 61.341 93.6144 61.4214 93.5925 61.5006C93.5629 61.5922 93.6035 61.5974 93.6783 61.6015C93.7371 61.6046 93.8416 61.5495 93.839 61.6795C93.8354 61.8563 93.7969 61.9125 93.6648 61.8984C93.5327 61.8844 93.4865 61.9369 93.4781 62.0544C93.4721 62.0972 93.4636 62.1396 93.4527 62.1813C93.3877 62.4996 93.3877 62.497 93.0627 62.4793C92.9821 62.4746 92.9675 62.4424 92.9821 62.3753C93.0159 62.2229 93.0476 62.0706 93.084 61.9005ZM93.3273 60.7128L92.5863 61.5968C92.7746 61.5968 92.928 61.5968 93.0814 61.5968C93.0909 61.5981 93.1007 61.5975 93.1099 61.5948C93.1192 61.5922 93.1279 61.5876 93.1353 61.5814C93.1427 61.5753 93.1488 61.5676 93.1531 61.559C93.1574 61.5504 93.1599 61.541 93.1604 61.5313C93.2124 61.2713 93.266 61.0103 93.3268 60.7123L93.3273 60.7128Z" fill="white"/>
<path d="M78.2513 62.5063C78.0527 62.506 77.8562 62.4672 77.6725 62.3919C77.6267 62.3721 77.5368 62.3602 77.5779 62.2879C77.6189 62.2156 77.6262 62.0752 77.7729 62.1101C77.9737 62.1633 78.1808 62.1889 78.3885 62.186C78.4977 62.1834 78.6047 62.1547 78.7005 62.1023C78.9423 61.9671 78.9512 61.7091 78.712 61.5682C78.5943 61.5057 78.4727 61.4508 78.348 61.4039C77.8347 61.1829 77.7396 60.6821 78.1467 60.2942C78.4743 59.9822 78.869 59.9557 79.2866 60.0628C79.324 60.0727 79.3604 60.0862 79.3973 60.0987C79.5955 60.1668 79.5991 60.1814 79.4909 60.3525C79.4853 60.365 79.4773 60.3763 79.4673 60.3857C79.4573 60.3951 79.4455 60.4025 79.4326 60.4073C79.4198 60.4121 79.4061 60.4144 79.3923 60.4139C79.3786 60.4134 79.3651 60.4102 79.3526 60.4045C79.1496 60.3412 78.9363 60.3179 78.7245 60.3358C78.6526 60.3403 78.5828 60.3617 78.5209 60.3985C78.459 60.4352 78.4067 60.486 78.3683 60.5469C78.2643 60.7159 78.3027 60.8693 78.4801 60.9562C78.6002 61.0149 78.7271 61.0602 78.8498 61.1122C79.3791 61.3368 79.454 61.9275 78.9995 62.2822C78.8103 62.4278 78.5601 62.5047 78.2513 62.5063Z" fill="white"/>
<path d="M81.3196 60.9902C81.4408 60.8597 81.5422 60.7364 81.7112 60.699C82.1693 60.5981 82.4854 60.9039 82.3918 61.3625C82.3482 61.5783 82.3019 61.7936 82.2603 62.0099C82.2457 62.0869 82.2369 62.156 82.3404 62.1987C82.4215 62.2319 82.3513 62.3125 82.3487 62.3718C82.3497 62.3847 82.348 62.3977 82.3437 62.41C82.3394 62.4222 82.3327 62.4335 82.3238 62.4429C82.315 62.4524 82.3042 62.46 82.2923 62.4651C82.2804 62.4702 82.2675 62.4728 82.2546 62.4727C81.9706 62.5049 81.7928 62.3224 81.8427 62.0395C81.8802 61.8269 81.9259 61.6157 81.9675 61.4036C81.9751 61.3694 81.9798 61.3346 81.9816 61.2996C81.9852 61.1763 81.9816 61.0515 81.851 60.9876C81.7387 60.9319 81.5624 60.9793 81.4616 61.0916C81.3607 61.2039 81.3144 61.3516 81.2832 61.5024C81.2229 61.7899 81.1605 62.077 81.1038 62.3656C81.1032 62.3815 81.0993 62.3972 81.0923 62.4116C81.0853 62.4259 81.0753 62.4386 81.063 62.4489C81.0508 62.4592 81.0365 62.4667 81.0211 62.4711C81.0057 62.4754 80.9896 62.4765 80.9738 62.4743C80.6696 62.4815 80.6701 62.4841 80.7315 62.1862C80.7991 61.8558 80.8662 61.5256 80.9327 61.1956C80.9488 61.115 80.9717 61.0297 80.8526 60.9995C80.8006 60.986 80.8121 60.9366 80.8256 60.9023C80.8495 60.8425 80.8199 60.7557 80.9114 60.7297C80.9554 60.7157 81.002 60.7116 81.0478 60.7177C81.0935 60.7237 81.1374 60.7397 81.1764 60.7645C81.2153 60.7894 81.2483 60.8225 81.273 60.8614C81.2978 60.9004 81.3137 60.9444 81.3196 60.9902Z" fill="white"/>
<path d="M85.2166 61.7393C85.1042 61.7393 84.9909 61.745 84.8791 61.7393C84.7959 61.7341 84.7751 61.7694 84.7751 61.8433C84.7642 62.1168 84.9118 62.2619 85.1828 62.2286C85.2942 62.2146 85.4039 62.1895 85.5104 62.1537C85.593 62.1262 85.6237 62.1537 85.6565 62.2239C85.6892 62.2941 85.6747 62.3482 85.6045 62.3836C85.3908 62.4921 85.15 62.5358 84.9118 62.5094C84.5088 62.4699 84.3263 62.2364 84.3643 61.8308C84.3806 61.6104 84.4386 61.3951 84.5354 61.1964C84.7345 60.7996 85.1074 60.6166 85.5348 60.7024C85.7834 60.7544 85.93 60.9172 85.9425 61.1704C85.9467 61.2482 85.9414 61.3263 85.9269 61.4028C85.8749 61.6535 85.7709 61.7382 85.5156 61.7434C85.4162 61.7434 85.3164 61.7434 85.2171 61.7434L85.2166 61.7393ZM84.8437 61.4548H85.3986C85.4198 61.4574 85.4413 61.4538 85.4607 61.4446C85.48 61.4354 85.4963 61.4209 85.5078 61.4028C85.5639 61.3066 85.5374 61.1049 85.4558 61.0258C85.3741 60.9468 85.2524 60.9406 85.1318 61.0092C84.9628 61.1044 84.9009 61.2744 84.8437 61.4548Z" fill="white"/>
<path d="M87.4471 60.5555C87.3067 60.6138 87.1808 60.6663 87.0539 60.7167C87.0227 60.7292 86.9775 60.751 86.9583 60.7386C86.9208 60.7146 86.9505 60.6673 86.9525 60.6299C86.9603 60.4947 87.0295 60.4162 87.1605 60.3668C87.3987 60.2752 87.6285 60.1666 87.8641 60.0662C87.8984 60.0511 87.9364 60.0142 87.9681 60.036C87.9998 60.0579 87.9728 60.1083 87.9681 60.1437C87.8189 60.8769 87.667 61.6096 87.5193 62.3428C87.4996 62.441 87.4559 62.4764 87.3535 62.4748C87.0576 62.4707 87.0597 62.4748 87.1205 62.1862C87.2287 61.6746 87.3337 61.1618 87.4398 60.6496C87.4434 60.6252 87.4429 60.5987 87.4471 60.5555Z" fill="white"/>
<path d="M82.7318 61.8861C82.7371 61.6472 82.7943 61.4123 82.8992 61.1977C83.1161 60.7453 83.6943 60.5419 84.1358 60.7645C84.1919 60.7931 84.2965 60.8077 84.2595 60.9111C84.2174 61.0266 84.115 61.076 84.0141 61.0281C83.6163 60.8409 83.335 61.0765 83.2284 61.4083C83.1711 61.5718 83.145 61.7447 83.1514 61.9179C83.1649 62.1331 83.2986 62.2475 83.5154 62.2299C83.6183 62.2163 83.7192 62.1904 83.816 62.1529C83.868 62.1357 83.9148 62.1191 83.9413 62.1914C83.9631 62.2512 84.0053 62.3032 83.934 62.364C83.7151 62.5507 83.1504 62.5653 82.9252 62.3853C82.7609 62.2574 82.7276 62.0785 82.7318 61.8861Z" fill="white"/>
<path d="M79.6475 62.0803C79.6953 61.8416 79.7515 61.5603 79.8102 61.2748C79.8404 61.1266 79.8757 60.9794 79.9017 60.8307C79.9022 60.8147 79.906 60.799 79.9129 60.7846C79.9198 60.7702 79.9297 60.7574 79.942 60.7471C79.9542 60.7368 79.9685 60.7291 79.9839 60.7247C79.9992 60.7203 80.0154 60.7192 80.0312 60.7215C80.3385 60.7122 80.337 60.7096 80.2756 61.006C80.2075 61.3362 80.1399 61.6658 80.0749 61.9966C80.0593 62.0766 80.0442 62.1526 80.156 62.1957C80.2351 62.2259 80.168 62.2997 80.1654 62.3574C80.1628 62.4152 80.1472 62.4573 80.0811 62.4703C79.8477 62.516 79.6475 62.3585 79.6475 62.0803Z" fill="white"/>
<path d="M80.2764 59.9768C80.3284 59.9768 80.3684 59.9768 80.4069 59.9768C80.4454 59.9768 80.4802 59.9934 80.4724 60.0371C80.4548 60.1343 80.4329 60.2305 80.409 60.3262C80.3996 60.3626 80.3664 60.3751 80.33 60.3818C80.0232 60.437 79.9878 60.3938 80.0502 60.0927C80.0819 59.9294 80.1994 59.9908 80.2764 59.9768Z" fill="white"/>
<path d="M88.9487 38.2114C87.7673 38.1594 86.6035 38.0102 85.4892 37.5874C84.5235 37.2234 83.679 36.6821 83.055 35.8407C82.4946 35.0882 82.184 34.1789 82.1669 33.2407C82.1362 32.2241 82.3593 31.2471 82.6541 30.284C82.7139 30.089 82.8455 30.0069 83.0821 29.9959C83.3572 29.9824 83.6239 30.0479 83.8933 30.0864C84.8184 30.2175 85.7445 30.3433 86.6659 30.4967C86.9509 30.544 87.1922 30.5159 87.4194 30.3459C87.6976 30.1379 88.0117 30.1005 88.3507 30.1161C88.935 30.1358 89.5155 30.2169 90.0828 30.3579C90.1425 30.3684 90.1989 30.393 90.2472 30.4296C91.0677 31.1441 91.869 31.8783 92.5466 32.7353C92.8534 33.1232 92.8524 33.1263 92.79 33.6193C92.7835 33.6589 92.7862 33.6994 92.7978 33.7378C92.8095 33.7762 92.8297 33.8115 92.857 33.8408C93.1378 34.1819 93.3994 34.5381 93.6745 34.8834C94.0582 35.3655 94.2397 35.9182 94.3068 36.5183C94.337 36.7849 94.3635 37.052 94.3864 37.3196C94.3983 37.4611 94.391 37.4642 94.2595 37.3955C93.9047 37.2057 93.5622 36.9936 93.234 36.7606C92.8773 36.5141 92.5279 36.2588 92.1899 35.9879C92.0868 35.9038 91.9624 35.8498 91.8306 35.8319C91.4451 35.7687 91.0495 35.8216 90.6942 35.984C90.3389 36.1463 90.0399 36.4107 89.8353 36.7435C89.7693 36.8506 89.7688 36.9208 89.8764 36.9863C89.8948 36.9988 89.9122 37.0127 89.9284 37.0279C90.1744 37.2411 90.1749 37.2416 90.0412 37.5479C90.0225 37.5911 90.0002 37.6337 89.9783 37.6758C89.7859 38.0398 89.5426 38.3232 89.0673 38.2151C89.028 38.2095 88.9883 38.2083 88.9487 38.2114ZM90.2092 33.6765L89.5067 32.8882C89.4479 32.8221 89.4157 32.8882 89.3814 32.9163C89.0257 33.2262 88.6707 33.5371 88.3164 33.8491C88.2862 33.8757 88.2415 33.8933 88.2353 33.9505L90.2092 33.6765Z" fill="#162D4C"/>
<path d="M88.8425 44.5915L88.4052 44.2795C87.2217 43.4413 86.0389 42.6025 84.8567 41.7633C84.8191 41.7327 84.7736 41.7133 84.7254 41.7072C84.6773 41.7011 84.6284 41.7087 84.5843 41.7289C83.6951 42.0409 82.8027 42.3441 81.9161 42.6649C81.7315 42.7315 81.5672 42.6764 81.3961 42.6582C81.1289 42.6301 81.1289 42.627 81.185 42.3613C81.6322 40.2317 82.0796 38.1028 82.5271 35.9746C82.5323 35.9507 82.5386 35.9268 82.5443 35.9023C82.5963 35.9143 82.6083 35.9569 82.6285 35.9866C83.6394 37.4878 85.0564 38.3697 86.8145 38.7317C87.4897 38.8674 88.1767 38.9355 88.8654 38.935C88.9694 38.935 88.9965 38.9677 89.0022 39.0655C89.0204 39.3593 89.0474 39.6526 89.0745 39.9459C89.0861 40.0533 89.0773 40.162 89.0485 40.2662C88.972 40.5324 88.9023 40.8002 88.8254 41.0659C88.814 41.1 88.8107 41.1363 88.8157 41.1718C88.8208 41.2074 88.834 41.2413 88.8545 41.2708C89.3157 42.0139 89.7723 42.7591 90.232 43.5027C90.2743 43.5676 90.2979 43.643 90.3001 43.7205C90.3131 44.149 90.3298 44.5775 90.3474 45.006C90.3506 45.0705 90.3391 45.1349 90.3136 45.1942C90.115 45.6783 89.9215 46.1645 89.7193 46.6471C89.6556 46.789 89.6228 46.9429 89.6231 47.0985C89.6231 47.2363 89.6095 47.3741 89.6017 47.5082C89.5633 47.5264 89.5466 47.4999 89.5284 47.4843C88.8004 46.8811 88.0776 46.2758 87.3491 45.6752C87.2638 45.605 87.268 45.5759 87.3595 45.5192C87.8129 45.2405 88.2633 44.9566 88.7141 44.6737C88.7521 44.6513 88.7879 44.6274 88.8425 44.5915Z" fill="#162D4C"/>
<path d="M84.6856 42.2227C84.7281 42.227 84.7676 42.2466 84.7969 42.2778C85.4746 42.752 86.1522 43.2257 86.8296 43.6989C86.9086 43.7535 86.9284 43.8029 86.9076 43.9007C86.6996 44.8887 86.504 45.884 86.3012 46.8751C86.2819 46.959 86.2945 47.047 86.3366 47.1221C86.4188 47.2781 86.4926 47.4388 86.568 47.5958C86.5295 47.6379 86.4884 47.6213 86.4526 47.6213C85.6252 47.6213 84.7979 47.6213 83.9701 47.6249C83.9345 47.6287 83.8987 47.6201 83.8687 47.6006C83.8387 47.5811 83.8163 47.5519 83.8052 47.5178C83.7454 47.3837 83.681 47.2511 83.6082 47.1231C83.5858 47.0869 83.5731 47.0455 83.5715 47.0029C83.5698 46.9604 83.5792 46.9181 83.5988 46.8803C83.943 46.0634 84.2821 45.2444 84.6253 44.4275C84.6672 44.3288 84.6883 44.2226 84.6872 44.1155C84.6835 43.4868 84.6856 42.8591 84.6856 42.2227Z" fill="#162D4C"/>
<path d="M96.1339 39.2328C94.604 39.2328 93.2078 38.7752 91.9099 37.9848C91.4507 37.7061 91.0176 37.3868 90.6156 37.0306C90.5392 36.963 90.5407 36.9156 90.599 36.8413C90.9141 36.4378 91.3374 36.3254 91.8246 36.3769C91.9953 36.3973 92.1572 36.464 92.2926 36.5698C93.3368 37.3374 94.4657 37.9348 95.7324 38.2494C96.4438 38.4251 97.1798 38.4789 97.9091 38.4086C98.0813 38.393 98.2555 38.3961 98.4291 38.3976C98.5009 38.3976 98.5851 38.4039 98.6184 38.4829C98.6543 38.5718 98.5987 38.6389 98.5373 38.6998C98.4078 38.8155 98.2544 38.9012 98.088 38.9509C97.5472 39.1381 96.9861 39.2083 96.4178 39.2312C96.3242 39.2359 96.229 39.2328 96.1339 39.2328Z" fill="#162D4C"/>
<path d="M92.2622 38.6699C92.7723 38.9647 93.3195 39.1898 93.8893 39.3392C94.0313 39.3775 94.1754 39.4074 94.3209 39.4286C94.4067 39.44 94.4176 39.4764 94.4093 39.5472C94.393 39.763 94.3448 39.9752 94.2663 40.1769C93.959 40.8919 93.6075 41.5876 93.3116 42.3089C93.1883 42.6089 93.0609 42.9074 92.9996 43.2277C92.9278 43.5917 93.18 43.8564 93.5471 43.7904C93.6459 43.7727 93.6756 43.7966 93.6938 43.8881C93.7209 44.0327 93.7353 44.1794 93.7369 44.3265C93.74 44.3608 93.7321 44.3952 93.7143 44.4247C93.6966 44.4543 93.6699 44.4774 93.6381 44.4908C93.2299 44.7014 92.8415 44.626 92.4879 44.3785C92.113 44.1159 91.9679 43.7176 91.9461 43.2756C91.9169 42.7285 91.9892 42.1867 92.0599 41.6454C92.1515 40.9506 92.3002 40.2642 92.3688 39.5654C92.3912 39.3376 92.3168 39.1202 92.2965 38.8966C92.2882 38.828 92.2758 38.7588 92.2622 38.6699Z" fill="#162D4C"/>
<path d="M90.2094 33.6745L88.2334 33.9485C88.2396 33.8913 88.2854 33.8736 88.3145 33.8471C88.6685 33.5351 89.0235 33.2241 89.3795 32.9142C89.4138 32.8846 89.446 32.8201 89.5048 32.8861L90.2094 33.6745Z" fill="white"/>
</g>
</g>
<defs>
<clipPath id="clip0_8973_58537">
<rect width="52" height="52" fill="white" transform="translate(61 19)"/>
</clipPath>
<clipPath id="clip1_8973_58537">
<rect width="52" height="52" fill="white" transform="translate(61 19)"/>
</clipPath>
</defs>
</svg>
