<svg width="75" height="75" viewBox="0 0 75 75" fill="none" xmlns="http://www.w3.org/2000/svg">
<path d="M37.687 66.954C54.3297 66.954 67.8212 53.4625 67.8212 36.8198C67.8212 20.1771 54.3297 6.68555 37.687 6.68555C21.0443 6.68555 7.55273 20.1771 7.55273 36.8198C7.55273 53.4625 21.0443 66.954 37.687 66.954Z" fill="#0A1E45"/>
<path opacity="0.663" fill-rule="evenodd" clip-rule="evenodd" d="M67.7282 36.7355C67.7282 53.4305 54.1944 66.9643 37.5032 66.9643C20.8119 66.9643 7.27441 53.4305 7.27441 36.7355C7.27441 29.3503 7.48141 28.2523 10.3884 24.0478C10.3884 24.0478 10.2384 28.7968 13.7207 31.6228C15.8859 33.3785 18.1457 32.111 22.2819 30.206C26.7564 28.1435 30.3939 26.813 33.2319 27.164C37.5069 27.6935 50.6837 35.6068 57.5604 34.031C63.0542 32.7748 62.4744 19.8223 62.4744 19.8223C68.4744 25.6813 67.7282 29.6413 67.7282 36.7355Z" fill="url(#paint0_linear_7235_5972)"/>
<path opacity="0.586" fill-rule="evenodd" clip-rule="evenodd" d="M50.4746 58.9408C61.4071 48.6573 63.2244 36.8763 55.9264 23.5978C55.9634 23.6248 56.4149 22.0668 57.2809 18.9238C61.1649 23.6273 63.2301 29.4328 63.4766 36.3403C63.4746 45.2873 59.1406 52.8208 50.4746 58.9408Z" fill="url(#paint1_linear_7235_5972)"/>
<path opacity="0.744" fill-rule="evenodd" clip-rule="evenodd" d="M45.2891 18.9868C40.0121 16.0663 33.9581 10.1915 34.7629 8.95778C35.5676 7.72403 46.0129 7.93628 51.2906 10.8568C56.5684 13.7773 61.0601 22.538 60.2561 23.7718C59.4521 25.0055 50.5661 21.9073 45.2891 18.9868Z" fill="url(#paint2_radial_7235_5972)"/>
<path fill-rule="evenodd" clip-rule="evenodd" d="M49.8867 44.2398C45.509 44.2398 41.96 40.5895 41.96 36.0873C41.96 31.585 45.509 27.9355 49.8867 27.9355C54.2645 27.9355 57.8142 31.585 57.8142 36.0873C57.8142 40.5895 54.2652 44.2398 49.8867 44.2398ZM49.943 41.6538C52.6752 41.6538 54.893 39.1615 54.893 36.0873C54.893 33.013 52.6752 30.523 49.943 30.523C47.2107 30.523 44.993 33.0153 44.993 36.0888C44.993 39.1623 47.2107 41.6538 49.943 41.6538Z" fill="white"/>
<path fill-rule="evenodd" clip-rule="evenodd" d="M33.5312 21.373H39.2433V44.1505H36.1075V23.8713H33.5312V21.373Z" fill="white"/>
<path fill-rule="evenodd" clip-rule="evenodd" d="M29.2734 28.1683H32.2382V47.1898C32.2382 48.923 30.4149 50.7283 28.6382 51.5053C27.7982 51.8723 26.2482 52.0903 23.9882 52.1593V50.267C26.1987 50.0205 27.6907 49.5288 28.4642 48.7918C28.9105 48.1715 29.1895 47.4467 29.2742 46.6873V41.099C28.4817 42.7805 27.4837 43.8953 26.2802 44.4433C25.0292 45.1183 22.4829 45.0073 21.4434 44.4433C20.4039 43.8793 18.8792 42.3943 18.1802 40.1825C17.9867 39.572 17.5052 37.9108 17.5554 36.1505C17.6004 34.4743 18.1554 32.7005 18.6167 31.9715C19.4087 30.7265 20.6574 29.1673 22.5489 28.5155C23.4729 28.197 25.1854 28.0825 27.6864 28.172V30.0538C25.8279 29.9283 24.6684 29.991 24.2079 30.242C23.5172 30.617 21.9579 31.0798 21.4434 34.478C20.9289 37.8763 21.4584 40.6573 23.0897 41.528C23.6484 41.828 24.6369 42.1828 25.5504 41.87C27.3054 41.27 28.9569 39.1303 29.0829 37.6805C29.2099 36.2095 29.2734 33.0388 29.2734 28.1683Z" fill="white"/>
<path fill-rule="evenodd" clip-rule="evenodd" d="M66.7821 42.7869C63.9823 56.2682 52.0363 66.3977 37.7256 66.3977C21.3358 66.3977 8.04883 53.1107 8.04883 36.7209C8.04883 26.5389 13.1766 17.5547 20.9901 12.2109C14.6413 17.4759 10.5988 25.4297 10.5988 34.3239C10.5988 50.1887 23.4598 63.0489 39.3238 63.0489C52.2433 63.0489 63.1693 54.5207 66.7821 42.7869Z" fill="url(#paint3_radial_7235_5972)"/>
<path fill-rule="evenodd" clip-rule="evenodd" d="M37.7239 1.57617C18.3139 1.57617 2.57812 17.3112 2.57812 36.7212C2.57812 56.1312 18.3139 71.8669 37.7239 71.8669C57.1339 71.8669 72.8696 56.1312 72.8696 36.7212C72.8696 17.3112 57.1339 1.57617 37.7239 1.57617ZM37.7239 66.3987C21.3341 66.3987 8.04713 53.1117 8.04713 36.7219C8.04713 26.5399 13.1749 17.5557 20.9884 12.2119C25.9161 8.83697 31.7512 7.03524 37.7239 7.04442C54.1136 7.04442 67.4006 20.3307 67.4006 36.7212C67.4017 38.7591 67.1939 40.7917 66.7804 42.7872C63.9806 56.2684 52.0346 66.3979 37.7239 66.3979V66.3987Z" fill="#0A1E45"/>
<defs>
<linearGradient id="paint0_linear_7235_5972" x1="36.3354" y1="23.9503" x2="40.2099" y2="58.94" gradientUnits="userSpaceOnUse">
<stop stop-color="#0A1E45"/>
<stop offset="0.46" stop-color="#0A1E45"/>
<stop offset="0.91" stop-color="#0A1E45"/>
</linearGradient>
<linearGradient id="paint1_linear_7235_5972" x1="58.719" y1="21.6773" x2="58.719" y2="49.9714" gradientUnits="userSpaceOnUse">
<stop stop-color="white" stop-opacity="0"/>
<stop offset="0.64" stop-color="white" stop-opacity="0.43"/>
<stop offset="1" stop-color="white" stop-opacity="0.42"/>
</linearGradient>
<radialGradient id="paint2_radial_7235_5972" cx="0" cy="0" r="1" gradientUnits="userSpaceOnUse" gradientTransform="translate(48.1517 16.563) rotate(26.7606) scale(14.8907 6.20173)">
<stop offset="0.13" stop-color="white"/>
<stop offset="0.29" stop-color="white" stop-opacity="0.69"/>
<stop offset="0.45" stop-color="white" stop-opacity="0.4"/>
<stop offset="0.59" stop-color="white" stop-opacity="0.18"/>
<stop offset="0.69" stop-color="white" stop-opacity="0.05"/>
<stop offset="0.74" stop-color="white" stop-opacity="0"/>
</radialGradient>
<radialGradient id="paint3_radial_7235_5972" cx="0" cy="0" r="1" gradientUnits="userSpaceOnUse" gradientTransform="translate(42.8145 29.8833) rotate(39.84) scale(33.3698 36.373)">
<stop offset="0.86" stop-opacity="0"/>
<stop offset="0.98" stop-opacity="0.47"/>
<stop offset="1"/>
</radialGradient>
</defs>
</svg>
