<svg width="181" height="90" viewBox="0 0 181 90" fill="none" xmlns="http://www.w3.org/2000/svg">
<rect width="181" height="90" fill="#F2F4F8"/>
<g clip-path="url(#clip0_8973_58498)">
<path d="M91.4715 67.0172C103.676 67.0172 113.57 57.1234 113.57 44.9188C113.57 32.7141 103.676 22.8203 91.4715 22.8203C79.2669 22.8203 69.373 32.7141 69.373 44.9188C69.373 57.1234 79.2669 67.0172 91.4715 67.0172Z" fill="#0A1E45"/>
<path opacity="0.663" fill-rule="evenodd" clip-rule="evenodd" d="M113.502 44.8581C113.502 57.1011 103.577 67.0259 91.3367 67.0259C79.0964 67.0259 69.1689 57.1011 69.1689 44.8581C69.1689 39.4423 69.3207 38.6371 71.4525 35.5538C71.4525 35.5538 71.3425 39.0364 73.8962 41.1088C75.484 42.3963 77.1412 41.4668 80.1744 40.0698C83.4557 38.5573 86.1232 37.5816 88.2044 37.839C91.3394 38.2273 101.002 44.0304 106.045 42.8748C110.074 41.9536 109.649 32.4551 109.649 32.4551C114.049 36.7517 113.502 39.6557 113.502 44.8581Z" fill="url(#paint0_linear_8973_58498)"/>
<path opacity="0.586" fill-rule="evenodd" clip-rule="evenodd" d="M100.849 61.1407C108.866 53.5995 110.198 44.9601 104.847 35.2225C104.874 35.2423 105.205 34.0998 105.84 31.7949C108.688 35.2442 110.203 39.5015 110.383 44.567C110.382 51.1282 107.204 56.6527 100.849 61.1407Z" fill="url(#paint1_linear_8973_58498)"/>
<path opacity="0.744" fill-rule="evenodd" clip-rule="evenodd" d="M97.0458 31.8413C93.176 29.6996 88.7364 25.3915 89.3266 24.4867C89.9167 23.582 97.5766 23.7376 101.447 25.8793C105.317 28.021 108.611 34.4456 108.022 35.3503C107.432 36.2551 100.916 33.983 97.0458 31.8413Z" fill="url(#paint2_radial_8973_58498)"/>
<path fill-rule="evenodd" clip-rule="evenodd" d="M100.417 50.3607C97.2071 50.3607 94.6045 47.6839 94.6045 44.3822C94.6045 41.0806 97.2071 38.4043 100.417 38.4043C103.628 38.4043 106.231 41.0806 106.231 44.3822C106.231 47.6839 103.628 50.3607 100.417 50.3607ZM100.459 48.4643C102.462 48.4643 104.089 46.6367 104.089 44.3822C104.089 42.1278 102.462 40.3018 100.459 40.3018C98.455 40.3018 96.8287 42.1294 96.8287 44.3833C96.8287 46.6372 98.455 48.4643 100.459 48.4643Z" fill="white"/>
<path fill-rule="evenodd" clip-rule="evenodd" d="M88.4238 33.5918H92.6126V50.2953H90.3131V35.4238H88.4238V33.5918Z" fill="white"/>
<path fill-rule="evenodd" clip-rule="evenodd" d="M85.301 38.5755H87.4751V52.5246C87.4751 53.7956 86.1381 55.1195 84.8351 55.6893C84.2191 55.9584 83.0824 56.1183 81.4251 56.1689V54.7812C83.0461 54.6005 84.1403 54.2399 84.7075 53.6994C85.0348 53.2445 85.2394 52.713 85.3015 52.1561V48.058C84.7203 49.2911 83.9885 50.1086 83.1059 50.5105C82.1885 51.0055 80.3213 50.9241 79.559 50.5105C78.7967 50.0969 77.6785 49.0079 77.1659 47.3859C77.024 46.9382 76.6709 45.72 76.7078 44.4291C76.7408 43.1999 77.1478 41.8991 77.486 41.3645C78.0668 40.4515 78.9826 39.3081 80.3697 38.8301C81.0473 38.5966 82.3031 38.5126 84.1372 38.5782V39.9582C82.7743 39.8662 81.924 39.9122 81.5863 40.0962C81.0797 40.3712 79.9363 40.7106 79.559 43.2026C79.1817 45.6947 79.57 47.7341 80.7662 48.3726C81.176 48.5926 81.9009 48.8528 82.5708 48.6234C83.8578 48.1834 85.0689 46.6143 85.1613 45.5511C85.2544 44.4724 85.301 42.1472 85.301 38.5755Z" fill="white"/>
<path fill-rule="evenodd" clip-rule="evenodd" d="M112.807 49.2954C110.754 59.1817 101.994 66.61 91.4993 66.61C79.4801 66.61 69.7363 56.8662 69.7363 44.847C69.7363 37.3802 73.4967 30.7918 79.2266 26.873C74.5708 30.734 71.6063 36.5668 71.6063 43.0892C71.6063 54.7234 81.0377 64.1543 92.6713 64.1543C102.146 64.1543 110.158 57.9002 112.807 49.2954Z" fill="url(#paint3_radial_8973_58498)"/>
<path fill-rule="evenodd" clip-rule="evenodd" d="M91.4982 19.0742C77.2642 19.0742 65.7246 30.6132 65.7246 44.8472C65.7246 59.0812 77.2642 70.6208 91.4982 70.6208C105.732 70.6208 117.272 59.0812 117.272 44.8472C117.272 30.6132 105.732 19.0742 91.4982 19.0742ZM91.4982 66.6107C79.479 66.6107 69.7352 56.8669 69.7352 44.8478C69.7352 37.381 73.4956 30.7925 79.2255 26.8738C82.8391 24.3988 87.1182 23.0775 91.4982 23.0843C103.517 23.0843 113.261 32.8275 113.261 44.8472C113.262 46.3417 113.109 47.8323 112.806 49.2956C110.753 59.1819 101.993 66.6102 91.4982 66.6102V66.6107Z" fill="#0A1E45"/>
</g>
<defs>
<linearGradient id="paint0_linear_8973_58498" x1="90.4803" y1="35.4823" x2="93.3216" y2="61.1414" gradientUnits="userSpaceOnUse">
<stop stop-color="#0A1E45"/>
<stop offset="0.46" stop-color="#0A1E45"/>
<stop offset="0.91" stop-color="#0A1E45"/>
</linearGradient>
<linearGradient id="paint1_linear_8973_58498" x1="106.894" y1="33.8141" x2="106.894" y2="54.5631" gradientUnits="userSpaceOnUse">
<stop stop-color="white" stop-opacity="0"/>
<stop offset="0.64" stop-color="white" stop-opacity="0.43"/>
<stop offset="1" stop-color="white" stop-opacity="0.42"/>
</linearGradient>
<radialGradient id="paint2_radial_8973_58498" cx="0" cy="0" r="1" gradientUnits="userSpaceOnUse" gradientTransform="translate(99.1451 30.0639) rotate(26.7606) scale(10.9199 4.54794)">
<stop offset="0.13" stop-color="white"/>
<stop offset="0.29" stop-color="white" stop-opacity="0.69"/>
<stop offset="0.45" stop-color="white" stop-opacity="0.4"/>
<stop offset="0.59" stop-color="white" stop-opacity="0.18"/>
<stop offset="0.69" stop-color="white" stop-opacity="0.05"/>
<stop offset="0.74" stop-color="white" stop-opacity="0"/>
</radialGradient>
<radialGradient id="paint3_radial_8973_58498" cx="0" cy="0" r="1" gradientUnits="userSpaceOnUse" gradientTransform="translate(95.2311 39.8328) rotate(39.84) scale(24.4712 26.6736)">
<stop offset="0.86" stop-opacity="0"/>
<stop offset="0.98" stop-opacity="0.47"/>
<stop offset="1"/>
</radialGradient>
<clipPath id="clip0_8973_58498">
<rect width="55" height="55" fill="white" transform="translate(62 17)"/>
</clipPath>
</defs>
</svg>
