<svg width="116" height="117" viewBox="0 0 116 117" fill="none" xmlns="http://www.w3.org/2000/svg">
<path d="M58.2893 104.057C84.03 104.057 104.897 83.1901 104.897 57.4494C104.897 31.7087 84.03 10.8418 58.2893 10.8418C32.5486 10.8418 11.6816 31.7087 11.6816 57.4494C11.6816 83.1901 32.5486 104.057 58.2893 104.057Z" fill="#0A1E45"/>
<path opacity="0.663" fill-rule="evenodd" clip-rule="evenodd" d="M104.755 57.3174C104.755 83.139 83.8225 104.071 58.0067 104.071C32.1909 104.071 11.2529 83.139 11.2529 57.3174C11.2529 45.8948 11.5731 44.1966 16.0693 37.6936C16.0693 37.6936 15.8372 45.0388 21.2231 49.4096C24.572 52.1252 28.0671 50.1648 34.4645 47.2184C41.3851 44.0284 47.0111 41.9706 51.4005 42.5134C58.0125 43.3324 78.3926 55.5716 89.0286 53.1344C97.5256 51.1914 96.6289 31.1582 96.6289 31.1582C105.909 40.2201 104.755 46.3449 104.755 57.3174Z" fill="url(#paint0_linear_5809_33134)"/>
<path opacity="0.586" fill-rule="evenodd" clip-rule="evenodd" d="M78.0674 91.6605C94.9763 75.7554 97.787 57.5341 86.4994 36.9967C86.5567 37.0385 87.255 34.6288 88.5944 29.7676C94.6016 37.0423 97.7959 46.0215 98.1771 56.7051C98.174 70.5431 91.4708 82.1949 78.0674 91.6605Z" fill="url(#paint1_linear_5809_33134)"/>
<path opacity="0.744" fill-rule="evenodd" clip-rule="evenodd" d="M70.0479 29.8642C61.8862 25.3472 52.5226 16.2609 53.7673 14.3527C55.012 12.4445 71.1673 12.7728 79.3302 17.2898C87.4932 21.8069 94.4404 35.3568 93.1969 37.265C91.9534 39.1732 78.2097 34.3813 70.0479 29.8642Z" fill="url(#paint2_radial_5809_33134)"/>
<path fill-rule="evenodd" clip-rule="evenodd" d="M77.1585 68.9262C70.3876 68.9262 64.8984 63.2805 64.8984 56.317C64.8984 49.3535 70.3876 43.709 77.1585 43.709C83.9294 43.709 89.4197 49.3535 89.4197 56.317C89.4197 63.2805 83.9306 68.9262 77.1585 68.9262ZM77.2455 64.9265C81.4714 64.9265 84.9015 61.0719 84.9015 56.317C84.9015 51.5622 81.4714 47.711 77.2455 47.711C73.0196 47.711 69.5895 51.5657 69.5895 56.3193C69.5895 61.073 73.0196 64.9265 77.2455 64.9265Z" fill="white"/>
<path fill-rule="evenodd" clip-rule="evenodd" d="M51.8613 33.5566H60.6959V68.7858H55.8459V37.4206H51.8613V33.5566Z" fill="white"/>
<path fill-rule="evenodd" clip-rule="evenodd" d="M45.277 44.0671H49.8624V73.487C49.8624 76.1678 47.0425 78.9599 44.2944 80.1616C42.9952 80.7293 40.5979 81.0664 37.1024 81.1732V78.2465C40.5213 77.8652 42.829 77.1047 44.0253 75.9648C44.7157 75.0054 45.1471 73.8844 45.2781 72.7098V64.0666C44.0524 66.6674 42.5088 68.3915 40.6474 69.2391C38.7125 70.2831 34.7743 70.1114 33.1666 69.2391C31.5588 68.3668 29.2005 66.07 28.1194 62.6491C27.8201 61.7049 27.0754 59.1355 27.1531 56.413C27.2227 53.8204 28.0811 51.077 28.7945 49.9494C30.0195 48.0238 31.9509 45.6122 34.8764 44.6042C36.3055 44.1116 38.9542 43.9345 42.8224 44.0729V46.9833C39.9479 46.7892 38.1546 46.8863 37.4423 47.2745C36.374 47.8545 33.9623 48.5702 33.1666 53.8262C32.3708 59.0821 33.1898 63.3834 35.7128 64.7302C36.577 65.1942 38.1058 65.7429 39.5187 65.2591C42.2331 64.3311 44.7874 61.0217 44.9823 58.7794C45.1787 56.5042 45.277 51.6001 45.277 44.0671Z" fill="white"/>
<path fill-rule="evenodd" clip-rule="evenodd" d="M103.29 66.6756C98.9597 87.5266 80.4832 103.194 58.3493 103.194C32.9998 103.194 12.4492 82.643 12.4492 57.2936C12.4492 41.5454 20.3801 27.6498 32.465 19.3848C22.6456 27.528 16.3932 39.8298 16.3932 53.5862C16.3932 78.1237 36.2849 98.0142 60.8212 98.0142C80.8034 98.0142 97.7023 84.8238 103.29 66.6756Z" fill="url(#paint3_radial_5809_33134)"/>
<path fill-rule="evenodd" clip-rule="evenodd" d="M58.347 2.93555C28.3262 2.93555 3.98828 27.2723 3.98828 57.2931C3.98828 87.3139 28.3262 111.652 58.347 111.652C88.3678 111.652 112.706 87.3139 112.706 57.2931C112.706 27.2723 88.3678 2.93555 58.347 2.93555ZM58.347 103.194C32.9976 103.194 12.447 82.6438 12.447 57.2943C12.447 41.5461 20.3779 27.6505 32.4628 19.3855C40.0843 14.1656 49.1093 11.3789 58.347 11.3931C83.6965 11.3931 104.247 31.9425 104.247 57.2931C104.249 60.4451 103.927 63.5889 103.288 66.6752C98.9575 87.5262 80.481 103.193 58.347 103.193V103.194Z" fill="#0A1E45"/>
<defs>
<linearGradient id="paint0_linear_5809_33134" x1="56.2006" y1="37.5428" x2="62.1932" y2="91.6603" gradientUnits="userSpaceOnUse">
<stop stop-color="#0A1E45"/>
<stop offset="0.46" stop-color="#0A1E45"/>
<stop offset="0.91" stop-color="#0A1E45"/>
</linearGradient>
<linearGradient id="paint1_linear_5809_33134" x1="90.8187" y1="34.0263" x2="90.8187" y2="77.7878" gradientUnits="userSpaceOnUse">
<stop stop-color="white" stop-opacity="0"/>
<stop offset="0.64" stop-color="white" stop-opacity="0.43"/>
<stop offset="1" stop-color="white" stop-opacity="0.42"/>
</linearGradient>
<radialGradient id="paint2_radial_5809_33134" cx="0" cy="0" r="1" gradientUnits="userSpaceOnUse" gradientTransform="translate(74.4754 26.1155) rotate(26.7606) scale(23.031 9.59201)">
<stop offset="0.13" stop-color="white"/>
<stop offset="0.29" stop-color="white" stop-opacity="0.69"/>
<stop offset="0.45" stop-color="white" stop-opacity="0.4"/>
<stop offset="0.59" stop-color="white" stop-opacity="0.18"/>
<stop offset="0.69" stop-color="white" stop-opacity="0.05"/>
<stop offset="0.74" stop-color="white" stop-opacity="0"/>
</radialGradient>
<radialGradient id="paint3_radial_5809_33134" cx="0" cy="0" r="1" gradientUnits="userSpaceOnUse" gradientTransform="translate(66.2201 46.7181) rotate(39.84) scale(51.6119 56.257)">
<stop offset="0.86" stop-opacity="0"/>
<stop offset="0.98" stop-opacity="0.47"/>
<stop offset="1"/>
</radialGradient>
</defs>
</svg>
