<svg width="181" height="90" viewBox="0 0 181 90" fill="none" xmlns="http://www.w3.org/2000/svg">
<rect width="181" height="90" fill="#F2F4F8"/>
<path d="M86.2881 33.236C86.2881 29.1432 86.2881 25.0748 86.2881 21.0063C86.3021 21.0042 86.3162 21.0021 86.3302 21C86.4109 21.3272 86.4946 21.654 86.5718 21.9818C86.7647 22.8016 86.9365 23.6254 87.1502 24.4413C87.4741 25.6781 87.811 26.9127 88.1708 28.1423C88.5481 29.4315 88.9269 30.7216 89.3628 31.997C89.9609 33.7468 90.5698 35.4956 91.2554 37.2213C91.8668 38.7604 92.552 40.2803 93.273 41.7849C93.8942 43.0813 94.5748 44.3595 95.2971 45.6173C95.9876 46.8196 96.7402 47.9976 97.5135 49.163C98.0999 50.0468 98.729 50.9133 99.399 51.7526C100.098 52.6281 100.836 53.4845 101.617 54.3076C102.419 55.1522 103.284 55.9532 104.138 56.7609C105.139 57.7079 106.256 58.549 107.432 59.3337C108.03 59.7324 108.631 60.1278 109.254 60.5403C101.602 60.5403 93.9631 60.5403 86.2881 60.5403C86.2881 51.4571 86.2881 42.3587 86.2881 33.236Z" fill="#0A1E45"/>
<path d="M83.8808 49.6631C83.8808 53.4143 83.8808 57.1411 83.8808 60.8802C77.1129 60.8802 70.3632 60.8802 63.5264 60.8802C63.8777 60.6999 64.1656 60.5674 64.4348 60.4114C65.4548 59.8204 66.5015 59.2578 67.4754 58.6152C68.3569 58.0334 69.1811 57.383 69.985 56.7224C70.7555 56.0892 71.5029 55.4299 72.1974 54.736C73.4841 53.4503 74.6398 52.0777 75.6731 50.634C76.1946 49.9055 76.6912 49.163 77.169 48.4128C77.6258 47.6954 78.0831 46.9749 78.4699 46.2292C79.1809 44.8584 79.8729 43.4789 80.5112 42.0825C81.0516 40.9001 81.5614 39.7029 81.9837 38.4867C82.6243 36.6422 83.1773 34.7756 83.768 32.9185C83.7766 32.8915 83.7915 32.866 83.8034 32.8398C83.8292 32.8416 83.855 32.8433 83.8808 32.845C83.8808 38.4429 83.8808 44.0408 83.8808 49.6631Z" fill="#0A1E45"/>
<path d="M76.1946 25.6842C77.9748 25.989 79.5083 27.3606 79.7862 28.9194C79.9466 29.819 79.8558 30.6848 79.367 31.4868C78.6436 32.6737 77.5074 33.4325 75.9409 33.6601C74.5285 33.8653 73.2168 33.6261 72.0944 32.8536C71.1818 32.2255 70.5697 31.4133 70.3796 30.4049C70.2139 29.5257 70.299 28.666 70.7675 27.8602C71.2851 26.9699 72.0756 26.3216 73.1492 25.9063C73.7688 25.6666 74.4162 25.5913 75.07 25.5553C75.4321 25.5354 75.8033 25.6359 76.1946 25.6842Z" fill="#0A1E45"/>
<path d="M94.8235 68.9216C94.7024 68.9216 94.6081 68.9216 94.4914 68.9216C94.1464 67.7453 93.8027 66.5736 93.4502 65.3717C93.7027 65.3717 93.946 65.3594 94.1854 65.3798C94.2501 65.3853 94.3371 65.4825 94.3566 65.5498C94.5551 66.2369 94.7412 66.9267 94.9331 67.6152C94.9496 67.6745 94.9833 67.7304 95.0178 67.8075C95.2605 67.0165 95.4933 66.2491 95.7371 65.4842C95.7523 65.4364 95.8504 65.3825 95.9162 65.3758C96.4389 65.3223 96.5072 65.3799 96.6435 65.8478C96.8279 66.4807 97.031 67.1096 97.2286 67.7396C97.2346 67.7585 97.2695 67.7707 97.2951 67.7891C97.5141 67.0413 97.7412 66.2996 97.9416 65.5527C97.9809 65.4058 98.0381 65.364 98.1962 65.3699C98.3745 65.3767 98.5535 65.3715 98.7664 65.3715C98.6602 65.7618 98.5671 66.1287 98.4599 66.4925C98.2375 67.2473 97.9997 67.9989 97.7881 68.7558C97.7494 68.894 97.6883 68.926 97.5457 68.9228C97.3285 68.918 97.1111 68.9216 96.8903 68.9216C96.627 68.092 96.3677 67.2751 96.1049 66.4471C95.8338 67.2768 95.5675 68.0919 95.2965 68.9216C95.1519 68.9216 95.0011 68.9216 94.8235 68.9216Z" fill="#0A1E45"/>
<path d="M75.1631 66.5404C75.1631 66.1446 75.1631 65.7731 75.1631 65.3736C75.4789 65.3736 75.7797 65.3648 76.0788 65.3803C76.1465 65.3838 76.2282 65.4615 76.2697 65.522C76.7833 66.2698 77.2905 67.0207 77.8235 67.8063C77.8235 66.9847 77.8235 66.1943 77.8235 65.3887C78.0853 65.3887 78.3167 65.3887 78.5649 65.3887C78.5649 66.5576 78.5649 67.7277 78.5649 68.9233C78.3281 68.9233 78.0929 68.933 77.8601 68.9174C77.7886 68.9126 77.6993 68.8508 77.6593 68.7939C77.1643 68.0918 76.677 67.3858 76.1875 66.6808C76.1049 66.5617 76.0215 66.443 75.911 66.2849C75.911 67.1827 75.911 68.0361 75.911 68.9064C75.6627 68.9064 75.4312 68.9064 75.1631 68.9064C75.1631 68.1299 75.1631 67.3473 75.1631 66.5404Z" fill="#0A1E45"/>
<path d="M90.9967 68.9697C90.135 69.0044 89.477 68.7391 89.0613 68.1111C88.7571 67.6517 88.7076 67.1543 88.8563 66.641C89.0872 65.8445 89.8942 65.2876 90.8856 65.3155C91.4221 65.3305 91.9021 65.4083 92.3422 65.6972C92.729 65.9511 92.9505 66.2922 93.0223 66.6652C93.1075 67.108 93.1216 67.5768 92.8767 68.0052C92.5016 68.6616 91.8735 68.9726 90.9967 68.9697ZM89.6865 67.2612C89.7624 67.4849 89.7938 67.7298 89.923 67.9282C90.2648 68.4529 91.158 68.5942 91.7448 68.1726C92.247 67.8119 92.2966 66.921 92.0444 66.4698C91.7835 66.003 91.205 65.827 90.8561 65.8638C90.0597 65.9479 89.5921 66.4986 89.6865 67.2612Z" fill="#0A1E45"/>
<path d="M65.0672 68.0231C65.127 67.868 65.1762 67.7297 65.2374 67.5574C64.8478 67.5574 64.5198 67.5574 64.1806 67.5574C64.1806 67.3773 64.1806 67.2177 64.1806 67.0403C64.7863 67.0403 65.3976 67.0403 66.0109 67.0403C66.1884 67.8796 65.7911 68.7699 64.6498 68.9512C63.9528 69.0619 63.262 68.9997 62.6867 68.5958C62.3393 68.352 62.1622 68.0048 62.065 67.6366C61.9523 67.2095 61.9848 66.7863 62.1732 66.374C62.4477 65.7733 63.1412 65.3243 63.8682 65.3262C64.2471 65.3271 64.6397 65.3433 65.0013 65.4289C65.4851 65.5434 65.9365 66.0201 65.9261 66.5226C65.6556 66.5226 65.3844 66.5226 65.0922 66.5226C65.0631 66.0899 64.7066 65.9068 64.2688 65.8668C63.8529 65.8288 63.4741 65.9454 63.1945 66.2539C62.7146 66.7836 62.8316 67.8467 63.3587 68.2141C63.8654 68.5672 64.8371 68.4418 65.0672 68.0231Z" fill="#0A1E45"/>
<path d="M82.2039 65.5757C82.7095 65.8731 83.0143 66.2389 83.0943 66.7663C83.1756 67.3013 83.0988 67.7831 82.7696 68.2421C82.4547 68.6813 81.9567 68.868 81.4013 68.9106C80.8383 68.9538 80.2672 68.9201 79.6816 68.9201C79.6816 67.7402 79.6816 66.5714 79.6816 65.363C80.5137 65.436 81.3751 65.2147 82.2039 65.5757ZM81.8854 66.2214C81.4915 65.8664 80.9851 65.9048 80.4764 65.9085C80.4764 66.7425 80.4764 67.556 80.4764 68.38C81.1257 68.4033 81.7507 68.3818 82.0931 67.828C82.3528 67.408 82.3296 66.5513 81.8854 66.2214Z" fill="#0A1E45"/>
<path d="M68.5391 68.0106C68.4315 67.8709 68.3672 67.7135 68.2379 67.6258C68.1087 67.5383 67.9145 67.5206 67.7031 67.459C67.7031 67.984 67.7031 68.442 67.7031 68.9113C67.4272 68.9113 67.1768 68.9113 66.9141 68.9113C66.9141 67.7374 66.9141 66.573 66.9141 65.3731C67.3315 65.3731 67.7542 65.3674 68.1767 65.3752C68.4473 65.3802 68.7185 65.3968 68.9875 65.4232C69.5164 65.475 69.8845 65.89 69.9195 66.274C69.9719 66.849 69.7428 67.1717 69.1591 67.374C69.1261 67.3854 69.1013 67.4142 69.0455 67.4545C69.4145 67.9307 69.7833 68.4067 70.1831 68.9226C69.8697 68.9226 69.6 68.9288 69.3313 68.9175C69.2769 68.9152 69.2139 68.8544 69.1761 68.808C68.9651 68.5486 68.7606 68.2854 68.5391 68.0106ZM69.0076 66.1406C68.6452 65.7771 68.1623 65.9506 67.7136 65.9058C67.7136 66.2901 67.7136 66.6496 67.7136 67.0456C67.97 67.0221 68.2087 67 68.4475 66.9782C69.0144 66.9264 69.2047 66.6586 69.0076 66.1406Z" fill="#0A1E45"/>
<path d="M103.081 68.8591C103.078 67.6881 103.078 66.5403 103.078 65.4193C103.796 65.4193 104.497 65.3687 105.182 65.4331C105.91 65.5013 106.2 66.1035 106.079 66.6746C105.994 67.0756 105.649 67.2703 105.21 67.4355C105.588 67.9248 105.956 68.4001 106.358 68.9199C106.043 68.9199 105.766 68.9263 105.491 68.9143C105.439 68.912 105.383 68.8417 105.344 68.7935C105.075 68.454 104.797 68.1192 104.55 67.7685C104.392 67.5446 104.2 67.451 103.879 67.5348C103.879 67.9818 103.879 68.4396 103.879 68.9369C103.595 68.9175 103.339 68.9 103.081 68.8591ZM105.13 66.0777C104.755 65.806 104.314 65.9355 103.891 65.9056C103.891 66.2905 103.891 66.6501 103.891 67.0445C104.14 67.0204 104.37 67.0013 104.599 66.9754C105.235 66.9034 105.422 66.6118 105.13 66.0777Z" fill="#0A1E45"/>
<path d="M109.802 66.0206C109.828 66.1475 109.853 66.2544 109.882 66.3795C109.617 66.3795 109.383 66.3795 109.148 66.3795C108.927 65.83 108.267 65.6555 107.819 66.0128C107.553 66.2242 107.652 66.5962 108 66.6802C108.282 66.7483 108.584 66.762 108.863 66.8363C109.139 66.9096 109.425 66.9961 109.66 67.134C110.231 67.4681 110.088 68.6462 109.201 68.8737C108.633 69.0197 108.066 69.0443 107.512 68.838C107.078 68.6762 106.833 68.3862 106.781 67.9799C106.774 67.9269 106.748 67.8757 106.727 67.8123C107.004 67.8123 107.267 67.8123 107.556 67.8123C107.604 68.0894 107.739 68.3433 108.098 68.4082C108.437 68.4693 108.783 68.4911 109.055 68.226C109.284 68.003 109.252 67.6822 108.932 67.5657C108.657 67.466 108.347 67.4401 108.059 67.3626C107.782 67.2879 107.485 67.2255 107.247 67.0929C106.78 66.8334 106.847 66.3999 106.924 66.0203C106.998 65.6586 107.544 65.3443 108.007 65.3258C108.29 65.3145 108.579 65.3027 108.857 65.3384C109.314 65.3969 109.622 65.6389 109.802 66.0206Z" fill="#0A1E45"/>
<path d="M71.8784 65.4812C71.9481 65.4339 72.002 65.3779 72.0579 65.3764C72.3796 65.3678 72.7018 65.3722 73.0322 65.3722C73.4858 66.5497 73.9363 67.7189 74.3997 68.922C74.1121 68.922 73.8681 68.9285 73.6254 68.917C73.572 68.9144 73.4954 68.856 73.4761 68.8093C73.3752 68.5652 73.2894 68.3166 73.19 68.047C72.7477 68.047 72.2839 68.0418 71.8206 68.0528C71.7558 68.0543 71.6642 68.1241 71.6359 68.1808C71.5602 68.332 71.505 68.4916 71.4551 68.651C71.3927 68.8498 71.2854 68.9701 71.0098 68.9263C70.8657 68.9033 70.7123 68.9222 70.5459 68.9222C70.9911 67.7652 71.4273 66.6314 71.8784 65.4812ZM72.0258 67.5605C72.345 67.5605 72.6642 67.5605 73.0074 67.5605C72.8194 67.0574 72.6404 66.5781 72.4346 66.0269C72.2281 66.5633 72.0489 67.0265 71.8764 67.4915C71.8717 67.5043 71.9403 67.537 72.0258 67.5605Z" fill="#0A1E45"/>
<path d="M100.691 68.3865C101.211 68.3865 101.703 68.3865 102.21 68.3865C102.21 68.5677 102.21 68.7328 102.21 68.9098C101.314 68.9098 100.424 68.9098 99.5127 68.9098C99.5127 67.7465 99.5127 66.5763 99.5127 65.3887C100.376 65.3887 101.254 65.3887 102.15 65.3887C102.15 65.5467 102.15 65.7118 102.15 65.9001C101.542 65.9001 100.93 65.9001 100.303 65.9001C100.303 66.2174 100.303 66.5122 100.303 66.8298C100.789 66.8298 101.268 66.8298 101.758 66.8298C101.758 67.0117 101.758 67.1713 101.758 67.3536C101.283 67.3536 100.804 67.3536 100.307 67.3536C100.307 67.703 100.307 68.0303 100.307 68.3865C100.424 68.3865 100.543 68.3865 100.691 68.3865Z" fill="#0A1E45"/>
<path d="M87.2408 66.2502C87.2408 67.1475 87.2408 68.0208 87.2408 68.9077C86.9731 68.9077 86.7227 68.9077 86.4463 68.9077C86.4463 67.9124 86.4463 66.9207 86.4463 65.9069C86.0377 65.9069 85.6537 65.9069 85.2588 65.9069C85.2588 65.7253 85.2588 65.5658 85.2588 65.3887C86.2831 65.3887 87.3119 65.3887 88.3605 65.3887C88.3605 65.5449 88.3605 65.71 88.3605 65.8979C88.0034 65.8979 87.6385 65.8979 87.2408 65.8979C87.2408 66.0219 87.2408 66.1241 87.2408 66.2502Z" fill="#0A1E45"/>
<path d="M72.0001 67.5589C71.9401 67.5354 71.8715 67.5028 71.8762 67.4899C72.0486 67.0249 72.2279 66.5618 72.4343 66.0254C72.6402 66.5766 72.8192 67.0558 73.0071 67.559C72.664 67.559 72.3448 67.559 72.0001 67.5589Z" fill="white"/>
</svg>

