<svg width="75" height="75" viewBox="0 0 75 75" fill="none" xmlns="http://www.w3.org/2000/svg">
<path d="M37.9492 19.1188C37.9492 12.7238 37.9492 6.3668 37.9492 0.00978584C37.9711 0.00652314 37.9931 0.00326042 38.015 0C38.1411 0.511319 38.2719 1.02184 38.3925 1.53412C38.6939 2.81507 38.9623 4.10226 39.2962 5.37698C39.8024 7.30948 40.3288 9.23867 40.891 11.1598C41.4805 13.1743 42.0724 15.1901 42.7535 17.1828C43.6879 19.9169 44.6394 22.6494 45.7106 25.3458C46.6659 27.7507 47.7366 30.1255 48.8631 32.4764C49.8337 34.502 50.8972 36.4992 52.0258 38.4645C53.1046 40.3432 54.2806 42.1837 55.4889 44.0047C56.4052 45.3857 57.3881 46.7395 58.435 48.0509C59.5271 49.4189 60.6802 50.757 61.9007 52.0431C63.153 53.3628 64.5053 54.6144 65.8392 55.8764C67.4031 57.356 69.1491 58.6703 70.9869 59.8963C71.9209 60.5194 72.8597 61.1371 73.8332 61.7817C61.8768 61.7817 49.9415 61.7817 37.9492 61.7817C37.9492 47.5892 37.9492 33.373 37.9492 19.1188Z" fill="#0A1E45"/>
<path d="M34.1886 44.7843C34.1886 50.6456 34.1886 56.4688 34.1886 62.311C23.6138 62.311 13.0674 62.311 2.38477 62.311C2.93377 62.0294 3.38354 61.8224 3.80412 61.5787C5.39793 60.6551 7.03344 59.7762 8.55505 58.772C9.93245 57.863 11.2203 56.8468 12.4764 55.8146C13.6803 54.8252 14.8481 53.795 15.9332 52.7108C17.9438 50.7019 19.7494 48.5571 21.3641 46.3015C22.179 45.1631 22.9549 44.003 23.7013 42.8308C24.4151 41.7099 25.1296 40.5841 25.734 39.4189C26.8449 37.277 27.9262 35.1216 28.9235 32.9397C29.768 31.0922 30.5645 29.2216 31.2244 27.3213C32.2253 24.4393 33.0894 21.5227 34.0124 18.6209C34.0258 18.5788 34.049 18.539 34.0676 18.498C34.1079 18.5007 34.1482 18.5034 34.1886 18.5061C34.1886 27.2529 34.1886 35.9996 34.1886 44.7843Z" fill="#0A1E45"/>
<path d="M22.1782 7.31871C24.9599 7.79491 27.3559 9.93803 27.7902 12.3737C28.0408 13.7794 27.8989 15.1321 27.1351 16.3853C26.0049 18.2398 24.2296 19.4254 21.7819 19.781C19.575 20.1017 17.5255 19.7278 15.7718 18.5208C14.3458 17.5395 13.3894 16.2705 13.0924 14.6948C12.8334 13.321 12.9664 11.9777 13.6984 10.7186C14.5071 9.32758 15.7424 8.3147 17.4198 7.66574C18.388 7.29119 19.3995 7.17356 20.4211 7.11731C20.9869 7.08617 21.5669 7.24326 22.1782 7.31871Z" fill="#0A1E45"/>
<path d="M51.2864 74.8745C51.0971 74.8745 50.9499 74.8745 50.7674 74.8745C50.2284 73.0366 49.6914 71.2058 49.1406 69.3278C49.5352 69.3278 49.9153 69.3086 50.2894 69.3405C50.3905 69.3491 50.5265 69.501 50.5568 69.6061C50.8671 70.6797 51.1578 71.7575 51.4577 72.8334C51.4835 72.926 51.5361 73.0133 51.5899 73.1339C51.9692 71.8979 52.3329 70.6988 52.7139 69.5037C52.7377 69.4289 52.891 69.3447 52.9937 69.3342C53.8105 69.2507 53.9172 69.3406 54.1302 70.0717C54.4182 71.0606 54.7356 72.0433 55.0444 73.0277C55.0537 73.0572 55.1082 73.0763 55.1483 73.105C55.4905 71.9366 55.8454 70.7777 56.1584 69.6107C56.2199 69.3812 56.3091 69.3158 56.5562 69.3251C56.8349 69.3356 57.1145 69.3275 57.4472 69.3275C57.2813 69.9373 57.1358 70.5106 56.9683 71.0791C56.6208 72.2585 56.2492 73.4328 55.9185 74.6155C55.8582 74.8314 55.7626 74.8814 55.5398 74.8765C55.2005 74.8689 54.8608 74.8745 54.5157 74.8745C54.1044 73.5783 53.6993 72.3019 53.2886 71.0081C52.865 72.3046 52.449 73.5782 52.0254 74.8745C51.7995 74.8745 51.5639 74.8745 51.2864 74.8745Z" fill="#0A1E45"/>
<path d="M20.5664 71.1552C20.5664 70.5367 20.5664 69.9562 20.5664 69.332C21.0599 69.332 21.5298 69.3183 21.9971 69.3424C22.103 69.3479 22.2307 69.4694 22.2956 69.5638C23.0979 70.7323 23.8906 71.9057 24.7233 73.1332C24.7233 71.8494 24.7233 70.6144 24.7233 69.3556C25.1323 69.3556 25.494 69.3556 25.8818 69.3556C25.8818 71.182 25.8818 73.0104 25.8818 74.8784C25.5117 74.8784 25.1442 74.8936 24.7804 74.8692C24.6688 74.8618 24.5293 74.7651 24.4667 74.6763C23.6933 73.5793 22.9319 72.476 22.1671 71.3745C22.038 71.1885 21.9077 71.003 21.7351 70.756C21.7351 72.1588 21.7351 73.4922 21.7351 74.852C21.347 74.852 20.9853 74.852 20.5664 74.852C20.5664 73.6388 20.5664 72.416 20.5664 71.1552Z" fill="#0A1E45"/>
<path d="M45.3087 74.9535C43.9623 75.0078 42.9342 74.5932 42.2846 73.612C41.8093 72.8941 41.7319 72.117 41.9644 71.3149C42.3251 70.0704 43.586 69.2003 45.135 69.2437C45.9733 69.2673 46.7234 69.3888 47.411 69.8402C48.0154 70.2369 48.3616 70.7699 48.4737 71.3527C48.6069 72.0446 48.6288 72.777 48.2462 73.4465C47.6601 74.4721 46.6787 74.958 45.3087 74.9535ZM43.2614 72.284C43.3801 72.6336 43.4291 73.0162 43.6311 73.3262C44.1651 74.1459 45.5607 74.3667 46.4776 73.7081C47.2622 73.1444 47.3397 71.7525 46.9457 71.0473C46.5381 70.3181 45.6342 70.043 45.0889 70.1006C43.8446 70.2319 43.1139 71.0925 43.2614 72.284Z" fill="#0A1E45"/>
<path d="M4.79244 73.4738C4.886 73.2314 4.96275 73.0153 5.05839 72.746C4.44968 72.746 3.93723 72.746 3.40712 72.746C3.40712 72.4646 3.40712 72.2152 3.40712 71.9381C4.35356 71.9381 5.30874 71.9381 6.267 71.9381C6.54432 73.2496 5.92364 74.6405 4.14036 74.9239C3.05128 75.0969 1.97195 74.9997 1.07298 74.3686C0.530212 73.9876 0.253452 73.4451 0.101592 72.8699C-0.0746015 72.2025 -0.0236992 71.5412 0.27062 70.8971C0.699495 69.9584 1.78313 69.2569 2.9191 69.2598C3.51117 69.2613 4.12451 69.2866 4.68952 69.4203C5.4454 69.5993 6.15078 70.344 6.13455 71.1292C5.71182 71.1292 5.28807 71.1292 4.83152 71.1292C4.78612 70.4531 4.22908 70.167 3.54505 70.1045C2.89514 70.0451 2.30321 70.2273 1.8664 70.7094C1.11655 71.537 1.29931 73.1981 2.12304 73.7722C2.91463 74.3238 4.43291 74.128 4.79244 73.4738Z" fill="#0A1E45"/>
<path d="M31.5699 69.6494C32.3599 70.1141 32.8362 70.6857 32.9613 71.5097C33.0882 72.3457 32.9683 73.0984 32.4539 73.8157C31.9618 74.5019 31.1836 74.7936 30.3159 74.8602C29.4362 74.9277 28.5439 74.8751 27.6289 74.8751C27.6289 73.0314 27.6289 71.2052 27.6289 69.3171C28.929 69.4312 30.2749 69.0853 31.5699 69.6494ZM31.0724 70.6583C30.4568 70.1037 29.6655 70.1636 28.8707 70.1695C28.8707 71.4725 28.8707 72.7436 28.8707 74.0311C29.8853 74.0675 30.8618 74.0339 31.3968 73.1686C31.8026 72.5123 31.7664 71.1738 31.0724 70.6583Z" fill="#0A1E45"/>
<path d="M10.2188 73.4524C10.0507 73.2341 9.95017 72.9881 9.74813 72.8511C9.54625 72.7143 9.24282 72.6867 8.91259 72.5904C8.91259 73.4108 8.91259 74.1264 8.91259 74.8598C8.48152 74.8598 8.09021 74.8598 7.67969 74.8598C7.67969 73.0255 7.67969 71.2061 7.67969 69.3313C8.33188 69.3313 8.99247 69.3223 9.65251 69.3345C10.0753 69.3424 10.4992 69.3683 10.9194 69.4095C11.7459 69.4905 12.3209 70.1389 12.3756 70.7389C12.4576 71.6374 12.0996 72.1416 11.1876 72.4577C11.136 72.4755 11.0973 72.5204 11.01 72.5834C11.5866 73.3276 12.1629 74.0713 12.7875 74.8774C12.2979 74.8774 11.8765 74.887 11.4566 74.8694C11.3717 74.8658 11.2732 74.7708 11.2141 74.6983C10.8844 74.293 10.5649 73.8817 10.2188 73.4524ZM10.9508 70.5305C10.3845 69.9626 9.63003 70.2336 8.92902 70.1636C8.92902 70.764 8.92902 71.3257 8.92902 71.9445C9.32955 71.9077 9.70257 71.8733 10.0756 71.8392C10.9614 71.7583 11.2588 71.3399 10.9508 70.5305Z" fill="#0A1E45"/>
<path d="M64.1894 74.7813C64.1855 72.9515 64.1855 71.1581 64.1855 69.4064C65.3073 69.4064 66.4019 69.3275 67.4734 69.428C68.6101 69.5347 69.063 70.4756 68.8738 71.3679C68.7409 71.9944 68.2019 72.2987 67.516 72.5567C68.1077 73.3213 68.6825 74.064 69.3111 74.8762C68.8178 74.8762 68.3857 74.8862 67.9553 74.8674C67.8748 74.8639 67.7863 74.754 67.7267 74.6787C67.3064 74.1482 66.8713 73.625 66.4846 73.077C66.2377 72.7272 65.9379 72.581 65.4365 72.712C65.4365 73.4105 65.4365 74.1257 65.4365 74.9028C64.9934 74.8724 64.5933 74.845 64.1894 74.7813ZM67.391 70.4353C66.8049 70.0108 66.1165 70.2131 65.4555 70.1664C65.4555 70.7678 65.4555 71.3296 65.4555 71.9458C65.8445 71.9082 66.2042 71.8784 66.5622 71.8379C67.555 71.7255 67.8478 71.2697 67.391 70.4353Z" fill="#0A1E45"/>
<path d="M74.69 70.3436C74.731 70.5419 74.77 70.7089 74.8156 70.9044C74.4004 70.9044 74.0353 70.9044 73.6684 70.9044C73.3227 70.0458 72.2924 69.7731 71.591 70.3314C71.176 70.6617 71.3302 71.243 71.8746 71.3742C72.3159 71.4806 72.7863 71.5021 73.2231 71.6181C73.6546 71.7326 74.1009 71.8678 74.4689 72.0833C75.3604 72.6053 75.137 74.446 73.7516 74.8016C72.8631 75.0297 71.9781 75.0682 71.1125 74.7458C70.4338 74.493 70.0504 74.0399 69.9701 73.405C69.9597 73.3222 69.918 73.2422 69.8848 73.1432C70.3175 73.1432 70.7299 73.1432 71.1809 73.1432C71.2552 73.5761 71.4669 73.9728 72.0281 74.0742C72.5575 74.1697 73.0978 74.2038 73.5232 73.7895C73.881 73.441 73.8315 72.9398 73.3302 72.7578C72.9008 72.602 72.4161 72.5615 71.9668 72.4405C71.5333 72.3237 71.0702 72.2263 70.6975 72.019C69.968 71.6135 70.0729 70.9362 70.1937 70.3431C70.3088 69.7779 71.1617 69.2869 71.8849 69.258C72.3274 69.2403 72.7795 69.2218 73.2143 69.2776C73.927 69.369 74.4086 69.7472 74.69 70.3436Z" fill="#0A1E45"/>
<path d="M15.4356 69.5002C15.5445 69.4262 15.6287 69.3387 15.7161 69.3364C16.2187 69.323 16.7221 69.3299 17.2384 69.3299C17.9472 71.1697 18.6509 72.9966 19.3752 74.8765C18.9257 74.8765 18.5445 74.8866 18.1652 74.8686C18.0817 74.8646 17.9621 74.7733 17.9319 74.7003C17.7744 74.3189 17.6402 73.9304 17.4849 73.5092C16.7939 73.5092 16.0691 73.5012 15.3452 73.5183C15.244 73.5207 15.1009 73.6297 15.0566 73.7183C14.9384 73.9545 14.8522 74.204 14.7741 74.4529C14.6766 74.7636 14.509 74.9516 14.0784 74.8831C13.8531 74.8472 13.6135 74.8768 13.3535 74.8768C14.0491 73.0689 14.7308 71.2974 15.4356 69.5002ZM15.6659 72.7491C16.1647 72.7491 16.6634 72.7491 17.1995 72.7491C16.9059 71.9629 16.6262 71.2141 16.3045 70.3529C15.982 71.191 15.7019 71.9146 15.4325 72.6412C15.425 72.6612 15.5323 72.7123 15.6659 72.7491Z" fill="#0A1E45"/>
<path d="M60.4547 74.0395C61.267 74.0395 62.0356 74.0395 62.8277 74.0395C62.8277 74.3226 62.8277 74.5807 62.8277 74.8572C61.4275 74.8572 60.0376 74.8572 58.6133 74.8572C58.6133 73.0396 58.6133 71.2111 58.6133 69.3555C59.9629 69.3555 61.3334 69.3555 62.7334 69.3555C62.7334 69.6024 62.7334 69.8604 62.7334 70.1545C61.784 70.1545 60.8279 70.1545 59.8489 70.1545C59.8489 70.6503 59.8489 71.111 59.8489 71.6073C60.6075 71.6073 61.356 71.6073 62.1212 71.6073C62.1212 71.8915 62.1212 72.1408 62.1212 72.4257C61.3792 72.4257 60.6307 72.4257 59.8539 72.4257C59.8539 72.9715 59.8539 73.4831 59.8539 74.0395C60.0366 74.0395 60.2237 74.0395 60.4547 74.0395Z" fill="#0A1E45"/>
<path d="M39.4386 70.7016C39.4386 72.1036 39.4386 73.4681 39.4386 74.8539C39.0203 74.8539 38.6291 74.8539 38.1973 74.8539C38.1973 73.2987 38.1973 71.7493 38.1973 70.1652C37.5588 70.1652 36.9588 70.1652 36.3418 70.1652C36.3418 69.8815 36.3418 69.6322 36.3418 69.3555C37.9423 69.3555 39.5498 69.3555 41.1882 69.3555C41.1882 69.5996 41.1882 69.8576 41.1882 70.1511C40.6302 70.1511 40.06 70.1511 39.4386 70.1511C39.4386 70.3449 39.4386 70.5045 39.4386 70.7016Z" fill="#0A1E45"/>
<path d="M15.6256 72.7477C15.5319 72.711 15.4246 72.6599 15.432 72.6399C15.7014 71.9133 15.9816 71.1897 16.3041 70.3516C16.6258 71.2128 16.9054 71.9616 17.1991 72.7478C16.6629 72.7478 16.1642 72.7478 15.6256 72.7477Z" fill="white"/>
</svg>
