<svg width="235" height="235" viewBox="0 0 235 235" fill="none" xmlns="http://www.w3.org/2000/svg">
<g clip-path="url(#clip0_5809_33098)">
<path d="M118.439 88.3609C118.439 78.4721 118.439 68.6421 118.439 58.812C118.468 58.807 118.497 58.8019 118.526 58.7969C118.693 59.5875 118.865 60.377 119.025 61.1691C119.422 63.1499 119.777 65.1403 120.218 67.1115C120.886 70.0998 121.58 73.0829 122.323 76.0536C123.101 79.1687 123.882 82.2857 124.781 85.3672C126.015 89.5949 127.27 93.8204 128.684 97.9899C129.946 101.709 131.359 105.381 132.846 109.016C134.127 112.148 135.531 115.237 137.021 118.276C138.445 121.181 139.997 124.027 141.592 126.843C142.801 128.978 144.099 131.072 145.481 133.099C146.922 135.215 148.444 137.284 150.055 139.273C151.708 141.313 153.494 143.249 155.254 145.2C157.319 147.488 159.623 149.521 162.049 151.416C163.282 152.38 164.521 153.335 165.806 154.332C150.024 154.332 134.269 154.332 118.439 154.332C118.439 132.386 118.439 110.403 118.439 88.3609Z" fill="#0A1E45"/>
<path d="M113.035 127.251C113.035 136.314 113.035 145.319 113.035 154.353C99.076 154.353 85.1547 154.353 71.0537 154.353C71.7784 153.917 72.3721 153.597 72.9273 153.22C75.0311 151.792 77.19 150.433 79.1985 148.88C81.0166 147.475 82.7166 145.903 84.3746 144.307C85.9639 142.777 87.5054 141.184 88.9377 139.508C91.5916 136.401 93.9751 133.085 96.1064 129.597C97.182 127.837 98.2063 126.043 99.1915 124.23C100.134 122.497 101.077 120.756 101.875 118.954C103.341 115.642 104.768 112.309 106.085 108.935C107.2 106.078 108.251 103.186 109.122 100.247C110.443 95.7907 111.584 91.2806 112.802 86.7935C112.82 86.7284 112.85 86.6668 112.875 86.6035C112.928 86.6077 112.981 86.6119 113.035 86.616C113.035 100.141 113.035 113.667 113.035 127.251Z" fill="#0A1E45"/>
<path d="M97.1842 69.3177C100.856 70.054 104.019 73.368 104.592 77.1344C104.923 79.308 104.736 81.3998 103.727 83.3376C102.235 86.2052 99.892 88.0386 96.661 88.5885C93.748 89.0844 91.0426 88.5063 88.7277 86.6399C86.8455 85.1223 85.5829 83.1601 85.1909 80.7236C84.8491 78.5992 85.0247 76.5221 85.9908 74.5751C87.0583 72.424 88.6889 70.8578 90.9031 69.8543C92.181 69.2751 93.5163 69.0932 94.8649 69.0062C95.6116 68.9581 96.3772 69.201 97.1842 69.3177Z" fill="#0A1E45"/>
<path d="M135.606 173.783C135.356 173.783 135.162 173.783 134.921 173.783C134.209 170.941 133.501 168.11 132.773 165.205C133.294 165.205 133.796 165.176 134.29 165.225C134.423 165.238 134.603 165.473 134.643 165.636C135.052 167.296 135.436 168.963 135.832 170.626C135.866 170.77 135.935 170.904 136.007 171.091C136.507 169.18 136.987 167.325 137.49 165.477C137.522 165.362 137.724 165.232 137.859 165.215C138.938 165.086 139.079 165.225 139.36 166.356C139.74 167.885 140.159 169.405 140.566 170.927C140.579 170.972 140.651 171.002 140.704 171.046C141.155 169.239 141.624 167.448 142.037 165.643C142.118 165.288 142.236 165.187 142.562 165.201C142.93 165.218 143.299 165.205 143.738 165.205C143.519 166.148 143.327 167.034 143.106 167.914C142.647 169.737 142.157 171.553 141.72 173.382C141.641 173.716 141.514 173.793 141.22 173.786C140.773 173.774 140.324 173.783 139.869 173.783C139.326 171.778 138.791 169.804 138.249 167.804C137.69 169.809 137.14 171.778 136.581 173.783C136.283 173.783 135.972 173.783 135.606 173.783Z" fill="#0A1E45"/>
<path d="M95.0576 168.026C95.0576 167.07 95.0576 166.172 95.0576 165.207C95.709 165.207 96.3294 165.186 96.9462 165.223C97.0859 165.232 97.2545 165.42 97.3401 165.566C98.3993 167.373 99.4455 169.187 100.545 171.085C100.545 169.1 100.545 167.19 100.545 165.244C101.085 165.244 101.562 165.244 102.074 165.244C102.074 168.068 102.074 170.895 102.074 173.784C101.585 173.784 101.1 173.807 100.62 173.77C100.473 173.758 100.289 173.609 100.206 173.471C99.1851 171.775 98.18 170.069 97.1706 168.366C97.0001 168.078 96.8281 167.791 96.6003 167.409C96.6003 169.578 96.6003 171.64 96.6003 173.743C96.088 173.743 95.6105 173.743 95.0576 173.743C95.0576 171.867 95.0576 169.976 95.0576 168.026Z" fill="#0A1E45"/>
<path d="M127.716 173.9C125.939 173.984 124.582 173.343 123.724 171.826C123.097 170.715 122.995 169.514 123.302 168.274C123.778 166.349 125.442 165.004 127.487 165.071C128.594 165.107 129.584 165.295 130.491 165.993C131.289 166.607 131.746 167.431 131.894 168.332C132.07 169.402 132.099 170.534 131.594 171.57C130.82 173.155 129.525 173.907 127.716 173.9ZM125.014 169.772C125.171 170.313 125.235 170.904 125.502 171.384C126.207 172.651 128.049 172.993 129.259 171.974C130.295 171.103 130.397 168.95 129.877 167.86C129.339 166.732 128.146 166.307 127.426 166.396C125.784 166.599 124.819 167.93 125.014 169.772Z" fill="#0A1E45"/>
<path d="M74.2342 171.616C74.3577 171.241 74.459 170.907 74.5853 170.49C73.7818 170.49 73.1053 170.49 72.4056 170.49C72.4056 170.055 72.4056 169.67 72.4056 169.241C73.6549 169.241 74.9157 169.241 76.1806 169.241C76.5467 171.269 75.7274 173.42 73.3735 173.858C71.9359 174.126 70.5112 173.975 69.3245 173C68.6081 172.41 68.2428 171.572 68.0423 170.682C67.8097 169.65 67.8769 168.628 68.2654 167.631C68.8315 166.18 70.2619 165.095 71.7614 165.1C72.5429 165.102 73.3526 165.141 74.0984 165.348C75.0961 165.625 76.0272 166.776 76.0058 167.99C75.4478 167.99 74.8885 167.99 74.2858 167.99C74.2259 166.945 73.4906 166.502 72.5877 166.406C71.7298 166.314 70.9484 166.596 70.3718 167.341C69.3821 168.621 69.6233 171.19 70.7106 172.077C71.7555 172.93 73.7596 172.627 74.2342 171.616Z" fill="#0A1E45"/>
<path d="M109.58 165.7C110.623 166.418 111.252 167.302 111.417 168.576C111.584 169.869 111.426 171.033 110.747 172.142C110.097 173.203 109.07 173.654 107.925 173.757C106.764 173.862 105.586 173.78 104.378 173.78C104.378 170.929 104.378 168.105 104.378 165.186C106.094 165.362 107.871 164.827 109.58 165.7ZM108.923 167.26C108.111 166.402 107.066 166.495 106.017 166.504C106.017 168.519 106.017 170.484 106.017 172.475C107.356 172.531 108.645 172.479 109.352 171.141C109.887 170.127 109.839 168.057 108.923 167.26Z" fill="#0A1E45"/>
<path d="M81.3976 171.579C81.1756 171.241 81.0429 170.861 80.7762 170.649C80.5098 170.437 80.1092 170.395 79.6733 170.246C79.6733 171.514 79.6733 172.621 79.6733 173.755C79.1043 173.755 78.5878 173.755 78.0459 173.755C78.0459 170.918 78.0459 168.105 78.0459 165.206C78.9068 165.206 79.7788 165.192 80.65 165.211C81.2082 165.223 81.7676 165.263 82.3223 165.327C83.4133 165.452 84.1723 166.455 84.2445 167.383C84.3527 168.772 83.8802 169.552 82.6763 170.04C82.6083 170.068 82.5571 170.137 82.442 170.235C83.2031 171.386 83.9637 172.536 84.7882 173.782C84.142 173.782 83.5857 173.797 83.0315 173.77C82.9193 173.764 82.7893 173.617 82.7114 173.505C82.2761 172.879 81.8544 172.243 81.3976 171.579ZM82.3637 167.06C81.6163 166.182 80.6203 166.601 79.695 166.493C79.695 167.422 79.695 168.29 79.695 169.247C80.2237 169.19 80.7161 169.137 81.2085 169.084C82.3778 168.959 82.7703 168.312 82.3637 167.06Z" fill="#0A1E45"/>
<path d="M152.639 173.634C152.634 170.805 152.634 168.032 152.634 165.323C154.114 165.323 155.559 165.201 156.974 165.356C158.474 165.521 159.072 166.976 158.822 168.356C158.647 169.325 157.935 169.795 157.03 170.194C157.811 171.377 158.57 172.525 159.399 173.781C158.748 173.781 158.178 173.796 157.61 173.767C157.504 173.762 157.387 173.592 157.308 173.476C156.753 172.655 156.179 171.846 155.669 170.999C155.343 170.458 154.947 170.232 154.285 170.434C154.285 171.514 154.285 172.62 154.285 173.822C153.7 173.775 153.172 173.733 152.639 173.634ZM156.865 166.914C156.091 166.257 155.183 166.57 154.31 166.498C154.31 167.428 154.31 168.297 154.31 169.25C154.824 169.191 155.298 169.145 155.771 169.083C157.081 168.909 157.468 168.204 156.865 166.914Z" fill="#0A1E45"/>
<path d="M166.496 166.773C166.55 167.079 166.602 167.338 166.662 167.64C166.114 167.64 165.632 167.64 165.148 167.64C164.691 166.312 163.331 165.89 162.406 166.754C161.858 167.264 162.061 168.163 162.78 168.366C163.362 168.531 163.983 168.564 164.56 168.743C165.129 168.92 165.719 169.129 166.204 169.463C167.381 170.27 167.086 173.116 165.258 173.666C164.085 174.019 162.917 174.078 161.774 173.58C160.878 173.189 160.372 172.488 160.266 171.507C160.252 171.378 160.197 171.255 160.153 171.102C160.725 171.102 161.269 171.102 161.864 171.102C161.962 171.771 162.242 172.385 162.982 172.541C163.681 172.689 164.395 172.742 164.956 172.101C165.428 171.562 165.363 170.787 164.701 170.506C164.135 170.265 163.495 170.202 162.902 170.015C162.329 169.834 161.718 169.684 161.226 169.363C160.263 168.736 160.402 167.689 160.561 166.772C160.713 165.898 161.839 165.139 162.794 165.094C163.378 165.066 163.974 165.038 164.548 165.124C165.489 165.266 166.125 165.85 166.496 166.773Z" fill="#0A1E45"/>
<path d="M88.2835 165.469C88.4272 165.355 88.5384 165.219 88.6537 165.216C89.3172 165.195 89.9817 165.206 90.6632 165.206C91.5988 168.051 92.5278 170.876 93.4837 173.783C92.8904 173.783 92.3873 173.798 91.8866 173.77C91.7764 173.764 91.6185 173.623 91.5787 173.51C91.3707 172.921 91.1936 172.32 90.9886 171.668C90.0764 171.668 89.1198 171.656 88.1642 171.683C88.0306 171.686 87.8417 171.855 87.7832 171.992C87.6271 172.357 87.5134 172.743 87.4103 173.128C87.2816 173.608 87.0604 173.899 86.492 173.793C86.1946 173.737 85.8784 173.783 85.5352 173.783C86.4534 170.988 87.3531 168.248 88.2835 165.469ZM88.5876 170.493C89.2459 170.493 89.9042 170.493 90.6119 170.493C90.2243 169.277 89.8551 168.119 89.4305 166.788C89.0048 168.084 88.635 169.203 88.2794 170.326C88.2695 170.357 88.4112 170.436 88.5876 170.493Z" fill="#0A1E45"/>
<path d="M147.707 172.489C148.779 172.489 149.794 172.489 150.839 172.489C150.839 172.927 150.839 173.326 150.839 173.754C148.991 173.754 147.157 173.754 145.276 173.754C145.276 170.943 145.276 168.116 145.276 165.246C147.058 165.246 148.867 165.246 150.715 165.246C150.715 165.628 150.715 166.027 150.715 166.482C149.462 166.482 148.2 166.482 146.907 166.482C146.907 167.248 146.907 167.961 146.907 168.728C147.909 168.728 148.897 168.728 149.907 168.728C149.907 169.168 149.907 169.553 149.907 169.994C148.927 169.994 147.939 169.994 146.914 169.994C146.914 170.838 146.914 171.629 146.914 172.489C147.155 172.489 147.402 172.489 147.707 172.489Z" fill="#0A1E45"/>
<path d="M119.968 167.328C119.968 169.496 119.968 171.606 119.968 173.749C119.416 173.749 118.899 173.749 118.329 173.749C118.329 171.344 118.329 168.948 118.329 166.498C117.486 166.498 116.694 166.498 115.88 166.498C115.88 166.06 115.88 165.674 115.88 165.246C117.993 165.246 120.114 165.246 122.277 165.246C122.277 165.624 122.277 166.023 122.277 166.476C121.541 166.476 120.788 166.476 119.968 166.476C119.968 166.776 119.968 167.023 119.968 167.328Z" fill="#0A1E45"/>
<path d="M82.3725 167.106C82.7706 168.311 82.3781 168.958 81.2088 169.084C80.7164 169.136 80.224 169.189 79.6953 169.246C79.6953 168.289 79.6953 167.421 79.6953 166.492C80.6206 166.601 81.6166 166.182 82.3725 167.106Z" fill="white"/>
<path d="M156.899 166.945C157.468 168.203 157.082 168.907 155.771 169.081C155.299 169.144 154.824 169.19 154.311 169.248C154.311 168.295 154.311 167.426 154.311 166.497C155.183 166.569 156.092 166.256 156.899 166.945Z" fill="white"/>
<path d="M88.5343 170.49C88.4106 170.434 88.269 170.355 88.2788 170.324C88.6345 169.2 89.0042 168.081 89.43 166.785C89.8546 168.117 90.2237 169.275 90.6113 170.491C89.9036 170.491 89.2453 170.491 88.5343 170.49Z" fill="white"/>
</g>
<defs>
<clipPath id="clip0_5809_33098">
<rect width="235" height="235" fill="white"/>
</clipPath>
</defs>
</svg>
