<svg width="181" height="90" viewBox="0 0 181 90" fill="none" xmlns="http://www.w3.org/2000/svg">
<rect width="181" height="90" fill="#F2F4F8"/>
<g clip-path="url(#clip0_8973_58493)">
<g clip-path="url(#clip1_8973_58493)">
<path fill-rule="evenodd" clip-rule="evenodd" d="M67.7666 22H112.572V68H67.7666V22Z" fill="#0A1E45"/>
<path fill-rule="evenodd" clip-rule="evenodd" d="M93.2581 30.918H104.744V42.5932H93.2581V30.918ZM79.3724 48.4989V49.6411H81.352V55.6837H82.7169V49.5949H84.56V48.4527L79.3724 48.4997V48.4989ZM78.3529 49.9149V48.7727C77.2578 48.2705 75.9985 48.1187 74.7091 48.7727C72.5945 49.7318 72.5189 54.4812 74.6343 55.4098C75.8489 56.0341 78.3822 55.7447 78.6374 55.1963V51.4365H76.1188V52.4261H77.2277V54.4054C73.5839 56.2015 72.9092 47.5703 78.3529 49.9149ZM86.7803 52.3651H88.0843C89.164 52.4112 89.4493 54.4812 88.0396 54.4656H86.7803V52.3651ZM86.7803 49.458H88.0843C89.164 49.6559 88.7745 51.2847 88.0396 51.3301H86.7803V49.458ZM85.4307 48.3471V55.6226H89.0143C90.8436 54.953 90.9191 52.0764 89.0143 51.7713C90.7688 51.5742 90.859 48.301 87.8298 48.301L85.4307 48.3471ZM91.7582 50.3866V51.467C92.7175 51.1932 94.802 50.432 94.6069 52.0459C92.7777 51.9239 91.533 52.2587 91.3232 53.4149C90.9785 55.9121 93.6175 56.1554 94.7272 54.9225V55.5162H95.9865V51.1322C95.6719 49.7162 93.5882 49.5339 91.7582 50.3866ZM92.8224 53.2029C93.1077 52.822 94.0224 52.8368 94.637 53.0199V53.979C93.6329 55.0742 92.0134 54.5728 92.8232 53.2022L92.8224 53.2029ZM98.5962 51.6806C98.9262 51.3152 100.681 50.6299 100.951 51.6806V55.5467H102.36V51.4521C102.06 49.7467 100.455 49.4424 98.506 50.5994V49.9602H97.1718V55.5773H98.5808L98.5962 51.6806ZM106.783 49.8992L104.939 52.4105L106.889 55.5006L108.583 55.4552L106.439 52.4871L108.373 49.9446L106.784 49.8992H106.783ZM103.41 48.0569H104.804V55.5006H103.409V48.0577L103.41 48.0569Z" fill="white"/>
<path fill-rule="evenodd" clip-rule="evenodd" d="M93.2588 30.918H104.745V42.5932H93.2588V30.918Z" fill="white"/>
</g>
</g>
<defs>
<clipPath id="clip0_8973_58493">
<rect width="46" height="46" fill="white" transform="translate(67 22)"/>
</clipPath>
<clipPath id="clip1_8973_58493">
<rect width="44.8052" height="46" fill="white" transform="translate(67.7666 22)"/>
</clipPath>
</defs>
</svg>