<svg width="96" height="99" viewBox="0 0 96 99" fill="none" xmlns="http://www.w3.org/2000/svg">
<g clip-path="url(#clip0_5809_33130)">
<path fill-rule="evenodd" clip-rule="evenodd" d="M0 0.220703H96V98.7807H0V0.220703Z" fill="#0A1E45"/>
<path fill-rule="evenodd" clip-rule="evenodd" d="M54.6197 19.332H79.2294V44.3475H54.6197V19.332ZM24.8679 57.0011V59.4483H29.1094V72.3952H32.034V59.3494H35.9831V56.9022L24.8679 57.0027V57.0011ZM22.6835 60.035V57.5877C20.3372 56.5116 17.639 56.1864 14.8763 57.5877C10.3456 59.6427 10.1837 69.8189 14.716 71.8085C17.3185 73.1461 22.7463 72.5259 23.2933 71.3509V63.2952H17.8968V65.4155H20.2728V69.6563C12.4656 73.5048 11.0198 55.0114 22.6835 60.035ZM40.7401 65.2848H43.5342C45.8475 65.3837 46.4588 69.8189 43.4384 69.7854H40.7401V65.2848ZM40.7401 59.0561H43.5342C45.8475 59.4801 45.0131 62.97 43.4384 63.0672H40.7401V59.0561ZM37.8486 56.6759V72.2644H45.5269C49.4462 70.8296 49.6082 64.6663 45.5269 64.0126C49.286 63.5902 49.4793 56.577 42.989 56.577L37.8486 56.6759ZM51.4059 61.0457V63.3605C53.4614 62.7739 57.9276 61.1429 57.5096 64.6009C53.5903 64.3394 50.9234 65.0568 50.474 67.5342C49.7354 72.8846 55.3896 73.4059 57.7673 70.7643V72.0365H60.4656V62.6431C59.7914 59.6092 55.3269 59.2187 51.4059 61.0457ZM53.6861 67.08C54.2975 66.2637 56.2571 66.2955 57.574 66.6878V68.7428C55.4227 71.0894 51.9528 70.015 53.6878 67.0783L53.6861 67.08ZM66.057 63.8181C66.7642 63.0353 70.5233 61.567 71.1016 63.8181V72.1019H74.1204V63.3287C73.4776 59.6746 70.0391 59.0225 65.8637 61.5016V60.1322H63.0052V72.1672H66.024L66.057 63.8181ZM83.5981 60.0014L79.6474 65.382L83.8245 72.003L87.4546 71.9057L82.8612 65.5463L87.0052 60.0987L83.5998 60.0014H83.5981ZM76.3709 56.054H79.3583V72.003H76.3692V56.0557L76.3709 56.054Z" fill="white"/>
<path fill-rule="evenodd" clip-rule="evenodd" d="M54.6191 19.332H79.2288V44.3475H54.6191V19.332Z" fill="white"/>
</g>
<defs>
<clipPath id="clip0_5809_33130">
<rect width="96" height="98.56" fill="white" transform="translate(0 0.220703)"/>
</clipPath>
</defs>
</svg>
