<svg width="75" height="76" viewBox="0 0 75 76" fill="none" xmlns="http://www.w3.org/2000/svg">
<g clip-path="url(#clip0_7235_5960)">
<path fill-rule="evenodd" clip-rule="evenodd" d="M0.487305 0H74.5133V76H0.487305V0Z" fill="#0A1E45"/>
<path fill-rule="evenodd" clip-rule="evenodd" d="M42.604 14.7363H61.5806V34.0259H42.604V14.7363ZM19.6623 43.7831V45.6701H22.9329V55.6535H25.1881V45.5939H28.2332V43.7068L19.6623 43.7844V43.7831ZM17.9779 46.1225V44.2354C16.1687 43.4056 14.088 43.1549 11.9577 44.2354C8.46411 45.8201 8.33925 53.6669 11.8341 55.2012C13.8409 56.2326 18.0263 55.7544 18.4481 54.8483V48.6365H14.2868V50.2715H16.119V53.5416C10.0988 56.5092 8.98395 42.2488 17.9779 46.1225ZM31.9014 50.1707H34.0559C35.8397 50.2469 36.3111 53.6669 33.982 53.6411H31.9014V50.1707ZM31.9014 45.3677H34.0559C35.8397 45.6947 35.1963 48.3857 33.982 48.4607H31.9014V45.3677ZM29.6717 43.5323V55.5527H35.5925C38.6147 54.4463 38.7396 49.6937 35.5925 49.1897C38.4911 48.8639 38.6402 43.4561 33.6355 43.4561L29.6717 43.5323ZM40.1258 46.9019V48.6869C41.7108 48.2345 45.1547 46.9769 44.8324 49.6433C41.8102 49.4417 39.7538 49.9949 39.4072 51.9052C38.8377 56.031 43.1977 56.4329 45.0312 54.3959V55.3769H47.1118V48.1337C46.5919 45.7942 43.1493 45.4931 40.1258 46.9019ZM41.8841 51.555C42.3555 50.9255 43.8666 50.9501 44.8821 51.2525V52.8371C43.2232 54.6467 40.5476 53.8182 41.8854 51.5537L41.8841 51.555ZM51.4234 49.0397C51.9687 48.4361 54.8673 47.3039 55.3133 49.0397V55.4273H57.6411V48.6623C57.1454 45.8446 54.494 45.3418 51.2743 47.2535V46.1975H49.0701V55.4778H51.3979L51.4234 49.0397ZM64.9494 46.0967L61.903 50.2457L65.1239 55.3511L67.9232 55.2761L64.3811 50.3723L67.5766 46.1716L64.9506 46.0967H64.9494ZM59.3764 43.0528H61.68V55.3511H59.3751V43.0541L59.3764 43.0528Z" fill="white"/>
<path fill-rule="evenodd" clip-rule="evenodd" d="M42.6045 14.7363H61.5811V34.0259H42.6045V14.7363Z" fill="white"/>
</g>
<defs>
<clipPath id="clip0_7235_5960">
<rect width="74.026" height="76" fill="white" transform="translate(0.487305)"/>
</clipPath>
</defs>
</svg>
