<svg width="181" height="90" viewBox="0 0 181 90" fill="none" xmlns="http://www.w3.org/2000/svg">
<rect width="181" height="90" fill="#F2F4F8"/>
<path d="M62 47.5007C62 40.5971 74.592 35 90.125 35C105.658 35 118.25 40.5984 118.25 47.5013C118.25 54.4043 105.659 60 90.125 60C74.5914 60 62 54.4036 62 47.5007Z" stroke="black" stroke-width="1.24923" stroke-miterlimit="3.8636"/>
<path fill-rule="evenodd" clip-rule="evenodd" d="M72.2529 53.6284L75.1807 42.6992H79.8019V49.1272H79.8321L82.9671 42.6992H87.6613L84.7336 53.6284H81.6823L83.5591 46.618H83.5288L79.8019 53.6284H77.3586V46.618H77.3087L75.4319 53.6284H72.2529Z" fill="#0A1E45"/>
<path fill-rule="evenodd" clip-rule="evenodd" d="M89.1279 53.75L90.8173 46.159H87.7812L88.5261 42.8125H97.9375L97.1932 46.159H94.1572L92.4684 53.7479L89.1279 53.75Z" fill="#0A1E45"/>
<path fill-rule="evenodd" clip-rule="evenodd" d="M95.7266 53.6284L98.6526 42.6992H101.96L103.452 48.5471H103.481L105.047 42.6992H108.104L105.178 53.6284H102.032L100.411 47.6594H100.382L98.7838 53.6284H95.7266Z" fill="#0A1E45"/>
</svg>
