<svg width="104" height="105" viewBox="0 0 104 105" fill="none" xmlns="http://www.w3.org/2000/svg">
<path d="M102.959 1.54102H1.03906V103.458H102.959V1.54102Z" fill="#0A1E45"/>
<path d="M2.58984 52.5009C2.58984 41.8565 24.7117 33.2266 52.0002 33.2266C79.2888 33.2266 101.411 41.8586 101.411 52.5019C101.411 63.1453 79.2898 71.7731 52.0002 71.7731C24.7106 71.7731 2.58984 63.1442 2.58984 52.5009Z" fill="white"/>
<path d="M2.58984 52.5009C2.58984 41.8565 24.7117 33.2266 52.0002 33.2266C79.2888 33.2266 101.411 41.8586 101.411 52.5019C101.411 63.1453 79.2899 71.7731 52.0002 71.7731C24.7106 71.7731 2.58984 63.1442 2.58984 52.5009Z" stroke="white" stroke-width="2.18813" stroke-miterlimit="3.8636"/>
<path fill-rule="evenodd" clip-rule="evenodd" d="M20.6973 61.8679L25.8255 42.7246H33.9198V53.9837H33.9729L39.4641 42.7246H47.6863L42.5581 61.8679H37.2135L40.5009 49.5886H40.4479L33.9198 61.8679H29.6402V49.5886H29.5529L26.2654 61.8679H20.6973Z" fill="#0A1E45"/>
<path fill-rule="evenodd" clip-rule="evenodd" d="M49.1328 62.246L49.8608 59.5254H55.7597L55.0307 62.246H49.1328Z" fill="#0A1E45"/>
<path fill-rule="evenodd" clip-rule="evenodd" d="M50.066 58.7614L53.0497 47.6313H47.6875L49.0031 42.7246H65.6254L64.3109 47.6313H58.9486L55.9659 58.7583L50.066 58.7614Z" fill="#0A1E45"/>
<path fill-rule="evenodd" clip-rule="evenodd" d="M61.8135 61.8679L66.9386 42.7246H72.7314L75.3449 52.9676H75.3959L78.1394 42.7246H83.4944L78.3682 61.8679H72.8572L70.0191 51.4128H69.9681L67.1684 61.8679H61.8135Z" fill="#0A1E45"/>
</svg>
