<svg width="77" height="76" viewBox="0 0 77 76" fill="none" xmlns="http://www.w3.org/2000/svg">
<path d="M75.6763 0.761719H1.19629V75.2394H75.6763V0.761719Z" fill="#0A1E45"/>
<path d="M2.3291 38.0011C2.3291 30.2225 18.4951 23.916 38.4367 23.916C58.3783 23.916 74.5443 30.224 74.5443 38.0019C74.5443 45.7797 58.3791 52.0847 38.4367 52.0847C18.4943 52.0847 2.3291 45.7789 2.3291 38.0011Z" fill="white"/>
<path d="M2.3291 38.0011C2.3291 30.2225 18.4951 23.916 38.4367 23.916C58.3783 23.916 74.5443 30.224 74.5443 38.0019C74.5443 45.7797 58.3791 52.0847 38.4367 52.0847C18.4943 52.0847 2.3291 45.7789 2.3291 38.0011Z" stroke="white" stroke-width="1.59902" stroke-miterlimit="3.8636"/>
<path fill-rule="evenodd" clip-rule="evenodd" d="M15.5605 44.8448L19.3081 30.8555H25.2232V39.0832H25.2619L29.2747 30.8555H35.2833L31.5357 44.8448H27.6301L30.0325 35.8715H29.9937L25.2232 44.8448H22.0958V35.8715H22.0319L19.6296 44.8448H15.5605Z" fill="#0A1E45"/>
<path fill-rule="evenodd" clip-rule="evenodd" d="M36.3408 45.1229L36.8728 43.1348H41.1835L40.6508 45.1229H36.3408Z" fill="#0A1E45"/>
<path fill-rule="evenodd" clip-rule="evenodd" d="M37.0233 42.5747L39.2037 34.4411H35.2852L36.2466 30.8555H48.3936L47.433 34.4411H43.5144L41.3348 42.5724L37.0233 42.5747Z" fill="#0A1E45"/>
<path fill-rule="evenodd" clip-rule="evenodd" d="M45.6064 44.8448L49.3517 30.8555H53.5849L55.4948 38.3407H55.532L57.5369 30.8555H61.4502L57.7041 44.8448H53.6769L51.6028 37.2045H51.5656L49.5197 44.8448H45.6064Z" fill="#0A1E45"/>
</svg>
