<svg width="181" height="90" viewBox="0 0 181 90" fill="none" xmlns="http://www.w3.org/2000/svg">
<rect width="181" height="90" fill="#F2F4F8"/>
<path d="M83.1237 37.7044C82.35 37.6337 81.5967 37.8063 80.8403 37.9045C80.775 37.8388 80.8328 37.79 80.8598 37.7483C82.6967 34.915 85.2344 32.9846 88.7506 32.3214C89.9887 32.0838 91.2602 32.0422 92.5129 32.1983C93.0171 32.2627 93.4733 32.088 93.9513 32.0216C94.4083 31.9579 94.4983 32.0216 94.2687 32.3977C93.8185 33.1359 94.0901 33.8572 94.2169 34.5897C94.439 35.8648 94.6714 37.1388 94.914 38.4115C94.9583 38.6477 94.9073 38.8273 94.7264 38.9822C94.3813 39.2784 94.0849 39.6532 93.5063 39.4729C93.1312 39.3569 92.843 39.2141 92.831 38.7919C92.8256 38.6975 92.7885 38.6072 92.7252 38.5339C92.2172 37.9837 91.7182 37.423 91.1029 36.9726C90.739 36.706 90.5297 36.7428 90.2693 37.1084C89.9744 37.522 89.8123 37.9951 89.6225 38.4554C89.1723 39.5408 88.7296 40.6268 87.9965 41.5821C87.8509 41.7716 87.7076 41.8558 87.4435 41.8317C86.44 41.7336 85.4302 41.7071 84.4225 41.7525C84.4435 41.8833 84.5343 41.8798 84.6229 41.8904C85.6141 42.005 86.6038 42.1252 87.595 42.2376C88.3762 42.3267 88.8706 43.0988 88.5525 43.7699C87.9237 45.0637 87.2198 46.324 86.444 47.545C86.3458 47.7096 86.2015 47.8456 86.0268 47.9381C85.6126 48.155 85.2006 48.3761 84.791 48.6014C84.6274 48.6912 84.5201 48.6721 84.4375 48.501C84.2471 48.1144 84.1756 47.6852 84.2312 47.2622C84.268 46.9857 84.7512 46.7672 85.1084 46.8415C85.5518 46.9355 85.7544 46.7792 85.7356 46.3465C85.7266 46.1428 85.8309 45.9838 85.9352 45.8254C86.2917 45.2866 86.6578 44.7534 87.015 44.2146C87.09 44.0994 87.2311 43.9749 87.1343 43.8342C87.0375 43.6935 86.8604 43.7359 86.7156 43.7479C86.0485 43.8031 85.3972 43.8498 84.7647 44.1375C83.6902 44.6254 82.5136 44.8241 81.3363 44.9776C79.8071 45.1763 78.2531 45.1579 76.7126 45.4513C76.7621 44.7937 76.8267 44.1602 76.7081 43.458C76.5273 43.6645 76.5153 43.8399 76.4943 44.0074C76.2354 46.1082 75.0033 47.6292 73.2475 48.8326C72.18 49.5563 70.9717 50.0746 69.6915 50.3578C68.7964 50.5636 68.1571 51.0281 67.7143 51.7911C67.2109 52.6587 66.8199 53.5807 66.2984 54.4356C65.7529 55.3308 64.9148 55.9035 63.808 56.0661C63.2437 56.1489 63.1537 56.0407 63.3195 55.5245C63.3885 55.3124 63.4763 55.1003 63.5559 54.8924C63.736 54.413 63.9663 54.0085 64.6326 54.0863C64.884 54.116 65.0198 53.9449 65.1084 53.7193C65.6194 52.4183 66.1506 51.125 66.6571 49.8225C66.6928 49.7112 66.756 49.6094 66.8416 49.5256C66.9271 49.4417 67.0326 49.3782 67.1493 49.3403C67.7496 49.1282 68.3499 48.9309 68.9307 48.6954C69.9346 48.2917 70.2213 47.8469 70.1515 46.8316C70.0937 45.9753 69.9797 45.1197 70.1733 44.2655C70.5597 42.5537 71.749 41.452 73.2962 40.629C74.6814 39.8936 76.2024 39.516 77.7233 39.1441C79.3906 38.7406 81.0569 38.334 82.7222 37.9243C82.8633 37.8897 83.0006 37.8437 83.1394 37.8034L83.1237 37.7044Z" fill="#0A1E45"/>
<path d="M98.3855 53.1953C100.14 53.1953 101.511 54.4681 101.498 56.0781C101.484 57.7094 100.096 58.9772 98.3375 58.9652C96.5989 58.9532 95.2505 57.7016 95.249 56.0972C95.2475 54.4624 96.6229 53.1897 98.3855 53.1953ZM96.5899 56.0484C96.5854 57.0808 97.335 57.8459 98.3585 57.8529C99.4045 57.86 100.168 57.1168 100.168 56.0916C100.168 55.0847 99.385 54.3083 98.3675 54.3033C97.3305 54.2984 96.5944 55.0224 96.5899 56.0484Z" fill="#0A1E45"/>
<path d="M86.6418 54.1255C87.0395 53.6397 87.4822 53.3244 88.0817 53.2254C89.3536 53.0132 90.4446 53.7592 90.5099 54.974C90.5692 56.0764 90.5376 57.1837 90.5286 58.2888C90.5286 58.6579 90.26 58.8672 89.8721 58.8644C89.4841 58.8616 89.2193 58.6445 89.2035 58.2514C89.1855 57.7819 89.1983 57.3109 89.1975 56.8372C89.1975 56.4257 89.2058 56.0134 89.1915 55.6026C89.1645 54.7951 88.712 54.3362 87.9572 54.3355C87.1813 54.3355 86.6455 54.8305 86.6268 55.6189C86.6065 56.4766 86.6268 57.3357 86.617 58.1941C86.6133 58.6183 86.3784 58.8503 85.9702 58.8595C85.562 58.8687 85.2904 58.6473 85.2882 58.269C85.2776 56.7992 85.2776 55.3292 85.2882 53.8589C85.2849 53.7036 85.3462 53.5532 85.4591 53.4399C85.572 53.3267 85.7275 53.2596 85.8922 53.2529C86.062 53.2408 86.2305 53.2895 86.3638 53.3895C86.4971 53.4894 86.5854 53.6331 86.611 53.7918C86.6275 53.8823 86.6283 53.9685 86.6418 54.1255Z" fill="#0A1E45"/>
<path d="M104.358 54.1043C104.964 53.359 105.716 53.0684 106.656 53.2459C107.537 53.4127 108.174 54.0668 108.201 54.9203C108.234 56.0481 108.219 57.1773 108.213 58.3058C108.213 58.648 107.948 58.8771 107.595 58.8863C107.511 58.8905 107.426 58.879 107.346 58.8523C107.267 58.8257 107.193 58.7845 107.131 58.731C107.068 58.6776 107.017 58.6131 106.981 58.5411C106.945 58.4691 106.924 58.391 106.92 58.3115C106.894 57.866 106.911 57.4184 106.906 56.968C106.901 56.4511 106.922 55.9321 106.878 55.4181C106.82 54.7477 106.4 54.3779 105.729 54.3369C105.057 54.2959 104.549 54.6558 104.378 55.2752C104.27 55.6698 104.33 56.0707 104.323 56.4688C104.312 57.0345 104.323 57.6001 104.319 58.1616C104.319 58.6063 104.041 58.8906 103.636 58.8828C103.248 58.8764 102.983 58.6 102.982 58.1693C102.977 56.7941 102.982 55.4181 102.982 54.0428C102.982 53.5429 103.213 53.265 103.625 53.2501C104.037 53.2353 104.284 53.4969 104.323 53.9933C104.332 54.0311 104.343 54.0683 104.358 54.1043Z" fill="#0A1E45"/>
<path d="M82.1223 58.0833C82.003 58.1017 81.9678 58.1866 81.9145 58.246C81.2849 58.9531 80.3598 59.0612 79.4863 58.7968C78.7075 58.5606 78.2437 57.8458 78.237 56.9584C78.2295 55.9465 78.2325 54.934 78.237 53.9221C78.237 53.4979 78.4794 53.256 78.877 53.2518C79.289 53.2476 79.5569 53.5014 79.5621 53.9292C79.5704 54.6822 79.5621 55.4353 79.5621 56.1919C79.5621 56.3333 79.5621 56.4747 79.5726 56.6161C79.6252 57.3678 80.0799 57.7906 80.8265 57.7871C81.5731 57.7835 82.1021 57.3176 82.1268 56.5949C82.1554 55.7245 82.1403 54.8534 82.1388 53.9787C82.1388 53.6372 82.2664 53.3734 82.6303 53.2716C83.0805 53.145 83.4722 53.4399 83.4745 53.908C83.4805 55.3321 83.4805 56.7561 83.4745 58.1802C83.4745 58.5925 83.2231 58.8633 82.8472 58.8795C82.4713 58.8958 82.2034 58.6511 82.1411 58.2431C82.1358 58.1937 82.1298 58.1399 82.1223 58.0833Z" fill="#0A1E45"/>
<path d="M61.0519 47.7268C60.9655 47.371 60.9873 46.9995 61.1149 46.6549C61.7557 44.7641 63.2362 43.8025 65.1984 43.3726C65.9097 43.217 66.6323 43.2036 67.3564 43.2205C68.2756 43.2418 69.176 43.1788 70.0171 42.785C70.0967 42.7475 70.192 42.6994 70.261 42.7645C70.3458 42.8444 70.2407 42.9122 70.198 42.9766C69.9703 43.2857 69.7866 43.6216 69.6517 43.9757C69.5804 44.173 69.3996 44.2267 69.239 44.3052C67.6122 45.0986 65.8759 45.5935 64.0976 45.9846C63.477 46.1217 62.8692 46.2907 62.305 46.5785C61.7749 46.8347 61.3384 47.2346 61.0519 47.7268Z" fill="#0A1E45"/>
<path d="M90.2752 42.3592C90.0141 42.3804 89.7432 42.367 89.4948 42.4299C89.0169 42.553 88.695 42.3309 88.3693 42.0679C88.2755 41.9929 88.2883 41.9427 88.3393 41.8642C88.4368 41.7136 88.5336 41.563 88.6252 41.4096C89.0671 40.6714 89.0671 40.6693 89.9691 40.7732C90.5138 40.8354 91.0578 40.904 91.6018 40.9705C92.1856 41.0412 92.6411 41.7356 92.4047 42.2468C91.8483 43.469 91.1852 44.6456 90.4223 45.7646C90.0839 46.2546 89.4303 46.4108 88.8991 46.6838C88.7858 46.7425 88.725 46.623 88.6845 46.5388C88.5199 46.2065 88.4565 45.8376 88.5014 45.4732C88.5359 45.2166 88.9366 45.015 89.2705 45.0702C89.7132 45.1409 89.8438 45.0426 89.849 44.6106C89.849 44.4345 89.9406 44.2952 90.0321 44.1566C90.3495 43.6779 90.6767 43.2056 90.9911 42.7255C91.1937 42.4172 91.1501 42.3514 90.7614 42.3451C90.6744 42.3451 90.5874 42.3486 90.4996 42.3521C90.4245 42.3521 90.3495 42.3613 90.2745 42.3663L90.2752 42.3592Z" fill="#0A1E45"/>
<path d="M110.936 54.5025C111.501 53.777 112.212 53.3004 113.196 53.3061C113.892 53.3036 114.56 53.5606 115.055 54.0209C116.167 55.0264 116.256 56.8762 115.243 57.9771C114.868 58.3886 114.403 58.6906 113.838 58.8037C113.301 58.925 112.737 58.8947 112.218 58.7167C111.678 58.5223 111.292 58.1461 110.849 57.7678C110.849 57.9743 110.849 58.1808 110.849 58.3872C110.849 58.5781 110.868 58.8016 110.574 58.791C110.319 58.7818 110.315 58.5831 110.315 58.3971C110.315 57.7855 110.315 57.1739 110.315 56.5587C110.315 55.17 110.315 53.7815 110.315 52.3932C110.315 52.2992 110.315 52.2051 110.319 52.1104C110.33 51.9612 110.416 51.8608 110.576 51.8594C110.759 51.8594 110.834 51.9647 110.835 52.1351C110.835 52.7821 110.843 53.4291 110.847 54.0761C110.847 54.202 110.847 54.3278 110.847 54.4537L110.936 54.5025ZM115.359 56.0913C115.35 54.7478 114.412 53.7869 113.12 53.7947C111.827 53.8025 110.821 54.8185 110.826 56.1132C110.83 57.4079 111.857 58.4077 113.152 58.4063C114.458 58.4049 115.368 57.4525 115.359 56.0913Z" fill="#0A1E45"/>
<path d="M121.477 57.8991C120.53 58.9668 119.246 59.0305 118.29 58.6981C117.501 58.4231 117.113 57.8708 117.128 57.1425C117.143 56.4468 117.571 55.9143 118.345 55.6576C119.274 55.3444 120.221 55.4321 121.151 55.6258C121.432 55.6838 121.49 55.6357 121.482 55.3769C121.453 54.4839 120.858 53.9012 119.879 53.8341C119.279 53.7931 118.677 53.8927 118.127 54.124C117.95 54.1947 117.752 54.2887 117.654 54.0533C117.557 53.8178 117.765 53.7506 117.942 53.682C118.692 53.3907 119.472 53.2663 120.284 53.4034C121.3 53.5753 121.966 54.2519 121.993 55.2221C122.024 56.3032 122.003 57.3865 122.006 58.4683C122.006 58.6373 121.968 58.7901 121.76 58.7992C121.528 58.8099 121.474 58.6536 121.477 58.4676C121.477 58.3007 121.477 58.1402 121.477 57.8991ZM119.977 55.9242C119.315 55.9122 118.866 55.9242 118.448 56.1123C117.998 56.3131 117.72 56.6341 117.702 57.122C117.685 57.6219 117.928 57.9861 118.393 58.2003C119.176 58.5602 119.947 58.4676 120.678 58.0653C121.363 57.6884 121.546 57.0817 121.497 56.3732C121.484 56.195 121.422 56.1279 121.246 56.0904C120.752 55.997 120.26 55.9249 119.971 55.9242H119.977Z" fill="#0A1E45"/>
<path d="M132.786 56.1712C132.348 56.5756 131.932 56.9645 131.511 57.3464C131.398 57.4482 131.382 57.5648 131.384 57.6999C131.384 57.9707 131.384 58.2415 131.384 58.5116C131.384 58.6799 131.309 58.7839 131.118 58.7803C130.928 58.7768 130.855 58.6714 130.853 58.506C130.853 58.4586 130.853 58.4119 130.853 58.3646C130.853 56.3522 130.853 54.3396 130.853 52.3267C130.848 52.2444 130.851 52.1619 130.86 52.0799C130.864 52.0199 130.892 51.9637 130.939 51.923C130.987 51.8824 131.048 51.8606 131.112 51.8622C131.147 51.8593 131.182 51.8637 131.215 51.875C131.247 51.8863 131.277 51.9042 131.301 51.9274C131.326 51.9507 131.345 51.9788 131.357 52.0096C131.368 52.0405 131.373 52.0734 131.37 52.1061C131.375 52.3062 131.383 52.5056 131.383 52.7057C131.383 53.9417 131.383 55.1777 131.383 56.4137V56.7616C131.562 56.7425 131.619 56.6258 131.7 56.5495C132.666 55.6128 133.63 54.674 134.592 53.7331C134.661 53.6624 134.733 53.5995 134.801 53.5309C134.926 53.4043 135.076 53.3379 135.225 53.4644C135.386 53.6023 135.29 53.7395 135.166 53.8583C134.781 54.2274 134.394 54.5951 134.01 54.9656C133.731 55.235 133.266 55.4888 133.232 55.7844C133.194 56.1118 133.672 56.396 133.924 56.6994C134.364 57.2269 134.816 57.7444 135.266 58.2642C135.391 58.4056 135.524 58.5823 135.351 58.7259C135.162 58.8836 134.991 58.7464 134.852 58.5845C134.166 57.7734 133.474 56.9709 132.786 56.1712Z" fill="#0A1E45"/>
<path d="M124.461 54.264C125.077 53.535 125.847 53.2246 126.809 53.3193C127.904 53.4261 128.696 54.1537 128.74 55.191C128.786 56.2835 128.757 57.3787 128.762 58.4726C128.762 58.6437 128.72 58.7823 128.498 58.7788C128.257 58.7745 128.227 58.6183 128.227 58.438C128.227 57.5319 128.227 56.6259 128.227 55.7199C128.232 55.5436 128.222 55.3673 128.198 55.1924C128.038 54.2583 127.335 53.7231 126.337 53.7655C125.318 53.8086 124.509 54.5376 124.473 55.5014C124.441 56.3945 124.464 57.2889 124.462 58.1834C124.462 58.2774 124.462 58.3715 124.462 58.4662C124.462 58.6345 124.419 58.7745 124.2 58.7795C123.98 58.7844 123.92 58.6593 123.919 58.4832C123.919 58.4358 123.919 58.3892 123.919 58.3418V53.8588C123.919 53.8001 123.919 53.7415 123.919 53.6828C123.929 53.5272 123.983 53.3999 124.177 53.3999C124.388 53.3999 124.452 53.5336 124.458 53.7033C124.465 53.8885 124.461 54.0759 124.461 54.264Z" fill="#0A1E45"/>
<path d="M93.6865 56.0669C93.6865 56.774 93.6865 57.4768 93.6865 58.1818C93.6865 58.6209 93.4719 58.8451 93.0622 58.8606C92.6353 58.8762 92.3606 58.6485 92.3569 58.2115C92.3459 56.7785 92.3459 55.345 92.3569 53.911C92.3606 53.5016 92.6465 53.2491 93.0277 53.252C93.4276 53.252 93.682 53.5193 93.685 53.952C93.6903 54.657 93.6865 55.3619 93.6865 56.0669Z" fill="#0A1E45"/>
<path d="M68.3689 53.7666C68.2189 53.7857 68.1326 53.6662 68.2189 53.4215C68.3014 53.1882 68.3967 52.9584 68.4785 52.7244C68.6098 52.3461 68.8237 52.088 69.3039 52.1106C69.5553 52.1226 69.7218 51.9854 69.7691 51.7401C69.9117 50.9955 70.3476 50.5133 71.1438 50.3167C71.3914 50.2559 71.6135 50.1046 71.8483 49.995C71.9129 49.9646 71.9797 49.9052 72.0524 49.9596C72.1252 50.0141 72.0742 50.0876 72.0419 50.147C71.5917 50.9856 71.2165 51.8723 70.6163 52.6176C70.1045 53.2469 69.4029 53.703 68.3689 53.7666Z" fill="#0A1E45"/>
</svg>
