<svg width="164" height="60" viewBox="0 0 164 60" fill="none" xmlns="http://www.w3.org/2000/svg">
<path d="M48.7462 12.5766C47.0417 12.4208 45.3818 12.8009 43.7153 13.0175C43.5714 12.8726 43.6987 12.7651 43.7583 12.6732C47.8055 6.43044 53.3969 2.17724 61.1442 0.715877C63.8722 0.192353 66.6737 0.10074 69.4337 0.444795C70.5447 0.586568 71.5499 0.201755 72.6031 0.0553071C73.6099 -0.0849085 73.8083 0.0553082 73.3024 0.884138C72.3104 2.51064 72.9089 4.09975 73.1883 5.71379C73.6777 8.52329 74.1897 11.3302 74.7242 14.1345C74.8218 14.6549 74.7093 15.0506 74.3109 15.3918C73.5504 16.0446 72.8973 16.8703 71.6227 16.473C70.796 16.2175 70.1612 15.9028 70.1347 14.9727C70.1227 14.7647 70.0411 14.5656 69.9016 14.404C68.7823 13.192 67.6829 11.9565 66.3272 10.9641C65.5254 10.3767 65.0641 10.4577 64.4904 11.2632C63.8407 12.1746 63.4836 13.2169 63.0653 14.2311C62.0733 16.6226 61.0979 19.0156 59.4826 21.1204C59.1619 21.5379 58.8461 21.7233 58.2641 21.6703C56.0533 21.454 53.8282 21.3957 51.608 21.4958C51.6543 21.7841 51.8544 21.7763 52.0495 21.7996C54.2335 22.052 56.4141 22.3169 58.5981 22.5646C60.3192 22.7609 61.4087 24.4622 60.7077 25.9407C59.3223 28.7915 57.7713 31.5684 56.062 34.2586C55.8457 34.6213 55.5277 34.9209 55.1428 35.1248C54.2301 35.6026 53.3225 36.0897 52.4198 36.5861C52.0594 36.784 51.823 36.7419 51.6411 36.3649C51.2214 35.5131 51.0639 34.5674 51.1865 33.6354C51.2675 33.0262 52.3322 32.5448 53.1191 32.7084C54.0962 32.9156 54.5426 32.5713 54.5013 31.6178C54.4814 31.1691 54.7113 30.8186 54.9411 30.4696C55.7264 29.2825 56.5332 28.1078 57.3201 26.9206C57.4855 26.6667 57.7963 26.3925 57.583 26.0824C57.3697 25.7724 56.9795 25.8659 56.6605 25.8924C55.1907 26.0139 53.7557 26.1167 52.3619 26.7508C49.9944 27.8258 47.4021 28.2636 44.8081 28.6016C41.4387 29.0394 38.0148 28.9989 34.6206 29.6455C34.7297 28.1966 34.8719 26.8007 34.6107 25.2536C34.2122 25.7085 34.1858 26.0949 34.1395 26.4641C33.5691 31.0928 30.8544 34.444 26.9857 37.0956C24.6338 38.6901 21.9714 39.832 19.1508 40.4561C17.1785 40.9095 15.7699 41.933 14.7944 43.6141C13.6851 45.5257 12.8237 47.5572 11.6747 49.4408C10.4728 51.4132 8.62605 52.6751 6.18746 53.0334C4.94419 53.2157 4.7458 52.9773 5.11117 51.84C5.26328 51.3727 5.45671 50.9053 5.63196 50.4472C6.02874 49.3909 6.5363 48.4998 8.00442 48.6712C8.55826 48.7366 8.85751 48.3596 9.0526 47.8626C10.1785 44.996 11.349 42.1465 12.465 39.2767C12.5436 39.0314 12.6829 38.8071 12.8714 38.6224C13.06 38.4376 13.2924 38.2977 13.5495 38.2142C14.8721 37.7468 16.1948 37.3121 17.4744 36.7934C19.6865 35.9038 20.318 34.9238 20.1643 32.6866C20.037 30.7999 19.7857 28.9148 20.2122 27.0328C21.0637 23.261 23.6841 20.8337 27.0932 19.0202C30.1451 17.4 33.4963 16.568 36.8475 15.7485C40.5211 14.8595 44.1925 13.9637 47.8617 13.0611C48.1725 12.9847 48.4751 12.8835 48.7809 12.7947L48.7462 12.5766Z" fill="#0A1E45"/>
<path d="M82.3736 46.709C86.239 46.709 89.2595 49.5133 89.2314 53.0608C89.2017 56.655 86.1431 59.4484 82.2678 59.4219C78.4371 59.3954 75.4662 56.6378 75.4629 53.1029C75.4596 49.5009 78.4901 46.6966 82.3736 46.709ZM78.4173 52.9954C78.4074 55.27 80.059 56.9557 82.3141 56.9712C84.6188 56.9868 86.3018 55.3494 86.3018 53.0904C86.3018 50.8719 84.5758 49.1612 82.3339 49.1503C80.0491 49.1394 78.4272 50.7348 78.4173 52.9954Z" fill="#0A1E45"/>
<path d="M56.496 48.7558C57.3722 47.6855 58.3476 46.9906 59.6686 46.7725C62.4709 46.3051 64.8748 47.9487 65.0186 50.6253C65.1492 53.0542 65.0798 55.4939 65.06 57.929C65.06 58.7422 64.4681 59.2034 63.6133 59.1972C62.7586 59.1909 62.175 58.7126 62.1403 57.8464C62.1006 56.8119 62.1287 55.7743 62.127 54.7305C62.127 53.8238 62.1452 52.9155 62.1138 52.0103C62.0543 50.2311 61.0574 49.22 59.3942 49.2185C57.6847 49.2185 56.5042 50.3091 56.4629 52.0462C56.4183 53.936 56.4629 55.8289 56.4414 57.7202C56.4331 58.655 55.9157 59.166 55.0163 59.1863C54.1169 59.2065 53.5184 58.7189 53.5135 57.8854C53.4903 54.6469 53.4903 51.4079 53.5135 48.1684C53.5062 47.8261 53.6414 47.4948 53.8902 47.2453C54.1389 46.9957 54.4814 46.8478 54.8443 46.8333C55.2186 46.8064 55.5897 46.9139 55.8834 47.134C56.1771 47.3542 56.3717 47.6708 56.4282 48.0204C56.4646 48.2198 56.4662 48.4099 56.496 48.7558Z" fill="#0A1E45"/>
<path d="M95.5324 48.7117C96.8682 47.0697 98.5248 46.4293 100.595 46.8204C102.537 47.1881 103.941 48.6292 103.999 50.5096C104.073 52.9945 104.038 55.4826 104.025 57.9691C104.025 58.7231 103.442 59.2279 102.665 59.2482C102.479 59.2574 102.292 59.2319 102.117 59.1732C101.941 59.1145 101.78 59.0237 101.642 58.906C101.503 58.7883 101.391 58.6461 101.311 58.4875C101.232 58.3288 101.186 58.1569 101.177 57.9816C101.12 57 101.157 56.0139 101.147 55.0214C101.135 53.8826 101.182 52.739 101.084 51.6064C100.957 50.1295 100.033 49.3147 98.5529 49.2243C97.0732 49.1339 95.9523 49.9269 95.577 51.2917C95.3389 52.161 95.4712 53.0444 95.4547 53.9215C95.4315 55.1679 95.4547 56.4143 95.4464 57.6513C95.4464 58.6312 94.8347 59.2575 93.9419 59.2404C93.0872 59.2264 92.5036 58.6172 92.5003 57.6684C92.4887 54.6382 92.5003 51.6064 92.5003 48.5762C92.5003 47.4747 93.0095 46.8625 93.9171 46.8297C94.8248 46.797 95.3704 47.3735 95.4563 48.4671C95.4743 48.5506 95.4997 48.6324 95.5324 48.7117Z" fill="#0A1E45"/>
<path d="M46.5395 57.485C46.2766 57.5255 46.1989 57.7125 46.0815 57.8433C44.6944 59.4013 42.656 59.6397 40.7315 59.057C39.0154 58.5366 37.9937 56.9615 37.9788 55.0063C37.9623 52.7769 37.9689 50.5459 37.9788 48.3165C37.9788 47.3817 38.5128 46.8489 39.3891 46.8395C40.2967 46.8302 40.8869 47.3895 40.8985 48.3321C40.9167 49.9913 40.8985 51.6505 40.8985 53.3175C40.8985 53.6291 40.8985 53.9407 40.9217 54.2523C41.0374 55.9084 42.0393 56.84 43.6843 56.8322C45.3293 56.8244 46.4949 55.7978 46.5494 54.2055C46.6123 52.2877 46.5792 50.3683 46.5759 48.4411C46.5759 47.6886 46.8569 47.1075 47.6588 46.8832C48.6507 46.6043 49.5138 47.254 49.5187 48.2853C49.5319 51.423 49.5319 54.5607 49.5187 57.6985C49.5187 58.6067 48.9649 59.2034 48.1366 59.2393C47.3083 59.2751 46.7181 58.7361 46.5808 57.8371C46.5693 57.7281 46.556 57.6097 46.5395 57.485Z" fill="#0A1E45"/>
<path d="M0.114317 34.6566C-0.0760539 33.8727 -0.0279192 33.0541 0.253192 32.2948C1.66509 28.1288 4.92702 26.01 9.25035 25.0628C10.8177 24.72 12.4098 24.6904 14.0052 24.7278C16.0304 24.7746 18.0144 24.6359 19.8677 23.7681C20.043 23.6856 20.2529 23.5796 20.405 23.7229C20.5919 23.899 20.3604 24.0486 20.2662 24.1903C19.7645 24.8714 19.3598 25.6115 19.0626 26.3917C18.9055 26.8264 18.5071 26.9448 18.1533 27.1177C14.5689 28.8657 10.7433 29.9563 6.82498 30.8179C5.45772 31.1201 4.11856 31.4924 2.8753 32.1265C1.70732 32.6909 0.745626 33.5722 0.114317 34.6566Z" fill="#0A1E45"/>
<path d="M64.5048 22.834C63.9295 22.8807 63.3327 22.8511 62.7854 22.9898C61.7323 23.2609 61.023 22.7717 60.3055 22.1921C60.0988 22.027 60.1269 21.9163 60.2394 21.7434C60.4543 21.4116 60.6676 21.0797 60.8693 20.7417C61.843 19.1152 61.843 19.1105 63.8303 19.3395C65.0306 19.4766 66.2292 19.6277 67.4278 19.7742C68.7141 19.93 69.7176 21.4599 69.1968 22.5863C67.9708 25.2792 66.5098 27.8717 64.8289 30.3371C64.0832 31.4167 62.6432 31.761 61.4727 32.3624C61.2231 32.4917 61.0892 32.2284 60.9999 32.043C60.6372 31.3107 60.4976 30.4979 60.5965 29.6952C60.6725 29.1297 61.5554 28.6856 62.2911 28.8072C63.2665 28.963 63.5542 28.7464 63.5658 27.7945C63.5658 27.4066 63.7675 27.0997 63.9692 26.7943C64.6685 25.7396 65.3893 24.6988 66.0821 23.641C66.5284 22.9617 66.4326 22.8168 65.5762 22.8028C65.3844 22.8028 65.1926 22.8106 64.9992 22.8184C64.8338 22.8184 64.6685 22.8387 64.5032 22.8496L64.5048 22.834Z" fill="#0A1E45"/>
<path d="M110.028 49.5834C111.272 47.9849 112.838 46.9349 115.007 46.9473C116.54 46.9419 118.013 47.5081 119.104 48.5224C121.553 50.7378 121.749 54.8134 119.517 57.2392C118.691 58.1459 117.667 58.8111 116.422 59.0604C115.238 59.3276 113.996 59.261 112.851 58.8688C111.663 58.4403 110.813 57.6115 109.836 56.778C109.836 57.2329 109.836 57.6878 109.836 58.1428C109.836 58.5634 109.877 59.0557 109.229 59.0324C108.669 59.0121 108.659 58.5743 108.66 58.1646C108.66 56.8169 108.66 55.4693 108.66 54.1139C108.66 51.0541 108.66 47.9948 108.66 44.936C108.66 44.7288 108.66 44.5216 108.669 44.3128C108.692 43.9841 108.882 43.7629 109.234 43.7598C109.637 43.7598 109.803 43.9919 109.804 44.3674C109.804 45.7929 109.823 47.2184 109.832 48.6439C109.832 48.9213 109.832 49.1986 109.832 49.4759L110.028 49.5834ZM119.772 53.0841C119.752 50.124 117.687 48.0067 114.839 48.0239C111.99 48.041 109.775 50.2798 109.784 53.1324C109.794 55.985 112.058 58.1879 114.91 58.1848C117.788 58.1817 119.792 56.0832 119.772 53.0841Z" fill="#0A1E45"/>
<path d="M133.251 57.0713C131.163 59.4238 128.335 59.5641 126.228 58.8318C124.491 58.2258 123.634 57.009 123.669 55.4043C123.702 53.8713 124.644 52.6982 126.349 52.1326C128.397 51.4425 130.482 51.6356 132.532 52.0625C133.152 52.1903 133.28 52.0843 133.261 51.5141C133.197 49.5464 131.887 48.2627 129.73 48.1147C128.407 48.0245 127.081 48.2439 125.869 48.7534C125.479 48.9092 125.043 49.1164 124.828 48.5976C124.613 48.0788 125.071 47.9308 125.461 47.7797C127.114 47.1378 128.832 46.8636 130.623 47.1659C132.861 47.5445 134.328 49.0354 134.387 51.1729C134.455 53.555 134.409 55.9418 134.415 58.3255C134.415 58.6978 134.333 59.0344 133.873 59.0546C133.362 59.078 133.245 58.7337 133.251 58.3239C133.251 57.9563 133.251 57.6026 133.251 57.0713ZM129.945 52.72C128.487 52.6935 127.498 52.72 126.577 53.1344C125.585 53.5769 124.972 54.2842 124.934 55.3591C124.896 56.4606 125.43 57.263 126.455 57.735C128.181 58.528 129.879 58.3239 131.489 57.4375C133 56.6071 133.404 55.2703 133.294 53.7093C133.266 53.3167 133.129 53.1687 132.742 53.0861C131.653 52.8804 130.57 52.7215 129.932 52.72H129.945Z" fill="#0A1E45"/>
<path d="M158.167 53.2655C157.202 54.1567 156.286 55.0135 155.357 55.8548C155.109 56.0792 155.072 56.3362 155.077 56.6338C155.077 57.2305 155.077 57.8272 155.077 58.4223C155.077 58.7931 154.912 59.0222 154.492 59.0144C154.072 59.0066 153.912 58.7744 153.907 58.4099C153.907 58.3055 153.907 58.2027 153.907 58.0983C153.907 53.6644 153.907 49.2299 153.907 44.7949C153.897 44.6136 153.903 44.4318 153.923 44.2512C153.932 44.119 153.995 43.995 154.098 43.9055C154.202 43.816 154.338 43.7679 154.479 43.7714C154.555 43.7651 154.632 43.7748 154.704 43.7996C154.776 43.8245 154.842 43.8639 154.896 43.9152C154.95 43.9665 154.991 44.0283 155.017 44.0963C155.043 44.1643 155.053 44.2369 155.046 44.3089C155.057 44.7498 155.076 45.1891 155.076 45.63C155.076 48.3533 155.076 51.0766 155.076 53.7999V54.5664C155.469 54.5244 155.595 54.2673 155.773 54.099C157.903 52.0353 160.027 49.9668 162.145 47.8937C162.299 47.7379 162.456 47.5993 162.606 47.4481C162.881 47.1693 163.213 47.0228 163.54 47.3017C163.896 47.6055 163.684 47.9077 163.412 48.1695C162.562 48.9827 161.709 49.7929 160.864 50.6092C160.249 51.2028 159.224 51.7621 159.149 52.4133C159.067 53.1347 160.118 53.761 160.674 54.4293C161.643 55.5916 162.639 56.732 163.631 57.8771C163.906 58.1887 164.198 58.5781 163.818 58.8944C163.402 59.2418 163.025 58.9396 162.719 58.5828C161.208 56.7958 159.682 55.0276 158.167 53.2655Z" fill="#0A1E45"/>
<path d="M139.824 49.0653C141.183 47.459 142.877 46.7751 144.998 46.9838C147.41 47.2191 149.156 48.8222 149.252 51.1077C149.353 53.5148 149.29 55.928 149.3 58.3382C149.3 58.7152 149.209 59.0206 148.72 59.0128C148.187 59.0034 148.121 58.6591 148.121 58.2618C148.121 56.2656 148.121 54.2693 148.121 52.2731C148.133 51.8847 148.112 51.4961 148.059 51.1108C147.705 49.0528 146.156 47.8734 143.958 47.9669C141.712 48.0619 139.929 49.6682 139.852 51.7917C139.781 53.7594 139.83 55.7302 139.827 57.701C139.827 57.9082 139.827 58.1154 139.827 58.3242C139.827 58.695 139.733 59.0034 139.248 59.0143C138.764 59.0252 138.633 58.7495 138.63 58.3615C138.63 58.2572 138.63 58.1543 138.63 58.05V48.1725C138.63 48.0432 138.63 47.9139 138.63 47.7846C138.651 47.4419 138.772 47.1614 139.199 47.1614C139.663 47.1614 139.805 47.4559 139.817 47.8298C139.833 48.238 139.824 48.6508 139.824 49.0653Z" fill="#0A1E45"/>
<path d="M72.0171 53.0401C72.0171 54.5981 72.0171 56.1467 72.0171 57.7C72.0171 58.6675 71.5443 59.1613 70.6416 59.1956C69.7009 59.2299 69.0958 58.7282 69.0875 57.7654C69.0633 54.608 69.0633 51.4495 69.0875 48.29C69.0958 47.3879 69.7257 46.8317 70.5656 46.8379C71.4468 46.8379 72.0072 47.4269 72.0138 48.3803C72.0254 49.9336 72.0171 51.4869 72.0171 53.0401Z" fill="#0A1E45"/>
<path d="M16.2353 47.968C15.9047 48.0101 15.7145 47.7468 15.9047 47.2077C16.0865 46.6936 16.2965 46.1873 16.4767 45.6716C16.766 44.8381 17.2372 44.2694 18.2953 44.3193C18.8492 44.3458 19.2162 44.0435 19.3204 43.5029C19.6345 41.8624 20.595 40.7999 22.3492 40.3668C22.8947 40.2328 23.3841 39.8994 23.9016 39.6579C24.0438 39.5909 24.1909 39.4601 24.3513 39.58C24.5117 39.7 24.3992 39.862 24.3281 39.9929C23.3362 41.8406 22.5095 43.7943 21.1869 45.4363C20.0594 46.8229 18.5136 47.8278 16.2353 47.968Z" fill="#0A1E45"/>
</svg>
