<svg width="218" height="80" viewBox="0 0 218 80" fill="none" xmlns="http://www.w3.org/2000/svg">
<path d="M64.7979 16.9729C62.5321 16.7658 60.3257 17.2711 58.1104 17.559C57.9192 17.3664 58.0885 17.2235 58.1676 17.1013C63.5474 8.80305 70.9799 3.14938 81.2782 1.20684C84.9045 0.51093 88.6285 0.389151 92.2973 0.846494C93.7741 1.03495 95.1103 0.523427 96.5102 0.328758C97.8485 0.142374 98.1123 0.32876 97.4398 1.4305C96.1212 3.59257 96.9167 5.70493 97.2881 7.85042C97.9387 11.585 98.6192 15.3162 99.3298 19.0439C99.4594 19.7356 99.31 20.2616 98.7804 20.7151C97.7694 21.5828 96.9014 22.6804 95.207 22.1524C94.1081 21.8127 93.2642 21.3944 93.2291 20.158C93.2131 19.8816 93.1046 19.6169 92.9192 19.4021C91.4314 17.7909 89.9699 16.1487 88.1678 14.8295C87.102 14.0488 86.4888 14.1564 85.7262 15.2271C84.8626 16.4386 84.3879 17.8241 83.8319 19.1723C82.5133 22.3512 81.2166 25.5321 79.0695 28.33C78.6432 28.885 78.2234 29.1314 77.4499 29.061C74.511 28.7735 71.5533 28.696 68.6021 28.8291C68.6636 29.2122 68.9295 29.2018 69.1888 29.2329C72.092 29.5684 74.9907 29.9205 77.8938 30.2497C80.1815 30.5107 81.6298 32.7721 80.698 34.7375C78.8564 38.527 76.7948 42.2182 74.5226 45.7942C74.235 46.2764 73.8123 46.6747 73.3007 46.9457C72.0876 47.5808 70.881 48.2283 69.6811 48.8882C69.202 49.1512 68.8878 49.0953 68.646 48.5941C68.0881 47.4619 67.8787 46.2048 68.0417 44.9659C68.1493 44.1561 69.5646 43.5162 70.6107 43.7336C71.9095 44.0091 72.5029 43.5514 72.448 42.284C72.4216 41.6875 72.7271 41.2216 73.0326 40.7577C74.0764 39.1796 75.1489 37.6182 76.195 36.0401C76.4148 35.7025 76.8279 35.338 76.5444 34.9259C76.2609 34.5138 75.7423 34.6381 75.3181 34.6733C73.3644 34.8348 71.4568 34.9715 69.6042 35.8144C66.4571 37.2433 63.0112 37.8252 59.5631 38.2746C55.0842 38.8566 50.5329 38.8027 46.0211 39.6622C46.1661 37.7362 46.3551 35.8806 46.0079 33.8242C45.4783 34.4289 45.4431 34.9425 45.3816 35.4333C44.6234 41.5861 41.0148 46.0407 35.8723 49.5654C32.746 51.6849 29.2069 53.2028 25.4576 54.0324C22.8358 54.6351 20.9634 55.9957 19.6667 58.2302C18.1921 60.7713 17.0471 63.4718 15.5197 65.9756C13.922 68.5974 11.4673 70.2748 8.22571 70.7512C6.57306 70.9935 6.30934 70.6766 6.79503 69.1648C6.99721 68.5435 7.25434 67.9223 7.48729 67.3134C8.01473 65.9093 8.68941 64.7247 10.6409 64.9525C11.3772 65.0395 11.7749 64.5383 12.0343 63.8777C13.5309 60.0672 15.0868 56.2794 16.5702 52.4647C16.6747 52.1386 16.8599 51.8405 17.1105 51.5949C17.3612 51.3494 17.6701 51.1634 18.0119 51.0524C19.77 50.4311 21.5282 49.8533 23.2291 49.1637C26.1696 47.9811 27.0091 46.6785 26.8047 43.7047C26.6355 41.1967 26.3015 38.6909 26.8685 36.1892C28.0003 31.1755 31.4836 27.9489 36.0151 25.5383C40.072 23.3846 44.5267 22.2787 48.9813 21.1894C53.8645 20.0075 58.7448 18.8167 63.6222 17.617C64.0353 17.5155 64.4375 17.3809 64.8441 17.2629L64.7979 16.9729Z" fill="black"/>
<path d="M109.498 62.3438C114.636 62.3438 118.651 66.0715 118.614 70.787C118.574 75.5647 114.508 79.2779 109.357 79.2427C104.265 79.2075 100.316 75.5419 100.312 70.8429C100.307 66.0549 104.335 62.3272 109.498 62.3438ZM104.239 70.7001C104.226 73.7236 106.421 75.9644 109.419 75.9851C112.482 76.0058 114.719 73.8292 114.719 70.8264C114.719 67.8774 112.425 65.6035 109.445 65.589C106.408 65.5745 104.252 67.6951 104.239 70.7001Z" fill="black"/>
<path d="M75.1 65.0657C76.2647 63.643 77.5613 62.7193 79.3173 62.4294C83.0423 61.8081 86.2377 63.993 86.4289 67.5509C86.6025 70.7795 86.5102 74.0225 86.4838 77.2594C86.4838 78.3405 85.6971 78.9535 84.5609 78.9452C83.4247 78.9369 82.6489 78.3011 82.6028 77.1497C82.55 75.7746 82.5874 74.3953 82.5852 73.0078C82.5852 71.8025 82.6094 70.5951 82.5676 69.3919C82.4885 67.0269 81.1633 65.6829 78.9525 65.6808C76.6801 65.6808 75.1109 67.1305 75.056 69.4396C74.9967 71.9516 75.056 74.4678 75.0274 76.9819C75.0164 78.2245 74.3286 78.9038 73.1331 78.9307C71.9375 78.9576 71.142 78.3094 71.1354 77.2015C71.1046 72.8967 71.1046 68.5912 71.1354 64.285C71.1258 63.83 71.3055 63.3895 71.6361 63.0578C71.9667 62.7261 72.422 62.5296 72.9045 62.5102C73.4019 62.4745 73.8953 62.6173 74.2857 62.91C74.6761 63.2026 74.9348 63.6235 75.0099 64.0882C75.0582 64.3533 75.0604 64.606 75.1 65.0657Z" fill="black"/>
<path d="M126.988 65.006C128.763 62.8232 130.965 61.972 133.717 62.4918C136.299 62.9806 138.165 64.8962 138.242 67.3958C138.341 70.699 138.295 74.0063 138.277 77.3115C138.277 78.3138 137.501 78.9848 136.468 79.0117C136.221 79.024 135.974 78.9902 135.74 78.9121C135.507 78.8341 135.292 78.7134 135.108 78.5569C134.925 78.4005 134.775 78.2114 134.669 78.0006C134.563 77.7897 134.502 77.5611 134.49 77.3281C134.416 76.0234 134.464 74.7125 134.451 73.3933C134.435 71.8794 134.497 70.3594 134.367 68.8538C134.198 66.8905 132.97 65.8074 131.003 65.6873C129.036 65.5672 127.546 66.6213 127.047 68.4354C126.73 69.591 126.906 70.7653 126.884 71.9312C126.853 73.5879 126.884 75.2447 126.873 76.889C126.873 78.1917 126.06 79.0242 124.873 79.0014C123.737 78.9828 122.961 78.173 122.957 76.9118C122.942 72.8838 122.957 68.8538 122.957 64.8258C122.957 63.3616 123.634 62.5477 124.84 62.5043C126.047 62.4608 126.772 63.227 126.886 64.6808C126.91 64.7917 126.944 64.9005 126.988 65.006Z" fill="black"/>
<path d="M61.8626 76.6691C61.5132 76.723 61.4099 76.9715 61.2539 77.1455C59.41 79.2164 56.7003 79.5332 54.1422 78.7587C51.861 78.067 50.5029 75.9733 50.4831 73.3743C50.4611 70.4107 50.4699 67.4452 50.4831 64.4816C50.4831 63.2391 51.193 62.5308 52.3577 62.5184C53.5642 62.506 54.3488 63.2494 54.3642 64.5023C54.3884 66.7079 54.3642 68.9135 54.3642 71.1294C54.3642 71.5436 54.3642 71.9577 54.395 72.3719C54.5488 74.5733 55.8806 75.8118 58.0672 75.8014C60.2539 75.7911 61.8033 74.4263 61.8758 72.3098C61.9593 69.7605 61.9154 67.2091 61.911 64.6473C61.911 63.6471 62.2846 62.8746 63.3504 62.5764C64.669 62.2057 65.8162 63.0693 65.8228 64.4402C65.8404 68.6111 65.8404 72.782 65.8228 76.9529C65.8228 78.1602 65.0866 78.9534 63.9855 79.001C62.8845 79.0487 62.1 78.3321 61.9175 77.1372C61.9022 76.9922 61.8846 76.8348 61.8626 76.6691Z" fill="black"/>
<path d="M0.151958 46.323C-0.101096 45.281 -0.0371122 44.1928 0.336562 43.1835C2.21336 37.6458 6.54935 34.8293 12.2962 33.5702C14.3796 33.1146 16.496 33.0752 18.6167 33.1249C21.3088 33.187 23.946 33.0027 26.4096 31.8492C26.6426 31.7395 26.9217 31.5986 27.1239 31.7892C27.3722 32.0232 27.0645 32.222 26.9393 32.4104C26.2724 33.3157 25.7345 34.2995 25.3394 35.3367C25.1306 35.9145 24.6009 36.0719 24.1306 36.3017C19.3661 38.6253 14.2807 40.075 9.07227 41.2202C7.2548 41.622 5.47469 42.117 3.82205 42.9598C2.26949 43.7101 0.991141 44.8815 0.151958 46.323Z" fill="black"/>
<path d="M85.7436 30.6078C84.9789 30.6699 84.1855 30.6306 83.4581 30.8149C82.0582 31.1752 81.1154 30.5249 80.1616 29.7545C79.8869 29.535 79.9242 29.388 80.0737 29.1581C80.3594 28.717 80.6429 28.2759 80.911 27.8265C82.2054 25.6644 82.2054 25.6582 84.847 25.9626C86.4425 26.1449 88.0358 26.3458 89.6291 26.5404C91.3389 26.7475 92.6729 28.7812 91.9806 30.2785C90.3509 33.8582 88.4088 37.3043 86.1744 40.5814C85.1832 42.0166 83.2691 42.4743 81.7131 43.2737C81.3813 43.4455 81.2033 43.0956 81.0846 42.8491C80.6026 41.8757 80.4169 40.7952 80.5484 39.7282C80.6495 38.9765 81.823 38.3862 82.801 38.5478C84.0976 38.7549 84.48 38.467 84.4954 37.2017C84.4954 36.686 84.7635 36.278 85.0316 35.8721C85.9612 34.4701 86.9194 33.0867 87.8402 31.6805C88.4336 30.7776 88.3061 30.585 87.1677 30.5664C86.9128 30.5664 86.6579 30.5767 86.4008 30.5871C86.181 30.5871 85.9612 30.614 85.7415 30.6285L85.7436 30.6078Z" fill="black"/>
<path d="M146.258 66.165C147.913 64.0402 149.994 62.6444 152.877 62.661C154.915 62.6537 156.873 63.4064 158.323 64.7547C161.578 67.6996 161.839 73.1172 158.873 76.3416C157.774 77.5469 156.413 78.4312 154.759 78.7625C153.184 79.1177 151.533 79.0291 150.012 78.5078C148.432 77.9383 147.302 76.8366 146.003 75.7286C146.003 76.3333 146.003 76.938 146.003 77.5428C146.003 78.1019 146.058 78.7563 145.197 78.7253C144.452 78.6983 144.438 78.1164 144.441 77.5718C144.441 75.7804 144.441 73.989 144.441 72.1873C144.441 68.12 144.441 64.0533 144.441 59.9874C144.441 59.712 144.441 59.4365 144.452 59.159C144.482 58.722 144.735 58.428 145.203 58.4238C145.739 58.4238 145.959 58.7324 145.961 59.2315C145.961 61.1264 145.986 63.0213 145.999 64.9162C145.999 65.2849 145.999 65.6535 145.999 66.0221L146.258 66.165ZM159.211 70.8184C159.185 66.8836 156.44 64.0692 152.653 64.092C148.867 64.1148 145.922 67.0907 145.935 70.8826C145.948 74.6745 148.957 77.6028 152.748 77.5987C156.574 77.5945 159.237 74.805 159.211 70.8184Z" fill="black"/>
<path d="M177.127 76.1176C174.351 79.2447 170.591 79.4311 167.791 78.4577C165.481 77.6521 164.343 76.0347 164.389 73.9016C164.433 71.8638 165.686 70.3044 167.951 69.5527C170.674 68.6352 173.446 68.892 176.171 69.4595C176.995 69.6293 177.164 69.4885 177.14 68.7305C177.054 66.1149 175.314 64.4084 172.446 64.2117C170.687 64.0918 168.924 64.3835 167.314 65.0608C166.795 65.2679 166.215 65.5433 165.93 64.8537C165.644 64.1641 166.253 63.9673 166.771 63.7664C168.969 62.9132 171.252 62.5487 173.632 62.9505C176.608 63.4537 178.557 65.4356 178.636 68.277C178.727 71.4434 178.665 74.6161 178.674 77.7847C178.674 78.2796 178.564 78.7269 177.953 78.7539C177.274 78.7849 177.118 78.3272 177.127 77.7826C177.127 77.2938 177.127 76.8237 177.127 76.1176ZM172.731 70.3334C170.793 70.2982 169.479 70.3334 168.255 70.8843C166.936 71.4724 166.121 72.4126 166.07 73.8416C166.02 75.3057 166.73 76.3723 168.092 76.9998C170.386 78.0539 172.643 77.7826 174.784 76.6042C176.793 75.5004 177.329 73.7235 177.184 71.6485C177.146 71.1266 176.964 70.9298 176.45 70.8201C175.002 70.5467 173.562 70.3355 172.714 70.3334H172.731Z" fill="black"/>
<path d="M210.247 71.0603C208.964 72.2449 207.746 73.3839 206.511 74.5022C206.182 74.8004 206.133 75.1421 206.14 75.5376C206.14 76.3308 206.14 77.124 206.14 77.9151C206.14 78.408 205.92 78.7124 205.362 78.7021C204.804 78.6917 204.591 78.3831 204.584 77.8985C204.584 77.7598 204.584 77.6231 204.584 77.4843C204.584 71.5904 204.584 65.6958 204.584 59.8006C204.572 59.5595 204.579 59.3178 204.606 59.0778C204.617 58.902 204.701 58.7373 204.838 58.6183C204.976 58.4993 205.158 58.4353 205.344 58.4399C205.446 58.4317 205.548 58.4445 205.644 58.4775C205.74 58.5106 205.827 58.563 205.899 58.6311C205.97 58.6993 206.026 58.7815 206.06 58.8719C206.095 58.9623 206.108 59.0587 206.098 59.1544C206.114 59.7405 206.138 60.3245 206.138 60.9106C206.138 64.5306 206.138 68.1506 206.138 71.7706V72.7895C206.661 72.7336 206.828 72.3919 207.065 72.1682C209.896 69.4249 212.719 66.6754 215.535 63.9197C215.739 63.7126 215.948 63.5283 216.148 63.3274C216.513 62.9567 216.955 62.762 217.39 63.1327C217.862 63.5365 217.581 63.9383 217.218 64.2862C216.089 65.3673 214.955 66.4441 213.832 67.5293C213.014 68.3183 211.652 69.0618 211.553 69.9275C211.443 70.8863 212.841 71.7188 213.579 72.6073C214.867 74.1522 216.192 75.6681 217.511 77.1903C217.876 77.6045 218.265 78.1222 217.759 78.5426C217.205 79.0044 216.704 78.6026 216.298 78.1284C214.289 75.753 212.26 73.4025 210.247 71.0603Z" fill="black"/>
<path d="M185.864 65.4755C187.671 63.3404 189.923 62.4313 192.743 62.7088C195.949 63.0215 198.27 65.1525 198.397 68.1905C198.531 71.3902 198.448 74.598 198.461 77.8018C198.461 78.303 198.34 78.7089 197.69 78.6985C196.982 78.6861 196.894 78.2284 196.894 77.7003C196.894 75.0467 196.894 72.3932 196.894 69.7396C196.909 69.2234 196.881 68.7068 196.811 68.1947C196.34 65.459 194.281 63.8913 191.36 64.0155C188.374 64.1419 186.005 66.277 185.901 69.0997C185.807 71.7153 185.873 74.335 185.868 76.9548C185.868 77.2302 185.868 77.5056 185.868 77.7832C185.868 78.276 185.743 78.6861 185.099 78.7006C184.455 78.7151 184.282 78.3485 184.277 77.8329C184.277 77.6941 184.277 77.5574 184.277 77.4187V64.2889C184.277 64.117 184.277 63.9451 184.277 63.7732C184.306 63.3176 184.466 62.9448 185.033 62.9448C185.651 62.9448 185.84 63.3363 185.855 63.8333C185.877 64.3759 185.864 64.9247 185.864 65.4755Z" fill="black"/>
<path d="M95.7319 70.7601C95.7319 72.8311 95.7319 74.8896 95.7319 76.9543C95.7319 78.2404 95.1034 78.8969 93.9035 78.9424C92.653 78.988 91.8486 78.3211 91.8377 77.0413C91.8054 72.8442 91.8054 68.6457 91.8377 64.4458C91.8486 63.2467 92.6859 62.5074 93.8024 62.5157C94.9737 62.5157 95.7187 63.2985 95.7275 64.5659C95.7429 66.6307 95.7319 68.6954 95.7319 70.7601Z" fill="black"/>
<path d="M21.582 64.0175C21.1424 64.0734 20.8897 63.7234 21.1424 63.0069C21.3842 62.3235 21.6633 61.6504 21.9028 60.9649C22.2874 59.857 22.9138 59.1011 24.3203 59.1674C25.0565 59.2026 25.5444 58.8008 25.6828 58.0822C26.1004 55.9015 27.3772 54.4891 29.7089 53.9134C30.4342 53.7353 31.0847 53.2921 31.7725 52.9711C31.9615 52.882 32.1571 52.7081 32.3703 52.8676C32.5835 53.027 32.434 53.2424 32.3395 53.4163C31.0209 55.8725 29.9221 58.4694 28.164 60.6522C26.6652 62.4954 24.6104 63.8311 21.582 64.0175Z" fill="black"/>
</svg>
