<svg width="71" height="74" viewBox="0 0 71 74" fill="none" xmlns="http://www.w3.org/2000/svg">
<g clip-path="url(#clip0_7235_5926)">
<mask id="mask0_7235_5926" style="mask-type:luminance" maskUnits="userSpaceOnUse" x="0" y="0" width="71" height="74">
<path d="M0.421875 0H70.5777V74H0.421875V0Z" fill="white"/>
</mask>
<g mask="url(#mask0_7235_5926)">
<path fill-rule="evenodd" clip-rule="evenodd" d="M7.53397 20.3927L7.65662 19.9043L7.77927 19.2937L13.1759 0L70.5761 0.122112L7.16602 51.5314L36.1114 16.7294H14.4024L13.1759 16.8515C10.6002 16.9736 8.26987 18.5611 7.53397 20.3927Z" fill="#0A1E45"/>
<path fill-rule="evenodd" clip-rule="evenodd" d="M67.5108 35.2923C67.5108 35.0481 65.671 46.1603 62.6048 57.6389L2.62891 58.0052L67.3881 5.86328L38.3201 40.9095H60.1518L61.3783 40.7874C63.9539 40.6653 66.6522 37.124 67.5108 35.2923Z" fill="#0A1E45"/>
<path fill-rule="evenodd" clip-rule="evenodd" d="M10.6018 73.9983H0.421875L7.41293 64.4736H2.75223L3.12018 61.7871H12.8095L5.81848 71.3119H10.9698L10.6018 73.9983ZM12.5642 73.9983L14.1587 61.7871H21.1497L20.7818 64.4736H16.857L16.6117 66.5495H20.2912L20.0459 69.236H16.2437L15.9984 71.3119H19.9232L19.5553 73.9983H12.5642ZM21.6403 73.9983L23.2348 61.7871H26.301L29.8579 68.1369L30.1032 68.8696L30.5938 70.2129C30.601 69.4381 30.642 68.664 30.7164 67.8927L31.4523 61.7871H34.5186L32.9241 73.9983H29.9805L26.4237 67.7706L26.0557 66.9158L25.5651 65.5726C25.5588 66.388 25.5179 67.2028 25.4425 68.0148L24.7066 73.9983H21.6403ZM35.4998 73.9983L37.0942 61.7871H40.2831L38.6887 73.9983H35.4998ZM42.8588 73.9983L44.0853 64.7178H41.5096L41.8776 61.7871H50.2178L49.8498 64.7178H47.2742L46.0477 73.9983H42.8588ZM50.0951 73.9983L51.6896 61.7871H54.8785L54.2653 66.5495H58.4354L59.0486 61.7871H62.2375L60.6431 73.9983H57.4542L58.0674 68.9917H53.8973L53.2841 73.9983H50.0951Z" fill="#0A1E45"/>
</g>
</g>
<defs>
<clipPath id="clip0_7235_5926">
<rect width="70.1558" height="74" fill="white" transform="translate(0.421875)"/>
</clipPath>
</defs>
</svg>
