<svg width="92" height="96" viewBox="0 0 92 96" fill="none" xmlns="http://www.w3.org/2000/svg">
<g clip-path="url(#clip0_5809_33145)">
<mask id="mask0_5809_33145" style="mask-type:luminance" maskUnits="userSpaceOnUse" x="0" y="0" width="92" height="96">
<path d="M0 0H91.013V96H0V0Z" fill="white"/>
</mask>
<g mask="url(#mask0_5809_33145)">
<path fill-rule="evenodd" clip-rule="evenodd" d="M9.22832 26.4554L9.38743 25.8218L9.54654 25.0297L16.5475 0L91.0127 0.158416L8.75098 66.8515L46.3018 21.703H18.1387L16.5475 21.8614C13.2062 22.0198 10.183 24.0792 9.22832 26.4554Z" fill="#0A1E45"/>
<path fill-rule="evenodd" clip-rule="evenodd" d="M87.0354 45.7817C87.0354 45.4649 84.6487 59.8807 80.6708 74.7718L2.86426 75.2471L86.8762 7.60352L49.1663 53.0689H77.4885L79.0797 52.9104C82.4211 52.752 85.9216 48.158 87.0354 45.7817Z" fill="#0A1E45"/>
<path fill-rule="evenodd" clip-rule="evenodd" d="M13.2064 95.9998H0L9.06948 83.6434H3.02316L3.5005 80.1582H16.0705L7.001 92.5146H13.6838L13.2064 95.9998ZM15.7522 95.9998L17.8207 80.1582H26.8902L26.4129 83.6434H21.3212L21.003 86.3364H25.7764L25.4582 89.8216H20.5257L20.2074 92.5146H25.2991L24.8217 95.9998H15.7522ZM27.5267 95.9998L29.5951 80.1582H33.573L38.1873 88.3958L38.5055 89.3463L39.1419 91.0889C39.1514 90.0838 39.2044 89.0795 39.3011 88.079L40.2557 80.1582H44.2336L42.1651 95.9998H38.3464L33.7321 87.9206L33.2547 86.8117L32.6183 85.0691C32.6101 86.127 32.557 87.184 32.4592 88.2374L31.5045 95.9998H27.5267ZM45.5065 95.9998L47.575 80.1582H51.7119L49.6434 95.9998H45.5065ZM55.0533 95.9998L56.6444 83.9602H53.3031L53.7804 80.1582H64.6001L64.1228 83.9602H60.7814L59.1903 95.9998H55.0533ZM64.441 95.9998L66.5095 80.1582H70.6464L69.8509 86.3364H75.2607L76.0563 80.1582H80.1933L78.1248 95.9998H73.9878L74.7834 89.5047H69.3735L68.578 95.9998H64.441Z" fill="#0A1E45"/>
</g>
</g>
<defs>
<clipPath id="clip0_5809_33145">
<rect width="91.013" height="96" fill="white"/>
</clipPath>
</defs>
</svg>
