<svg width="181" height="90" viewBox="0 0 181 90" fill="none" xmlns="http://www.w3.org/2000/svg">
<rect width="181" height="90" fill="#F2F4F8"/>
<g clip-path="url(#clip0_8973_58504)">
<mask id="mask0_8973_58504" style="mask-type:luminance" maskUnits="userSpaceOnUse" x="68" y="21" width="44" height="48">
<path d="M68 21.998H112V68.409H68V21.998Z" fill="white"/>
</mask>
<g mask="url(#mask0_8973_58504)">
<path fill-rule="evenodd" clip-rule="evenodd" d="M72.4603 34.7879L72.5372 34.4815L72.6141 34.0986L75.9987 21.998L111.999 22.0746L72.2295 54.3172L90.3833 32.4903H76.768L75.9987 32.5669C74.3833 32.6435 72.9218 33.6391 72.4603 34.7879Z" fill="#0A1E45"/>
<path fill-rule="evenodd" clip-rule="evenodd" d="M110.076 44.1329C110.076 43.9798 108.922 50.9491 106.999 58.1481L69.3838 58.3779L109.999 25.6758L91.7684 47.6559H105.461L106.23 47.5793C107.845 47.5027 109.538 45.2817 110.076 44.1329Z" fill="#0A1E45"/>
<path fill-rule="evenodd" clip-rule="evenodd" d="M74.3846 68.473H68L72.3846 62.4993H69.4615L69.6923 60.8145H75.7692L71.3846 66.7881H74.6154L74.3846 68.473ZM75.6154 68.473L76.6154 60.8145H81L80.7692 62.4993H78.3077L78.1538 63.8013H80.4615L80.3077 65.4862H77.9231L77.7692 66.7881H80.2308L80 68.473H75.6154ZM81.3077 68.473L82.3077 60.8145H84.2308L86.4615 64.7969L86.6154 65.2564L86.9231 66.0989C86.9276 65.6129 86.9533 65.1275 87 64.6437L87.4615 60.8145H89.3846L88.3846 68.473H86.5385L84.3077 64.5672L84.0769 64.0311L83.7692 63.1886C83.7653 63.7 83.7396 64.2111 83.6923 64.7203L83.2308 68.473H81.3077ZM90 68.473L91 60.8145H93L92 68.473H90ZM94.6154 68.473L95.3846 62.6525H93.7692L94 60.8145H99.2308L99 62.6525H97.3846L96.6154 68.473H94.6154ZM99.1538 68.473L100.154 60.8145H102.154L101.769 63.8013H104.385L104.769 60.8145H106.769L105.769 68.473H103.769L104.154 65.333H101.538L101.154 68.473H99.1538Z" fill="#0A1E45"/>
</g>
</g>
<defs>
<clipPath id="clip0_8973_58504">
<rect width="44" height="46.411" fill="white" transform="translate(68 22)"/>
</clipPath>
</defs>
</svg>

